<svg xmlns="http://www.w3.org/2000/svg" width="80" height="80" viewBox="0 0 80 80"><path d="M39.792 72.797l8.688-4.456c9.362-.201 15.264-5.458 15.264-5.458 6.652-5.299 3.976-15.379 3.976-15.379l2.485-1.993c-4.597-2.081-1.435-5.652-1.435-5.652-7.102-1.312-5.036-8.468-5.036-8.468 1.602-6.617 5.559-11.407 5.559-11.407l-2.2-2.898c-9.351 2.339-14.214-3.328-14.214-3.328H48.22s-2.403 2.051-8.428 2.079c-5.335.024-8.581-2.079-8.581-2.079h-4.603s-4.837 5.621-14.199 3.328l-2.185 2.898s3.933 4.499 5.618 11.552c0 0 2.106 6.692-4.993 8.323 0 0 3.433 2.595-1.404 5.652l2.497 1.993s-2.668 10.855 4.056 15.522c0 0 5.93 5.351 15.291 5.504l8.503 4.267z"/><g fill-rule="evenodd" clip-rule="evenodd"><path fill="#F2F2F2" d="M39.667 16.424c-5.149.082-8.768-2.023-8.768-2.023H26.69s-4.967 5.499-13.969 3.374l-1.639 2.187s4.197 5.35 5.596 11.935c0 0 1.456 6.41-4.826 8.32 0 0 1.881 2.452-.638 4.693h28.453V16.424zM68.177 44.908h-28.51v26.993l8.49-4.175c8.813-.194 14.619-5.048 14.619-5.048 6.891-5.194 4.118-15.411 4.118-15.411l2.274-1.687c-.565-.243-.9-.564-.991-.672z"/><path fill="gray" d="M68.177 44.908c-2.141-2.018-.418-4.693-.418-4.693-6.81-1.666-4.741-8.949-4.741-8.949 1.464-6.532 5.297-11.244 5.297-11.244l-1.696-2.202c-9.164 1.988-14.197-3.42-14.197-3.42h-4.138s-2.864 2.032-8.557 2.024l-.061-.001v28.484h28.511zM11.214 44.908c-.232.207-.5.412-.811.612l2.228 1.747s-2.645 10.884 3.82 15.184c0 0 6.206 5.314 15.021 5.464l8.195 3.986V44.908H11.214z"/></g><path d="M38.074 30.904c-.772-.23-.91-.3-2.414-1.268-1.504-.967-1.531-1.577-2.287-1.647-.756-.071-1.785.347-2.548.32s-1.812-.128-1.812-.128-.546-.57-1.139-.856c-.593-.287-1.275-.72-1.275-.72s-.494-.319-.682-.599c-.189-.28-.55-.548-.55-.548s.137.07.384.002c.245-.067.288-.194.288-.194l1.911 1.602s-.877-1.223-.594-1.257c.151-.018.208.144.344.036-.394.311.935.411.938.443-.042-.522.412-.945-.438-2.511-.851-1.565-1.248-2.422-1.248-2.422l4.597-3.441-5.772 2.421s-.625-1.122-.968-1.116c-.342.005-.633 1.385-.633 1.385s-2.442 1.619-2.565 3.859.575 3.445 1.266 5.823c.692 2.378-1.546 5.63-3.867 6.64-2.32 1.011-.925.437-1.725.627-.799.19-1.534.773-1.891 2.029-.356 1.256-.276 1.807-.276 1.807l.339-.117s-.06.885.056 1.6c.116.716.762 1.46.762 1.46l.049-.169s.127.134.268.316c.141.183.464.285.464.285s.001-.134.012-.199c.01-.065.133.227.691.464.559.234.879.359.879.359l.993 1.48s1.22 1.654 1.032 2.404c-.188.748-.262.937-.262.937l2.011.611s.04-.373-.367-1.007c-.407-.632-.466-.667-.466-.667s-.36-1.05-.798-1.623c-.439-.57-.729-1.788-.729-1.788s.808-.369 1.13-.132c.306.227.973-.338.973-.338s.867.047 1.054.595c.187.55.86.471.404.007-.457-.463-1.384-1.818-1.384-1.818l.015-.222-.725-.132 1.238-1.298s1.594.94 1.826 1.988c.232 1.051-.521 2.257-.646 2.884-.125.627 1.061 1.066 1.061 1.066s.88.741 1.101 1.341c.222.601.033.835.033.835l1.904.346s-.062-.525-.563-.976c-.502-.449-1.087-1.294-1.087-1.294s-1.164-1.085-1.069-2.052c.096-.97 1.856-2.978 1.51-3.465-.346-.488-1.46-2.394-1.46-2.394s-.961-1.54-.406-2.447c.555-.906 2.908-.433 4.099-2.747 1.192-2.313 1.208-3.318 1.477-3.784.269-.467 1.802-1.486 2.143-1.357.341.129.937 1.044.844 1.475-.092.431-.554 1.422-1.254 1.652-.698.232-1.281.529-1.281.529l.602 1.654s.484-.091.767-.51c.282-.419-.162-.567.793-1.58.956-1.013 1.651-1.088 1.684-1.418.033-.33-.266-.586-.63-1.481-.364-.895-.191-.907-.191-.907s.62.247 1.464.691c.843.444 1.516.633 1.681 1.313s-.167.753-.167.753l1.788.28c-.004.005.067-1.46-.706-1.69zM18.185 41.213c-.131-.139-.321-.124-.321-.124l.06-.102s-.359-.674-.399-.812c-.034-.12-.085-.643-.085-.643l.127.001s-.013-1.044.042-1.157c.129-.268.857-.157.857-.157s-.189 1.018.203 1.738c.394.722.964 2.303.964 2.303s-1.067-.642-1.448-1.047z"/><path fill="#CCC" stroke="#000" stroke-width=".062" d="M24.596 38.244s-.102 1.392.634 2.49c.736 1.095.955 1.449 1.088 2.189.134.741-1.059 2.674-1.136 3.397-.077.726.682 1.558 1.038 1.98.357.424.785 1.062.785 1.062s.452.238.707.754c.256.518.149.385.149.385l-1.052-.212s-.527-1.328-1.128-1.817c-.602-.49-1.014-.834-1.146-1.328-.132-.494.484-1.904.56-2.875.075-.974-2.221-2.309-2.221-2.309s.412-.304.649-1.224c.237-.92.174-.932.327-1.464.152-.532.746-1.028.746-1.028z"/><path fill="#CCC" stroke="#000" stroke-width=".062" d="M26.791 21.308s.877 1.355 1.649 2.616c.916 1.496.833 1.37.877 2.004-.002-.037-.593.858-.593.858s-.143-.352-.207-.397c-.253-.183-.588-.563-.645-.515-.088.075-.04-.013-.155.027-.293.101.452.433.491.705.035.244.309.17.284.203-.116.149-.464.285-.464.285l-.361-.487-1.213-1.301s-.461.05-.792-.021c-.659-.142-.529.239-.529.239s.206-.343.722.534c.516.878.489.783.489.783s.787.143 1.5.474c.713.332 1.193.911 1.193.911s1.177.102 2.117.094c.939-.008 1.622-.265 2.128-.105.507.159 2.401 1.601 3.553 2.124 1.15.522 1.118.584 1.392 1.126.273.543.067.886.067.886l-1.194-.152s.162-1.086-.313-1.333c-.864-.448-1.519-.746-1.519-.746l-1.371-.679s-.003-.69-.859-.801c-.638-.139-1.147-.02-1.924.035-.777.056-1.998-.185-1.998-.185l1.945.382s1.753-.125 2.263-.041c.303.049.737 1.544.821 1.755.242.604.52.856.476 1.251-.044.395-.914.751-1.268 1.09-.355.338-.812 1.174-.812 1.174s-.168.372-.422.617c-.391.377-.401.106-.401.106l-.415-1.106s.613-.201 1.188-.612c.75-.536.894-.89 1.066-1.553.173-.663-.925-1.758-.925-1.758-.235-.065-1.682.825-2.094 1.511-.206.343-.511 1.452-1.008 2.459-.497 1.006-.486 1.49-1.444 2.256-.958.766-3.324 1.276-3.902 1.551-.579.276-.865 2.53-1.108 3.359-.244.828-1.127 1.921-1.822 2.511s-1.229 1.636-1.229 1.636.579-.672.78-.918c.201-.248.739-.664.739-.664l.679.146-.056.213.456.598 1.046 1.288s-.111.672-.424-.145c-.222-.58-1.11-.896-1.11-.896s-.532.658-.918.527c-1.01-.341-1.127.243-1.127.243s.075.707.389 1.391.453.62.622 1.009l.45 1.023s.332.44.588.957c.256.517.196.617.196.617l-1.823-.577s.231-.495.279-1.047c.048-.552-.42-1.33-.921-2.429-.781-1.082-.801-1.221-.788-1.821.014-.603 1.06-1.511 1.116-2.238.056-.729-.349-1.116-.948-2.144-.598-1.025-.564-2.139-.564-2.139s-.403-.141-.912-.032c-.417.089-.273 1.271-.273 1.271s-.203-.077-.201.053c.01.718.156 1.125.156 1.125l.336.418-.197.033 2.001 1.438s.19.146-.016.49c-.206.343-.436.704-.774 1.202s-.203.836-.203.836l-1.532-.792-.091.162-.663-.561-.06.16s-.184-.385-.579-1.27c-.219-.488-.163-1.732-.163-1.732s-.154.146-.142-.047c.028-.424.142-1.252.53-1.919.565-.972 1.003-1.295 1.75-1.563.748-.267 2.302-.769 3.6-1.786 2.229-1.878 2.765-2.46 2.441-4.975-.324-2.514-1.731-4.083-1.664-6.594.068-2.51 2.277-3.804 2.277-3.804s.33-1.006.505-1.042c.177-.035 1.334 1.609 1.334 1.609l4.946-2.724-4.301 3.28z"/><path stroke="#000" stroke-width=".11" d="M25.799 22.082l.134-.125s.36-.042.595.26.261.945.261.945-.208-.411-.4-.733c-.191-.322-.59-.347-.59-.347z"/><path d="M59.751 42.263s.571-1.581.964-2.302c.394-.72.204-1.738.204-1.738s.728-.11.857.157c.055.112.042 1.157.042 1.157l.127-.002s-.051.523-.086.643c-.039.139-.398.811-.398.811l.06.101s-.19-.013-.32.125c-.383.407-1.45 1.048-1.45 1.048zm-19.142-9.661l1.786-.281s-.331-.074-.166-.753.838-.869 1.682-1.313c.844-.444 1.464-.692 1.464-.692s.172.014-.192.908c-.363.895-.662 1.151-.629 1.48.033.33.728.405 1.684 1.418s.512 1.161.793 1.579c.282.419.766.51.766.51l.603-1.654s-.582-.297-1.282-.528c-.698-.23-1.16-1.222-1.253-1.652-.092-.431.504-1.346.845-1.475s1.875.89 2.144 1.356c.269.466.284 1.471 1.477 3.784 1.192 2.313 3.545 1.84 4.1 2.747.554.907-.406 2.447-.406 2.447s-1.115 1.903-1.461 2.393c-.347.488 1.414 2.497 1.509 3.465.097.968-1.068 2.053-1.068 2.053s-.586.845-1.087 1.295c-.501.449-.563.976-.563.976l1.903-.347s-.187-.234.033-.834c.222-.601 1.102-1.343 1.102-1.343s1.185-.439 1.061-1.065c-.124-.627-.878-1.833-.646-2.883.231-1.051 1.827-1.989 1.827-1.989l1.237 1.297-.727.133.017.222s-.928 1.354-1.386 1.818c-.455.464.218.542.405-.007s1.053-.595 1.053-.595.667.563.974.339c.323-.238 1.129.13 1.129.13s-.289 1.218-.728 1.789c-.438.572-.799 1.623-.799 1.623s-.058.033-.465.667c-.409.634-.368 1.007-.368 1.007l2.011-.611s-.074-.188-.262-.938c-.188-.748 1.032-2.403 1.032-2.403l.993-1.479s.32-.125.878-.361c.558-.235.682-.526.692-.462.011.065.011.2.011.2s.325-.104.466-.286c.14-.183.267-.317.267-.317l.049.17s.645-.744.762-1.46c.117-.714.057-1.6.057-1.6l.339.118s.079-.552-.277-1.809c-.356-1.255-1.092-1.838-1.892-2.029-.798-.19.598.384-1.724-.626-2.319-1.012-4.559-4.263-3.867-6.641s1.389-3.584 1.266-5.824c-.122-2.24-2.564-3.858-2.564-3.858s-.291-1.38-.633-1.385c-.343-.005-.968 1.117-.968 1.117l-5.772-2.421 4.598 3.44s-.396.857-1.247 2.423c-.851 1.564-.397 1.988-.439 2.51.003-.032 1.332-.132.938-.442.138.107.193-.054.345-.036.282.034-.593 1.257-.593 1.257l1.909-1.602s.043.126.288.194c.246.067.384-.002.384-.002s-.36.267-.55.548c-.188.28-.683.599-.683.599s-.683.433-1.274.72c-.593.287-1.139.856-1.139.856s-1.049.102-1.812.128c-.765.027-1.792-.39-2.549-.32-.756.07-.782.68-2.286 1.647s-1.643 1.037-2.414 1.267-.708 1.693-.708 1.693z"/><path fill="#CCC" stroke="#000" stroke-width=".062" d="M54.789 38.247s.103 1.392-.635 2.488c-.735 1.098-.955 1.451-1.088 2.191-.135.74 1.059 2.674 1.136 3.397.077.726-.682 1.558-1.039 1.981-.355.422-.783 1.06-.783 1.06s-.451.239-.707.756c-.257.517-.15.385-.15.385l1.053-.213s.526-1.328 1.129-1.816c.602-.492 1.015-.835 1.146-1.329.131-.495-.486-1.903-.562-2.876-.074-.972 2.223-2.307 2.223-2.307s-.414-.306-.651-1.226c-.236-.92-.175-.932-.325-1.462-.153-.533-.747-1.029-.747-1.029z"/><path fill="#CCC" stroke="#000" stroke-width=".062" d="M52.595 21.31s-.878 1.354-1.649 2.616c-.916 1.497-.877 2.005-.877 2.005l.594.858s.142-.352.206-.397c.253-.183.589-.563.646-.515.088.075.039-.013.154.027.293.101-.452.434-.491.705-.034.244-.309.17-.283.203.117.149.465.284.465.284l.361-.487 1.212-1.301s.461.049.793-.022c.658-.142.53.239.53.239s-.18-.325-.723.535c-.458.727-.489.783-.489.783s-.786.143-1.5.475c-.713.331-1.192.911-1.192.911s-1.177.103-2.116.094c-.94-.008-1.622-.265-2.129-.105-.507.16-2.402 1.601-3.552 2.124-1.15.522-1.118.584-1.393 1.126-.272.542-.068.886-.068.886l1.191-.149s-.161-1.086.313-1.333c.864-.448 1.519-.746 1.519-.746l1.37-.679s.003-.69.859-.801c.638-.139 1.148-.02 1.925.036.778.055 1.998-.185 1.998-.185l-1.945.382s-1.752-.124-2.264-.041c-.303.049-.736 1.545-.821 1.755-.241.604-.52.856-.475 1.251.043.396.913.752 1.266 1.09.354.339.813 1.173.813 1.173s.169.373.421.618c.392.377.402.106.402.106l.415-1.105s-.614-.201-1.188-.612c-.749-.536-.893-.89-1.066-1.552-.174-.663.926-1.759.926-1.759.234-.064 1.682.825 2.093 1.512.206.342.512 1.452 1.009 2.458.496 1.007.485 1.49 1.442 2.256.959.766 3.324 1.277 3.903 1.552.578.275.864 2.529 1.107 3.357.243.83 1.128 1.923 1.822 2.514.695.589 1.229 1.634 1.229 1.634s-.58-.671-.78-.918c-.201-.247-.738-.664-.738-.664l-.68.146.056.213-.456.598-1.046 1.288s.112.674.424-.144c.223-.58 1.11-.896 1.11-.896s.533.657.92.526c1.01-.339 1.127.243 1.127.243s-.076.708-.389 1.392c-.313.684-.452.619-.623 1.008-.17.391-.45 1.023-.45 1.023s-.332.441-.587.957c-.257.519-.197.617-.197.617l1.824-.577s-.231-.494-.28-1.046c-.048-.551.42-1.33.922-2.429.781-1.083.801-1.221.787-1.822-.015-.603-1.059-1.51-1.115-2.237-.057-.729.35-1.115.947-2.143s.563-2.141.563-2.141.403-.14.912-.031c.417.089.273 1.271.273 1.271s.202-.077.201.052c-.01.719-.155 1.126-.155 1.126l-.337.419.198.031-2.003 1.438s-.188.146.018.49c.206.343.436.704.773 1.202s.201.837.201.837l1.533-.795.091.163.663-.56.061.16s.183-.386.579-1.271c.218-.487.162-1.73.162-1.73s.153.146.142-.049c-.027-.424-.142-1.25-.529-1.918-.566-.972-1.004-1.295-1.751-1.563-.748-.267-2.302-.768-3.6-1.786-2.229-1.879-2.766-2.46-2.441-4.974S57.419 26.509 57.35 24c-.066-2.511-2.275-3.804-2.275-3.804s-.329-1.006-.506-1.041c-.176-.035-1.334 1.608-1.334 1.608l-4.945-2.724 4.305 3.271z"/><path stroke="#000" stroke-width=".11" d="M53.586 22.085l-.134-.124s-.36-.043-.596.259c-.234.303-.261.945-.261.945s.208-.411.398-.733c.195-.321.593-.347.593-.347z"/><g fill-rule="evenodd" stroke="#000" stroke-width=".124" clip-rule="evenodd"><g fill="#0075BB"><path d="M50.68 50.725c-.569.564-1.091.985-1.566 1.264a5.196 5.196 0 0 1-2.716.739 4.421 4.421 0 0 1-1.513-.257c-.702-.254-1.321-.696-1.854-1.333-.05-.06-.094-.126-.142-.188-.789-1.04-1.189-2.391-1.189-4.069 0-.028.003-.054.003-.081l-.031-1.809c.059.038.113.077.171.114.187-1.11.558-2.04 1.122-2.778a4.525 4.525 0 0 1 1-.97 7.294 7.294 0 0 0-.439-1.013 6.008 6.008 0 0 0-2.279 1.612c-1.167 1.317-1.751 2.944-1.751 4.885l.001.056-.279-.183.122.553c.066.165.08.548.195.88.116.332.196.674.196.732 0 .031.008.048.023.051a6.508 6.508 0 0 0 1.401 2.65 5.878 5.878 0 0 0 3.032 1.834 7.467 7.467 0 0 0 1.824.219c1.241 0 2.394-.357 3.456-1.07a6.463 6.463 0 0 0 1.566-1.47l-.353-.368zM46.223 40.673c1.315 0 2.363.513 3.142 1.537.407.546.739 1.262.991 2.15h.435l-.176-4.475h-.398a.818.818 0 0 1-.333.487.94.94 0 0 1-.51.155c-.086 0-.49-.108-1.214-.322a7.421 7.421 0 0 0-3.512-.193l.092.933a4.011 4.011 0 0 1 1.483-.272z"/></g><path fill="#0075BB" d="M38.121 38.238l-.497-1.187-1.26-3.013h-.445L31.17 45.772c-.712 1.761-1.214 2.837-1.507 3.233-.292.397-.732.632-1.317.701v.432h4.514v-.432c-.534-.046-.897-.116-1.089-.211-.311-.154-.467-.435-.467-.839 0-.204.058-.477.173-.824.114-.347.469-1.302 1.062-2.867h4.1a6.434 6.434 0 0 1-.8-.753c-.061-.071-.115-.143-.171-.216h-2.729l2.602-6.585.342.854 1.1 2.748s.395.713.623.993c.396.493 1.009 1.009 1.841 1.544l1.23.797-2.556-6.109z"/><g fill="#CCC"><path d="M44.61 47.47c-.543-.72-1.47-1.509-2.768-2.364l-1.166-.757-1.23-.797a9.944 9.944 0 0 1-1.841-1.544c-.253-.263-.623-.993-.623-.993l-1.1-2.748c-.743.861-1.12 1.917-1.12 3.171 0 .926.305 1.778.905 2.56.056.073.11.145.171.216.221.254.492.503.8.753.229.187.479.373.757.557l1.821 1.192.341.223c1.244.813 2.06 1.423 2.447 1.829.38.411.637.869.773 1.372.069.258.104.529.11.811.048.063.092.129.142.188.533.637 1.152 1.079 1.854 1.333.377-.682.566-1.448.566-2.303.002-1.038-.277-1.939-.839-2.699zM42.011 53.269a3.009 3.009 0 0 1-2.095.805c-1.492 0-2.739-.619-3.744-1.855-.577-.709-1.079-1.661-1.507-2.854h-.58l.753 5.657h.556c.033-.218.101-.42.204-.61.103-.19.303-.285.599-.285.124 0 .611.155 1.464.467.853.312 1.669.467 2.452.467 1.559 0 2.835-.467 3.837-1.401.084-.078.159-.16.235-.242a5.85 5.85 0 0 1-1.712-.717 2.58 2.58 0 0 1-.462.568zM39.595 37.83c.89 0 1.789.337 2.699 1.012.482.356.89.861 1.231 1.503.163.306.31.643.439 1.013.116.327.221.675.313 1.053h.605l-.145-1.465-.092-.933-.319-3.259h-.52c-.065.286-.158.506-.278.662-.12.155-.336.233-.647.233-.115 0-.579-.149-1.39-.447-.813-.298-1.506-.447-2.083-.447-.657 0-1.25.102-1.786.297l.497 1.187a2.763 2.763 0 0 1 1.476-.409z"/></g></g><path d="M31.63 24.318c.041.439.056.807.115 1.196-.079.031-.155.055-.231.091-.076.037-.148.083-.222.125l-.138-4.121a1.256 1.256 0 0 0 .362-.172l2.835 2.845c-.142.056-.282.104-.421.17-.138.066-.265.144-.399.22-.271-.318-.518-.611-.791-.885l-1.11.531zm.87-.783l-.93-.964.057 1.38.873-.416zM37.242 19.822c.074-.004.149-.003.221-.018.071-.015.146-.047.215-.074.435 1.417.776 2.568 1.154 3.604-.146.02-.288.033-.431.063-.144.03-.27.073-.411.114-.204-.849-.463-1.652-.698-2.466a91.677 91.677 0 0 0-.668 2.725.47.47 0 0 0-.195.041c-.47-.675-1.034-1.427-1.585-2.191.062.974.122 1.74.25 2.499-.083.006-.164.006-.246.023-.083.017-.151.048-.231.076-.021-1.122-.095-2.408-.179-3.808.074-.004.144-.002.216-.017.072-.016.141-.047.21-.073.531.769 1.096 1.525 1.663 2.287.224-.844.5-1.782.715-2.785zM39.245 19.671c.131.008.262.022.394.02.13-.002.262-.022.392-.035l.07 3.771c-.13-.008-.263-.022-.393-.02-.13.003-.261.022-.392.036l-.071-3.772zM42.977 19.882c-.019.075-.042.156-.048.232-.007.077 0 .161.003.238a7.088 7.088 0 0 0-1.195-.203l-.114 1.176.542.057c.235.024.451.025.646.019-.017.076-.041.156-.048.232s0 .16.004.238a4.55 4.55 0 0 0-.637-.116l-.542-.057-.133 1.39c.531.05.889.061 1.211.05-.018.076-.041.156-.048.232-.008.077 0 .16.004.238l-1.985-.21.356-3.727 1.984.211zM44.121 20.068l.497.154c.482 1.039 1.007 2.073 1.475 3.142l.695-2.467a1.402 1.402 0 0 0 .402.125l-1.021 3.617-.426-.137c-.39-.862-.749-1.679-1.141-2.482l-.377-.771-.72 2.552c-.063-.025-.132-.059-.196-.079-.065-.02-.14-.032-.206-.047l1.018-3.607zM49.537 23.022c.033-.31-.062-.571-.327-.714-.368-.199-.611-.076-.747.202-.324.66 1.15 1.303.602 2.421-.308.626-1.039.799-1.76.408a1.605 1.605 0 0 1-.646-.615c.155-.176.308-.353.439-.548l.088.048a.755.755 0 0 0 .378.885c.289.156.629.123.794-.214.384-.782-1.142-1.249-.564-2.426.275-.562.871-.828 1.578-.445.335.181.568.474.621.632a7.88 7.88 0 0 0-.388.404l-.068-.038zM26.705 56.676c-.093-.108-.181-.222-.282-.321-.1-.101-.212-.188-.32-.28l2.623-2.892 1.529 1.53c-.062.051-.131.102-.184.16-.054.06-.1.136-.145.203a10.393 10.393 0 0 0-.873-.987l-.822.906.425.427c.156.154.332.3.52.446-.062.051-.131.102-.185.16-.053.06-.099.136-.144.202-.153-.185-.294-.367-.455-.528l-.422-.421-1.265 1.395zM30.158 59.523c-1.059-.647-1.409-1.738-.776-2.881.556-1 1.699-1.386 2.892-.655 1.365.835 1.207 2.093.779 2.876-.54.984-1.721 1.378-2.895.66zm-.062-2.248c-.363.654-.465 1.521.253 1.961.737.451 1.499-.121 1.961-.956.36-.648.486-1.569-.232-2.009-.666-.406-1.357-.123-1.982 1.004zM35.157 61.65c-1.192-.299-1.829-1.238-1.536-2.522.257-1.127 1.246-1.843 2.59-1.506 1.537.386 1.73 1.639 1.536 2.518-.246 1.104-1.269 1.842-2.59 1.51zm-.678-2.132c-.167.735-.028 1.598.782 1.8.83.209 1.401-.569 1.615-1.51.166-.731.033-1.65-.776-1.854-.748-.187-1.332.294-1.621 1.564zM40.092 62.132c-.139-.01-.279-.026-.417-.025s-.277.02-.416.03l-.019-3.58a7.23 7.23 0 0 0-1.03.089c.01-.083.027-.163.026-.251 0-.082-.018-.163-.029-.244l2.855-.018c-.011.082-.026.164-.026.245 0 .087.019.169.028.25-.326-.038-.654-.078-.993-.075l.021 3.579zM41.543 58.069l1.399-.313c.547-.122 1.117-.046 1.254.62.107.535-.259.938-.707 1.109l.012.051c.409-.049 1.023.016 1.166.722.159.786-.446 1.267-1.087 1.41l-1.252.28-.785-3.879zm1.152 1.494c.233-.051.443-.075.595-.28.139-.187.158-.424.112-.646-.082-.408-.349-.582-.707-.502a1.84 1.84 0 0 0-.272.085l.272 1.343zm.379 1.874l.271-.061c.3-.067.586-.417.49-.89-.127-.626-.501-.769-1.073-.594l.312 1.545zM46.094 59.602c.047.465.066.854.132 1.265-.082.034-.163.06-.243.1-.08.039-.155.089-.234.134l-.184-4.36a1.387 1.387 0 0 0 .382-.186l3.028 2.982c-.15.061-.299.113-.443.185-.146.071-.28.156-.421.238-.29-.334-.555-.642-.847-.929l-1.17.571zm.911-.838l-.992-1.011.074 1.461.918-.45zM50.263 58.004c.386-.302.693-.592.972-.86.038.071.074.151.12.218.048.064.111.126.166.183l-1.688 1.317-2.251-3.183c.117-.077.238-.15.35-.236.111-.087.212-.188.316-.284l2.015 2.845zM52.642 55.81c.332-.368.585-.71.815-1.026.049.065.098.137.154.193.056.057.129.103.192.152l-1.443 1.603-2.745-2.723c.104-.098.211-.191.307-.298.094-.104.177-.224.265-.336l2.455 2.435z"/><g><g fill="#CCC" stroke="#000" stroke-width=".043"><path d="M58.644 54.367l.491-.332c-.023.236-.169.64-.177.884.289 0 .675.188.828.442-.328-.025-.7 0-.841.41-.064.177.004.437.035.641 0 0-.171.098-.211.053-.044-.047-.093-.318-.105-.325-.138-.111-.26-.221-.49-.079l-.405.563c-.04-.345-.131-.721.115-1.022-.061-.056-.191-.118-.191-.118-.241-.11-.563-.249-.796-.399.224-.125.44-.19.621-.468.381-.716.342-1.564.125-2.372.402.62.687 1.466 1.001 2.122zM59.19 57.704c.353 0 .731-.531 1.052-.733l.13.167c-.36.294-1.18 1.127-1.724 1.977.113.076.325.081.469.014l-.026.491c-1.42.496-2.474 1.138-3.355 2.652l.149.166c.501-.329 1.075-.424 1.652-.424.268-.281.267-.61.219-.922.199.169.413.463.413.463.152-.345.644-.793.948-.996-.055.177-.161.436-.239.78-.024.042.376-.068.399-.009.577-.009 1.144-.087 1.695.309-.544.051-1.469.028-1.935.382.016.327.106.682.227.95-.386-.034-.779-.156-.956-.568-.296.144-.405.521-.871.642.017-.184.214-.544.094-.696-.217-.1-.602.049-.858.09-.953.271-1.762.691-2.611 1.237-.076-.149-.188-.551-.15-.661.731-.427.957-.584 1.367-.979a119.72 119.72 0 0 1 2.265-2.367c.721-.729 1.442-1.647 1.402-2.751l.171-.03.073.816z"/><path d="M62.725 58.226c.884-.346 1.344-.156 1.895.117-.657-.009-1.011.147-1.895.572-.177.244-.1.57.013.848-.425.067-.814-.116-1.087-.444-.296.444-.684.617-.948.717.313-.325.422-.788.241-1.103-.448-.008-.824.221-1.226.321.027-.133-.043-.299.055-.35.224-.119.746-.104.971-.245.12.032.266-.038.291-.147-.064-.186-.109-.536-.241-.768.62.052.569.352.801.578.23-.368.331-.673.992-.895-.001.001.025.697.138.799zM54.535 59.382c.239.108.639-.218.849-.303-.096.312-.501.862-.761.999 0 .273.13.632.17 1.031-.23-.273-.398-.433-.632-.441a2.72 2.72 0 0 0-.295 1.168h-.353c.047-.328.188-.779.1-1.04-.223-.243-.592.095-.823.146.078-.211.109-.642.271-.778-.137-.372-.326-.963-.256-1.268.17.042.455.486.728.445.198-.86.59-1.619 1.2-2.124-.3.38-.679 1.837-.198 2.165zM53.23 63.539c.17.053.301-.083.301-.083l.101.515c-.221.451-1.211.688-1.598 1.003-1.058.501-2.113.674-3.451.732-.266.177-1.208.317-1.513.494-.737.286-1.219 1.239-1.564 1.946-.299.168-1.117.776-1.341.915.029-1.137 1.341-2.409 1.893-2.925 1.183-1.02 4.749-.777 6.291-1.988.38-.21.871-1.473.941-1.83l.23-.115c.141-.02-.11.841-.29 1.336zM64.242 56.278l-.086.626c-.255-.027-.532-.366-.694-.527l-.763.768c.061-.469.066-.648-.055-.854-.138-.16-.415-.153-.578-.12l-.285.039-.537.125c-.259.042-.381.576-.663.203.438-.739.97-1.392 1.466-2.156.287-.536.8-1.063.322-1.558-.389-.147-.51-.232-1.289.112.395-.774.573-1.03 1.07-1.243-.284-.499-.461-1.101-.387-1.519 1.446.148 1.574-.431 1.959-.813 1.042-1.487.95-1.786 1.253-2.749.105.1.182.565.194.746.152 1.228.163 1.956-.071 3.128-.104.332-.141.458.071.867.211.238.833.091.938.112-.161.318-.507.583-.866.831-.267.17-.546.104-.82.272-.015.567.222 1.444-.113 1.833-.252-.484-.75-1.034-1.203-1.052-.729.925-1.101 1.837-1.82 2.736l.461-.119c.401-.051.597-.214 1.034-.205.097-.188.009-.414-.051-.723.202.067.374-.01.692.394.057-.29.291-.484.541-.612l.041.655c1.168.175 1.75-.021 2.275-.275-.234.284-1.485.99-2.036 1.078z"/></g><g fill="#CCC" stroke="#000" stroke-width=".043"><path d="M20.862 54.121l-.492-.332c.024.235.169.638.177.883-.288 0-.676.189-.829.442.329-.026.701 0 .842.41.064.176-.005.436-.035.642 0 0 .17.096.21.053.044-.049.094-.32.105-.326.139-.111.26-.221.491-.08l.405.563c.041-.345.13-.72-.116-1.023.062-.055.192-.118.192-.118.24-.108.563-.248.795-.399-.222-.123-.44-.188-.621-.468-.381-.715-.343-1.563-.126-2.372-.399.622-.685 1.468-.998 2.125zM20.315 57.456c-.352 0-.731-.531-1.052-.732l-.13.166c.36.294 1.179 1.127 1.723 1.978-.112.076-.324.081-.468.015l.027.49c1.418.496 2.473 1.138 3.356 2.652l-.15.166c-.501-.329-1.075-.423-1.652-.423-.268-.281-.265-.612-.218-.923-.2.168-.414.462-.414.462-.152-.344-.644-.794-.949-.995.055.178.161.435.239.78.024.041-.375-.067-.399-.009-.577-.008-1.143-.086-1.696.308.545.052 1.471.028 1.936.383a2.765 2.765 0 0 1-.226.95c.384-.033.778-.155.955-.567.295.141.406.52.871.641-.016-.186-.214-.545-.094-.695.217-.102.603.047.859.089.954.269 1.762.691 2.611 1.238.076-.151.188-.552.151-.664-.731-.426-.957-.582-1.368-.977a114.495 114.495 0 0 0-2.264-2.367c-.721-.729-1.442-1.648-1.402-2.75l-.17-.032-.076.816z"/><path d="M16.781 57.978c-.883-.345-1.344-.154-1.895.118.657-.008 1.012.147 1.895.571.177.245.101.571-.012.849.425.067.813-.115 1.085-.443.297.443.684.616.948.717-.311-.326-.421-.789-.24-1.104.449-.009.825.222 1.226.323-.026-.134.042-.3-.054-.351-.225-.12-.747-.104-.972-.246-.12.033-.266-.038-.291-.146.064-.186.11-.537.241-.769-.621.053-.569.352-.802.578-.23-.367-.33-.673-.992-.894.001 0-.024.696-.137.797zM24.971 59.135c-.24.11-.639-.218-.849-.303.096.312.5.862.761.999 0 .274-.13.631-.17 1.031.23-.274.398-.434.631-.442.185.354.28.749.296 1.17h.353c-.048-.327-.188-.78-.1-1.042.223-.244.591.096.824.146-.081-.211-.11-.642-.271-.778.136-.369.326-.962.255-1.268-.17.042-.456.487-.728.446-.199-.861-.59-1.619-1.201-2.123.301.378.681 1.837.199 2.164zM26.276 63.291c-.17.054-.301-.084-.301-.084l-.1.517c.22.452 1.21.688 1.597 1.003 1.058.5 2.114.673 3.452.731.264.177 1.208.318 1.512.495.737.286 1.219 1.238 1.563 1.945.3.168 1.118.776 1.342.915-.03-1.136-1.342-2.409-1.893-2.923-1.182-1.021-4.749-.78-6.291-1.988-.38-.211-.871-1.473-.942-1.831l-.23-.116c-.14-.02.111.842.291 1.336zM13.226 54.953c.526.257 1.108.45 2.276.274l.04-.654c.251.129.485.324.542.612.318-.403.49-.324.692-.393-.061.307-.147.536-.051.723.438-.009.632.153 1.034.206l.461.119c-.72-.901-1.09-1.813-1.821-2.737-.453.017-.951.567-1.202 1.052-.336-.389-.1-1.267-.114-1.833-.275-.17-.554-.103-.822-.272-.36-.247-.704-.513-.866-.831.106-.022.729.126.939-.112.212-.41.176-.535.07-.867-.234-1.172-.222-1.901-.07-3.126.012-.182.089-.647.194-.75.302.966.21 1.263 1.252 2.749.385.383.513.963 1.96.815.074.419-.104 1.019-.386 1.52.496.211.674.467 1.069 1.243-.779-.348-.9-.261-1.289-.113-.478.492.034 1.021.323 1.557.496.765 1.029 1.417 1.466 2.157-.283.374-.405-.162-.664-.204l-.537-.125-.286-.038c-.162-.034-.44-.042-.578.121-.121.203-.115.384-.054.851l-.763-.765c-.162.16-.44.498-.694.526l-.085-.628c-.549-.087-1.8-.792-2.036-1.077z"/></g><path fill="#FCC551" fill-rule="evenodd" stroke="#000" stroke-width=".087" d="M49.371 65.536c.573-.015 1.073.243 1.649.567.577.32 1.074.393 1.647.339a2.69 2.69 0 0 1-1.82.012c-.635-.207-1.186-.207-1.818.009-.636.216-1.186.228-1.822.021-.635-.207-1.186-.216-1.82 0l-.01-2.102a2.649 2.649 0 0 1 1.787-.008c.624.205 1.164.227 1.788.017.621-.212 1.16-.262 1.786-.062.624.204 1.165.273 1.788.069-.036.025-.66.418-1.412.367-.752-.062-1.478.056-1.737.201-.517.299-1.086.479-1.115.639.386.043.721-.041 1.109-.069zM30.118 65.186c-.574-.013-1.072.248-1.646.575a2.657 2.657 0 0 1-1.646.346 2.686 2.686 0 0 0 1.821.002 2.696 2.696 0 0 1 1.82 0c.635.213 1.185.222 1.82.012.635-.211 1.185-.222 1.82-.011v-2.101c-.624-.207-1.163-.206-1.787.002s-1.163.231-1.788.024c-.624-.207-1.163-.254-1.787-.051-.624.207-1.164.279-1.788.078.036.026.662.414 1.414.359.752-.065 1.478.05 1.738.193.518.295 1.089.474 1.12.633-.387.045-.724-.037-1.111-.061z" clip-rule="evenodd"/><path fill-rule="evenodd" stroke="#000" stroke-width=".087" d="M34.148 66.199v-2.094l-1.688.436v1.658zM46.976 66.513l.015-1.917-1.703-.178v2.095z" clip-rule="evenodd"/><path fill="#FCC551" stroke="#000" stroke-width=".087" d="M47.102 66.872v-2.298c-.672.124-1.314.23-1.986.23-.672-.002-.442-.085-1.114-.21-.671-.124-1.313-.231-1.984-.232-.672.001-1.314.111-1.986.235-.671.124-1.313.233-1.984.233s-1.313-.106-1.985-.231c-.671-.125-1.021-.262-1.692-.265-.671 0-1.313.106-1.985.23v2.299c.671-.124 1.313-.231 1.985-.231.672.003 1.021.14 1.692.265.672.126 1.313.232 1.985.232.672-.001 1.313-.109 1.984-.234.672-.125 1.314-.233 1.986-.235.672 0 1.313.107 1.984.233.672.124.442.206 1.114.209.671.002 1.314-.106 1.986-.23z"/><path d="M38.134 65.564a1.829 1.829 0 0 1-.204.119.356.356 0 0 0-.072-.083v-.015a2.86 2.86 0 0 0 .503-.254l.014.007v1.188c-.041.001-.08.001-.121.004-.041.004-.08.013-.121.021l.001-.987zM38.9 66.325c.044.024.097.053.154.043.226-.043.294-.333.304-.513v-.019l-.013-.002a.339.339 0 0 1-.208.124c-.193.03-.341-.065-.344-.266a.454.454 0 0 1 .387-.462c.131-.022.251-.007.333.083.07.082.098.205.098.322a1.035 1.035 0 0 1-.133.519.634.634 0 0 1-.417.29.276.276 0 0 1-.099.003c-.025-.011-.03.004-.037-.022a.445.445 0 0 0-.039-.086.037.037 0 0 0 .014-.014zm.306-1.019c-.122.024-.16.197-.154.288.001.087.018.272.156.253.121-.025.145-.183.147-.274 0-.103-.007-.288-.149-.267zM40.59 65.543c-.002.177-.01.363-.129.524a.447.447 0 0 1-.287.178c-.149.025-.25-.008-.326-.127-.075-.12-.09-.244-.09-.395 0-.121.023-.306.083-.42a.462.462 0 0 1 .338-.254c.33-.05.409.217.411.494zm-.414.623c.13-.027.155-.211.155-.548 0-.382-.033-.508-.151-.49-.14.028-.165.215-.165.568 0 .323.014.492.161.47zM41.045 65.117c-.077.053-.137.09-.203.128a.32.32 0 0 0-.073-.078v-.014c.179-.081.338-.175.503-.269a.233.233 0 0 0 .015.008v1.188c-.042 0-.08-.001-.121.001l-.12.021-.001-.985z"/></g></svg>