<svg xmlns="http://www.w3.org/2000/svg" width="80" height="80" viewBox="0 0 80 80"><path fill="#3B2191" d="M40.014 3.987h.166c.798 2.464 1.629 4.919 2.41 7.388.092.259.178.523.32.756 3.087.077 6.182-.009 9.27.039-2.485 1.881-5.049 3.659-7.543 5.523.955 2.87 1.915 5.742 2.819 8.63-2.476-1.731-4.913-3.521-7.371-5.276-2.462 1.756-4.896 3.547-7.374 5.28.907-2.887 1.862-5.76 2.825-8.631-2.496-1.869-5.058-3.643-7.542-5.523 3.102-.029 6.206-.008 9.31-.011.916-2.722 1.765-5.465 2.711-8.175h-.001z"/><path fill="#FFF" d="M37.828 12.951c.756-2.325 1.476-4.664 2.256-6.983.778 2.319 1.498 4.656 2.253 6.983 2.514.005 5.028-.012 7.54.007-2.008 1.525-4.078 2.965-6.102 4.465.778 2.329 1.529 4.667 2.298 7.001-2.025-1.386-3.987-2.858-5.993-4.272-2 1.419-3.967 2.885-5.985 4.273.765-2.334 1.517-4.674 2.297-7.004-2.024-1.5-4.095-2.937-6.098-4.465 2.513-.014 5.024 0 7.534-.005z"/><path fill="#E30033" d="M40.063 7.618c.728 1.917 1.252 3.907 1.907 5.85 2.122.004 4.243-.018 6.363.014-1.695 1.275-3.434 2.494-5.142 3.757.609 1.969 1.294 3.917 1.913 5.886-1.718-1.126-3.337-2.391-5.021-3.569-1.686 1.171-3.3 2.446-5.021 3.564.623-1.967 1.3-3.914 1.912-5.882-1.705-1.262-3.443-2.479-5.137-3.757 2.119-.034 4.242-.008 6.362-.014.629-1.947 1.218-3.908 1.864-5.849z"/><path fill="#FFF" d="M40.001 10.148c.042-.347.218.082.223.168.402 1.328.819 2.654 1.214 3.983 1.541.017 3.085.012 4.624-.044a118.315 118.315 0 0 1-3.735 2.724c.434 1.435.93 2.848 1.377 4.281-1.231-.813-2.414-1.691-3.619-2.538-1.211.841-2.388 1.728-3.621 2.536.419-1.354.881-2.695 1.313-4.047.139-.255-.182-.378-.329-.509-1.121-.802-2.243-1.602-3.342-2.437 1.542-.043 3.079.032 4.62.04.419-1.386.842-2.774 1.275-4.157z"/><path fill="#269145" d="M36.639 25.792c4.984-.695 10.187.14 14.678 2.437 5.4 2.701 9.746 7.436 11.976 13.046 2.086 5.149 2.344 11.003.776 16.332-1.498 5.13-4.715 9.722-8.985 12.925-3.631 2.742-8.028 4.471-12.563 4.894-.874.072-1.744.257-2.625.19-1.886-.136-3.78-.285-5.619-.75-5.167-1.219-9.896-4.168-13.309-8.229-3.746-4.411-5.889-10.164-5.87-15.955-.076-5.728 1.96-11.436 5.578-15.864 3.932-4.873 9.751-8.191 15.963-9.026z"/><g fill="#FFF"><path d="M36.564 27.969c1.107-.087 2.213-.196 3.318-.31.016.161.045.48.057.638-.9.086-1.801.168-2.699.266.042.43.084.86.121 1.291.823-.076 1.647-.15 2.473-.24l.044.56c-.826.064-1.649.148-2.474.226.057.494.107.982.167 1.478.909-.094 1.816-.177 2.726-.262l.065.592c-1.129.1-2.255.208-3.379.32-.139-1.52-.31-3.037-.419-4.559zM41.035 27.705c1.205.18 2.422.283 3.619.49.017.143.046.43.059.575a51.795 51.795 0 0 1-1.528-.188c-.195 1.314-.344 2.631-.525 3.943-.226-.03-.449-.064-.673-.097.168-1.311.34-2.618.509-3.928a88.968 88.968 0 0 0-1.518-.203l.057-.592zM30.557 29.788c1.184-.411 2.358-.848 3.546-1.241.03.151.081.452.11.604-.46.143-.912.307-1.357.48.459 1.23.878 2.472 1.321 3.708l-.643.259c-.439-1.252-.885-2.503-1.323-3.757-.482.167-.965.338-1.448.505a91.817 91.817 0 0 1-.206-.558zM45.687 28.544c.158.027.472.079.627.107-.349 1.485-.726 2.966-1.07 4.454l-.634-.135c.349-1.476.715-2.95 1.077-4.426zM46.41 33.456c.591-1.407 1.22-2.801 1.856-4.189 1.003.454 2.01.901 3.021 1.338-.067.208-.135.417-.205.621-.841-.359-1.669-.745-2.515-1.097-.164.379-.341.755-.471 1.151.726.422 1.525.684 2.276 1.063-.075.108-.226.322-.299.43-.773-.261-1.493-.653-2.249-.954-.2.447-.393.896-.591 1.345.841.366 1.674.744 2.515 1.109l-.233.542c-1.042-.43-2.065-.915-3.105-1.359zM28.88 30.701c.178-.123.355-.241.534-.36.835 1.278 1.656 2.565 2.484 3.85-.203.128-.403.259-.603.391-1.279-.568-2.538-1.181-3.827-1.722.6 1.01 1.26 1.98 1.895 2.967-.166.103-.336.2-.51.29a74.824 74.824 0 0 1-2.47-3.84l.64-.38c1.25.583 2.486 1.198 3.741 1.779-.589-1.018-1.26-1.981-1.884-2.975zM34.461 30.592a40.113 40.113 0 0 1 1.565-.385l.146.632c-.496.107-.988.243-1.493.287a8.292 8.292 0 0 1-.218-.534zM52.862 31.769c.212.138.422.281.631.424-.147 1.392-.331 2.778-.471 4.169.75-.894 1.454-1.824 2.182-2.735.181.103.359.207.541.31-.901 1.26-1.909 2.439-2.851 3.67-.204-.225-.605-.375-.518-.74.097-1.314.265-2.625.372-3.938-.76.914-1.481 1.859-2.217 2.79-.121-.095-.357-.285-.476-.38.936-1.191 1.891-2.364 2.807-3.57zM24.265 34.102c.158-.144.316-.291.476-.433 1.012 1.133 2.076 2.221 3.046 3.393-.142.16-.312.294-.477.432-.988-1.157-2.038-2.257-3.045-3.392zM37.583 34.581a16.148 16.148 0 0 1 9.546 1.423c3.566 1.723 6.456 4.801 7.936 8.476 1.43 3.495 1.563 7.494.389 11.084-.953 2.896-2.733 5.521-5.094 7.452-2.859 2.375-6.562 3.728-10.282 3.685-3.761.041-7.501-1.345-10.371-3.764a16.22 16.22 0 0 1-4.995-7.376c-1.236-3.768-1.021-7.992.614-11.607 2.169-4.917 6.933-8.581 12.257-9.373z"/></g><path fill="#269145" d="M37.894 35.472a16.505 16.505 0 0 1 4.379 0c.018 3.499-.004 6.995.012 10.493 1.504-.002 3.011-.005 4.521.001.011-3.021-.003-6.043.008-9.066 1.636.86 3.238 1.925 4.408 3.365.064 1.898-.008 3.802.031 5.701.784-.003 1.57-.006 2.354.005.152 2.811.02 5.633.071 8.447-.05.204.092.603-.187.672-.742.072-1.497.012-2.244.027-.003 1.923 0 3.85-.003 5.774a15.931 15.931 0 0 1-4.433 3.312c-.007-3.027 0-6.056-.004-9.086H42.28c-.003 3.503-.003 7.004 0 10.51a16.92 16.92 0 0 1-4.394 0c.002-3.506.002-7.007 0-10.51H33.36c-.002 3.03 0 6.059-.002 9.089a15.95 15.95 0 0 1-4.434-3.316v-5.772c-.747-.018-1.495.039-2.239-.024-.283-.086-.154-.451-.196-.664.048-2.817-.075-5.644.066-8.459.788-.014 1.573-.01 2.361-.007.033-1.9-.035-3.805.03-5.702 1.174-1.437 2.773-2.502 4.409-3.364.011 3.023 0 6.047.007 9.067 1.507-.005 3.01-.007 4.517.002.024-3.503-.002-7 .016-10.498l-.001.003z"/><path fill="#FFF" d="M53.386 38.077c1.193-.957 2.419-1.87 3.607-2.831.148.247.532.467.406.795-.425 1.246-.938 2.457-1.355 3.704.964-.69 1.865-1.459 2.827-2.149l.343.545c-1.196.926-2.404 1.838-3.573 2.795-.166-.256-.546-.488-.371-.83.407-1.248.895-2.467 1.29-3.719-.95.695-1.862 1.434-2.793 2.15-.098-.115-.285-.347-.381-.46zM21.891 36.903a245 245 0 0 1 4.664 1.404l-.43.583c-.452-.149-.906-.295-1.359-.44-.339.46-.675.92-1.017 1.379.273.415.54.833.793 1.258-.152.161-.301.323-.45.485-.855-1.379-1.754-2.734-2.614-4.112.135-.185.274-.373.413-.557z"/><path fill="#269145" d="M22.35 37.687c.615.198 1.23.393 1.847.586-.261.352-.524.703-.784 1.06a54.212 54.212 0 0 1-1.063-1.646z"/><g fill="#FFF"><path d="M55.983 41.661c1.388-.635 2.772-1.267 4.154-1.914.466 1.034.951 2.054 1.413 3.088-.211.065-.421.127-.632.189-.352-.808-.736-1.604-1.083-2.417-.396.184-.793.366-1.188.543.346.762.715 1.515 1.025 2.29l-.509.179a58.519 58.519 0 0 0-1.048-2.243c-.436.218-.878.424-1.317.642.373.834.816 1.635 1.116 2.494a7.017 7.017 0 0 1-.533.225c-.453-1.032-.932-2.05-1.398-3.076zM19.045 41.177c.119-.599.592-1.179 1.23-1.246.32.005.628.108.941.177l-.161.477c-.48-.118-1.072-.12-1.3.409-.372.449-.004 1.106.544 1.152.662-.271 1.01-.984 1.666-1.261a1.49 1.49 0 0 1 1.564.732c.342.739-.07 1.635-.702 2.069-.499.323-1.08.085-1.58-.096.082-.148.162-.295.245-.439.332.051.702.247 1.022.037.445-.244.65-.799.57-1.284-.176-.267-.488-.38-.745-.547-.571.429-1.026 1.025-1.676 1.343-.852.197-1.774-.651-1.618-1.523zM26.966 46.433c8.743.001 17.487.003 26.231-.004.017 2.741.005 5.479.007 8.22-8.748.002-17.491.002-26.239 0-.001-2.74-.007-5.478.001-8.216z"/></g><g fill="#269145"><path d="M30.385 47.199c.272-.002.541 0 .811 0 .564 2.218 1.156 4.433 1.721 6.652l-.778-.034a51.37 51.37 0 0 0-.463-1.945c-.608.002-1.219.002-1.829.002a73.35 73.35 0 0 0-.527 1.943c-.249.014-.499.025-.748.037.597-2.222 1.22-4.435 1.813-6.655zM36.119 47.273c.728-.403 1.783-.295 2.312.39.352.423.387.991.454 1.513a46.323 46.323 0 0 0-.657-.018c-.111-.357-.151-.774-.452-1.031-.502-.453-1.464-.359-1.724.32-.088.354-.135.797.101 1.108.814.614 2.15.434 2.666 1.447.339.813.263 1.874-.354 2.541-.748.729-2.156.745-2.821-.106-.427-.478-.479-1.148-.526-1.758.164.005.493.011.656.016.092.481.12 1.104.626 1.36.774.485 2.087-.045 1.919-1.074.013-.688-.725-.876-1.246-1.052-.641-.221-1.489-.378-1.696-1.134-.226-.872-.079-2.002.742-2.522zM41.823 47.933c.514-1.148 2.351-1.192 2.997-.15.259.411.308.904.388 1.373-.168.006-.5.012-.667.018-.114-.579-.386-1.283-1.082-1.314-.931-.232-1.564 1.053-.975 1.725.49.323 1.084.416 1.624.619 1.746.447 1.549 3.413-.144 3.791-.78.244-1.744-.014-2.163-.747-.314-.46-.332-1.026-.38-1.56.214-.005.427-.012.642-.012.049.699.36 1.541 1.197 1.547.952.188 1.729-.894 1.219-1.73-.679-.676-1.801-.568-2.517-1.193-.524-.667-.451-1.63-.139-2.367zM47.991 47.197c1.179.009 2.358-.015 3.535.015-.007.277-.013.556-.015.832-.956.005-1.904.005-2.857.003a58.51 58.51 0 0 0 .019 2.007c.885-.011 1.773-.009 2.66-.009-.004.268-.009.533-.011.802-.889.003-1.777.001-2.667.001-.001.731-.004 1.461.018 2.193.976-.008 1.953-.003 2.93-.008-.005.271-.007.543-.012.813-1.201-.017-2.402-.003-3.604-.012.017-2.215.004-4.43.004-6.64v.003z"/></g><path fill="#FFF" d="M30.034 51.124c.235-.909.444-1.821.717-2.718.263.898.479 1.81.708 2.718a84.61 84.61 0 0 0-1.425 0z"/><g fill="#269145"><path d="M33.504 52.816c.255-.012.512-.021.768-.028l.003 1.064c-.257-.013-.516-.022-.772-.033.004-.338.004-.671.001-1.003zM39.82 52.804c.253-.004.503-.009.756-.01.002.349.004.696.008 1.044l-.771-.012c.002-.343.007-.682.007-1.022zM46.126 52.797l.759.006c.002.34.002.679.008 1.022-.255.006-.514.01-.77.018l.003-1.046z"/></g><g fill="#FFF"><path d="M45.518 67.999c1.047-.413 2.1-.806 3.143-1.215.068.207.134.418.198.625-.838.31-1.678.627-2.504.972.154.399.31.796.464 1.193.769-.298 1.534-.585 2.296-.892.061.127.175.382.23.511-.77.307-1.548.599-2.324.893.174.463.35.924.527 1.386.86-.329 1.718-.674 2.584-.987.047.143.137.424.18.566-1.052.403-2.104.81-3.155 1.212-.542-1.421-1.092-2.843-1.639-4.264zM31.631 71.713c.45-1.488.95-2.959 1.456-4.427.133.086.397.263.529.35-.377 1.239-.811 2.462-1.191 3.697.715.229 1.422.475 2.143.692l-.111.58c-.945-.287-1.881-.605-2.826-.892zM41.334 68.797c1.02-.075 2.062-.487 3.068-.208.852.284.772 1.372.441 2.032.516.628.492 1.477.821 2.192-.255.029-.511.063-.764.095-.189-.575-.077-1.377-.609-1.768-.629-.135-1.289.108-1.923.166.098.645.18 1.291.258 1.939-.166.021-.495.051-.662.07-.208-1.505-.44-3.008-.63-4.518zM36.047 68.688c1.035-.417 2.499-.148 3.024.928.424.959.232 2.15-.421 2.958-.971 1.189-3.222.858-3.722-.621-.374-1.151-.022-2.69 1.119-3.265zM39.946 68.832c.205.011.408.026.613.042a243.01 243.01 0 0 0 0 4.518l-.611.046a589.4 589.4 0 0 1-.002-4.606z"/></g><path fill="#269145" d="M36.409 69.233c.791-.395 1.916.038 2.134.924.165.823-.022 1.832-.754 2.334-.506.357-1.206.245-1.701-.072-1.042-.753-.734-2.59.321-3.186zM42.112 69.276c.625-.067 1.25-.221 1.884-.185.556.158.674 1.082.136 1.327-.581.239-1.229.231-1.844.341a40.788 40.788 0 0 1-.176-1.483z"/></svg>