<svg xmlns="http://www.w3.org/2000/svg" width="80" height="80" viewBox="0 0 80 80"><path fill="#CF0A2C" d="M39.999 10c-20.812 0-26.448 6.048-26.682 6.307-.065.104-4.455 7.595-3.351 18.637C10.985 45.122 17 60.487 39.902 75.907l.097.072.099-.072c22.901-15.42 28.915-30.784 29.934-40.963C71.136 23.9 66.746 16.411 66.7 16.337 66.453 16.046 60.812 10 39.999 10z"/><path fill="#FFF" d="M67.322 15.75l-.006-.008-.008-.006c-.23-.267-5.939-6.5-27.31-6.5-21.272 0-27.054 6.202-27.293 6.468-.057.084-4.574 7.78-3.441 19.092 1.039 10.4 7.184 26.107 30.574 41.858l.162.112.162-.112c23.389-15.751 29.539-31.458 30.574-41.858 1.13-11.294-3.369-18.971-3.414-19.046zm2.709 19.194c-1.019 10.178-7.032 25.543-29.934 40.963l-.099.072-.097-.072C17 60.487 10.985 45.126 9.966 34.944 8.864 23.9 13.252 16.411 13.317 16.307 13.551 16.046 19.186 10 39.999 10s26.454 6.048 26.701 6.337c.046.074 4.436 7.564 3.331 18.607z"/><path fill="#FFF" d="M39.999 12.694c10.88 0 17.274 1.777 20.799 3.344h1.15c.309 0 .603.008.886.022-3.157-1.769-9.889-4.245-22.836-4.245-12.909 0-19.641 2.461-22.804 4.223h2.005c3.523-1.565 9.922-3.344 20.8-3.344zm27.955 13.069v1.881c0 .333-.064.899-.416 1.483a32.507 32.507 0 0 1-.032 6.175C66.572 44.671 61.03 58.807 40 73.103c-21.035-14.297-26.574-28.432-27.508-37.8a32.582 32.582 0 0 1 .534-9.996v-3.368c-1.01 3.107-1.975 7.785-1.408 13.452.958 9.61 6.646 24.137 28.289 38.713l.093.063.092-.064c21.642-14.575 27.331-29.1 28.292-38.713.364-3.68.086-6.942-.43-9.627z"/><g fill="#FFF"><path d="M41.427 65.341c-1.737-2.242-1.064-5.209-1.064-5.209-.289.599-.813 0-.813 0 .222.516.511 3.777-1.004 4.995 0 0 1.549.25 1.549-1.544-.001 1.459 1.332 1.758 1.332 1.758zm3.019-15.553c-.064-.347-1.162-.999-1.61-1.059-1.194-.151.984-.63.789-.781-.864-.763-.766-.991-.766-.991-1.541-.534-1.695-.834-1.695-.834-1.236-.255-2.998.174-3.004.177l-.79.362c.089.004.34.034-.554.338-.375.121.138 1.268-.139 1.666-.301.418-1.17 1.076-1.199 1.325-.133 1.1.856 3.327 1.3 3.98.612.909.937 1.608 1.367 1.949 1.77 1.65 3.161.335 3.341.163.75-.706.941-1.111 1.408-1.767.25-.339 1.366-2.447 1.493-3.142.099-.495.049-1.435.059-1.386zm-7.102-.964c.844-.345.392-.442.611-.604.339-.264-.848-.054-.599-.25.794-.607.063-.684.063-.684-.002-.254 1.065.305 1.168-.492.001-.005.755-.037 1.378-.153.692-.132.792.377 1.379.352 0 0 0 .335.476.508 0 0 .415-.113.712.085.181.11-1.103.159-.532.635.104.086-.985.104-.555.398.388.256 1.324.387 1.395.574-.309-.084.17.313-.295.271-.972-.093-2.277.962-2.232 1.25-.089-.544-1.512-1.179-3.01-1.345-.371-.019-.284-.021-.659.014.216-.238.33-.408.7-.559zm6.216 2.919s-.475 1.122-1.097 2.18c-.652 1.111-1.43 1.788-1.43 1.788s-.745.619-1.728.247c0 0-.257-.027-.999-.684-.737-.664-1.185-1.653-1.185-1.653s-1.603-3.462-.75-3.49c0 0 1.301-.168 2.231.333 0 0 1.307.458 1.603 1.194 0 0 .731-.723 1.53-1.137.802-.422 1.009-.642 2.165-.505.004-.004.017.935-.34 1.727zm-7.086-.9l1.448.479s-.225 1.063.661 1.114c0 0 .168-.033.298.155.188.286.636 1.362.638 1.412 0 0 .276-1.688-.859-2.545-.987-.737-2.186-.615-2.186-.615zm7.108.07l-1.239.548s.498.99-.861 1.176c-.125.019-.975 1.338-.984 1.4 0 0 .2-1.821.913-2.394.995-.77 2.171-.73 2.171-.73zm-3.221 3.9c-.008.319-.325.812-.397.813-.071-.002-.261-.542-.254-.86.012-.322.238-.438.309-.436.074.002.355.164.342.483zm-2.477 6.672c-1.083 0-1.933 3.46-1.869 3.016 0 0 2.222-1.656 1.869-3.016zm.343 2.994l.779-1.807c-.001.001.247 1.654-.779 1.807z"/><path d="M38.535 69.429c1.208-.101 1.614-.697 1.126-1.395-.075-.108-.412-.229-.472-.362.093-.1.025-.772-.036-.959-.074-.273-.526-.401-.611-.597-.087-.193-.183-.558-.316-.844-1.042-2.198-1.918-.252-1.125.112-.163-.074.14-.397.276-.389.074.156-.091.148.057.596.286.809.559.444.088.539-.717.331-1.454-1.102-2.081-1.071-1.403.066-.633 1.289-.592 1.318.012-.688.368-.788.458-.767-.085.403.221.566.64.66.413.096.507.577.504.588-.184.036-1.015.391-1.319.484-1.128.339-.835 1.339-.796 1.295.002-.231.387-.567.735-.601.18.048.272.357.735.184.602-.23.499-.432.819-.466.399-.045.497.332.809.212l1.016-.168c.272.171-.018.075 0 .445.022.442.419.412.479.532.002.002.125.219-.394.654zM42.187 61.485c1.085 0 1.934 3.46 1.869 3.016 0 0-2.22-1.656-1.869-3.016zm-.645 2.432l-.777-1.808s-.25 1.654.777 1.808z"/><path d="M41.538 69.429c-1.208-.101-1.614-.697-1.127-1.395.074-.108.411-.229.472-.362-.093-.1-.025-.772.036-.959.073-.273.525-.401.611-.597.087-.193.183-.558.313-.844 1.043-2.198 1.919-.252 1.126.112.162-.074-.141-.397-.274-.389-.074.156.088.148-.061.596-.286.809-.558.444-.086.539.716.331 1.451-1.102 2.08-1.071 1.404.066.634 1.289.592 1.318-.014-.688-.367-.788-.457-.767.083.403-.22.566-.641.66-.414.096-.506.577-.504.588.183.036 1.015.391 1.32.484 1.129.339.835 1.339.796 1.295-.003-.231-.389-.567-.734-.601-.177.048-.271.357-.734.184-.602-.23-.497-.432-.819-.466-.398-.045-.496.332-.811.212L41.62 67.8c-.27.171.021.075 0 .445-.021.442-.417.412-.478.532.001 0-.121.217.396.652z"/><path d="M66.846 31.4c-.033-.002-7.767-.508-14.51 1.934-.185.067-2.705 1.273-4.102 2.179v-.862a.798.798 0 0 0-.133-.431.9.9 0 0 0 .133-.468V32.54c0-.464-.239-1.242-1.835-1.242h-1.392c-.578 0-1.024.102-1.338.302a1.44 1.44 0 0 0-.326-.163c-.243-.094-.573-.14-1.04-.14h-1.392c-.392 0-.727.056-1.019.173l-.289.145a1.268 1.268 0 0 0-.344-.176c-.248-.096-.58-.141-1.048-.141H36.83c-.39 0-.737.059-1.032.174a1.6 1.6 0 0 0-.336.181l-.321-.165a2.63 2.63 0 0 0-1.022-.19H31.55l1.256 2.061h.35v3.143a2.499 2.499 0 0 1-.334-.292c-.361-.393-4.834-2.778-5.085-2.875-6.318-2.44-14.478-1.937-14.51-1.934l.186.4c-.172.695-.654 2.493 1.213 3.162-.141.816-.302 2.481 1.336 3.074l.1.039c-.003.816.421 2.362 2.581 3.198.197 1.078.918 3.098 3.58 3.793.159 1.406.696 3.774 4.146 4.283l.171.377.347.054c.613 1.245 1.19 3.173 2.208 4.262l.136.144c.825.846 1.568 2.172 2.686 2.646l.118.053.204-.03c.648-.378 2.285-1.324 2.852-1.591.25.518.352.612.446 1.209-3.063 1.247-6.257 4.958-6.317 5.049-.27.399.224 1.567 2.445 1.919.298.489 1.023 1.058 2.227.975.178.177.561.224.89.381h.818c-.227-.065-.419-.526-.687-.611l-.145-.339c.093-.591.899-1.454 1.29-3.291 0 0-2.413 3.297-2.308 3.417-.534-.136-.735-.34-1.248-.844l.128-.265c1.026-1.457 2.977-3.88 3.22-4.552 0 0-4.306 4.222-4.155 4.531-.498-.265-1.108-.451-1.471-1.251 0 0 3.776-3.947 5.515-4.648.017.164.308 1.186.274 1.313.041-.116.492-.679.506-.895.127-.38-.083-1.682-.34-2.561-.072-.248-.788-1.872-.996-1.556-.021.033-.306 1.195-.306 1.195-.855.323-1.904 1.241-2.505 1.274-.396.022-.857-.76-1.965-2.01.595-1.593 1.475-3.488 3.407-6.629-1.159 1.885-3.735 3.839-4.316 5.573-.783-.91-1.169-1.543-1.963-3.005l.173-.301c.224.013.46.017.711.015 0 0-.257-.024-.66-.115 1.586-2.839 2.751-4.406 6.469-6.415 0 0-5.929 1.17-7.303 5.637-.327-.631-.319-.707-.631-1.452l-.077-.203a28.688 28.688 0 0 1-.694-1.883s.127.716.443 1.778l.068.215c.185.608.427 1.302.735 2.04-1.422-.495-2.91-1.481-3.63-3.955l.359.068-.278-.153c1.81-1.319 2.89-2.027 4.383-2.461.708.243 1.834.269 2.651.443 0 0-.694-.248-1.758-.779 1.455-.379 2.446-.43 2.446-.43.107-.674-1.525-.458-3.552-.05-.402.08-1.63-1.023-3.05-2.15 2.002-.28 3.382-.211 3.382-.211.712-.62-1.606-.553-3.946-.206-.14.021-1.157-1.002-1.967-1.915 2.211-.032 3.666.05 3.666.05.556-.487-1.599-.622-4.032-.464-.586-.674-.598-.853-1.333-1.887.168.236 2.108.048 2.108.048.515-.451-.733-.617-2.468-.604-.238-.388-.561-.885-.776-1.302 0 0-.031.568.266 1.308-1.584.024-3.191.12-4.164.341l-.083-.542s-.139.305-.191.517l-.017.003c-.509-.493-1.227-1.371-1.301-2.642 8.822.129 14.844 3.716 18.884 5.46 2.246 2.69 2.955 3.224 6.967 8.378 0 0 .148-2.85-5.425-8.724h2.06v-.952l.586.949h1.66c.383 0 .721-.061 1.028-.187.528-.211.723-.539.789-.805l.606.994h1.667c.382 0 .727-.064 1.019-.188.13-.05.243-.11.345-.18l.322.165a2.51 2.51 0 0 0 1.017.203h1.154c-5.573 5.876-5.425 8.724-5.425 8.724 4.014-5.153 4.72-5.688 6.967-8.377 4.04-1.744 10.06-5.332 18.882-5.457-.071 1.271-.792 2.148-1.301 2.641l-.018-.003a4.298 4.298 0 0 0-.191-.517l-.083.542c-.969-.222-2.579-.316-4.163-.342.297-.739.265-1.307.265-1.307-.214.417-.54.914-.775 1.302-1.735-.015-2.983.152-2.469.604 0 0 1.94.188 2.108-.048-.732 1.034-.746 1.213-1.333 1.887-2.431-.159-4.584-.023-4.032.463 0 0 1.457-.082 3.668-.049-.813.913-1.826 1.935-1.967 1.915-2.34-.347-4.659-.413-3.946.206 0 0 1.382-.069 3.383.21-1.422 1.125-2.649 2.23-3.051 2.15-2.026-.407-3.66-.624-3.553.05 0 0 .992.053 2.447.429-1.063.535-1.757.78-1.757.78.815-.173 1.943-.197 2.649-.444 1.491.435 2.573 1.145 4.384 2.463l-.278.153.358-.068c-.717 2.472-2.208 3.458-3.629 3.954.306-.737.549-1.433.734-2.039l.068-.216c.314-1.063.443-1.778.443-1.778a31.555 31.555 0 0 1-.694 1.884l-.078.201c-.309.747-.304.822-.629 1.454-1.377-4.471-7.304-5.638-7.304-5.638 3.719 2.011 4.885 3.573 6.47 6.416-.403.091-.661.113-.661.113.253.004.486 0 .71-.012l.173.302c-.793 1.459-1.182 2.091-1.963 3.004-.583-1.736-3.158-3.69-4.316-5.575 1.934 3.141 2.811 5.035 3.407 6.628-1.105 1.251-1.57 2.032-1.966 2.011-.597-.032-1.65-.951-2.504-1.274 0 0-.286-1.161-.306-1.194-.207-.319-.924 1.308-.996 1.554-.258.881-.488 2.016-.361 2.394.016.217.465.781.505.896-.033-.125.28-.983.296-1.146 1.74.699 5.517 4.647 5.517 4.647-.36.799-.972.989-1.47 1.25.148-.31-4.156-4.527-4.156-4.527.244.668 2.193 3.092 3.221 4.552l.128.265c-.516.501-.718.705-1.248.84.104-.12-2.309-3.415-2.309-3.415.39 1.838 1.194 2.696 1.289 3.289l-.146.341c-.268.083-.46.544-.688.608h.819c.329-.153.712-.203.89-.38 1.201.086 1.929-.487 2.226-.975 2.224-.354 2.718-1.516 2.447-1.918-.062-.092-3.255-3.803-6.318-5.052.095-.597.198-.689.449-1.209.564.269 2.202 1.213 2.851 1.593l.205.03.117-.053c1.119-.475 1.861-1.801 2.686-2.644l.137-.142c1.018-1.092 1.594-3.021 2.209-4.265l.347-.056.172-.377c3.448-.506 3.985-2.877 4.144-4.283 2.663-.695 3.385-2.715 3.583-3.793 2.16-.837 2.582-2.381 2.579-3.198l.102-.039c1.638-.593 1.476-2.258 1.339-3.074 1.866-.669 1.381-2.466 1.213-3.161l.18-.4zM26.158 42.019c-1.753.595-2.09.844-3.411 2.201l-.176-.032c-.07-.261-.178-.328-.219-.632 0 0-.125.271-.089.722-.858-.539-2.185-1.284-3.036-3.008l.36.022s-.074-.275-.25-.228c1.673-.458 2.821-1.01 4.104-1.268 1.151.969 1.44 1.545 2.717 2.223zm-3.237-2.663c-1.485.352-2.841.774-3.92 1.254l.003-.44s-.288.248-.251.516c-.693-.597-1.569-1.247-1.982-2.418l.575-.023-.292-.212-.141-.073c2.137-.337 2.759-.657 4.095-.734.585.847.923 1.284 1.913 2.13zm-3.474-4.541c.265.634.661 1.138 1.242 2-1.572.14-3.162.397-4.124.755l-.037-.226-.042.25-.091.039c-.485-.477-1.074-1.125-1.194-2.323l.458.006s-.325-.181-.493-.335l-.002-.045c2.215.112 2.929-.105 4.283-.121zm25.561 2c-.311 0-.622-.055-.906-.182-.2-.078-.34-.172-.439-.27-.099.104-.24.203-.446.282-.27.116-.578.168-.913.168H40.8l-.902-1.478h1.735v-.404h-.723c-.193 0-.398-.025-.587-.068a1.778 1.778 0 0 1-.558-.235v1.235c0 .242-.113.576-.633.782a2.38 2.38 0 0 1-.922.168h-1.496l-.913-1.478h1.734v-.404h-.709a2.51 2.51 0 0 1-.585-.068 1.689 1.689 0 0 1-.568-.235v2.185H33.44v-3.747h-.478l-.902-1.479h2.054c.336 0 .64.055.908.167.201.078.343.174.441.275.096-.107.235-.207.438-.289.267-.104.581-.153.924-.153h1.382c.411 0 .724.036.943.123.202.07.337.171.431.285.095-.094.229-.182.412-.254a2.49 2.49 0 0 1 .915-.153h1.391c.411 0 .727.036.938.123a.983.983 0 0 1 .422.265c.211-.223.616-.388 1.341-.388h1.392c1.272 0 1.546.513 1.546.951v1.213a.598.598 0 0 1-.233.472c.184.145.233.307.233.427v1.213c0 .427-.26.921-1.444.949l-.102.002h-1.384zm12.804 7.46c.036-.448-.09-.722-.09-.722-.041.304-.15.37-.219.634l-.176.031c-1.324-1.357-1.66-1.605-3.412-2.201 1.278-.68 1.568-1.255 2.72-2.225 1.282.258 2.429.809 4.102 1.268-.173-.048-.249.227-.249.227l.359-.021c-.852 1.724-2.177 2.468-3.035 3.009zm3.506-3.587c.037-.27-.253-.517-.253-.517l.004.44c-1.076-.48-2.432-.902-3.918-1.254.99-.844 1.326-1.283 1.912-2.13 1.336.077 1.959.397 4.097.734l-.142.073-.293.213.577.022c-.412 1.17-1.288 1.822-1.984 2.419zm3.59-5.706c-.17.155-.495.335-.495.335l.458-.006c-.117 1.197-.709 1.846-1.193 2.323l-.092-.039-.041-.25-.036.225c-.962-.358-2.553-.615-4.125-.755.58-.861.977-1.364 1.243-2 1.354.015 2.067.233 4.284.122l-.003.045zM39.359 32.54v-.014c-.005-.215-.106-.348-.338-.434-.179-.068-.446-.097-.805-.097h-1.384c-.298 0-.555.048-.778.126-.338.132-.375.304-.375.419V34c0 .035 0 .143.208.281.123.088.272.146.45.193.161.038.317.057.493.057h1.123v1.214h-1.42l.411.67h1.27c.277 0 .532-.054.761-.152.384-.146.384-.323.384-.396v-1.85L39.358 34l.001-1.46zm-1.404 1.336h-.859v-1.215h.857l.002 1.215zm-3.076-1.742a2.104 2.104 0 0 0-.758-.14h-1.324l.404.667h.662v3.751h1.402V32.54c-.001-.072-.001-.25-.386-.406zm8.224-.044c-.168-.067-.435-.097-.797-.097h-1.392c-.287 0-.544.048-.768.127-.34.132-.376.304-.376.419v1.459c0 .035 0 .143.21.281.12.088.272.146.446.193.164.038.324.057.488.057h1.135v1.214h-1.422l.404.669h1.274c.277 0 .535-.054.766-.152.38-.146.38-.323.38-.396V32.54c-.002-.225-.107-.361-.348-.45zm-1.054 1.786h-.865v-1.215h.865v1.215zm5.09 2.444c.266-.088.356-.221.383-.328l.017-.128v-1.213c0-.017 0-.063-.114-.139a.506.506 0 0 0-.27-.109L47.18 34a.45.45 0 0 0 .266-.089.17.17 0 0 0 .091-.159v-1.213c0-.133 0-.546-1.137-.546h-1.392c-1.144 0-1.144.413-1.144.546v1.213c0 .047.01.106.097.157a.591.591 0 0 0 .277.091l.007.403a.507.507 0 0 0-.273.105c-.107.074-.107.123-.107.143v1.213c0 .063 0 .234.39.392.24.1.492.156.754.156h1.392c.334-.001.57-.037.738-.092zm-1.004-.577h-.87v-1.214h.87v1.214zm0-1.867h-.87v-1.215h.87v1.215z"/></g><path fill="#FFF" d="M23.389 17.832H14.82v11.604h8.569c.602 0 1.177-.053 1.732-.172a5.619 5.619 0 0 0 1.601-.528c.448-.247.726-.512.84-.794V19.23c-.291-.935-1.679-1.398-4.173-1.398zm.704 8.684c-.32.317-.878.334-.997.334h-3.587v-6.454h3.507l.234-.005c.27 0 .694.023.842.166.213.222.164 1.081.164 1.081v3.983c.002 0 .026.704-.163.895zm10.55-4.873h5.885v-.55h-5.885v.55zm-6.384-2.519v10.312h5.687v-4.529h4.126l1.656-2.565h-5.781v-1.945h6.582v-.774l.021-.285v-1.506H28.26v1.292h-.001zm-5.008 1.962l-.19.004-.023.001h-2.832v5.061h2.89c.16 0 .337-.037.44-.087a2.47 2.47 0 0 0 .025-.42v-4.027l.001-.021a3.325 3.325 0 0 0-.013-.498l-.298-.013zm-.037.492l-.002 4.043.001.036-.001.14-.109.008-.039-.001-2.508.001v-4.363h2.461l.065-.003.136-.004-.004.143zm38.121-.485h-2.187l-.07.003.003.041.012.049v4.724l.001.02-.001.023.005.201.151.007.116-.003.027-.003h1.816l.024-.002.037.005h.013l.137-.017.017-.219v-4.609l-.002-.031.006-.047.004-.135-.109-.007zm-.248 4.712H59.44v-4.363h1.647v4.363zm4.426-8.488c-.84-.356-2.006-.531-3.563-.531h-4.346c-.572 0-1.087.022-1.554.069l.044-.069H45.463c-1.098 0-2.09.138-2.951.407a5.193 5.193 0 0 0-.915.36v-.768H27.214v.642l-.244-.112c-.842-.355-2.014-.53-3.582-.53h-9.614v13.694h9.614a9.27 9.27 0 0 0 1.933-.19 6.746 6.746 0 0 0 1.893-.632v.823h7.775v-4.529h3.651l1.541-2.384v4.077c0 .774.409 1.821 2.356 2.405.904.289 1.859.431 2.928.431h5.962l1.174-1.824c.302.512.902 1.039 2.063 1.392.884.287 1.873.431 2.942.431h4.344c1.122 0 2.117-.127 2.954-.381 2.001-.612 2.303-1.801 2.303-2.455v-8.021c-.001-.593-.221-1.682-1.694-2.305zm1.343 10.327c0 .681-.357 1.602-2.055 2.122-.805.243-1.765.366-2.853.366h-4.346c-1.031 0-1.985-.139-2.835-.414-1.537-.467-1.994-1.223-2.081-1.845l-1.247 1.939-.207.319h-5.771c-1.031 0-1.952-.135-2.821-.414-1.749-.525-2.115-1.417-2.115-2.074v-5.258l-.215.331-1.658 2.565-.205.319h-3.806v4.529H27.56v-1.117a3.46 3.46 0 0 1-.502.329l-.007.004-.007.005c-.52.27-1.12.47-1.788.593a8.92 8.92 0 0 1-1.869.185h-9.266V17.133h9.266c1.52 0 2.648.164 3.448.501.295.125.533.27.727.424v-.927h13.683v1.059c.311-.254.75-.486 1.363-.666.832-.262 1.792-.393 2.854-.393h9.994l-.112.169c.633-.113 1.377-.169 2.259-.169h4.345c1.509 0 2.631.164 3.428.501 1.222.519 1.479 1.365 1.479 1.985v8.025h.001zm-4.907-9.812h-4.346c-1.183 0-2.115.106-2.803.316-.95.29-1.43.779-1.43 1.475v8.021c0 .607.536 1.083 1.608 1.408.792.257 1.671.382 2.624.382h4.346c1.022 0 1.909-.112 2.649-.337 1.038-.316 1.56-.799 1.56-1.454v-8.022c.001-1.194-1.405-1.789-4.208-1.789zm.013 8.776c-.209.218-.538.245-.68.245l-.071-.002h-1.788l-.172.006c-.208 0-.539-.025-.683-.175-.206-.205-.167-.773-.167-.773v-4.642s-.09-.452.167-.709c.151-.149.49-.161.585-.161h2.184c.043 0 .468.003.631.161.23.235.166.754.166.754v4.598c-.004-.002.004.53-.172.698zm-16.499-8.776c-.984 0-1.873.119-2.649.362-.938.276-1.459.68-1.567 1.215v1.683h-.023v6.551c0 .607.543 1.083 1.628 1.408.8.257 1.665.382 2.612.382h5.39l1.664-2.584h-5.605v-6.454h5.605l.155-.24v-.535c0-.547.203-1.272 1.099-1.791h-8.308v.003h-.001zm2.145 3.261v5.061h5.066v-5.061h-5.066zm4.717 4.712h-4.37v-4.363h4.37v4.363z"/></svg>