<svg xmlns="http://www.w3.org/2000/svg" xmlns:xlink="http://www.w3.org/1999/xlink" width="80" height="80" viewBox="0 0 80 80"><linearGradient id="a" x1="43.263" x2="40.596" y1="69.186" y2="30.519" gradientUnits="userSpaceOnUse"><stop offset="0" stop-color="#611517"/><stop offset="1" stop-color="#8f181d"/></linearGradient><path fill="url(#a)" d="M40.351 69.921c5.967-1.459 11.211-5.293 15.351-10.257 5.601-7.464 9.151-15.973 9.515-25.411l.051-24.233L14.732 10l.003.021.051 24.233c.363 9.439 3.915 17.947 9.515 25.411 4.138 4.964 9.384 8.798 15.351 10.257l.343.078.356-.079z"/><path fill="#FFF" d="M61.107 37.101h-7.719v-5.287h5.801v-2.526h-5.801v-5.707h-2.527v5.707h-5.987v2.526h5.987v5.287h-7.717v2.526h7.717v13.801h2.527V39.627h7.719v-2.526zm3.323-17.637H15.496v-8.701H64.43v8.701zM39.939 69.176V20.174H15.493v14.69s.367 11.268 7.414 21.308c3.957 7.142 12.55 12.355 17.032 13.004z"/><linearGradient id="b" x1="17.038" x2="39.203" y1="41.348" y2="41.348" gradientUnits="userSpaceOnUse"><stop offset="0" stop-color="#611517"/><stop offset="1" stop-color="#8f181d"/></linearGradient><path fill="url(#b)" d="M38.509 43.648c-.629-.813.129-1.69-.079-2.582-.332-.792-.886-1.479-.724-2.451-.11-.991-1.207-1.351-1.908-1.839-.305-.593-.313-1.313-.643-1.905-.352-.443-.779-.785-1.326-.903-1.318-.109-2.634-.192-3.345-1.5-1.456-1.374-3.623.215-4.837-1.732-.854-.859-2.163-.224-3.04-1.008-.45-.268-.704-.762-.635-1.234 1.317.158 2.579-.354 3.688-.987.889-.382 1.91-.17 2.878-.083.546-.105.713-.629.907-1.078.774.338 1.819.55 2.659.217 1.611-.291 2.661-1.842 4.271-2.085.497.019.898.337 1.2.707l.122-.125c-.06-.869-.417-1.783-1.291-2.17-2.743-.986-3.572 2.499-5.802 2.897-.471.031-.968.012-1.171-.383l.467-.377c.344-.352.412-.875.356-1.42-.406-.79-1.367-.133-2.04-.374-.823-.313-1.718-.427-2.396-1.09-1.152-.855-2.356.3-3.523.314-2.791-.887-2.199 3.004-4.608 3.007.462 1.286.082 2.755-.651 3.806.978.809 1.414 1.996 1.156 3.339-.033 1.415 1.193 2.245 2.196 3.103.104.421-.341.551-.563.751-.627-.589-1.55-.976-2.415-.643-.616.479.532.938.612 1.458-.541.478-.98 1.178-.972 1.898.551.391 1.493.231 2.06-.074.427.417.459 1.013.763 1.505a.637.637 0 0 0 .518-.33c.488-.701.726-1.672.368-2.512l.518-.329c.766-.332 1.101.682 1.675.973 1.5.952 1.569 2.564 2.477 3.795.305.593 1.549.826 1.162 1.701-.543.303-1.01.729-1.629.837-1.011.633-1.671-.626-2.615-.665-.448-.094-1.219-.209-1.587.117l1.085 1.576c-.539.678-1.025 1.502-1.04 2.371.699.34 1.764.178 2.408-.078.378.543.584 1.16.79 1.778 1.013-.483 1.248-1.629 1.31-2.672.337-.923 1.292.084 1.857-.419.612-.752 1.577-1.063 2.621-.947.816-.309.705-1.324.896-2.021.646.092 1.441.059 2.114.273.549.24.58.838.612 1.357-.108 1.466 1.813 2.141 1.309 3.759-.691.354-1.509.438-2.252.646-.148.103-.42.13-.393.377.573.242 1.247.457 1.991.398-.041.82-1.111.584-1.679.863-.37.203-.966.21-1.084.684.476.342 1.268.158 1.789.129-.435 1.021-1.806.519-2.621.998-.148.076-.445.129-.393.401.154.445.748.265 1.048.459-.691.406-1.532.64-2.021 1.364-1.029 1.179-.387 3.033 0 4.296.104.396-.165.771.112 1.065.099.049.148-.052.222-.076.507-1.223.092-2.808.874-3.935.392-.401.886-.682 1.382-.735.005.447-.015.896.163 1.265.89-.333.476-1.793 1.418-1.929.204.445.187 1.065.661 1.31.71-.753-.076-2.233 1.186-2.62.303.442.384.988.786 1.405l.148-.075c.363-.824.251-1.891.366-2.736.727-1.521.853.76 1.646.578.316-.552.183-1.369.077-1.963-.332-.74.583-1.1.426-1.818-.608-1.061-.202-2.403.509-3.28.289-.916.029-1.906-.576-2.594zm-13.05-18.571c1.242-.04 2.19.446 3.235.658l.402.417c-1.468-.257-2.936-.538-4.452-.619.123-.225.493-.378.815-.456z"/><path fill="#7F151A" d="M21.308 12.952h-2.164v1.759h2.124v1.324h-2.124v2.67H17.01v-7.079h4.298v1.326zm7.362 5.561a5.15 5.15 0 0 1-1.709.314c-2.357 0-4.289-1.416-4.289-3.731 0-2.144 1.76-3.59 4.167-3.59.465 0 1.304.131 1.81.354l-.525 1.253c-.344-.101-.971-.131-1.173-.131-1.021 0-2.053.657-2.053 2.195 0 1.507 1.042 2.175 2.154 2.175.455 0 .879-.082 1.203-.162l.415 1.323zm13.605.192h-2.133V13.75h-.02c-.546 1.851-1.113 3.408-1.679 4.955h-1.345c-.577-1.547-1.153-3.104-1.709-4.955h-.02v4.955H33.69v-7.079h2.892c.485 1.354.971 2.7 1.446 4.359h.021c.456-1.659.93-3.004 1.396-4.359h2.833v7.079h-.003zm6.12-5.753H46.23v1.395h2.112v1.324H46.23v1.71h2.599v1.324h-4.731v-7.079h4.297v1.326zm3.448 5.753v-5.753H49.8v-1.326h6.22v1.326h-2.043v5.753h-2.134zm11.165-6.371l-3.154 5.047h3.326v1.324h-6.027v-.718l3.227-5.035H57.9v-1.326h5.106l.002.708z"/><image width="315" height="376" overflow="visible" transform="translate(-440 -108.11) scale(.9999)" xlink:href="6975EF75.jpg"/></svg>