<svg xmlns="http://www.w3.org/2000/svg" viewBox="0 0 512 512"><path fill="#ffc66c" d="M155.647 35l61.414 38.94L95.677 185.374l32.325 6.631-.571.573 45.63 9.36-88.121 88.49 65.062-17.424-16.084 26.308 61.142-16.375-103.544 169.37 146.485-89.305-11.692 44.532 56.75-34.599-17.011 64.793 53.951-53.726 9.335 45.508 35.724-35.575 6.049 29.485 76.89-84.496 21.988 35.286 16.952-18.629V250.5L274.399 35z"/><circle cx="336.995" cy="174.997" r="164.997" fill="#fff"/><g fill="#72d8ff"><path d="M337.049 114.123l-.329.239v3.322l-23.763 17.265 18.977 58.406h44.765l12.319-37.913-51.969-37.758zM300.343 14.099l63.71 22.729V48.25l.329-.144V36.827l34.259-14.917C379.596 14.232 358.794 10 336.999 10a165.43 165.43 0 0 0-36.656 4.099zM477.81 88.978l-6.148 52.848 30.31 31.125c-.373-30.749-9.158-59.469-24.162-83.973zM224.106 141.827l-7.758-48.492c-13.186 23.104-20.948 49.701-21.556 78.062l29.314-29.57zM223.083 265.759c17.779 21.69 40.972 38.762 67.521 49.159l-23.484-40.706-44.037-8.453zM474.291 266.515l-40.976 7.697-29.923 51.874c28.94-12.735 53.515-33.546 70.899-59.571z"/></g><path d="M134.752 415.948c-2.63 0-5.21 1.069-7.07 2.93a10.074 10.074 0 0 0-2.93 7.07c0 2.63 1.07 5.21 2.93 7.069a10.059 10.059 0 0 0 7.07 2.931c2.63 0 5.21-1.07 7.07-2.931a10.072 10.072 0 0 0 2.93-7.069c0-2.631-1.07-5.21-2.93-7.07s-4.44-2.93-7.07-2.93z"/><path d="M510.168 200.244c.017-.101.029-.202.042-.303a175.73 175.73 0 0 0 1.786-24.944c0-79.857-53.939-149.542-131.17-169.461-5.35-1.383-10.801 1.837-12.181 7.186-1.379 5.348 1.838 10.801 7.186 12.181 3.374.87 6.696 1.852 9.966 2.932l-49.152 21.309-54.359-19.228a156.456 156.456 0 0 1 17.546-5.434c5.363-1.319 8.641-6.736 7.321-12.1-1.319-5.362-6.733-8.646-12.1-7.32a172.702 172.702 0 0 0-29.27 10.082 10.01 10.01 0 0 0-1.181-.076H110.589a10 10 0 0 0-5.355 18.445l50.394 31.953L43.241 168.639a10 10 0 0 0 4.753 17.162l59.848 12.277L2.918 303.441a10 10 0 0 0 9.673 16.715l115.828-31.021L1.472 496.784A9.998 9.998 0 0 0 10.007 512c1.789 0 3.59-.479 5.202-1.462l95.967-58.506c4.715-2.875 6.208-9.027 3.333-13.743-2.875-4.717-9.028-6.209-13.744-3.333l-60.664 36.982 118.431-193.72a9.999 9.999 0 0 0-11.119-14.875L43.308 291.225l91.781-92.165a10.002 10.002 0 0 0-5.077-16.852L71.179 170.14l107.586-98.768a9.998 9.998 0 0 0-1.407-15.812l-32.324-20.495h86.941c-11.926 8.95-22.749 19.419-32.092 31.186-24.782 31.208-37.88 68.811-37.88 108.745 0 5.558.272 11.053.782 16.48l.01.114a173.663 173.663 0 0 0 18.448 63.132c.251.614.56 1.2.926 1.752 29.358 55.562 87.741 93.52 154.832 93.52 57.147 0 107.981-27.538 139.938-70.037v86.503l-20.453-32.823a9.999 9.999 0 0 0-7.583-4.671 10.02 10.02 0 0 0-8.3 3.229l-98.759 108.527-12.047-58.729a10 10 0 0 0-16.852-5.076l-92.422 92.035 27.151-103.409a10 10 0 0 0-14.878-11.078l-72.53 44.218c-4.715 2.875-6.208 9.028-3.333 13.743 2.875 4.716 9.027 6.21 13.744 3.333l51.354-31.309-30.197 115.011a10 10 0 0 0 16.729 9.625l105.364-104.924 12.277 59.849a9.998 9.998 0 0 0 7.148 7.633 9.99 9.99 0 0 0 10.044-2.912L446.499 355.43l31.952 51.275a10.001 10.001 0 0 0 18.488-5.288V245.982a173.57 173.57 0 0 0 13.229-45.738zm-99.306 60.925l-30.84-47.458 16.465-50.673 41.781-9.381 7.107-1.596 44.307 49.663a153.826 153.826 0 0 1-15.746 45.813l-63.074 13.632zm-147.488-.366L197.5 242.517a153.76 153.76 0 0 1-14.26-47.886l44.858-42.687 49.412 11.094 16.465 50.673-30.601 47.092zM201.241 99.985l12.379 38.128-31.463 29.941c1.077-24.457 7.815-47.627 19.084-68.069zm290.748 74.282l-32.341-36.25 8.466-45.746c15.097 23.943 23.736 52.154 23.875 81.996zm-179.763 30.892l-15.21-46.811 19.91-14.466 19.91-14.466 39.82 28.932-15.21 46.811h-49.22zm34.937-138.777l63.812-27.665a154.564 154.564 0 0 1 40.785 32.022l-11.469 61.967-49.333 11.076-43.795-31.82v-45.58zm-90.239-24.224l69.911 24.73v45.074l-43.796 31.821-2.292-.515-47.921-10.76-17.46-53.781a154.354 154.354 0 0 1 41.558-36.569zm-44.223 225.335l48.446 13.448 22.929 39.745c-28.68-10.451-53.43-29.141-71.375-53.193zm98.598 60.36l-31.811-55.142 30.9-47.551h53.222l30.9 47.551-31.812 55.142a155.427 155.427 0 0 1-25.7 2.142c-8.754 0-17.336-.741-25.699-2.142zm78.623-7.168l22.758-39.448 45.613-9.857c-17.659 22.178-41.257 39.425-68.371 49.305z"/><path d="M336.999 20l.533.001h.051c5.5 0 9.971-4.444 9.999-9.95.028-5.522-4.427-10.021-9.95-10.05L336.999 0c-5.523 0-10 4.478-10 10s4.477 10 10 10z"/></svg>