<svg xmlns="http://www.w3.org/2000/svg" width="80" height="80" viewBox="0 0 80 80"><path fill="#FFF" stroke="#FFF" stroke-width="6.753" d="M39.985 76.766h.014C15.883 70.547 13.271 51.738 12.9 44.332c-.054-1.077-.041-2.028-.041-2.028v-27.65s10.217-5.418 27.14-5.418h-.026.028c16.924 0 27.139 5.418 27.139 5.418v27.65s.014.949-.039 2.028c-.37 7.406-2.984 26.215-27.1 32.434h.013-.029z"/><path fill="#001C51" d="M39.985 76.766h.014C15.883 70.547 13.271 51.738 12.9 44.332c-.054-1.077-.041-2.028-.041-2.028v-27.65s10.217-5.418 27.14-5.418h-.026.028c16.924 0 27.139 5.418 27.139 5.418v27.65s.014.949-.039 2.028c-.37 7.406-2.984 26.215-27.1 32.434h.013-.029z"/><path fill="#FFF" d="M39.985 74.504h.012c-22.364-5.765-24.787-23.952-25.13-30.82-.049-.999-.038-1.88-.038-1.88V15.861s9.474-5.027 25.167-5.027h-.021H40c15.692 0 25.169 5.027 25.169 5.027v25.942s.011.88-.039 1.881c-.345 6.868-2.766 25.056-25.13 30.82h.012-.027z"/><path fill="#001C51" d="M39.986 71.085h.012c-20.183-5.207-22.37-21.617-22.679-27.815-.045-.903-.034-1.698-.034-1.698V18.158s8.551-4.536 22.714-4.536h-.022H40c14.162 0 22.713 4.536 22.713 4.536V41.57s.011.794-.033 1.697c-.309 6.2-2.496 22.61-22.679 27.817h.011-.026z"/><path fill="#FFF" d="M27.21 23.619c0 .253.135.296.273.321.137.025.281.05.281.203 0 .093-.085.118-.231.118-.178 0-.443-.034-.98-.034-.537 0-.802.034-.982.034-.144 0-.23-.024-.23-.118 0-.153.145-.178.315-.203.188-.024.239-.152.239-.54v-3.783c0-.194 0-.321-.153-.406-.145-.067-.35-.067-.35-.176 0-.119.102-.127.255-.127.102 0 .367.034.903.034.538 0 .802-.034.981-.034.144 0 .231.034.231.118 0 .101-.196.152-.332.202-.188.077-.221.186-.221.422v3.969zm8.392.744c-1.519 0-2.379-1.503-2.379-2.778 0-1.445.827-2.778 2.379-2.778 1.519 0 2.379 1.502 2.379 2.778.001 1.443-.826 2.778-2.379 2.778zm-.094-5.286c-.563 0-.854 1.056-.854 1.933 0 1.63.394 3.083 1.093 3.083.512 0 .802-.828.802-2.103 0-1.352-.358-2.913-1.041-2.913zm6.507.792c0-.337-.05-.642-.315-.675-.136-.016-.314-.06-.314-.168 0-.077.051-.117.146-.117l.604.034.606-.034c.102 0 .163.042.163.127 0 .101-.145.135-.281.161-.207.042-.281.161-.281.446v4.611c0 .084-.07.11-.249.11-.104 0-.17-.026-.239-.127l-2.678-4.198h-.027v3.293c0 .533.162.617.333.642.169.026.341.009.341.16 0 .069-.069.127-.17.127l-.614-.034-.572.034c-.127 0-.188-.024-.188-.127 0-.295.545 0 .545-.531v-4.036c0-.574-.53-.271-.53-.506 0-.094.086-.152.231-.152l.605.034.613-.034c.171 0 .273.024.35.145l1.904 3.047h.016V19.87h.001zm1.904-.209c0-.49-.581-.128-.581-.381 0-.186.573-.472 2.004-.472 1.801 0 2.838.962 2.838 2.736 0 1.671-.957 2.719-2.37 2.719-.596 0-.987-.034-1.348-.034-.434 0-.696.034-.876.034-.145 0-.229-.024-.229-.118 0-.153.145-.178.28-.203.138-.024.282-.067.282-.32V19.66zm1.312 3.831c0 .236.205.448.444.448.581 0 1.074-.506 1.074-2.432 0-1.604-.425-2.381-1.133-2.381-.258 0-.386.126-.386.38v3.985h.001zm5.296.128c0 .253.137.296.275.321.135.025.282.05.282.203 0 .093-.088.118-.232.118-.181 0-.444-.034-.98-.034l-.982.033c-.145 0-.229-.024-.229-.118 0-.153.147-.178.315-.203.188-.024.24-.152.24-.54v-3.783c0-.194 0-.321-.155-.406-.145-.067-.349-.067-.349-.176 0-.119.103-.127.255-.127.104 0 .366.034.905.034l.98-.034c.145 0 .232.034.232.118 0 .101-.199.152-.336.202-.188.077-.222.186-.222.422v3.97zm4.562-3.75c0-.337-.054-.642-.315-.675-.135-.016-.315-.06-.315-.168 0-.077.051-.117.146-.117l.605.034.604-.034c.103 0 .163.042.163.127 0 .101-.146.135-.283.161-.206.042-.28.161-.28.446v4.611c0 .084-.069.11-.249.11-.104 0-.171-.026-.239-.127l-2.678-4.198h-.024v3.293c0 .533.162.617.331.642.171.026.344.009.344.16 0 .069-.071.127-.17.127l-.613-.034-.574.034c-.124 0-.187-.024-.187-.127 0-.295.546 0 .546-.531v-4.036c0-.574-.531-.271-.531-.506 0-.094.087-.152.231-.152l.604.034s.409-.034.615-.034c.17 0 .271.024.351.145l1.901 3.047h.019l-.002-2.232zm3.037-1.063c.33 0 .792.084 1.056.194.12.051.213.076.213.227l-.009.837c0 .262-.01.372-.207.372-.355 0-.398-1.359-1.177-1.359-.398 0-.597.27-.597.624 0 1.133 2.211 1.301 2.211 2.906 0 1.056-.92 1.757-1.98 1.757-.238 0-1.415-.009-1.415-.456 0-.481.018-.718.021-.895.026-.439.072-.583.285-.583.433 0 .212 1.664 1.166 1.664.521 0 .826-.371.826-.827 0-1.183-2.207-1.511-2.207-2.939.004-.989.968-1.522 1.814-1.522zm-37.387 8.716c0-.197-.053-.241-.237-.241l-.229.015c-.096 0-.111-.023-.111-.094 0-.155 1.079-.301 1.669-.301 1.375 0 2.232.907 2.232 2.378 0 1.032-.575 2.349-1.98 2.349l-.887-.029c-.599 0-.806.029-.961.029l-.074-.095c0-.08.037-.096.259-.11.236-.006.317-.131.317-.527v-3.374h.002zm.722 3.316c0 .417.201.586.584.586.763 0 1.219-.908 1.219-2.049 0-1.346-.532-2.27-1.345-2.27-.281 0-.458.103-.458.439v3.294zm3.386-3.375c0-.183-.052-.234-.273-.271-.142-.021-.207-.015-.207-.109 0-.079.059-.095.213-.095.067 0 .236.028 1.175.028.776 0 1.123-.028 1.337-.028.133 0 .17.028.17.14v.93c0 .094-.029.13-.082.13-.118 0-.074-.036-.243-.409-.2-.439-.406-.586-.976-.586-.355 0-.392.029-.392.198v1.486c0 .103.014.131.199.131.613 0 .643-.006.775-.277.119-.241.112-.336.208-.336.066 0 .089.036.089.132l-.03.63.03.615c0 .131-.015.205-.104.205-.111 0-.111-.147-.193-.402-.103-.336-.132-.358-.65-.358-.296 0-.325.006-.325.132v1.397c0 .527.088.681.59.681.488 0 .726-.204.916-.716.148-.388.141-.418.215-.418.067 0 .082.022.082.168V31.5c0 .103-.03.132-.177.132-.199 0-.555-.029-1.309-.029-.836 0-1.051.029-1.405.029-.132 0-.155-.038-.155-.088 0-.079.023-.102.126-.117.317-.051.392-.117.392-.336v-3.624h.004v-.004zm5.491-.117c0-.094-.044-.153-.17-.153h-.23l-.089-.08c0-.073.073-.108.177-.125.607-.072.992-.088 1.45-.088.991 0 1.552.336 1.552 1.061 0 .592-.369.863-.924 1.046v.015c.688.081 1.205.556 1.205 1.244 0 .687-.525 1.361-1.287 1.361l-1.102-.029c-.437 0-.724.029-.909.029-.125 0-.163-.029-.163-.081 0-.067.038-.067.192-.118.245-.081.296-.102.296-.3v-3.782h.002zm.723 1.31c0 .25.074.278.289.278.51 0 .938-.248.938-.981 0-.534-.309-.849-.827-.849-.34 0-.399.109-.399.301l-.001 1.251zm0 2.225c0 .353.164.542.591.542.392 0 .857-.292.857-1.186 0-.608-.317-1.098-1.05-1.098-.34 0-.399.044-.399.205v1.537h.001zm4.45.836c-1.138 0-1.848-1.244-1.848-2.409 0-1.164.71-2.407 1.848-2.407 1.139 0 1.849 1.244 1.849 2.407 0 1.164-.711 2.409-1.849 2.409zm0-4.612c-.731 0-1.05 1.303-1.05 2.203 0 .9.318 2.204 1.05 2.204.731 0 1.05-1.304 1.05-2.204 0-.9-.318-2.203-1.05-2.203zm3.429 3.901c0 .212.059.359.288.402.281.052.31.087.31.14 0 .052-.022.081-.096.081l-.79-.029c-.414 0-.614.029-.798.029-.073 0-.111-.029-.111-.095 0-.052.029-.096.155-.11.236-.022.318-.161.318-.307v-3.586c0-.241-.052-.321-.266-.336-.169-.015-.208-.043-.208-.094 0-.073.052-.11.133-.11l.738.029 1.087-.029c.806 0 1.293.514 1.293 1.199 0 .652-.54 1.012-1.139 1.091v.014c.221.036.311.139.422.358.605 1.207.68 1.631.894 1.771.147.094.265.03.265.14l-.088.066-.51-.029-.393.029c-.052 0-.089-.037-.133-.14l-.91-1.961c-.043-.096-.095-.155-.236-.155-.163 0-.229.037-.229.176v1.456h.004zm0-2.012c0 .146.022.175.237.175.665 0 1.02-.27 1.02-.995 0-.527-.354-.981-.799-.981-.369 0-.466.096-.458.388v1.413zm3.183-1.472c0-.197-.052-.241-.237-.241l-.229.015c-.096 0-.111-.023-.111-.094 0-.155 1.08-.301 1.67-.301 1.375 0 2.23.907 2.23 2.378 0 1.032-.576 2.349-1.981 2.349l-.887-.029c-.599 0-.806.029-.961.029l-.072-.095c0-.08.035-.096.258-.11.237-.006.317-.131.317-.527v-3.374h.003zm.724 3.316c0 .417.2.586.584.586.761 0 1.221-.908 1.221-2.049 0-1.346-.533-2.27-1.345-2.27-.281 0-.46.103-.46.439v3.294zm3.384-3.375c0-.183-.052-.234-.271-.271-.142-.021-.208-.015-.208-.109 0-.079.058-.095.212-.095.069 0 .236.028 1.176.028.775 0 1.122-.028 1.336-.028.133 0 .17.028.17.14v.93c0 .094-.028.13-.081.13-.117 0-.072-.036-.244-.409-.201-.439-.405-.586-.977-.586-.353 0-.392.029-.392.198v1.486c0 .103.015.131.198.131.616 0 .646-.006.777-.277.118-.241.111-.336.209-.336.067 0 .086.036.086.132l-.027.63.027.615c0 .131-.014.205-.104.205-.11 0-.11-.147-.191-.402-.104-.336-.132-.358-.649-.358-.297 0-.326.006-.326.132v1.397c0 .527.088.681.591.681.49 0 .725-.204.916-.716.147-.388.142-.418.214-.418.068 0 .078.022.078.168V31.5c0 .103-.027.132-.176.132-.199 0-.554-.029-1.309-.029-.834 0-1.05.029-1.403.029-.134 0-.157-.038-.157-.088 0-.079.023-.102.126-.117.316-.051.394-.117.394-.336v-3.624h.005v-.004zm3.927 2.512c-.11 0-.11.043-.213.469l-.186.761c0 .095.06.168.223.219.14.044.347.015.347.11 0 .045-.023.095-.132.095l-.533-.029c-.354 0-.48.029-.554.029l-.074-.073c0-.11.095-.066.253-.132.168-.073.244-.417.843-2.371.65-2.123.6-2.152.729-2.152.159 0 .098.088 1.009 3.015.368 1.187.413 1.456.561 1.508.169.059.258.038.258.125 0 .052-.021.081-.155.081l-.63-.03c-.399 0-.667.029-.746.029l-.098-.088c0-.065.073-.058.326-.117.095-.022.125-.11.125-.167 0-.067-.037-.161-.187-.688-.147-.534-.147-.592-.24-.592l-.926-.002zm.866-.205l.066-.022c0-.051-.045-.184-.325-1.15-.11-.38-.11-.412-.141-.412-.034 0-.034.046-.279.909l-.186.652.083.022h.782zm4.494.585v-2.592c0-.491-.105-.549-.297-.57-.208-.021-.229-.043-.229-.109 0-.051.029-.095.156-.095l.466.029.488-.029c.072 0 .149.037.149.095 0 .073-.046.094-.238.109-.169.014-.289.117-.289.366v2.715c0 1.009-.493 1.443-1.285 1.443-.77 0-1.464-.199-1.464-1.077v-3.154c0-.184-.03-.279-.134-.293-.259-.037-.28-.066-.28-.124 0-.043.036-.081.104-.081.14 0 .288.029.686.029.466 0 .718-.029.77-.029.089 0 .126.037.126.081 0 .073-.044.082-.272.124-.186.029-.273.103-.273.336v2.943c0 .659.331.995.923.995.485 0 .893-.351.893-1.112zm1.115-2.826c-.125-.233-.141-.307-.29-.336-.131-.029-.2-.029-.2-.109 0-.058.039-.095.114-.095l.641.029c.496 0 .643-.029.754-.029l.104.073c0 .073-.029.11-.258.132-.082.008-.156.052-.156.132 0 .102.059.197.633 1.339.521-1.04.63-1.172.63-1.295 0-.117-.109-.176-.31-.176-.066 0-.148-.021-.148-.095 0-.094.082-.11.159-.11.072 0 .242.029.589.029l.473-.029s.148.029.148.095c0 .059-.016.103-.11.109-.318.022-.459.146-.586.388l-.719 1.354.598 1.208c.571 1.15.591 1.202.763 1.281.104.051.163.066.163.117 0 .052-.016.088-.117.088l-.562-.029c-.563 0-.686.029-.754.029-.09 0-.119-.029-.119-.081 0-.088.112-.088.222-.125.118-.036.192-.087.192-.167 0-.073-.096-.242-.538-1.172-.17-.366-.207-.418-.222-.418-.036 0-.067.094-.361.636-.303.557-.369.74-.369.856 0 .132.079.22.295.263.141.03.202.044.202.11 0 .073-.045.095-.096.095-.112 0-.237-.029-.6-.029-.385 0-.518.029-.599.029-.122 0-.146-.023-.146-.095 0-.096.053-.096.191-.125.244-.059.258-.08.51-.519l.852-1.486-.973-1.872zm-27.587-7.968c0-.254-.138-.349-.275-.375-.128-.025-.275-.051-.275-.153 0-.093.076-.119.223-.119.18 0 .446.034.987.034.352 0 .868-.034 1.417-.034.927 0 1.614.443 1.614 1.335 0 1.335-1.527 1.215-1.527 1.309 0 .043.069.05.163.05.44 0 .653.077.817.485l.601 1.496c.25.612.567.34.567.586 0 .094-.078.127-.155.127h-1.158c-.369 0-.396-.034-.533-.399l-.61-1.641c-.112-.306-.207-.493-.454-.493l-.079.069v1.59c0 .262.01.467.215.552.163.066.309.042.309.204 0 .093-.086.118-.232.118s-.412-.034-.954-.034l-.987.034c-.113 0-.189-.025-.189-.118 0-.154.104-.179.241-.204.137-.026.275-.069.275-.324l-.001-4.095zm1.32 1.844l.078.042c.6 0 .969-.476.969-1.147 0-.596-.318-1.115-.78-1.115-.172 0-.268.069-.268.392v1.828zm-5.903 2.25c0 .294-.914.69-1.697.69-1.427 0-2.419-1.275-2.419-2.688 0-1.81 1.114-2.982 2.584-2.982.357 0 .714.069 1.01.155.174.061.305.113.322.302.018.258.026.594.026 1.042 0 .172-.079.241-.174.241-.505 0-.409-1.465-1.271-1.465-.461 0-1.035.69-1.035 2.499 0 1.671.426 2.621 1.053 2.621.201 0 .313-.225.313-.596v-1.249c0-.466-.531-.208-.531-.431 0-.121.069-.155.226-.155l.992.034.854-.034c.156 0 .191.042.191.128 0 .208-.444.027-.444.527v1.361zM37.162 49.089c0 .178.106.259.275.259.077 0 .123.015.123.063l-.103.069-.594-.017-.636.017-.087-.07.124-.063c.209 0 .307-.043.307-.19V47.42c0-.103-.021-.129-.086-.129l-.305.114-.052-.066c0-.04.049-.077.45-.263.431-.198.458-.219.517-.219l.066.052.001 2.18zm1.994-1.128c.348.149.651.365.651.778 0 .513-.492.786-.96.786-.413 0-.917-.217-.917-.701 0-.373.274-.453.544-.588-.248-.146-.451-.354-.451-.669 0-.484.439-.715.877-.715.476 0 .779.247.779.583.001.301-.283.44-.523.526zm-.563.352c-.115.166-.14.293-.14.493 0 .407.172.594.426.594s.402-.161.402-.384c.002-.385-.391-.555-.688-.703zm.448-.424c.138-.123.205-.229.205-.439 0-.202-.083-.463-.395-.463-.217 0-.304.15-.304.309.001.323.268.464.494.593zm2.331.072c.349.149.651.365.651.778 0 .513-.493.786-.959.786-.415 0-.919-.217-.919-.701 0-.373.275-.453.545-.588-.246-.146-.451-.354-.451-.669 0-.484.44-.715.876-.715.478 0 .782.247.782.583 0 .301-.284.44-.525.526zm-.564.352c-.114.166-.138.293-.138.493 0 .407.171.594.428.594.254 0 .4-.161.4-.384 0-.385-.394-.555-.69-.703zm.447-.424c.141-.123.207-.229.207-.439 0-.202-.081-.463-.396-.463-.216 0-.304.15-.304.309.001.323.269.464.493.593zm2.225 1.2c0 .178.107.259.274.259.077 0 .123.015.123.063l-.104.069-.594-.017-.635.017-.087-.069.123-.063c.209 0 .307-.043.307-.19V47.42c0-.103-.021-.129-.086-.129l-.304.114-.054-.066c0-.04.048-.077.447-.263.434-.198.459-.219.52-.219l.066.052.004 2.18zm-23.834-.609h12.51l7.83 8.419 7.809-8.419h12.511l-20.32 19.146-20.34-19.146z"/><g fill="#FFF"><path d="M33.458 39.116l-.796.016-1.14-.016c-.057 0-.099.016-.099.081 0 .07.078.07.132.078.263.042.246.15.246.394v1.444c0 .264.013.332-.257.377-.049.007-.111.027-.111.094 0 .061.041.076.099.076l.59-.016.631.016c.052 0 .099-.016.099-.076 0-.074-.077-.087-.131-.094-.26-.041-.243-.138-.243-.377v-.52c0-.108-.007-.167.128-.175l.175-.008c.436 0 .292.39.489.39.068 0 .085-.062.085-.114l-.017-.35.017-.349c0-.06-.016-.106-.081-.106-.073 0-.102.08-.118.133-.033.106-.082.195-.198.215l-.345.019c-.143 0-.136-.069-.136-.191h-.001v-.579l.042-.142.229-.024c.133 0 .28-.004.399.052.111.052.144.114.205.215.038.058.083.155.16.155.062 0 .083-.057.083-.11v-.391c0-.114-.029-.117-.136-.117zM48.786 40.966l-.103.086c-.073.138-.146.272-.268.373a.7.7 0 0 1-.434.155c-.295 0-.539-.167-.695-.406-.145-.224-.207-.517-.207-.781 0-.268.066-.563.226-.786a.859.859 0 0 1 .677-.365c.555 0 .566.483.756.483l.077-.07-.019-.116-.031-.207c-.019-.116-.019-.131-.13-.164a2.435 2.435 0 0 0-.616-.086c-.395 0-.832.109-1.152.341a1.262 1.262 0 0 0-.528 1.007c0 .391.21.774.522 1.007.293.221.716.301 1.077.301.267 0 .557-.049.786-.187.128-.073.123-.127.132-.26l.013-.172c.004-.059.008-.153-.083-.153zM41.993 40.398c.233-.397.384-.792.468-1.176 1.38 1.007 2.111 2.557 2.111 2.557S44.09 39.388 42.528 38c-.225-2.204-2.207-3.896-2.207-3.896s.925 1.45 1.045 3.171l-.024-.006v-.006a3.609 3.609 0 0 0-.456-.127c-.037-.008-.07-.023-.112-.032a3.64 3.64 0 0 0-.604-.065c-.012 0-.024-.003-.035-.003h-.002c-.023 0-.045-.007-.069-.007a4.048 4.048 0 0 0-1.254.184c.185-1.698 1.16-3.106 1.16-3.106s-1.831 1.612-2.251 3.66c-1.794 1.298-2.271 3.86-2.271 3.86s.794-1.525 2.225-2.491c.002.015.008.028.01.043-.014.01-.03.018-.045.026.087.404.242.814.493 1.227.063.107.141.193.211.289.171.24.354.462.554.643.01-.004.019-.012.029-.016.012.009.021.021.031.03-1.551.756-3.27.68-3.27.68s2.458.871 4.479-.036c1.983.657 4.293-.119 4.293-.119s-1.708.141-3.265-.548c.295-.259.573-.566.8-.957zm-2.478-.336c-.091-.123-.185-.246-.261-.388a3.742 3.742 0 0 1-.396-1.122l.024-.005.001.014a3.866 3.866 0 0 1 1.222-.185 3.67 3.67 0 0 1 1.128.208 3.848 3.848 0 0 1-.413 1.106 3.787 3.787 0 0 1-.771.948 4.023 4.023 0 0 1-.534-.576z"/></g></svg>