<svg xmlns="http://www.w3.org/2000/svg" width="80" height="80" viewBox="0 0 80 80"><path fill="#002E6D" d="M40 5.723C21.102 5.723 5.724 21.1 5.724 40c0 18.903 15.377 34.276 34.276 34.276 18.904 0 34.276-15.373 34.276-34.276C74.276 21.102 58.904 5.723 40 5.723z"/><path fill="#FFF" d="M39.948 9.443c16.882 0 30.572 13.688 30.572 30.563 0 16.885-13.69 30.573-30.572 30.573-16.876 0-30.559-13.688-30.559-30.573 0-16.874 13.683-30.563 30.559-30.563m0-1.26c-8.495 0-16.486 3.314-22.5 9.324-6.01 6.009-9.32 14.003-9.32 22.5 0 8.499 3.31 16.493 9.32 22.509 6.015 6.005 14.005 9.321 22.5 9.321 8.511 0 16.493-3.312 22.508-9.321 6.012-6.016 9.318-14.009 9.318-22.509 0-8.496-3.307-16.49-9.318-22.5-6.015-6.011-13.997-9.324-22.508-9.324z"/><path fill="none" d="M23.025 18.336l-2.142 2.355 1.92 1.752 2.142-2.356a1.298 1.298 0 1 0-1.92-1.751zM44.076 14.278a1.3 1.3 0 0 0-1.301-1.299h-2.928v2.6h2.928a1.305 1.305 0 0 0 1.301-1.301z"/><path fill="none" d="M24.862 18.251a1.3 1.3 0 0 0-1.836.084l-2.142 2.355 1.92 1.752 2.142-2.356a1.298 1.298 0 0 0-.084-1.835zM44.076 14.278a1.3 1.3 0 0 0-1.301-1.299h-2.928v2.6h2.928a1.305 1.305 0 0 0 1.301-1.301z"/><path fill="#FFF" d="M48.564 21.272L51.589 14a21.834 21.834 0 0 0-1.515-.621l-3.021 7.27c.52.184 1.021.397 1.511.623zM39.847 19.352v-2.38h2l1.718 2.717c.68.123 1.346.279 2.003.469l-2.059-3.29c1.175-.317 2.151-1.355 2.151-2.589 0-1.488-1.404-2.693-2.885-2.693h-4.521v7.833a20.41 20.41 0 0 1 1.593-.067zm0-6.373h2.928a1.3 1.3 0 0 1 1.301 1.299c0 .714-.583 1.3-1.301 1.3h-2.928v-2.599zM25.617 25.007l-1.786-1.626 2.209-2.435c.997-1.098.997-2.861-.095-3.858-1.098-1.003-2.886-.867-3.888.23l-3.278 3.612 5.715 5.204c.358-.387.733-.769 1.123-1.127zm-4.734-4.316l2.142-2.355a1.3 1.3 0 0 1 1.92 1.751l-2.142 2.356-1.92-1.752zM55.449 18.405c1.187-.277 3.347 1.875 3.757 3.329.353-.259 1.116-.824 1.116-.824-.913-2.606-4.561-5.209-6.293-3.576-1.031.967-.45 2.462.447 3.406l.871.918c.888.931 1.663 1.863.953 2.455-.766.627-2.894-.95-4.161-3.655l-1.145.864c.272.716.891 1.745 1.717 2.614.934.992 1.965 1.632 2.875 1.816.723.139 1.442.035 1.91-.406 1.184-1.096.759-2.69-1.103-4.645l-.772-.81c-.848-.899-.5-1.409-.172-1.486zM31.262 12.891a28.32 28.32 0 0 0-1.659.586l-.586 8.928a21.657 21.657 0 0 1 1.63-.901l.084-2.08c1.075-.477 2.2-.867 3.356-1.173l1.372 1.576a19.42 19.42 0 0 1 1.836-.313l-6.033-6.623zm-.475 5.101l.139-3.369 2.215 2.546c-.804.229-1.588.507-2.354.823z"/><path fill="none" d="M42.448 22.783c.766 11.252 5.459 19.408 13.166 25.196a17.366 17.366 0 0 0 1.866-7.861c0-8.834-6.535-16.13-15.032-17.335zM37.507 22.783c-8.5 1.203-15.042 8.499-15.042 17.334 0 2.826.677 5.502 1.867 7.865 7.716-5.788 12.406-13.945 13.175-25.199z"/><path fill="#002E6D" d="M39.979 45.7c-4.095 0-7.411 3.141-7.411 7.032 0 1.37.412 2.642 1.122 3.73a17.565 17.565 0 0 0 6.288 1.16c2.212 0 4.33-.414 6.283-1.16a6.832 6.832 0 0 0 1.115-3.73c0-3.891-3.308-7.032-7.397-7.032z"/><path fill="#EB0029" d="M46.446 40.468h-12.95c-2.147 3.556-4.92 6.632-8.158 9.247a17.597 17.597 0 0 0 5.422 5.288 8.121 8.121 0 0 1-.13-1.425c0-4.824 4.186-8.732 9.349-8.732 5.157 0 9.337 3.908 9.337 8.732 0 .482-.037.961-.12 1.425a17.754 17.754 0 0 0 5.414-5.283c-3.247-2.616-6.021-5.694-8.164-9.252zM46.045 39.785c-2.731-4.804-4.353-10.474-4.48-17.102a18.028 18.028 0 0 0-1.584-.075c-.546 0-1.079.03-1.607.076-.12 6.627-1.742 12.297-4.479 17.102l12.15-.001z"/><path fill="#FFF" d="M39.979 21.347c-10.352 0-18.77 8.417-18.77 18.77 0 10.345 8.418 18.762 18.77 18.762 10.34 0 18.769-8.418 18.769-18.762 0-10.352-8.429-18.77-18.769-18.77zm0 1.262c.53 0 1.067.028 1.585.075.126 6.627 1.747 12.298 4.478 17.102H33.893c2.737-4.804 4.359-10.473 4.479-17.102a18.078 18.078 0 0 1 1.607-.075zM22.466 40.117c0-8.835 6.541-16.13 15.042-17.334-.771 11.254-5.459 19.411-13.174 25.199a17.442 17.442 0 0 1-1.868-7.865zm23.796 16.346a17.562 17.562 0 0 1-6.283 1.16c-2.219 0-4.337-.414-6.288-1.16a6.797 6.797 0 0 1-1.122-3.73c0-3.892 3.315-7.032 7.411-7.032 4.089 0 7.396 3.141 7.396 7.032 0 1.37-.41 2.641-1.114 3.73zm2.935-1.46c.081-.469.12-.942.12-1.427 0-4.824-4.181-8.735-9.337-8.735-5.163 0-9.349 3.911-9.349 8.735 0 .484.049.961.13 1.427a17.633 17.633 0 0 1-5.422-5.289c3.236-2.613 6.009-5.693 8.158-9.248h12.95c2.146 3.558 4.917 6.634 8.165 9.253a17.76 17.76 0 0 1-5.415 5.284zm-6.749-32.22c8.497 1.205 15.032 8.5 15.032 17.334 0 2.826-.671 5.498-1.864 7.862-7.709-5.788-12.404-13.943-13.168-25.196z"/><path fill="#8D734A" d="M40.595 54.823a.963.963 0 0 1-.416-.564.21.21 0 0 0-.2-.158.225.225 0 0 0-.213.158.915.915 0 0 1-.414.564c-.039.021-.042.035-.028.058.129.247.339.555.595.769.03.024.054.024.061.024.006 0 .018 0 .049-.024.269-.214.47-.521.601-.769.01-.023.007-.037-.035-.058zM41.2 50.884c0-.705-.944-2.945-1.22-2.945-.03 0-.05.009-.072.039-.345.271-1.15 2.242-1.15 2.906 0 .54 1.076 1.943 1.076 2.715 0 .068.061.131.146.131a.135.135 0 0 0 .132-.131v-.019c.004-.759 1.088-2.156 1.088-2.696zM39.364 53.531c-.503-1.34-1.372-2.07-2.278-2.07a1.245 1.245 0 0 0 0 2.488c.204 0 .418-.1.518-.223.183-.198.147-.402.127-.438-.02-.054-.063-.044-.083-.042a.417.417 0 0 1-.49-.411c0-.231.188-.412.421-.412.407 0 1.122.392 1.512 1.227l.001.002.003.007c.022.054.078.082.135.079.085 0 .153-.061.153-.144-.001-.028-.005-.046-.019-.063zM42.831 51.461c-.904 0-1.78.73-2.285 2.07-.007.017-.022.035-.023.065 0 .084.07.145.153.145.063.002.119-.028.141-.082.002-.003.002-.005.002-.007.002 0 .002 0 .002-.002.39-.835 1.113-1.227 1.519-1.227.222 0 .415.181.415.414a.418.418 0 0 1-.488.411c-.028-.002-.067-.013-.085.041-.026.035-.059.24.122.438a.747.747 0 0 0 .527.223 1.245 1.245 0 0 0 0-2.489z"/><path fill="#FFF" d="M24.336 60.979l-.375-.279.32-1.052-1.001-.857-.992.478-.333-.313 2.932-1.384.354.308-.905 3.099zm.384-2.859l-1.014.484.702.593.312-1.077zM27.235 59.355l-1.642 2.501-.355-.233 1.648-2.499.349.231zM28.527 60.178l.504 2.786.006.002 1.039-1.975.375.204-1.363 2.592-.369-.167-.515-2.813-.005-.003-1.057 1.999-.363-.205 1.373-2.613.375.193zM33.6 62.353l-.137.4-.973-.336-.832 2.391-.398-.142.83-2.393-.973-.334.144-.399 2.339.813zM40.057 64.546l1.34.021-.01.772c-.008.534-.592.874-1.328.862-.786-.012-1.595-.562-1.575-1.557.01-.836.693-1.52 1.626-1.496.707.011 1.063.375 1.23.545l-.29.301c-.146-.147-.371-.415-.897-.425-.778-.011-1.242.49-1.25 1.101-.008.571.438 1.103 1.179 1.116.508.008.879-.226.884-.473l.004-.33-.919-.011.006-.426zM44.629 62.768l.053.419-1.963.287.119.759.985-.147.064.419-.998.145.133.892 2.033-.299.065.416-2.452.362-.417-2.91 2.378-.343zM47.287 62.029c.455-.141.955-.041 1.125.531.181.616-.165.928-.399 1.021l.916.988-.439.157-.91-.996-1.047.315.349 1.175-.403.113-.842-2.808 1.65-.496zm-1.119.777l.249.838 1.247-.383c.308-.092.425-.303.345-.571-.094-.321-.357-.324-.593-.252l-1.248.368zM56.395 60.334l-.374.298-.907-.558-1.069.757.213 1.063-.379.239-.622-3.148.383-.278 2.755 1.627zm-2.65-1.059l.217 1.104.753-.537-.97-.567zM55.482 57.244l1.998 2.164-.316.274-1.995-2.145.313-.293zM56.642 56.093l2.832.204.005-.004-1.667-1.5.29-.317 2.172 1.964-.252.315-2.855-.189-.007.006 1.685 1.52-.302.293-2.188-1.968.287-.324zM51.67 60.047l-.382.189-.053 2.075-1.733-1.166-.37.189 1.288 2.647.375-.17-.893-1.877.011-.004 1.703 1.153.068-2.055.008-.004 1.008 1.822.359-.213zM23.23 56.256c-.242-.896-1.148-1.775-1.836-1.775a.682.682 0 0 0-.408.135.607.607 0 0 0-.245.405c-.039.263.069.592.284.887l.315.417c.242.321.472.662.425.924a.39.39 0 0 1-.178.268.42.42 0 0 1-.193.048c-.422 0-1.143-.754-1.497-1.836l-.008-.03-.306.297-.004.005.001.006c.066.271.253.716.56 1.13.327.431.703.736 1.049.844a.903.903 0 0 0 .328.058.739.739 0 0 0 .394-.109.739.739 0 0 0 .298-.472c.05-.345-.131-.807-.547-1.364l-.277-.364c-.218-.298-.21-.483-.163-.604a.28.28 0 0 1 .23-.172c.014-.002.027-.002.047-.002.502 0 1.218.835 1.401 1.48l.003.023.018-.016c.102-.054.225-.124.299-.174l.009-.004v-.005zM36.13 64.665l-1.043-.229.095-.425 1.042.237-.094.417z"/></svg>