<svg xmlns="http://www.w3.org/2000/svg" width="80" height="80" viewBox="0 0 80 80"><path fill="#FFF" d="M40.318 7.937c-18.291 0-33.171 14.88-33.171 33.171 0 18.29 14.88 33.171 33.171 33.171 18.29 0 33.172-14.881 33.172-33.171 0-18.292-14.882-33.171-33.172-33.171zM64.323 61.21c-.327.392-.665.775-1.011 1.148l-.021.023a30.44 30.44 0 0 1-1.079 1.108c-.355.348-.72.687-1.092 1.019l-.033.03c-.374.331-.755.653-1.144.966l-.03.024c-.393.316-.793.622-1.202.92l-.017.011a31.169 31.169 0 0 1-18.376 5.96c-17.293 0-31.313-14.02-31.313-31.313a31.503 31.503 0 0 1 .474-5.45l.035-.194c.036-.198.074-.396.114-.593l.018-.091c.045-.219.092-.437.142-.654l.046-.199c.042-.18.086-.359.131-.537.013-.046.023-.093.035-.138a33.896 33.896 0 0 1 .372-1.315l.057-.188a28.812 28.812 0 0 1 .274-.831c.046-.135.094-.27.142-.405l.086-.238c.067-.182.137-.364.208-.546l.111-.278c.044-.111.089-.221.135-.332l.12-.288c.072-.168.145-.335.219-.501l.146-.318.121-.258.159-.333c.029-.058.059-.117.087-.176.106-.215.214-.428.326-.64l.099-.187c.212-.399.434-.793.664-1.182.023-.042.047-.081.071-.122.244-.409.496-.812.758-1.209l.04-.061c.274-.415.559-.822.853-1.223l.008-.011c.28-.381.567-.755.863-1.123l.133-.166C21.793 14.286 30.53 9.795 40.318 9.795c17.294 0 31.313 14.019 31.313 31.313a31.18 31.18 0 0 1-6.979 19.705l-.008.01c-.106.128-.212.258-.321.387z"/><path d="M63.879 17.547c-6.294-6.292-14.66-9.758-23.561-9.758-8.899 0-17.267 3.466-23.56 9.758C10.465 23.841 7 32.208 7 41.107s3.465 17.267 9.758 23.56 14.661 9.759 23.56 9.759c8.9 0 17.267-3.466 23.561-9.759 6.292-6.293 9.758-14.66 9.758-23.56s-3.466-17.266-9.758-23.56zM40.318 74.278c-18.291 0-33.171-14.881-33.171-33.171 0-18.291 14.88-33.171 33.171-33.171 18.29 0 33.172 14.88 33.172 33.171 0 18.29-14.882 33.171-33.172 33.171z"/><path fill="#009FE3" d="M11.725 28.327l.146-.318a44.91 44.91 0 0 0-.146.318zM12.662 26.415zM14.194 23.841zM12.237 27.242zM11.991 27.75zM66.112 49.74c.256.078.494-.051.583-.335l.187-.608-.873-.271-.188.609c-.089.284.035.526.291.605zM13.396 25.111zM66.836 41.836c-.661-.038-.824-.009-.977.108a.59.59 0 0 0-.216.428.57.57 0 0 0 .165.442c.139.136.296.188.958.228.66.038.828.004.981-.114a.564.564 0 0 0 .21-.422.578.578 0 0 0-.16-.448c-.137-.135-.3-.183-.961-.222zM65.271 30.281c.244-.112.334-.369.21-.638l-.268-.579-.83.384.267.579c.125.269.379.367.621.254zM55.893 20.778c.191-.046.333-.214.656-.653.324-.439.441-.624.43-.821-.006-.18-.097-.337-.28-.473l-.415-.306-1.34 1.818.415.306c.183.137.36.176.534.129zM66.266 32.832l-1.335-.034.261.821zM66.111 39.84c.232-.017.412-.176.39-.482l-.051-.703-.85.061.052.704c.022.305.227.437.459.42zM67.535 39.688c.238-.017.386-.189.366-.476l-.047-.66-.798.058.048.66c.022.287.193.435.431.418zM10.62 31.159zM59.913 65.529zM9.479 35.657l.035-.194-.035.194zM61.087 64.539zM9.628 34.87l.018-.091-.018.091zM62.212 63.49zM64.323 61.21zM11.139 29.726l.111-.278-.111.278zM10.846 30.51l.086-.238c-.03.08-.057.159-.086.238zM11.386 29.116l.12-.288-.12.288zM10.372 31.936l.057-.188-.057.188zM9.788 34.125l.046-.199-.046.199zM10.169 32.625zM9.966 33.388L10 33.25l-.034.138zM53.066 17.013c.107-.213.036-.429-.221-.558l-.591-.297-.359.714.592.296c.256.129.473.058.579-.155zM62.243 63.46zM17.921 56.818l.807-1.057-1.29.344zM24.274 63.259l.416-1.263-1.105.748z"/><path fill="#009FE3" d="M41.006 61.95a20.867 20.867 0 0 1-13.757-4.63c-3.731-3.022-6.359-7.298-7.397-12.038a21.044 21.044 0 0 1-.113-.555L9.368 36.33v-.002a31.503 31.503 0 0 0-.363 4.779c0 17.293 14.019 31.313 31.313 31.313a31.169 31.169 0 0 0 11.109-2.031L41.006 61.95zM17.157 57.8l.393-.513-.69-1.021-.625.171-.396-.585 3.578-.898.297.438-2.161 2.992-.396-.584zm2.286 2.804l-1.461-1.708 2.633-2.253.439.514-2.174 1.861 1.022 1.194-.459.392zm1.223 1.232c-.383-.36-.597-.716-.608-1.2l.62-.019c.009.309.175.565.406.783.293.276.557.309.747.107a.393.393 0 0 0 .119-.282c-.007-.094-.036-.161-.147-.3l-.258-.328c-.193-.242-.282-.453-.292-.67-.01-.23.086-.454.286-.667.423-.449 1.054-.451 1.6.062.347.327.519.648.539 1.061l-.602.017c-.013-.3-.188-.505-.354-.661-.263-.247-.523-.219-.687-.045a.325.325 0 0 0-.1.248.569.569 0 0 0 .141.312l.258.331c.201.248.286.442.295.651.019.251-.091.488-.305.715-.462.489-1.126.385-1.658-.115zm3.209 2.601l.204-.613-.986-.737-.535.366-.565-.424 3.084-2.021.425.318-1.061 3.533-.566-.422zm3.555-1.166a.562.562 0 0 0-.465-.063c-.183.063-.307.188-.642.759-.334.571-.382.74-.347.93a.564.564 0 0 0 .283.376c.291.169.551.079.753-.13l.592.347c-.476.562-1.096.628-1.65.304-.345-.203-.53-.463-.618-.785-.124-.473.069-.812.404-1.383.334-.572.536-.905 1.008-1.028.324-.082.643-.047.987.154.559.327.8.897.542 1.588l-.597-.35c.085-.28.04-.55-.25-.719zm3.622 1.811l-1.468-.651-.33.743 1.25.554-.244.552-1.25-.556-.342.771 1.468.651-.245.552-2.086-.926 1.405-3.168 2.087.925-.245.553zM64.324 61.209zM30.261 31.881a.961.961 0 0 1 .107-.007c.873 0 1.724 1.144 2.132 1.693.059.08.108.145.143.188.494.605 1.194 1.307 1.564 1.421.082.024.16.037.232.037.379 0 .518-.342.566-.546.086-.358-.211-.869-1.462-3.02-.38-.654-.847-1.457-1.417-2.452-2.504-4.369-.546-6.408-.382-6.567.98-1.199 4.13-2.41 8.269-2.41 2.839 0 8.359.615 13.444 4.733a20.87 20.87 0 0 1 7.036 21.498l-.358 1.358.067-1.403c.071-1.468.124-9.029-5.825-13.847-3.426-2.774-7.255-3.356-9.863-3.356-3.308 0-6.146.977-6.879 1.883-.665.821-.656 1.946-.647 3.137.009 1.253.019 2.549-.791 3.549v.001l.807.653a12.458 12.458 0 0 1 9.607-4.524c6.882 0 12.479 5.598 12.479 12.478 0 2.924-1.012 5.614-2.701 7.744l8.262 6.69a31.18 31.18 0 0 0 6.979-19.705c0-17.294-14.019-31.313-31.313-31.313-9.788 0-18.525 4.491-24.268 11.524a.154.154 0 0 1 .101.028l14.111 10.535zm35.844 20.847c-.333.736-.979.889-1.548.733l.28-.622c.332.065.575-.045.718-.358a.579.579 0 0 0 .009-.473c-.08-.174-.216-.278-.818-.551-.604-.273-.775-.308-.961-.252a.565.565 0 0 0-.342.321.623.623 0 0 0-.021.52.662.662 0 0 0 .356.331l.116.053.262-.581.52.234-.539 1.193-.462-.208c-.457-.207-.69-.398-.826-.736-.156-.387-.109-.717.043-1.055.162-.359.403-.571.713-.693.458-.172.815-.016 1.419.257.603.272.956.438 1.129.894.115.314.115.634-.048.993zm1.153-3.103c-.208.675-.792.932-1.346.762a.934.934 0 0 1-.682-.873l-1.657.298.231-.749 1.521-.238.145-.464-1.321-.409.2-.646 3.311 1.023-.402 1.296zm.986-4.203l-2.22-.39c-.393-.068-.669.12-.731.48-.063.358.132.636.523.703l2.22.39-.115.662-2.244-.394c-.725-.127-1.101-.766-.979-1.466s.695-1.173 1.42-1.046l2.243.394-.117.667zm.317-2.881c-.023.399-.172.683-.419.902-.365.325-.755.313-1.415.274-.661-.04-1.049-.071-1.374-.437-.22-.247-.335-.546-.312-.945.023-.397.172-.688.419-.907.364-.324.755-.306 1.415-.269.661.039 1.05.066 1.375.432.219.248.333.552.311.95zm-.054-3.318c.049.674-.302 1.095-.894 1.138a.802.802 0 0 1-.744-.375c-.082.216-.282.499-.743.531-.646.047-1.026-.37-1.071-.986l-.105-1.446 3.458-.251.099 1.389zm-.427-3.528c.091.468.042.83-.184 1.176l-.496-.339c.164-.25.142-.519.098-.744-.068-.354-.297-.482-.531-.437a.322.322 0 0 0-.225.143.56.56 0 0 0-.069.336l.017.417c.018.319-.026.526-.141.702-.132.214-.36.343-.667.402-.658.127-1.137-.345-1.276-1.062-.1-.516-.066-.929.209-1.329l.513.347c-.174.256-.188.562-.128.872.077.397.271.577.543.524a.388.388 0 0 0 .262-.16c.049-.079.064-.151.056-.329l-.018-.417c-.015-.31.036-.533.154-.715.126-.192.335-.317.62-.373.607-.116 1.121.25 1.263.986zm-.767-2.938l-2.915 2.26-.215-.672.521-.381-.375-1.172-.647-.013-.215-.673 3.686.146.16.505zm-1.264-3.328c.295.641.033 1.223-.492 1.466a.932.932 0 0 1-1.093-.193l-1.032 1.33-.328-.712.972-1.194-.205-.441-1.255.58-.284-.615 3.147-1.453.57 1.232zm-2.272-4.114l1.299 2.122-.516.315-.473-.772-2.44 1.495-.354-.577 2.44-1.494-.473-.772.517-.317zm-3.057-1.219c.026-.229.157-.435.388-.614.488-.378 1.111-.282 1.569.31.293.377.412.722.367 1.133l-.597-.08c.033-.297-.106-.526-.247-.707-.221-.285-.483-.297-.671-.151a.328.328 0 0 0-.138.229.566.566 0 0 0 .091.331l.204.366c.159.277.211.481.188.69-.021.251-.166.468-.413.659-.53.412-1.171.205-1.618-.372-.321-.416-.478-.799-.413-1.281l.615.078c-.04.308.085.586.278.837.247.319.502.393.721.224a.387.387 0 0 0 .161-.261c.01-.092-.009-.164-.097-.317l-.204-.366c-.152-.271-.208-.492-.184-.708zm-.174-2.746l-.413.439-1.17-1.1-.557.592.996.937-.413.44-.996-.938-.577.614 1.17 1.1-.413.44-1.663-1.564 2.373-2.525 1.663 1.565zm-4.449-3.712l1.006.742c.381.281.547.604.543 1.029-.005.366-.211.655-.551 1.118-.342.462-.557.746-.905.857-.404.131-.763.067-1.143-.213l-1.007-.742 2.057-2.791zm-2.933-1.698c.605.304.787.82.521 1.351a.803.803 0 0 1-.704.447c.143.181.284.497.076.91-.291.578-.844.693-1.396.416l-1.296-.651 1.557-3.097 1.242.624zm-5.411.243l.757-2.149.638.225-.748 2.126c-.132.376.01.679.354.8.344.122.648-.025.781-.401l.748-2.126.633.223-.756 2.149c-.243.693-.937.96-1.607.725-.671-.236-1.043-.879-.8-1.572zm-2.037-2.827l.66.151-.644 2.79 1.534.352-.136.588-2.192-.504.778-3.377zm-3.598 1.268c.075-.658.123-1.044.506-1.349.264-.205.568-.303.965-.258.644.072 1.095.496 1.139 1.231l-.688-.078c-.035-.289-.186-.516-.521-.554a.56.56 0 0 0-.45.13c-.142.131-.203.295-.278.953s-.051.832.059.991a.56.56 0 0 0 .41.228c.334.038.537-.15.636-.422l.683.077c-.208.707-.748 1.018-1.386.946-.396-.045-.673-.208-.883-.467-.305-.383-.266-.77-.192-1.428zm-4.153-1.349c.227-.245.512-.391.905-.41.807-.04 1.237.464 1.358 1.043l-.681.034c-.094-.327-.303-.492-.647-.475a.574.574 0 0 0-.424.206c-.119.152-.149.32-.117.981.033.661.08.829.214.969a.567.567 0 0 0 .441.158.618.618 0 0 0 .472-.219.658.658 0 0 0 .132-.469l-.006-.127-.637.032-.029-.568 1.309-.065.024.505c.024.501-.039.797-.278 1.071-.272.316-.588.424-.958.443a1.248 1.248 0 0 1-.942-.319c-.362-.328-.386-.717-.419-1.378-.031-.66-.045-1.049.283-1.412zm-3.412.162l1.729 1.845-.378-2.088.666-.121.617 3.41-.594.108-1.729-1.849.378 2.093-.666.121-.617-3.411.594-.108zm-1.62.395l.946 3.334-.651.185-.945-3.334.65-.185zm-3.381 1.501c.139-.303.365-.53.738-.673.604-.23 1.2-.063 1.577.57l-.646.246c-.165-.239-.403-.372-.716-.252a.557.557 0 0 0-.34.323c-.066.181-.047.356.19.974.236.618.337.762.508.853.13.07.295.08.468.013.314-.119.407-.379.37-.667l.641-.245c.14.723-.196 1.247-.796 1.476-.373.143-.692.124-.999-.009-.446-.2-.589-.561-.826-1.179-.234-.618-.368-.983-.169-1.43zm-2.101.62l2.73 2.482-.625.327-.466-.448-1.09.572.1.641-.626.328-.492-3.655.469-.247zm-3.055 1.817c.581-.402 1.199-.244 1.529.232.277.4.205.817-.003 1.109l1.487.789-.644.446-1.343-.752-.401.277.787 1.137-.557.385-1.972-2.85 1.117-.773zM15.918 21.485z"/><path fill="#009FE3" d="M28.667 17.893l-.961-.92.197 1.32zM25.368 18.388c-.152-.22-.42-.266-.665-.097l-.524.363.521.752.525-.363c.243-.168.295-.435.143-.655zM51.87 18.493c.274.138.492.029.598-.179.104-.209.06-.444-.214-.582l-.632-.316-.382.76.63.317z"/><path fill="#DC2F34" d="M19.738 44.728c-.737-3.854-.217-6.992.724-8.162.088-.141 1.017-1.512 3.548-1.512.892 0 1.886.174 2.955.518 1.091.351 1.973.641 2.69.876 1.843.606 2.606.856 3.003.856a.59.59 0 0 0 .257-.052c.214-.103.355-.241.406-.401.048-.147.022-.311-.075-.486-.188-.337-1.021-.877-1.715-1.235-.05-.026-.125-.06-.217-.102-.615-.283-1.894-.872-2.091-1.712a1.38 1.38 0 0 1-.021-.126L15.966 21.577a.146.146 0 0 1-.048-.091c-.295.367-.583.741-.863 1.122l-.008.011c-.293.4-.578.808-.853 1.223l-.04.061c-.262.397-.514.8-.758 1.209l-.071.122a32.51 32.51 0 0 0-.664 1.182l-.099.187c-.111.212-.22.425-.326.64l-.087.176-.159.333-.121.258-.146.318c-.074.167-.147.333-.219.501l-.12.288c-.046.11-.091.22-.135.332-.037.092-.075.185-.111.278-.07.182-.14.364-.208.546l-.086.238c-.048.135-.096.27-.142.405a23.226 23.226 0 0 0-.274.831l-.057.188a36.872 36.872 0 0 0-.203.69c-.058.208-.115.416-.169.625l-.034.138a30.056 30.056 0 0 0-.319 1.39l-.018.091c-.04.197-.078.395-.114.593l-.035.194c-.039.223-.077.447-.111.671v.002l10.37 8.399zM64.651 60.813l-8.262-6.69a12.46 12.46 0 0 1-9.778 4.735c-6.88 0-12.478-5.599-12.478-12.479 0-3.021 1.079-5.792 2.871-7.953l-.807-.653c-.81.999-2.079 1.258-3.307 1.51-1.167.239-2.268.464-2.933 1.286-.696.858-1.073 3.591-.5 6.678.408 2.198 1.654 6.342 5.422 9.394 3.441 2.785 7.408 3.371 10.13 3.371 2.348 0 4.134-.423 4.625-.552l1.356-.357-1.252.631a20.992 20.992 0 0 1-8.733 2.219l10.422 8.438a31.194 31.194 0 0 0 7.267-3.929l.017-.011c.408-.298.81-.604 1.202-.92l.03-.024a31.899 31.899 0 0 0 1.177-.996c.372-.332.736-.671 1.092-1.019l.031-.03c.358-.351.707-.711 1.048-1.078l.021-.023c.346-.373.684-.757 1.011-1.148l.001-.001c.107-.128.214-.258.319-.387.003-.006.005-.01.008-.012z"/><path fill="#FFF" d="M19.417 54.954l-3.578.898.396.585.625-.171.69 1.021-.393.513.396.585 2.161-2.992-.297-.439zm-1.496 1.864l-.483-.713 1.29-.345-.807 1.058zM21.054 57.157l-.44-.513-2.633 2.252 1.462 1.708.458-.391-1.022-1.194zM22.627 61.235c-.01-.209-.095-.403-.295-.651l-.258-.331a.566.566 0 0 1-.141-.312.321.321 0 0 1 .1-.248c.163-.174.424-.202.687.045.166.156.341.361.354.661l.602-.017c-.02-.412-.191-.733-.539-1.061-.546-.513-1.176-.511-1.6-.062-.2.213-.296.437-.286.667.01.217.099.428.292.67l.258.328c.111.139.141.206.147.3a.39.39 0 0 1-.119.282c-.19.201-.454.169-.747-.107-.231-.218-.397-.475-.406-.783l-.62.019c.012.484.226.84.608 1.2.532.5 1.196.604 1.656.114.216-.225.326-.463.307-.714zM25.076 61.008l-3.084 2.021.565.424.535-.366.986.737-.204.613.565.423 1.061-3.533-.424-.319zm-.802 2.251l-.689-.515 1.105-.748-.416 1.263zM28.278 64.338c.257-.69.016-1.261-.542-1.588-.345-.201-.663-.236-.987-.154-.473.123-.674.456-1.008 1.028-.335.571-.527.91-.404 1.383.087.322.273.582.618.785.555.324 1.174.258 1.65-.304l-.592-.347c-.202.209-.462.299-.753.13a.564.564 0 0 1-.283-.376c-.035-.189.013-.358.347-.93.335-.571.459-.696.642-.759a.566.566 0 0 1 .465.063c.291.17.335.439.251.718l.596.351zM27.805 66.772l2.087.926.245-.552-1.469-.651.342-.77 1.25.555.245-.552-1.251-.554.33-.743 1.468.651.245-.553-2.087-.925zM25.808 21.008l-.787-1.137.401-.277 1.343.752.644-.446-1.487-.789a.932.932 0 0 0 .003-1.109c-.33-.477-.948-.634-1.529-.232l-1.117.773 1.972 2.85.557-.385zm-1.629-2.354l.524-.363c.244-.169.513-.124.665.097.152.221.1.487-.144.656l-.525.363-.52-.753zM28.1 19.526l-.1-.64 1.09-.572.466.448.625-.327-2.73-2.482-.469.247.492 3.655.626-.329zm.567-1.633l-.763.4-.197-1.32.96.92zM30.549 17.943c.306.133.626.152.999.009.6-.229.936-.753.796-1.476l-.641.245c.037.289-.056.548-.37.667a.557.557 0 0 1-.468-.013c-.171-.091-.272-.235-.508-.853-.237-.618-.256-.793-.19-.974a.557.557 0 0 1 .34-.323c.313-.12.552.013.716.252l.646-.246c-.377-.632-.973-.8-1.577-.57-.373.143-.599.37-.738.673-.2.446-.065.812.171 1.43.234.618.378.979.824 1.179zM32.932 13.83l.946 3.334-.651.185-.946-3.334zM35.241 16.835l-.378-2.093 1.729 1.849.594-.108-.617-3.41-.666.12.378 2.089-1.728-1.845-.595.108.617 3.411zM38.104 16.065c.25.222.549.338.942.319.369-.019.686-.127.958-.443.239-.274.302-.57.278-1.071l-.024-.505-1.309.065.029.568.637-.032.006.127a.658.658 0 0 1-.132.469c-.101.127-.262.208-.472.219a.567.567 0 0 1-.441-.158c-.134-.14-.181-.308-.214-.969-.032-.661-.002-.829.117-.981a.574.574 0 0 1 .424-.206c.345-.017.553.148.647.475l.681-.034c-.121-.579-.551-1.083-1.358-1.043-.394.02-.679.165-.905.41-.328.363-.313.752-.281 1.413.03.661.055 1.049.417 1.377zM43.192 16.519c.638.072 1.178-.239 1.386-.946l-.683-.077c-.099.272-.302.46-.636.422a.56.56 0 0 1-.41-.228c-.109-.159-.134-.333-.059-.991s.137-.822.278-.953a.557.557 0 0 1 .45-.13c.335.038.485.265.521.554l.688.078c-.044-.735-.495-1.159-1.139-1.231-.396-.045-.701.053-.965.258-.383.305-.431.691-.506 1.349-.074.658-.113 1.045.191 1.427.212.259.489.422.884.468zM47.267 16.65l-1.535-.352.644-2.79-.66-.152-.778 3.378 2.193.504zM48.552 17.754c.671.236 1.364-.031 1.607-.725l.756-2.149-.633-.223-.748 2.126c-.133.376-.438.522-.781.401-.344-.121-.485-.424-.354-.8l.748-2.126-.638-.225-.757 2.149c-.242.694.13 1.337.8 1.572zM51.66 19.063c.553.277 1.105.163 1.396-.416.208-.413.066-.729-.076-.91a.805.805 0 0 0 .704-.447c.267-.53.085-1.047-.521-1.351l-1.243-.625-1.557 3.097 1.297.652zm.595-2.905l.591.297c.257.129.328.345.221.558-.106.213-.323.284-.579.155l-.592-.296.359-.714zm-.001 1.573c.273.138.317.373.214.582-.105.208-.323.317-.598.179l-.63-.317.382-.76.632.316zM56.189 21.384c.349-.112.563-.395.905-.857.34-.462.546-.751.551-1.118.004-.425-.162-.748-.543-1.029l-1.006-.742-2.057 2.791 1.007.742c.381.28.739.344 1.143.213zm.094-2.859l.415.306c.184.136.274.293.28.473.012.197-.105.382-.43.821-.323.438-.465.607-.656.653-.174.047-.351.008-.534-.128l-.415-.306 1.34-1.819zM58.173 23.875l.413-.44-1.17-1.101.577-.613.996.937.413-.44-.996-.936.557-.593 1.17 1.1.413-.439-1.663-1.564-2.373 2.525zM61.109 25.168c.088.153.106.225.097.317a.387.387 0 0 1-.161.261c-.219.169-.474.095-.721-.224-.193-.25-.318-.529-.278-.837l-.615-.078c-.064.481.092.865.413 1.281.447.577 1.088.784 1.618.372.247-.191.393-.408.413-.659.022-.208-.029-.413-.188-.69l-.204-.366a.566.566 0 0 1-.091-.331.33.33 0 0 1 .138-.229c.188-.146.45-.134.671.151.141.181.28.41.247.707l.597.08c.045-.411-.074-.755-.367-1.133-.458-.592-1.081-.688-1.569-.31-.23.179-.361.385-.388.614-.023.216.032.438.186.707l.202.367zM61.294 27.897l.353.578 2.441-1.495.473.772.515-.315-1.299-2.122-.515.316.472.772zM62.615 30.264l1.255-.58.205.441-.972 1.194.328.712 1.032-1.33a.935.935 0 0 0 1.093.193c.525-.243.787-.825.492-1.466l-.57-1.233-3.147 1.453.284.616zm2.599-1.201l.268.579c.124.27.034.526-.21.638-.242.113-.496.016-.621-.254l-.267-.579.83-.384zM63.683 32.779l.647.013.375 1.172-.521.381.215.672 2.915-2.26-.16-.505-3.686-.146.215.673zm2.583.053l-1.073.787-.262-.82 1.335.033zM66.816 34.711c-.285.056-.494.181-.62.373-.118.182-.169.405-.154.715l.018.417c.009.178-.007.25-.056.329a.393.393 0 0 1-.262.16c-.272.052-.466-.127-.543-.524-.06-.311-.046-.616.128-.872l-.513-.347c-.275.4-.309.813-.209 1.329.14.717.618 1.189 1.276 1.062.307-.06.535-.188.667-.402.114-.176.158-.383.141-.702l-.017-.417a.57.57 0 0 1 .069-.336.322.322 0 0 1 .225-.143c.234-.045.463.083.531.437.044.225.066.493-.098.744l.496.339c.226-.346.274-.708.184-1.176-.141-.738-.655-1.104-1.263-.986zM65.055 39.53c.045.617.426 1.033 1.071.986.461-.032.661-.315.743-.531a.8.8 0 0 0 .744.375c.592-.043.942-.464.894-1.138l-.1-1.389-3.458.251.106 1.446zm2.799-.978l.047.66c.02.286-.128.458-.366.476s-.409-.131-.431-.418l-.048-.66.798-.058zm-1.404.102l.051.703c.022.306-.157.465-.39.482s-.438-.115-.46-.42l-.051-.703.85-.062zM66.875 41.16c-.66-.037-1.051-.056-1.415.269-.247.22-.396.51-.419.907-.023.399.092.698.312.945.325.365.713.396 1.374.437.66.038 1.05.051 1.415-.274.247-.22.396-.503.419-.902.022-.398-.092-.702-.311-.949-.325-.366-.714-.394-1.375-.433zm.873 1.768c-.153.118-.321.152-.981.114-.662-.039-.819-.092-.958-.228a.572.572 0 0 1-.165-.442.59.59 0 0 1 .216-.428c.152-.117.315-.146.977-.108.661.039.824.087.962.222a.58.58 0 0 1 .16.448.57.57 0 0 1-.211.422zM64.698 45.408c-.122.7.254 1.339.979 1.466l2.244.394.115-.662-2.22-.39c-.392-.067-.586-.345-.523-.703.063-.36.339-.549.731-.48l2.22.39.117-.666-2.243-.394c-.724-.128-1.298.345-1.42 1.045zM64.148 47.951l1.321.409-.145.464-1.521.238-.231.749 1.657-.298a.934.934 0 0 0 .682.873c.554.17 1.138-.087 1.346-.762l.401-1.297-3.311-1.023-.199.647zm1.672 1.185l.188-.609.873.271-.187.608c-.089.284-.327.413-.583.335-.255-.08-.379-.322-.291-.605zM65.024 50.841c-.604-.272-.961-.429-1.419-.257-.31.122-.551.334-.713.693-.152.338-.199.668-.043 1.055.136.338.369.529.826.736l.462.208.539-1.193-.52-.234-.262.581-.116-.053a.662.662 0 0 1-.356-.331.623.623 0 0 1 .021-.52.565.565 0 0 1 .342-.321c.186-.056.357-.021.961.252.603.272.738.377.818.551.06.14.067.303-.009.473-.143.313-.386.424-.718.358l-.28.622c.569.155 1.215.003 1.548-.733.162-.358.162-.679.048-.993-.173-.457-.526-.622-1.129-.894zM29.489 32.36l.02-.025c.124-.154.259-.269.403-.346l-10.939-8.167 10.263 9.003a1.32 1.32 0 0 1 .253-.465z"/><path d="M15.966 21.577l13.237 11.612a.946.946 0 0 0 .021.126c.197.84 1.476 1.429 2.091 1.712.092.042.167.076.217.102.695.358 1.528.897 1.715 1.235.097.175.123.339.075.486-.051.16-.191.299-.406.401a.579.579 0 0 1-.257.052c-.397 0-1.16-.25-3.003-.856-.717-.235-1.599-.525-2.69-.876-1.069-.343-2.063-.518-2.955-.518-2.532 0-3.46 1.371-3.548 1.512-.941 1.17-1.461 4.308-.724 8.162.035.184.072.367.113.555 1.039 4.74 3.666 9.016 7.397 12.038a20.873 20.873 0 0 0 13.757 4.63 20.977 20.977 0 0 0 8.733-2.219l1.252-.631-1.356.357c-.491.129-2.277.552-4.625.552-2.722 0-6.689-.586-10.13-3.371-3.768-3.052-5.014-7.195-5.422-9.394-.573-3.087-.196-5.819.5-6.678.665-.821 1.766-1.046 2.933-1.286 1.228-.251 2.497-.511 3.307-1.51v-.001c.81-1 .8-2.296.791-3.549-.009-1.191-.018-2.316.647-3.137.733-.906 3.572-1.883 6.879-1.883 2.608 0 6.438.582 9.863 3.356 5.949 4.817 5.896 12.379 5.825 13.847l-.067 1.403.358-1.358a20.87 20.87 0 0 0-7.036-21.498c-5.085-4.118-10.605-4.733-13.444-4.733-4.138 0-7.289 1.211-8.269 2.41-.165.16-2.123 2.199.382 6.567.57.995 1.037 1.798 1.417 2.452 1.25 2.15 1.548 2.662 1.462 3.02-.049.204-.188.546-.566.546a.828.828 0 0 1-.232-.037c-.371-.114-1.071-.816-1.564-1.421a5.53 5.53 0 0 1-.143-.188c-.409-.549-1.26-1.693-2.132-1.693a.76.76 0 0 0-.107.007L16.151 21.347a.153.153 0 0 0-.101-.028l-.133.166a.15.15 0 0 0 .049.092zm3.007 2.245l10.939 8.167a1.326 1.326 0 0 0-.403.346l-.02.025a1.324 1.324 0 0 0-.253.466l-10.263-9.004zm13.442 10.12c.11.136 1.099 1.33 1.707 1.517.11.034.217.05.319.05.425 0 .735-.281.853-.772.114-.473-.132-.895-1.494-3.236-.379-.653-.846-1.455-1.416-2.45-2.433-4.243-.449-6.194-.429-6.213l.014-.015c.929-1.146 3.99-2.308 8.045-2.308 2.8 0 8.245.606 13.26 4.667 5.926 4.798 8.681 12.499 7.228 19.917-.104-2.801-.948-8.729-5.938-12.77-3.493-2.829-7.392-3.422-10.048-3.422-3.44 0-6.316 1.013-7.109 1.993-.731.903-.722 2.134-.713 3.324.009 1.201.018 2.443-.725 3.361-.743.917-1.96 1.167-3.138 1.408-1.166.239-2.372.485-3.103 1.389-.727.897-1.171 3.626-.561 6.917.717 3.865 2.679 7.264 5.526 9.568 3.508 2.841 7.545 3.437 10.315 3.437 1.379 0 2.568-.144 3.424-.291a20.71 20.71 0 0 1-8.092 1.653c-4.68 0-9.264-1.625-12.908-4.576-3.68-2.979-6.271-7.195-7.294-11.871-.882-4.024-.387-7.31.558-8.476l.012-.017c.008-.015.856-1.378 3.302-1.378.861 0 1.825.169 2.864.504 1.09.35 1.972.64 2.688.875 1.929.633 2.65.871 3.095.871a.859.859 0 0 0 .384-.082c.29-.138.483-.337.561-.578.072-.224.038-.473-.098-.719-.307-.554-1.683-1.274-1.838-1.354a6.177 6.177 0 0 0-.229-.108c-.527-.243-1.763-.811-1.926-1.511-.055-.233.014-.462.209-.703l.02-.025c.191-.234.396-.349.629-.349.724 0 1.545 1.103 1.896 1.574.062.084.112.153.15.199z"/><path fill="#FFF" d="M30.368 32.169c-.232 0-.438.115-.629.349l-.02.025c-.195.241-.264.47-.209.703.164.7 1.399 1.268 1.926 1.511.097.044.177.082.229.108.155.08 1.531.8 1.838 1.354.136.246.17.495.098.719-.077.24-.271.439-.561.578a.872.872 0 0 1-.384.082c-.444 0-1.166-.238-3.095-.871-.716-.236-1.598-.525-2.688-.875-1.04-.334-2.003-.504-2.864-.504-2.446 0-3.293 1.363-3.302 1.378l-.012.017c-.944 1.166-1.439 4.451-.558 8.476 1.024 4.676 3.615 8.893 7.294 11.871a20.576 20.576 0 0 0 12.908 4.576c2.774 0 5.547-.568 8.092-1.653-.855.147-2.045.291-3.424.291-2.771 0-6.808-.596-10.315-3.437-2.847-2.305-4.81-5.703-5.526-9.568-.61-3.29-.167-6.02.561-6.917.731-.904 1.938-1.15 3.103-1.389 1.177-.242 2.395-.491 3.138-1.408.743-.918.733-2.16.725-3.361-.009-1.19-.019-2.421.713-3.324.793-.98 3.668-1.993 7.109-1.993 2.656 0 6.555.593 10.048 3.422 4.99 4.041 5.835 9.969 5.938 12.77 1.453-7.418-1.302-15.119-7.228-19.917-5.015-4.061-10.46-4.667-13.26-4.667-4.055 0-7.116 1.161-8.045 2.308l-.014.015c-.02.019-2.004 1.97.429 6.213.569.995 1.036 1.797 1.416 2.45 1.362 2.342 1.607 2.764 1.494 3.236-.118.491-.428.772-.853.772a1.08 1.08 0 0 1-.319-.05c-.607-.187-1.596-1.381-1.707-1.517-.038-.045-.088-.115-.151-.199-.349-.471-1.171-1.574-1.895-1.574z"/><path fill="#FFF" d="M58.752 46.378c0-6.694-5.446-12.141-12.141-12.141s-12.14 5.447-12.14 12.141 5.446 12.142 12.14 12.142 12.141-5.448 12.141-12.142zm-14.795 9.119h-3.754c-2.024-.981-3.602-3.578-3.602-3.578v-5.656l.404-.403v-1.991l.606-.751.375-3.866.375 3.866.534.751v2.005l.246.246v3.779h3.49c0 4.473 1.877 5.165 1.877 5.165l-.551.433zm5.85-7.301c-.442-.136-.924-.136-1.097-.136-.174 0-3.097.252-3.097 3.06 0 2.809 2.309 3.116 2.673 3.116h4.117s.827.153.827.924c0 .77-.827.942-.827.942h-4.424c-.924 0-4.348-1.366-4.348-5.176 0-3.808 3.789-4.731 4.039-4.751-.789-.558-4.521-3.424-4.521-3.424s-.403-.346-.403-.787c0-.444.385-.963.789-.963h3.271c.403 0 1.076-.462 1.076-1.173s-.577-1.135-.923-1.135h-4.79v8.08c0 .384-.499.933-.933.933-.432 0-1.034-.376-1.034-.952v-9.089c0-.434.293-.866.754-.866h5.367s3.463.144 3.463 3.087c0 2.944-2.973 3.145-3.116 3.145.549.548 3.837 3.088 3.837 3.088s.838.808.981 1.326c.144.521.317 1.385.49 1.818s.606 1.01 1.818 1.01c1.213 0 2.164-.894 2.164-1.875s-.722-1.645-1.559-1.876c-.836-.23-3.722-.46-3.722-3.261 0-2.798 2.482-3.087 2.972-3.087.491 0 1.53.058 2.309 1.183.779 1.127.779 2.309-.231 2.309s-.894-.836-1.125-1.067c-.23-.23-.519-.52-.894-.52-.376 0-1.04.289-1.04 1.183 0 .895.673 1.01 1.04 1.087.365.078 2.115.462 3 1.193.885.73 1.154 2.059 1.154 2.692 0 .635-.23 1.925-1.231 2.866-1 .943-1.904 1.116-2.847 1.116s-3.402-.134-3.979-4.02z"/><path fill="#004996" d="M53.788 52.217c.942 0 1.847-.173 2.847-1.116 1.001-.941 1.231-2.231 1.231-2.866 0-.634-.27-1.962-1.154-2.692-.885-.731-2.635-1.115-3-1.193-.367-.077-1.04-.192-1.04-1.087 0-.894.664-1.183 1.04-1.183.375 0 .663.289.894.52.231.231.115 1.067 1.125 1.067 1.011 0 1.011-1.182.231-2.309-.778-1.125-1.817-1.183-2.309-1.183-.489 0-2.972.289-2.972 3.087 0 2.801 2.886 3.03 3.722 3.261.837.231 1.559.895 1.559 1.876s-.951 1.875-2.164 1.875c-1.212 0-1.646-.576-1.818-1.01s-.347-1.298-.49-1.818c-.144-.519-.981-1.326-.981-1.326s-3.288-2.54-3.837-3.088c.144 0 3.116-.201 3.116-3.145 0-2.943-3.463-3.087-3.463-3.087h-5.367c-.461 0-.754.432-.754.866v9.089c0 .576.602.952 1.034.952.434 0 .933-.549.933-.933v-8.08h4.79c.346 0 .923.423.923 1.135s-.673 1.173-1.076 1.173h-3.271c-.405 0-.789.519-.789.963 0 .441.403.787.403.787s3.732 2.866 4.521 3.424c-.25.02-4.039.943-4.039 4.751 0 3.81 3.424 5.176 4.348 5.176h4.424s.827-.173.827-.942c0-.771-.827-.924-.827-.924h-4.117c-.364 0-2.673-.308-2.673-3.116 0-2.808 2.923-3.06 3.097-3.06.173 0 .654 0 1.097.136.575 3.885 3.037 4.02 3.979 4.02z"/><path fill="#004996" d="M42.63 49.898h-3.49v-3.779l-.246-.246v-2.005l-.534-.751-.375-3.866-.375 3.866-.606.751v1.991l-.404.403v5.656s1.578 2.597 3.602 3.578h3.754l.55-.434c.001.001-1.876-.691-1.876-5.164z"/><path d="M46.611 33.9a12.458 12.458 0 0 0-9.607 4.524 12.42 12.42 0 0 0-2.871 7.953c0 6.881 5.598 12.479 12.478 12.479 3.958 0 7.491-1.853 9.778-4.735a12.423 12.423 0 0 0 2.701-7.744c.001-6.879-5.597-12.477-12.479-12.477zm0 24.62c-6.694 0-12.14-5.447-12.14-12.142 0-6.694 5.446-12.141 12.14-12.141s12.141 5.447 12.141 12.141S53.306 58.52 46.611 58.52z"/></svg>