<svg xmlns="http://www.w3.org/2000/svg" width="80" height="80" viewBox="0 0 80 80"><path fill="#26355C" d="M39.665 71.965a51.479 51.479 0 0 1-19.335-3.744l-.424-.17.631-1.568a51.867 51.867 0 0 1-3.131-1.372l-.65-.313 4.171-3.379v-5.318l.654.314a41.921 41.921 0 0 0 4.065 1.688l.457.165-.604 1.415a41.74 41.74 0 0 0 14.166 2.463h.001c4.853 0 9.611-.826 14.156-2.46l-.604-1.416.458-.162a41.844 41.844 0 0 0 4.059-1.686l.653-.315v5.313l4.215 3.443-.648.31c-.996.479-2.05.938-3.138 1.373l.609 1.504-.426.171a51.475 51.475 0 0 1-19.335 3.744"/><path fill="#CBA979" d="M21.383 56.826a41.607 41.607 0 0 0 4.109 1.709l-.603 1.411a42.406 42.406 0 0 0 29.539.005l-.602-1.412a42.01 42.01 0 0 0 4.103-1.706v4.804l3.827 3.125a50.315 50.315 0 0 1-3.536 1.527l.608 1.508a51.268 51.268 0 0 1-19.165 3.712 51.264 51.264 0 0 1-19.165-3.712l.634-1.569a52.433 52.433 0 0 1-3.531-1.527l3.78-3.063v-4.812m-.911-1.451V61.201l-3.441 2.789-1.122.907 1.301.625c.874.419 1.79.825 2.735 1.214l-.291.719-.343.848.847.341a52.167 52.167 0 0 0 9.608 2.834 52.498 52.498 0 0 0 19.798 0 52.045 52.045 0 0 0 9.605-2.834l.849-.341-.341-.848-.266-.657a50.766 50.766 0 0 0 2.739-1.212l1.297-.622-1.113-.91-3.49-2.85v-5.82l-1.308.627a41.606 41.606 0 0 1-4.016 1.668l-.916.325.382.894.224.52a41.22 41.22 0 0 1-13.545 2.273c-4.64 0-9.195-.764-13.555-2.275l.222-.522.381-.894-.916-.325a40.476 40.476 0 0 1-4.019-1.672l-1.306-.628z"/><path fill="#FFF" d="M30.859 56.477l-.311-.249a68.569 68.569 0 0 1-2.449-2.022c-2.436-2.005-4.438-3.76-6.193-6.509l-.036-.056-.001-.002c-.634-1.011-.982-2.209-1.093-3.77a18.26 18.26 0 0 1-.043-.916V22.559l-1.417-3.278.65-.264a52.113 52.113 0 0 1 10.397-2.981 53.598 53.598 0 0 1 9.321-.817h.684v.005c2.9.039 5.804.314 8.638.817a51.973 51.973 0 0 1 10.388 2.985l.646.261-1.389 3.27v20.396c-.028 1.372-.184 3.143-1.151 4.686l-.001.002-.036.056c-1.727 2.705-3.775 4.508-5.898 6.268-.845.758-1.758 1.491-2.726 2.267l-.308.246-8.847 6.328-8.825-6.329z"/><path fill="#CBA979" d="M39.683 15.903c3.139.002 6.227.283 9.203.812a51.133 51.133 0 0 1 10.251 2.946l-1.171 2.756v20.521c-.033 1.593-.246 3.069-1.057 4.349l-.014.022a.042.042 0 0 0-.011.021c-1.637 2.563-3.52 4.252-5.767 6.113-.919.826-1.909 1.61-3.001 2.487l-8.434 6.031-8.41-6.031c-.983-.79-1.888-1.507-2.729-2.246-2.379-1.96-4.353-3.682-6.06-6.354a.052.052 0 0 0-.011-.021l-.015-.022c-.657-1.038-.91-2.209-1-3.467a16.762 16.762 0 0 1-.042-.882V22.417l-.682-1.58-.513-1.184a51.2 51.2 0 0 1 10.259-2.942 52.69 52.69 0 0 1 9.204-.808m0-1.369c-3.164 0-6.34.278-9.439.827a52.753 52.753 0 0 0-10.535 3.021l-1.3.526.556 1.288.513 1.184.57 1.32v20.268c.005.302.021.612.044.949.118 1.65.488 2.934 1.164 4.031l.003.007.071.11c1.806 2.83 3.847 4.621 6.326 6.662.774.68 1.595 1.336 2.463 2.031l.297.24.029.023.03.021 8.409 6.031.797.571.798-.57 8.432-6.031.031-.022.029-.023.294-.234c.97-.777 1.89-1.514 2.745-2.283 2.162-1.791 4.25-3.632 6.027-6.416l.071-.111.003-.006c1.025-1.67 1.193-3.537 1.223-4.98V22.696l1.062-2.5.544-1.283-1.292-.522a52.593 52.593 0 0 0-10.522-3.024 54.262 54.262 0 0 0-8.074-.814v-.018h-1.369z"/><path fill="#E42620" d="M57.963 22.417l1.17-2.756a51.209 51.209 0 0 0-10.25-2.946v38.492l.78-.57c2.91-2.392 5.242-4.212 7.218-7.307.004-.01.006-.015.011-.021l.016-.022c.809-1.278 1.022-2.756 1.056-4.349"/><path fill="#26355C" d="M39.683 15.904v46.035l9.2-6.732V16.715a52.714 52.714 0 0 0-9.2-.811M21.416 42.938c.032 1.593.232 3.069 1.041 4.349l.014.022c.004.006.008.011.011.021 1.977 3.095 4.309 4.915 7.218 7.307l.78.57V16.71a51.23 51.23 0 0 0-10.26 2.942l1.196 2.764v20.522z"/><path fill="#E42620" d="M30.48 16.71v38.497l9.203 6.732V15.903c-3.141 0-6.227.279-9.203.807"/><path fill="#26355C" d="M26.893 36.391c-1.955 4.624-4.001 9.985-1.721 13.507 1.666 2.551 3.646 4.066 6.099 6.033l8.413 6.031 8.43-6.031c2.453-1.967 4.42-3.466 6.087-6.016.003-.008.004-.011.009-.016l.012-.019c2.281-3.521.236-8.866-1.719-13.49l-1.701-5.039c1.589-1.084 2.364-2.673 2.491-4.251a5.674 5.674 0 0 0-.635-3.121 4.564 4.564 0 0 0-1.181-1.424 4.069 4.069 0 0 0-.511-.343 11.321 11.321 0 0 0-.862-.442 8.807 8.807 0 0 0-1.156-.428 12.646 12.646 0 0 0-.972-.233c-.068-.014-.134-.029-.202-.042a8.175 8.175 0 0 1-.736-.179c-1.638-.478-2.718-1.396-3.231-2.928-.321.596-.621 1.188-.627 1.754-.009.945.423 1.824 1.286 2.547.109.091.225.174.336.262.441.354.898.694 1.358 1.025.117.082.229.167.346.249.642.454.954 1.109.968 1.76.007.389-.094.775-.297 1.116a16.794 16.794 0 0 0-1.636-.938 23.192 23.192 0 0 0-3.834-1.484c-.694-.204-1.281-.388-2.023-.551-.742.164-1.324.347-2.019.551-1.389.41-2.676.904-3.833 1.484-.579.291-1.125.604-1.636.938a2.094 2.094 0 0 1-.297-1.116c.013-.65.326-1.306.968-1.76l.345-.249c.462-.331.918-.672 1.36-1.025.111-.088.226-.171.334-.262.865-.723 1.295-1.602 1.287-2.547-.006-.566-.305-1.158-.627-1.754-.514 1.533-1.593 2.45-3.23 2.928a8.407 8.407 0 0 1-.735.179c-.07.013-.135.028-.203.042a12.938 12.938 0 0 0-.97.233 8.657 8.657 0 0 0-1.157.428 11.7 11.7 0 0 0-.863.442c-.18.103-.35.217-.511.343-.482.38-.879.868-1.18 1.424-.496.916-.724 2.015-.636 3.121.127 1.578.903 3.167 2.492 4.251l-1.68 5.04z"/><path fill="#FFF" d="M39.683 44.545c2.159 0 3.907 1.186 3.907 2.646l-1.349 2-1.334-2.563v-.604h-2.449v.604l-1.334 2.563-1.348-2c0-1.461 1.749-2.646 3.907-2.646M36.872 37.297l-2.98.526-1.613-1.323zM42.452 37.297l2.983.526 1.611-1.323z"/><path fill="#FFF" d="M53.292 27.101a5.674 5.674 0 0 0-.635-3.121 4.591 4.591 0 0 0-1.181-1.424 3.957 3.957 0 0 0-.511-.342c-.309-.175-.592-.32-.862-.443a8.643 8.643 0 0 0-1.537-.529 12.646 12.646 0 0 0-.591-.132c-.068-.014-.134-.029-.202-.042a8.175 8.175 0 0 1-.736-.179c-1.638-.478-2.717-1.396-3.231-2.928-.321.596-.621 1.188-.627 1.754-.009.945.423 1.824 1.286 2.547.109.091.225.174.336.262.441.354.898.694 1.358 1.025.117.082.229.167.346.249.642.454.954 1.109.968 1.76.007.389-.094.775-.297 1.116a16.794 16.794 0 0 0-1.636-.938 23.192 23.192 0 0 0-3.834-1.484c-.694-.204-1.281-.388-2.023-.551-.742.164-1.324.347-2.019.551-1.389.41-2.676.904-3.833 1.484-.579.291-1.125.604-1.636.938a2.094 2.094 0 0 1-.297-1.116c.013-.65.326-1.306.968-1.76l.345-.249c.462-.331.918-.672 1.36-1.025.111-.088.226-.171.334-.262.865-.723 1.295-1.602 1.287-2.547-.006-.566-.304-1.158-.627-1.754-.514 1.533-1.594 2.45-3.23 2.928a8.407 8.407 0 0 1-.735.179c-.07.013-.135.028-.203.042a12.938 12.938 0 0 0-.97.233 8.985 8.985 0 0 0-1.157.428c-.271.124-.554.269-.863.443-.18.102-.35.216-.511.342-.482.38-.879.868-1.18 1.424-.496.916-.724 2.015-.635 3.121.126 1.577.902 3.167 2.491 4.251l-1.677 5.039 2.869-2.814 8.137 2.261.19 3.324-5.167.953-.077-.395-2.416-2.837-.819 1.597 4.4 6.066.037.191c.874-1.06 2.673-2.051 4.481-2.328l-.326-1.237h2.965l-.326 1.237c1.808.277 3.609 1.06 4.481 2.118l.037.229 4.4-6.276-.819-1.597-2.416 2.837-.077.395-5.167-.954.191-3.323 8.135-2.261 2.895 2.814-1.701-5.039c1.588-1.084 2.363-2.674 2.49-4.251"/><path fill="#26355C" d="M46.588 31.038c0-.472.404-.854.9-.854s.9.382.9.854c0 .471-.404.854-.9.854s-.9-.383-.9-.854m-7.804 1.966c0-.471.402-.853.9-.853.497 0 .898.382.898.853 0 .472-.402.854-.898.854-.498 0-.9-.382-.9-.854m-7.805-1.966c0-.472.402-.854.899-.854.498 0 .9.382.9.854 0 .471-.403.854-.9.854-.497-.001-.899-.383-.899-.854M39.68 71.736a51.234 51.234 0 0 1-19.25-3.728l-.212-.086 3.502-8.67.21.086a41.943 41.943 0 0 0 15.748 3.049h.002a41.957 41.957 0 0 0 15.749-3.049l.211-.086 3.501 8.67-.211.086a51.234 51.234 0 0 1-19.25 3.728"/><path fill="#CBA979" d="M55.514 59.549l3.332 8.248a51.265 51.265 0 0 1-19.166 3.712 51.268 51.268 0 0 1-19.165-3.712l3.331-8.248a42.318 42.318 0 0 0 15.834 3.065 42.334 42.334 0 0 0 15.834-3.065m.253-.594l-.424.171a41.687 41.687 0 0 1-15.663 3.033 41.687 41.687 0 0 1-15.663-3.033l-.423-.171-.171.423-3.331 8.248-.171.425.424.17a51.653 51.653 0 0 0 9.523 2.808c3.224.621 6.524.937 9.812.937 3.287 0 6.588-.315 9.812-.937a51.576 51.576 0 0 0 9.523-2.808l.425-.17-.172-.425-3.331-8.248-.17-.423zM17.301 16.486c-.093-.217-.025-.416.164-.497.203-.087.398.011.461.158a.408.408 0 0 1 .037.202.92.92 0 0 0 .537-.077c.333-.143.481-.382.369-.645-.107-.249-.414-.26-.764-.236-.649.039-1.124.029-1.366-.533-.208-.486.022-1.033.637-1.297.567-.243 1.131-.139 1.288.225.094.217.013.399-.163.474-.212.091-.399-.014-.465-.167a.305.305 0 0 1-.029-.156.822.822 0 0 0-.44.08c-.301.128-.41.356-.315.578.106.25.408.251.76.231.627-.04 1.12-.026 1.362.537.246.577-.062 1.097-.685 1.364-.601.259-1.231.128-1.388-.241M20.704 15.298l.386-.139-.783-2.169-.576.208.177.492-.506.183-.345-.955 2.698-.975.345.955-.506.183-.177-.492-.576.207.782 2.17.389-.14.172.477-1.309.472zM22.862 14.516l.274-.081.143-2.433-.347.101-.143-.481 1.793-.527.142.481-.348.104 1.438 1.969.274-.081.144.487-1.22.359-.142-.482.366-.108-.332-.468-1.185.349-.025.572.385-.114.142.482-1.219.358-.14-.487zm1.761-1.57l-.809-1.119-.076 1.378.885-.259zM26.542 13.456l.368-.081-.49-2.235-.368.08-.108-.495 1.22-.268c1.166-.256 1.992.199 2.205 1.176.217.985-.291 1.785-1.557 2.063l-1.161.255-.109-.495zm1.241-.273c.833-.183 1.165-.729 1.014-1.42-.154-.705-.741-.983-1.544-.807l-.279.062.491 2.236.318-.071zM30.265 12.672l.373-.057-.345-2.265-.373.055-.076-.501 2.44-.372.142.935-.537.082-.066-.438-.969.148.133.873.989-.149.073.477-.988.15.139.924.974-.148-.066-.436.537-.081.141.932-2.444.372zM34.685 12.059l.392-.021-.021-2.291-.411.022-.028-.507.903-.049 1.114 1.779.911-1.89.898-.05.027.506-.411.024.231 2.279.391-.021.029.506-1.355.076-.028-.507.397-.023-.159-1.695-.852 1.706-.075.003-1.033-1.602.027 1.703.397-.022.027.508-1.343.073zM39.093 11.846l.287.006.87-2.28-.362-.007.01-.502 1.869.038-.011.502-.361-.007.778 2.313.286.004-.01.509-1.272-.026.012-.502.38.008-.174-.547-1.235-.025-.196.54.4.008-.009.502-1.271-.026.009-.508zm2.157-.967l-.438-1.311-.489 1.292.927.019zM42.934 11.955l.375.031.189-2.282-.375-.031.041-.506 1.377.115-.042.505-.436-.037-.19 2.288.906.075.039-.466.545.046-.078.966-2.394-.199zM45.905 12.203l.372.055.334-2.264-.37-.055.074-.502 1.341.199-.075.501-.405-.06-.13.864 1.51.224.128-.865-.408-.06.075-.502 1.339.199-.073.501-.372-.054-.335 2.264.372.055-.074.502-1.342-.198.074-.503.41.061.132-.909-1.508-.223-.136.908.408.061-.075.501-1.34-.198zM49.867 12.825l.368.079.485-2.238-.367-.079.105-.494 2.41.521-.2.922-.528-.116.092-.43-.957-.207-.187.863.977.211-.103.471-.976-.212-.197.913.96.209.095-.432.529.115-.2.922-2.412-.524zM52.929 13.505l.362.103.621-2.203-.362-.102.138-.489 1.232.348c.73.206 1.163.667.979 1.314-.116.411-.455.653-.843.697l.243 1.001.362.103-.136.487-.735-.208-.298-1.387c-.067-.015-.132-.027-.196-.045-.1-.029-.193-.055-.259-.078l-.201.715.396.111-.138.488-1.305-.369.14-.486zm2.4-1.169c.096-.333-.135-.571-.575-.694l-.295-.083-.288 1.02c.058.021.132.048.308.097.409.116.756-.007.85-.34M56.141 14.431l.354.124.755-2.164-.354-.124.167-.479 1.249.435c.762.267 1.014.749.85 1.218-.125.36-.43.516-.775.512.351.249.504.558.368.946-.183.518-.724.728-1.482.463l-1.298-.454.166-.477zm1.304.466c.369.129.669.063.774-.235.101-.289-.069-.53-.475-.67l-.407-.144-.313.901.421.148zm.408-1.348c.375.13.644.033.737-.237.093-.266-.073-.489-.454-.622l-.351-.122-.296.853.364.128zM59.181 15.512l.347.145.882-2.113-.347-.146.196-.467 2.275.951-.364.871-.501-.21.171-.407-.902-.378-.343.816.923.385-.186.446-.922-.386-.362.862.909.379.172-.407.498.209-.362.871-2.282-.953z"/><path fill="#CBA979" d="M24.408 65.542l.41.131.493-1.533-.404-.03.017-.363.715.043.198.063-.627 1.947.402.129-.112.352-1.206-.388zM26.499 65.883a.241.241 0 0 1 .18.301c-.007.029-.022.055-.032.075.045.03.109.06.19.082.334.09.702-.169.829-.619a.84.84 0 0 1-.623.077c-.477-.132-.742-.545-.627-.96.117-.433.581-.668 1.078-.531a.9.9 0 0 1 .563.423c.144.252.147.555.04.946-.224.813-.797 1.163-1.354 1.01-.204-.057-.374-.159-.472-.284a.378.378 0 0 1-.08-.335c.049-.18.185-.216.308-.185m1.278-.664a.412.412 0 0 0-.062-.342.555.555 0 0 0-.324-.229c-.257-.071-.506.064-.568.29-.066.242.087.456.379.536.257.071.513-.029.575-.255"/><path fill="#FFF" d="M29.726 66.046c.227-1.336 1.43-2.125 2.726-1.906 1.032.177 1.629.833 1.54 1.365-.056.325-.303.512-.579.464-.304-.051-.481-.276-.432-.565a.563.563 0 0 1 .085-.222c-.111-.121-.35-.268-.754-.335-.864-.146-1.638.401-1.794 1.325-.151.892.35 1.707 1.288 1.866.52.088.983-.071 1.375-.372l.417.613a2.42 2.42 0 0 1-1.912.467c-1.371-.233-2.194-1.315-1.96-2.7M34.488 68.396l.39.021 1.304-3.059-.492-.029.04-.685 2.543.149-.04.683-.492-.028.939 3.19.39.022-.041.69-1.73-.101.04-.683.52.031-.21-.755-1.683-.098-.296.724.547.032-.041.684-1.73-.102.042-.686zm2.986-1.207l-.525-1.808-.732 1.734 1.257.074zM39.929 68.643l.513-.022-.126-3.12-.513.021-.027-.691 3.359-.137.053 1.289-.741.03-.022-.604-1.335.054.049 1.204 1.361-.054.026.658-1.36.051.051 1.275 1.34-.054-.024-.602.738-.03.053 1.286-3.367.135zM45.294 65.862l.347 2.393.556-.081.101.684-1.81.265-.1-.685.507-.074-.449-3.09-.509.072-.099-.683 1.159-.171 2.603 2.482-.307-2.117-.556.081-.1-.685 1.79-.26.098.687-.486.07.551 3.782-.41.074z"/><path fill="#CBA979" d="M50.949 66.631l.468-.121-.452-1.755-.403.215-.203-.357.706-.389.226-.06.577 2.229.462-.12.105.404-1.381.356zM54.197 65.368c-.049-.158-.167-.263-.377-.274a1.26 1.26 0 0 0-.443.069l-.166.053-.124-.397.176-.056a.955.955 0 0 0 .392-.212c.111-.113.152-.246.106-.395-.069-.218-.331-.243-.566-.169-.161.05-.272.121-.333.2a.295.295 0 0 1 .099.137.284.284 0 0 1-.187.352c-.147.047-.319-.039-.379-.23a.454.454 0 0 1 .016-.269c.073-.208.277-.444.683-.57.514-.161 1 .002 1.121.391a.636.636 0 0 1-.141.612.685.685 0 0 1-.199.16c.086 0 .175.006.261.027.228.051.445.18.53.455.142.455-.223.869-.76 1.037-.381.12-.755.067-.972-.088a.467.467 0 0 1-.175-.229c-.053-.17.018-.342.184-.393a.277.277 0 0 1 .354.183.314.314 0 0 1 0 .177c.134.047.329.024.494-.026.27-.085.481-.307.406-.545"/></svg>