<svg xmlns="http://www.w3.org/2000/svg" width="80" height="80" viewBox="0 0 80 80"><path fill="#CF0A2C" d="M73.764 40c0 10.121-4.655 19.868-12.516 26.241-7.959 6.452-18.652 8.945-28.652 6.708-9.736-2.177-18.176-8.76-22.702-17.646-4.662-9.149-4.855-20.23-.521-29.539 4.203-9.031 12.402-15.903 22.041-18.43 9.918-2.6 20.721-.482 28.906 5.695C68.721 19.373 73.764 29.472 73.764 40c0 18.647 0-18.648 0 0z"/><path fill="#FFF" d="M73.238 40c0 10.138-4.745 19.883-12.714 26.146-8.072 6.345-18.878 8.602-28.824 6.047-9.671-2.486-17.883-9.406-21.999-18.502-4.243-9.37-3.844-20.48 1.06-29.52 4.773-8.795 13.474-15.121 23.33-16.89 10.039-1.8 20.552 1.178 28.136 8.002C69.191 21.553 73.238 30.628 73.238 40c0 18.358 0-18.358 0 0z"/><path fill="#CF0A2C" d="M40 67.178c8.583 0 16.802-4.184 21.891-11.091 5.694-7.729 6.871-18.162 3.01-26.965-.679.094-.372.457-.186.917a26.56 26.56 0 0 1 1.786 7.155 26.72 26.72 0 0 1-.434 8.358 26.743 26.743 0 0 1-6.924 12.969C52 65.902 40.95 68.562 31.24 65.174c-6.65-2.32-12.221-7.311-15.274-13.658a26.536 26.536 0 0 1-2.59-10.256 26.464 26.464 0 0 1 1.494-10.145c.196-.552 1.153-1.865.224-1.993-3.859 8.804-2.682 19.237 3.013 26.965C23.196 62.994 31.415 67.178 40 67.178zm28.778-39.749c4.551 10.381 3.031 22.7-3.864 31.673-6.177 8.038-16.045 12.685-26.177 12.281-9.862-.393-19.129-5.566-24.693-13.713A31.363 31.363 0 0 1 8.85 44.051a31.538 31.538 0 0 1 .065-8.576 31.208 31.208 0 0 1 1.848-6.955c.195-.495.795-1.19-.028-1.304-4.55 10.38-3.143 22.684 3.603 31.772 6.052 8.155 15.817 13.039 25.978 12.942 10.041-.1 19.613-5.069 25.518-13.182 6.599-9.066 7.936-21.252 3.426-31.533-.146.067-.36.115-.482.214 1.688 3.852 0 0 0 0zM65.346 40c0 10.188-6.325 19.611-15.757 23.472-9.547 3.905-20.807 1.483-27.924-5.971-7.121-7.457-9.011-18.832-4.657-28.187 4.314-9.268 14.049-15.131 24.255-14.63C54.581 15.339 65.346 26.675 65.346 40c0 13.999 0-13.998 0 0zM16.08 27.78a19.907 19.907 0 0 0-.796-.769c.217-.113.562.03.865-.079.529-.189 1.001-.936.613-1.457-.7-.943-2.066.567-2.86.667-1.259.153-1.933-1.227-1.507-2.262.081-.198.906-1.511 1.188-1.192.185.208.37.414.566.61-.473.108-1.925.502-1.247 1.422.547.741 1.5-.145 2.033-.467 2.385-1.436 3.478 2.598 1.145 3.527 0 0 .189-.074 0 0zm3.109-4.25a39.707 39.707 0 0 0-2.765-2.405c-.142-.116-.801-.765-.912-.631-.303.364-.568.743-.831 1.134a2.737 2.737 0 0 0-.521-.434 48.498 48.498 0 0 0 2.666-3.201c.153.168.33.315.522.437-.161.145-1.051.868-1.013 1.08.029.161.49.446.637.569.996.843 1.99 1.696 3.06 2.444a5.95 5.95 0 0 0-.843 1.007c-.284-.276 0 0 0 0zm1.494-1.886c.062-.075.487-.36.505-.436.039-.158-.22-.56-.291-.736-.074-.182-.422-.741-.27-.886.271-.253.549-.496.829-.739.22-.19.383-.466.658-.305.299.174.597.351.894.53.393.236.345.218.661-.073.23-.211.469-.414.723-.596a99.955 99.955 0 0 1-3.455-1.717c-.526-.273-1.512-1.121-1.98-.753-.503.395.324 1.675.529 2.239.403 1.103.702 2.517 1.197 3.472zm-.652-3.45a16.682 16.682 0 0 1-.289-.896c.58.272 1.145.576 1.696.901-.338.323-.694.622-1.051.922a17.679 17.679 0 0 1-.356-.927zm4.837-.118c.601-.392 1.265-.678 1.866-1.069 1.518-.985 1.993-2.558.912-4.104-1.637-2.342-3.758-.208-5.553.594 1.006 1.377 2.006 3.075 2.659 4.656l.116-.077zm.357-1.625c-.392-.679-.779-1.362-1.165-2.045-.182-.324-.357-.653-.536-.979-.155-.286.505-.516.739-.618 1.618-.71 3.247 1.203 2.894 2.799-.115.53-.71 1.293-1.286 1.383-.43.068-.394-.115-.646-.54zm4.825-1.092a24.013 24.013 0 0 0-1.745-5.068 42.494 42.494 0 0 0 2.841-.978c.032.221.107.438.218.631-.188.052-1.693.4-1.651.561.139.517.329 1.023.508 1.526l1.613-.625c.036.224.115.444.222.643a62.38 62.38 0 0 0-1.664.491c.207.597.397 1.203.642 1.783.071.166 1.446-.504 1.641-.587.042.224.121.439.221.643-.959.3-1.922.582-2.846.98-.059-.271 0 0 0 0zm6.064-1.715c.834-.097 1.684-.03 2.511-.185 1.656-.305 2.525-1.554 2.277-3.22-.42-2.813-3.278-1.85-5.24-1.931.287 1.681.431 3.645.313 5.35l.139-.014zm1.042-1.296c-.051-.824-.098-1.647-.142-2.472-.021-.373-.029-.746-.044-1.12-.005-.149 1.134-.084 1.191-.077 1.62.211 2.018 2.628 1.103 3.772-.34.423-1.212.843-1.767.669-.414-.131-.303-.282-.341-.772zm4.818 1.158c.412-1.682.653-3.589.668-5.32a42.8 42.8 0 0 0 2.981.375 1.72 1.72 0 0 0-.085.665c-.191-.037-1.697-.389-1.727-.226-.103.526-.159 1.062-.219 1.595l1.723.149a1.988 1.988 0 0 0-.086.673 52.04 52.04 0 0 0-1.708-.292c-.079.626-.175 1.254-.213 1.885-.012.18 1.522.185 1.729.194-.06.219-.086.447-.086.673-.989-.152-1.976-.328-2.977-.371.065-.269 0 0 0 0zm6.437 1.249c.302.098.588.224.865.376.263-.813.563-1.606.877-2.401.137.619.221 2.865.788 3.031.359.106.706.26 1.036.438-.223-1.037-.445-2.075-.67-3.11 1.317.19 2.537-1.302 1.287-2.293-.745-.591-1.736-.676-2.548-1.135a30.89 30.89 0 0 1-1.976 4.995c.11.03.231.094.341.099zm2.253-3.337c.134-.34.215-.802.534-.82 1.441.569.416 2.532-.962 1.906l.428-1.086zm1.771 5.101c1.053-1.366 2.06-3.02 2.757-4.597.843.544 1.698 1.06 2.577 1.544a1.847 1.847 0 0 0-.345.574c-.161-.111-1.395-1.042-1.488-.906-.306.442-.572.911-.842 1.374.503.278 1.007.555 1.515.832a1.984 1.984 0 0 0-.348.583 63.46 63.46 0 0 0-1.447-.958c-.326.542-.669 1.078-.955 1.641-.08.161 1.314.783 1.505.876a2.39 2.39 0 0 0-.35.581c-.845-.541-1.68-1.093-2.579-1.544.169-.221 0 0 0 0zm3.355 2.149a32.237 32.237 0 0 0 3.301-4.224c.316.33.672.61 1.071.837a31.196 31.196 0 0 0-3.304 4.222 5.736 5.736 0 0 0-1.068-.835c.234-.254 0 0 0 0zm1.843 1.248c1.519-.976 3.009-1.994 4.506-3.003.258.426.524.354.291.889a63.57 63.57 0 0 0-1.36 3.417 57.684 57.684 0 0 0 3.525-.978c.567-.176.48.093.882.41-1.189 1.348-2.433 2.667-3.535 4.09a5.712 5.712 0 0 0-.876-.98c.85-.857 1.662-1.746 2.477-2.636-.621.156-3.648 1.312-3.973.935-.32-.376 1.094-3.119 1.313-3.725-.945.665-1.955 1.295-2.821 2.061a1.242 1.242 0 0 0-.429-.48zm4.732 5.213c.357-.095.706-.206 1.058-.32-.01.244-.302.476-.354.793-.094.55.332 1.33.973 1.248 1.165-.148.516-2.084.815-2.823.499-1.211 2.073-1.069 2.755-.151.131.176.807 1.472.415 1.558-.272.06-.543.119-.809.196.084-.29.302-.652.212-1.037-.114-.5-.602-.949-1.115-.65-.648.376-.302 1.555-.311 2.171-.049 2.558-3.954 1.34-3.639-.985 0 0-.027.202 0 0zM31.426 69.071c.886.201 2.352.464 2.134-1.006-.109-.772-1.078-.783-1.667-.975-.098.598-.514 1.479-.467 1.981zm.526-.343c.108-.422.166-1.275.559-1.296.721.191.799 1.176.188 1.581-.375.249-.892.145-.747-.285zm1.759.915c.188-.639.326-1.335.385-2.003.371.085.744.162 1.12.218a1.1 1.1 0 0 1-.047.247c-.652-.178-.665-.162-.776.47l.654.104c0 .05-.032.204-.049.251a12.408 12.408 0 0 0-.646-.156c-.14.707-.202.757.528.827-.002.063-.03.2-.051.26a9.81 9.81 0 0 0-1.118-.218zm1.692.295c.102.041.251.032.361.062.01-.295.042-.588.087-.881.68.172 1.513-.709.691-1.038-.309-.122-.668-.099-.992-.167-.024.36-.338 1.981-.147 2.024zm.537-1.469c-.028-.927.982.623-.066.488.021-.147.009-.352.066-.488zm1.238-.339c.164-.009.333.035.499.032-.063.407-.367 1.549.056 1.838 1.013.683.952-1.277.949-1.77.06-.008.236.008.296.021-.103.769.086 2.088-1.044 2.01-1.149-.085-.742-1.327-.756-2.131zm2.197 2.157c.061-.676.069-1.362.025-2.037.138-.016.376-.014.513.004a13.23 13.23 0 0 0-.023 2.04c-.172-.023-.346.014-.515-.007zm.923-.092c.009-.132.064-.278.087-.411.15.35.976.494.773-.048-.13-.353-.724-.328-.86-.724-.336-.962 1.423-1.03 1.042-.357-.156-.267-.88-.408-.691.08.107.279.539.299.744.49.558.732-.426 1.329-1.095.97zm2.993-.079c-.032-.546-.067-1.102-.177-1.638-.162.178-.317.223-.469.047.213-.1.412-.216.607-.344.353-.23.17-.044.276.211.193.458.116 1.174.207 1.675-.149-.003-.298.049-.444.049zm1.946-.589c-.113.261-.362.349-.608.262.103.242.286.201.549.076.594-.288.666-1.183.338-1.691-.366-.575-1.395-.221-1.273.474.092.558.742.635 1.046.221.043.228.027.444-.052.658-.072.17.076-.171 0 0zm-.029-.735c-.195.516-.635-.319-.523-.623.184-.506.643.309.523.623-.03.078.029-.079 0 0zm1.061.346c.207.647.859.192.578-.349-.119-.229-.448-.053-.488-.204-.049-.196.371-.129.279-.549-.111-.482-.567-.305-.481.131a.9.9 0 0 1-.314-.161c.406-1.024 1.815-.059.924.458 1.081-.1.422 1.605-.633 1.063.042-.113.068-.286.135-.389.041.132 0 0 0 0zm2.107-.019c-.123-.534-.257-1.074-.454-1.585-.129.199-.274.271-.45.126.19-.135.368-.282.538-.443.309-.289.162-.071.309.161.266.419.317 1.138.49 1.615-.154.02-.288.099-.433.126z"/><path fill="#FFF" d="M33.262 55.304c0 3.667 3.07 6.738 6.738 6.738 3.666 0 6.737-3.071 6.737-6.738 0-3.665-3.071-6.736-6.737-6.736-3.668-.001-6.738 3.069-6.738 6.736 0 3.716 0-3.714 0 0z"/><path fill="#CF0A2C" d="M46.354 54.016a6.51 6.51 0 0 0-1.732-3.252c-.32-.327-.793-.87-1.27-.873-.596-.006-1.189.929-1.496 1.377-.315.463.118.962.287 1.472.115.352.212.709.288 1.072.113.539.282.425.764.62.673.27 1.333.622 1.887 1.095.558-.36.972-.932 1.272-1.511-.345-1.71-.374.721 0 0zm-8.5 6.145c.458-.108 2.036-.537 2.036-1.108v-1.66-1.367c0-.146-.773-.557-.889-.635-.454-.314-.907-.632-1.36-.946-.427-.296-2.056.839-2.416 1.116-.805.624-.448 2.387.165 3.017a6.366 6.366 0 0 0 2.464 1.583c.77-.183-1.248-.432 0 0zm-2.936-4.636c.459-.394.994-.698 1.541-.946a8.177 8.177 0 0 1 1.039-.392c.062-.374.147-.743.253-1.104a8.49 8.49 0 0 1 .588-1.514c-.38-.626-.864-1.214-1.444-1.666-1.04-.134-2.079 1.404-2.529 2.195a6.45 6.45 0 0 0-.72 1.915c.299.583.713 1.156 1.272 1.512.67-.574-.434-.275 0 0zm10.154 2.876c-.521.594-1.122 1.117-1.815 1.504a6.43 6.43 0 0 1-.987.444c-.178.448-.406.89-.729 1.25a6.546 6.546 0 0 0 4.086-3.076 3.326 3.326 0 0 1-.555-.122c-.754.858.157.051 0 0zm-7.344 1.948a6.28 6.28 0 0 1-1.832-1.012 7.496 7.496 0 0 1-.741-.685c-.332-.349-.339-.188-.781-.129a6.542 6.542 0 0 0 4.085 3.076c-.322-.362-.551-.801-.731-1.25-1.189-.421.193.482 0 0zm-.612-10.548c.471.381.872.846 1.211 1.344.33.486 1.099.233 1.672.233.57 0 1.341.253 1.671-.233a6.183 6.183 0 0 1 1.209-1.344c-.049-1.373-5.701-1.381-5.763 0 .553.448.006-.122 0 0zm5.313 4.595c-.769.534-1.534 1.066-2.304 1.599-.271.191-.016 2.418-.016 2.797 0 .71.652.881 1.283 1.132 1.039.413 1.947-.22 2.75-.91.961-.825 1.158-1.595.959-2.856-.152-.965-1.837-1.511-2.672-1.762 0 0 .923.276 0 0z"/><path fill="#FFF" d="M24.489 35.177a24.03 24.03 0 0 0 .562-1.906c.253-1.02.491.063.758.452.706 1.04 2.116 1.371 3.297 1.115 1.046-.228 1.97-1.341 1.278-2.392-.571-.865-1.951-1.229-2.825-1.654-1.951-.951-4.195-2.824-2.428-5.166 1.598-2.119 5.272-2.06 7.383-.862a17.84 17.84 0 0 0-.583 1.566c-.241.757-.542-.214-.825-.5-.815-.822-2.349-1.126-3.39-.57-1.022.546-.969 1.824-.058 2.431 1.132.753 2.486 1.11 3.689 1.727 2.188 1.118 2.39 4.026.423 5.509-1.834 1.381-5.348 1.511-7.281.25.118-.346.413.269 0 0zm23.522.735c.651-.022 1.28.002 1.93.066-.115-1.899-.109-3.799-.109-5.701a94.63 94.63 0 0 1 2.917 5.018c.377.704.335.687 1.069.623.729-.063 1.472-.022 2.195.063-1.229-1.97-2.455-3.94-3.682-5.909 1.385-.351 2.516-1.239 2.64-2.739.107-1.285-.392-2.474-1.628-2.979-1.919-.787-4.056-.104-6.052-.367a75.49 75.49 0 0 1 0 11.992l.72-.067zm1.74-9.05c.004-.617.008-1.233.03-1.85.021-.531-.002-.409.409-.5.573 0 1.2.078 1.679.422.943.676.915 2.25.604 3.241-.382 1.218-1.556 1.569-2.726 1.553.003-.954-.003-1.913.004-2.866zM40 45.35c-.351-1.699-1.115-3.306-2.265-4.611A16.622 16.622 0 0 0 40 38.534c.68.806 1.44 1.543 2.263 2.205-1.15 1.303-1.914 2.911-2.263 4.611-.383-1.858.38-1.858 0 0zm-2.687-14.296c0-1.43.341-3.162 1.452-4.168 1.03-.934 2.278-.449 2.983.605 2.089 3.132.489 7.237-1.748 9.777-1.503-1.706-2.687-3.888-2.687-6.214 0-2.592 0 2.127 0 0zm21.916 3.333a.742.742 0 0 0-.352-.286c-.096.303.583.971.724 1.313.333.804.337 1.7.052 2.519-.604 1.73-2.274 3.001-3.899 3.715-3.806 1.672-8.349.818-11.846-1.203 2.348-1.803 5.877-2.624 8.655-1.32 1.558.729.291-.37-.407-.728a7.22 7.22 0 0 0-4.548-.69 9.166 9.166 0 0 0-3.946 1.736c-.436.328-.429.602-.935.25a15.9 15.9 0 0 1-1.899-1.559c-.468-.451.082-.767.389-1.246 1.635-2.552 2.509-5.717 1.647-8.701-.553-1.919-2.525-4.304-4.479-2.313-1.954 1.992-1.863 5.494-1.064 7.956.472 1.452 1.219 2.807 2.137 4.023-.571.58-1.19 1.113-1.847 1.596-.43.317-.524.596-.972.228a9.45 9.45 0 0 0-1.232-.858c-2.516-1.473-5.878-1.77-8.321.041-.497.371-.66.776.055.41.988-.509 2.063-.702 3.167-.732 2.104-.059 4.116.625 5.783 1.908-3.496 2.018-8.038 2.875-11.844 1.203-1.542-.679-3.091-1.84-3.784-3.417-.347-.791-.433-1.685-.175-2.514.127-.409.931-1.3.834-1.615-.4-.035-.908 1.111-1.025 1.385a5.439 5.439 0 0 0-.443 2.146c0 1.117.36 2.201.994 3.117 1.396 2.021 3.858 3.112 6.236 3.4 2.957.36 6.019-.43 8.594-1.879.222-.125 1.518-1.05 1.62-.944.432.433.833.897 1.193 1.392.889 1.222 1.499 2.624 1.712 4.122a9.022 9.022 0 0 1 1.291-3.5 11.69 11.69 0 0 1 1.45-1.851c.075-.035.14-.212.219-.22.302.216.607.424.923.62 2.534 1.584 5.562 2.504 8.565 2.321 2.432-.147 4.976-1.104 6.565-3.017 1.558-1.877 1.894-4.874.213-6.808-.105-.119.649.746 0 0z"/></svg>