<svg xmlns="http://www.w3.org/2000/svg" width="80" height="80" viewBox="0 0 80 80"><path fill="#2E2A25" d="M40.054 12.537v60.615s-8.16-6.296-17.95-8.859c0 0-7.772-4.896-8.471-10.49.43 2.026-2.033-9.281 4.275-30.31 0 0 .466-6.294-1.399-7.459l4.663-6.294c-.002-.001 15.06 2.804 18.882 2.797z"/><path fill="#E31B23" d="M40.024 12.537v60.615s8.159-6.296 17.95-8.859c0 0 7.928-5.362 8.625-10.959 0 0 1.864-8.856-4.431-29.841 0 0-.466-6.294 1.398-7.459L58.908 9.74c.001-.001-15.459 2.797-18.884 2.797z"/><path fill="#FFF" d="M33.886 17.094H46.33l7.435 7.491v12.73l-7.435 7.489H33.886l-7.43-7.489v-12.73l7.43-7.491z"/><path fill="#E31B23" d="M37.257 26.485a2.852 2.852 0 0 1 2.623-2.842v-6.549h-5.994l-7.43 7.491v12.731l7.43 7.488h5.994V29.327a2.852 2.852 0 0 1-2.623-2.842z"/><path fill="#FFF" d="M34.924 43.824l-1.786-.401-2.247-4.266s2.62-1.87-.115-3.858c-2.535-1.844-2.478-2.766-2.19-5.301l.519-2.823s.346-1.556-.863-1.556l.057-1.152s2.419-.346 2.074 2.995c0 0-1.152 4.955-.115 5.589 0 0 .23-3.745 3.11-6.165 0 0 2.074-3.053-.575-3.687 0 0-1.384-.576-2.421-.346l-.173-.921s2.823-.92 2.997-2.533c0 0 .576.114.576.403 0 0 .174-.808.808-.058 0 0 .979.691 1.901 3.284 0 0 2.073-1.095 2.88-.806l.05.867a3.468 3.468 0 0 0 .24 6.833l-.29.884s-1.382.057-2.765-1.21c0 0-.518.807-1.326 1.151 0 0-1.152.75-1.266 1.384 0 0 2.995 2.246.576 5.357 0 0-2.189 1.958-1.613 3.168-.002 0 .747 2.19 1.957 3.168zm-.231-11.463s1.958 2.362.575 4.608c0 0 1.383 1.209-.691 2.304l2.131 3.342 1.785.287s-1.441-1.728-1.844-2.479c-.403-.749-.807-1.325.749-2.707 0 0 2.017-2.305.519-4.264-1.495-1.955-3.338-1.437-3.224-1.091z"/><path fill="#2E2A25" d="M42.96 26.485a2.851 2.851 0 0 0-2.621-2.842v-6.549h5.991l7.435 7.491v12.731l-7.435 7.488h-5.991V29.327a2.853 2.853 0 0 0 2.621-2.842z"/><path fill="none" stroke="#FFF" stroke-width=".344" d="M42.96 26.485a2.851 2.851 0 0 0-2.621-2.842v-6.549h5.991l7.435 7.491v12.731l-7.435 7.488h-5.991V29.327a2.853 2.853 0 0 0 2.621-2.842z"/><path fill="#FFF" d="M45.293 43.824l1.786-.401 2.247-4.266s-2.62-1.87.115-3.858c2.535-1.844 2.477-2.766 2.189-5.301l-.52-2.823s-.346-1.556.865-1.556l-.059-1.152s-2.42-.346-2.072 2.995c0 0 1.149 4.955.114 5.589 0 0-.229-3.745-3.111-6.165 0 0-2.075-3.053.577-3.687 0 0 1.384-.576 2.42-.346l.172-.921s-2.823-.92-2.997-2.533c0 0-.575.114-.575.403 0 0-.174-.808-.809-.058 0 0-.979.691-1.9 3.284 0 0-2.072-1.095-2.879-.806l-.053.867a3.47 3.47 0 0 1 2.768 3.396 3.465 3.465 0 0 1-3.008 3.437l.293.884s1.383.057 2.764-1.21c0 0 .521.807 1.327 1.151 0 0 1.149.75 1.267 1.384 0 0-2.997 2.246-.578 5.357 0 0 2.19 1.958 1.615 3.168.001 0-.749 2.19-1.958 3.168zm.231-11.463s-1.961 2.362-.576 4.608c0 0-1.385 1.209.688 2.304l-2.132 3.342-1.788.287s1.439-1.728 1.845-2.479c.406-.749.808-1.325-.748-2.707 0 0-2.016-2.305-.519-4.264 1.502-1.955 3.347-1.437 3.23-1.091z"/><path fill="#FEBE10" d="M35.664 61.042c.298-.103.561-.314.714-.58h.011v1.879c0 .191-.013.344.166.46v.011h-.7v-.011c.207-.101.196-.259.196-.46v-1.287h-.387v-.012zm2.699 1.631c.534-.111 1.021-.596 1.021-1.156 0-.342-.189-.716-.573-.716-.287 0-.488.226-.488.505 0 .305.2.542.507.542a.712.712 0 0 0 .354-.104l-.227.274-.27.05a.68.68 0 0 1-.7-.691c0-.489.397-.812.868-.812.522 0 .866.407.866.913 0 .384-.204.755-.499.99-.304.242-.644.359-1.024.412l.165-.207zm2.627-.986c0 .339.111.918.538.918.331 0 .519-.406.519-.878 0-.478-.201-.897-.538-.903-.418.001-.519.54-.519.863zm-.357.035c0-.617.305-1.157.891-1.157.617 0 .883.599.883 1.141 0 .54-.27 1.159-.896 1.159-.524-.007-.878-.526-.878-1.143zm3.037-.68c.3-.103.564-.314.716-.58h.012v1.879c0 .191-.014.344.166.46v.011h-.701v-.011c.208-.101.196-.259.196-.46v-1.287h-.389v-.012z"/><path fill="#FFF" d="M25.293 57.169c0 .17-.031.445.16.519v.012h-.716v-.012c.192-.069.169-.349.169-.519v-1.43c0-.173.023-.45-.169-.522v-.014h1.212l.178-.018h.011v.441h-.011c-.118-.134-.272-.149-.447-.149l-.387.023v.703h.456l.163-.021h.012v.399h-.012c-.061-.112-.219-.105-.337-.105h-.282v.693zm1.557-.819c0 .531.375 1.076.969 1.076.576 0 .943-.42.943-.985 0-.554-.353-1.087-.951-1.087-.587 0-.961.424-.961.996zm2.344.016c0 .772-.64 1.333-1.394 1.333-.749 0-1.383-.538-1.383-1.314 0-.72.625-1.323 1.42-1.303.798-.004 1.357.602 1.357 1.284zm.746-.016c0 .531.375 1.076.97 1.076.576 0 .944-.42.944-.985 0-.554-.352-1.087-.952-1.087-.588 0-.962.424-.962.996zm2.346.016c0 .772-.639 1.333-1.394 1.333-.751 0-1.384-.538-1.384-1.314 0-.72.625-1.323 1.421-1.303.795-.004 1.357.602 1.357 1.284zm1.267.84c0 .217-.005.365.196.481v.012h-.75v-.012c.189-.071.167-.349.167-.519v-1.689h-.334c-.162 0-.333.042-.45.152h-.013l.133-.451h.011l.145.023h1.507l.175-.023h.011l-.12.451h-.013c-.048-.133-.2-.152-.325-.152h-.34v1.727zm1.895-.996c.247 0 .599-.083.599-.396 0-.26-.242-.398-.469-.375l-.254.025v.739h.125v.007zm.206 1.216c.309.029.624-.115.624-.474 0-.367-.355-.529-.688-.508l-.266.015v.937l.33.03zm-.718-1.689c0-.171.026-.448-.166-.521v-.014h.898c.5 0 .792.213.792.55 0 .257-.163.399-.379.494.342.069.619.301.619.671 0 .294-.201.543-.456.663-.264.131-.564.118-.848.118h-.625v-.012c.189-.071.166-.349.166-.523l-.001-1.426zm3.447-.209l-.375.955h.747l-.372-.955zm-.474 1.237l-.198.534c-.079.212-.105.322.077.391v.015h-.698v-.017c.22-.109.284-.319.368-.537l.634-1.581c.053-.136.125-.297-.056-.353v-.014h.598l.787 1.947c.087.215.155.428.373.537v.012h-.776v-.012c.186-.081.156-.125.053-.391l-.205-.532h-.957v.001zm3.261.661a.929.929 0 0 0 .672-.232h.012l-.198.506h-1.557v-.012c.191-.069.17-.349.17-.519v-1.43c0-.173.021-.45-.17-.522v-.014h.724v.014c-.193.07-.165.353-.165.522v1.653l.512.034zm1.988 0a.925.925 0 0 0 .672-.232h.013l-.201.506h-1.556v-.012c.193-.069.17-.349.17-.519v-1.43c0-.173.023-.45-.17-.522v-.014h.726v.014c-.193.07-.165.353-.165.522v1.653l.511.034zm5.137-1.812a1.311 1.311 0 0 0-.698-.214c-.522 0-.888.382-.888.933 0 .555.378 1.054.963 1.054.283 0 .568-.104.806-.24h.014l-.196.44a1.339 1.339 0 0 1-.57.117c-.895 0-1.447-.501-1.447-1.313 0-.784.553-1.303 1.33-1.303.231 0 .466.041.688.095v.431zm-25.41-3.557c0 .371-.006.626.338.827v.019h-1.29v-.019c.326-.124.286-.599.286-.894v-2.906h-.573c-.28 0-.573.071-.775.259h-.019l.227-.773h.021l.248.043h2.594c.11 0 .214-.005.3-.043h.019l-.208.773h-.021c-.084-.226-.345-.259-.56-.259h-.586v2.973zm2.951-2.889l-.646 1.643h1.284l-.638-1.643zm-.816 2.125l-.338.92c-.138.362-.184.554.13.671v.019h-1.2v-.019c.378-.188.489-.554.633-.925l1.088-2.719c.091-.233.215-.508-.098-.605v-.021h1.031l1.353 3.345c.15.371.268.736.64.925v.019h-1.336v-.019c.32-.143.268-.216.092-.671l-.352-.92H25.02zm4.298 1.096c.156.033.314.044.476.044.971 0 1.837-.505 1.837-1.633 0-1.141-.639-1.714-1.728-1.714-.196 0-.39.025-.586.071l.001 3.232zm-.663-2.882c0-.299.046-.775-.287-.872v-.021h1.597c1.485 0 2.411.811 2.411 2.106 0 1.284-.983 2.18-2.443 2.18h-1.564v-.019c.327-.221.287-.534.287-.918v-2.456zm4.932 2.848l.829.077a1.62 1.62 0 0 0 1.205-.383h.021l-.294.853H32.63v-.019c.332-.117.292-.599.292-.894v-2.457c0-.301.039-.774-.292-.9v-.021h2.084c.11 0 .222.015.307-.031h.019v.762h-.019c-.203-.231-.469-.259-.77-.259-.229 0-.457.007-.666.047v1.211h.775c.105 0 .209 0 .287-.04h.02v.69h-.02c-.104-.188-.377-.182-.581-.182h-.481v1.545h.002v.001zm5.365-3.741c.875 0 1.349.458 1.349 1.051 0 .575-.5 1.022-1.034 1.147l.938 1.179c.272.341.683.679 1.054.913h-.599c-.347 0-.561-.081-.757-.322l-.795-.984-.599-.919c.521-.078 1.129-.318 1.129-.932 0-.47-.406-.742-.843-.725l-.443.054v2.919c0 .3-.04.776.292.894v.02H37.4v-.02c.332-.117.287-.599.287-.894v-2.458c0-.3.046-.774-.287-.9v-.02h1.552v-.003zm2.947 3.741l.825.077c.432.041.879-.097 1.205-.383h.021l-.293.853h-2.718v-.019c.334-.117.295-.599.295-.894v-2.457c0-.301.039-.774-.295-.9v-.021h2.086c.113 0 .222.015.306-.031h.019v.762h-.019c-.203-.231-.47-.259-.771-.259a3.59 3.59 0 0 0-.663.047v1.211h.773c.104 0 .211 0 .287-.04h.021v.69h-.018c-.104-.188-.378-.182-.579-.182h-.483v1.545h.001v.001zm2.88-.298c0 .365-.007.626.34.827v.019h-1.154v-.019c.349-.203.349-.462.349-.827v-2.601c0-.365 0-.626-.342-.821v-.021h.953v.008l.098.165.093.127 2.385 3.014v-2.472c0-.363.006-.624-.341-.82v-.019h1.15v.019c-.34.196-.34.456-.34.82v3.656c-.464-.156-.668-.371-.956-.742l-2.231-2.835-.004 2.522zm4.461 0c0 .365-.008.626.339.827v.019h-1.153v-.019c.348-.203.348-.462.348-.827v-2.601c0-.365 0-.626-.34-.821v-.021h.951v.008l.1.165.09.127 2.385 3.014v-2.472c0-.363.007-.624-.337-.82v-.019h1.146v.019c-.339.196-.339.456-.339.82v3.656c-.463-.156-.664-.371-.954-.742l-2.232-2.835-.004 2.522zm-28.677-2.664c-.254-.261-.659-.412-1.023-.412-.372 0-.841.144-.841.593 0 .894 2.242.88 2.242 2.085 0 .697-.729 1.351-1.747 1.351-.398 0-.795-.059-1.167-.195L17.838 52c.385.332.919.539 1.427.539.372 0 .932-.221.932-.678 0-1.018-2.241-.835-2.241-2.219 0-.818.841-1.135 1.636-1.135.326 0 .658.048.971.146v.74zm34.575-.225l-.644 1.643h1.284l-.64-1.643zm-.814 2.125l-.339.92c-.137.362-.182.554.13.671v.019h-1.198v-.019c.379-.188.49-.554.634-.925l1.09-2.719c.09-.233.213-.508-.099-.605v-.021h1.029l1.355 3.345c.148.371.266.736.638.925v.019h-1.337v-.019c.32-.143.267-.216.093-.671l-.353-.92h-1.643zm3.526-1.758c0-.3.044-.773-.287-.9v-.021h1.239v.021c-.327.125-.287.605-.287.9v2.456c0 .296-.04.771.287.896v.017h-1.239v-.018c.324-.116.287-.6.287-.896v-2.455zm3.765-.142c-.254-.261-.659-.412-1.024-.412-.372 0-.841.144-.841.593 0 .894 2.242.88 2.242 2.085 0 .697-.729 1.351-1.746 1.351-.398 0-.795-.059-1.167-.195L58.891 52c.384.332.919.539 1.428.539.371 0 .931-.221.931-.678 0-1.018-2.241-.835-2.241-2.219 0-.818.841-1.135 1.636-1.135.325 0 .659.048.972.146v.74zm-8.672 7.997c-.165.219-.478.31-.742.31-.251 0-.515-.081-.686-.265-.201-.22-.192-.475-.192-.747v-1.011c0-.171.025-.445-.165-.52v-.013h.721v.013c-.19.072-.167.349-.167.52v1.011c0 .504.211.738.603.738a.675.675 0 0 0 .555-.265c.08-.114.076-.209.076-.346v-1.142c0-.17.025-.444-.165-.519v-.013h.723l.003.013c-.195.07-.171.349-.171.523v1.43c0 .169-.024.445.171.519v.014h-.563v-.25zm1.541-1.18c.247 0 .601-.083.601-.396 0-.26-.244-.398-.471-.375l-.256.025v.739h.125l.001.007zm.206 1.216c.31.029.625-.115.625-.474 0-.367-.354-.529-.688-.508l-.264.015v.937l.327.03zm-.716-1.689c0-.171.027-.448-.166-.521v-.014h.898c.498 0 .792.213.792.55 0 .257-.164.399-.378.494.341.069.614.301.614.671 0 .294-.199.543-.45.663-.266.131-.564.118-.849.118h-.628v-.012c.188-.071.166-.349.166-.523v-1.426zm-3.779 1.689a.922.922 0 0 0 .671-.232h.013l-.196.506h-1.561v-.012c.194-.069.171-.349.171-.519v-1.43c0-.173.023-.45-.171-.522v-.014h.727v.014c-.192.07-.166.353-.166.522v1.653l.512.034z"/><path fill="#F2A42A" d="M20.372 9.553l-5.353 6.524.423.422c.874.875 1.973 3.312 1.675 5.988-.081.663-2.857 14.361-4.809 23.721l-.008.041-.003.043c-.217 2.942-.535 5.239 1.125 9.529 1.523 3.938 4.756 8.256 12.385 10.733 8.682 2.818 13.802 6.131 14.269 10.211.818-4.897 5.427-6.822 11.831-9.479 2.229-.925 4.761-1.977 7.49-3.252 4.742-2.211 7.527-6.266 8.279-12.052.586-4.474-.258-8.554-.534-9.894l-.066-.316v.003c-.022-.257-.208-1.034-1.112-4.726-1.238-5.055-3.311-13.517-3.311-14.801l-.001-.132c0-2.771 1.057-4.604 1.943-5.658l.365-.434-5.917-6.786-.383.088c-18.895 4.266-37.443.043-37.627 0l-.399-.091-.262.318zm38.191 1.145l4.67 5.358c-.938 1.265-1.901 3.245-1.901 6.061v.133c0 1.335 1.586 7.913 3.353 15.117.538 2.193 1.045 4.264 1.078 4.524l-.002-.058.088.524c.378 1.836.707 4.118.707 6.516 0 5.271-1.588 11.104-7.716 13.965-2.705 1.262-5.222 2.307-7.438 3.229-5.71 2.37-9.788 4.071-11.354 7.079-1.243-2.132-3.892-4.099-13.829-7.85-5.333-2.015-8.443-3.569-10.929-8.387-1.085-2.104-1.71-4.351-1.865-6.371-.059-.771.644-6.791.622-6.372.539-2.583 4.294-20.698 4.387-21.532.04-.356.059-.712.059-1.063 0-2.253-.771-4.322-1.715-5.549l4.364-5.319c2.803.589 19.906 3.844 37.421-.005z"/></svg>