<svg id="Calque_1" data-name="Calque 1" xmlns="http://www.w3.org/2000/svg" viewBox="0 0 1133.86 1133.86"><defs><style>.cls-1{fill:#3c2f55;}.cls-2,.cls-5{fill:#fff;}.cls-3{fill:#6d598d;}.cls-4{fill:#c41547;}.cls-5{fill-rule:evenodd;}.cls-6{fill:#d4b57f;}.cls-7{opacity:0.2;}</style></defs><title>logo-tfc V2</title><path id="SVGID" class="cls-1" d="M566.93,1133.86c-151.42,0-293.79-59-400.88-166S0,718.36,0,566.93,59,273.12,166.05,166.05,415.51,0,566.93,0s293.8,59,400.88,166.05,166,249.44,166,400.88-59,293.81-166,400.88S718.36,1133.86,566.93,1133.86Zm0-1118.14c-147.22,0-285.64,57.34-389.77,161.44S15.72,419.69,15.72,566.93,73.06,852.59,177.16,956.7s242.55,161.43,389.77,161.43S852.58,1060.8,956.69,956.7s161.45-242.53,161.45-389.77S1060.8,281.27,956.69,177.16,714.16,15.72,566.93,15.72Z"/><path id="SVGID-2" data-name="SVGID" class="cls-1" d="M566.93,28.82a538.11,538.11,0,1,1-380.5,157.61A538,538,0,0,1,566.93,28.82Z"/><path id="cercle_interne" data-name="cercle interne" class="cls-2" d="M566.93,916.93A348.16,348.16,0,1,1,813.08,815,345.86,345.86,0,0,1,566.93,916.93Zm0-680.53a332.41,332.41,0,1,0,235,97.35A330.23,330.23,0,0,0,566.93,236.4Z"/><g id="bg_blazon" data-name="bg blazon"><path class="cls-2" d="M378.39,314V823.65a316.66,316.66,0,0,0,56,33V280.91A317.32,317.32,0,0,0,378.39,314Z"/><path class="cls-2" d="M249.93,568.8a316.92,316.92,0,0,0,24.39,121.89V446.91A316.85,316.85,0,0,0,249.93,568.8Z"/><path class="cls-2" d="M594.3,253.05c-9.07-.79-18.19-1.26-27.37-1.26-9.55,0-19,.49-28.49,1.34V884.47c9.44.85,18.94,1.34,28.49,1.34,9.18,0,18.3-.47,27.37-1.25Z"/><path class="cls-2" d="M754.24,313.09a317,317,0,0,0-55.86-32.67V857.19a316.47,316.47,0,0,0,55.86-32.68Z"/><path class="cls-2" d="M858.32,693.46a316.2,316.2,0,0,0,0-249.32Z"/><path class="cls-3" d="M858.32,693.46V444.14a315.4,315.4,0,0,0-104.08-131V824.51a315.4,315.4,0,0,0,104.08-131Z"/><path class="cls-3" d="M698.38,280.42A316.79,316.79,0,0,0,594.3,253.05V884.56a317,317,0,0,0,104.08-27.37Z"/><path class="cls-3" d="M434.36,280.91V856.69a316.93,316.93,0,0,0,104.08,27.78V253.13A316.93,316.93,0,0,0,434.36,280.91Z"/><path class="cls-3" d="M378.39,314h0A316.83,316.83,0,0,0,274.32,446.89v0A316.8,316.8,0,0,1,378.39,314Z"/><path class="cls-3" d="M274.32,690.69v0A317,317,0,0,0,378.39,823.66h0a317,317,0,0,1-104.07-133Z"/><path class="cls-3" d="M342.78,344.64a317,317,0,0,0-68.46,102.27V690.69a317,317,0,0,0,104.07,133V314A316.15,316.15,0,0,0,342.78,344.64Z"/></g><path id="bg_bottom" data-name="bg bottom" class="cls-4" d="M812.92,301S734.36,281.35,567,281.35c-163.89,0-243.51,19.75-243.51,19.75l-2,437.57C321,858.52,512.3,799.76,567.39,901.5c55.09-101.74,246-41.51,245.94-161.36Z"/><path id="bg_top" data-name="bg top" class="cls-3" d="M567,297.06c127,0,202.7,11.55,230.24,16.73l.14,154.8H338.41l.71-154.71C366.62,308.68,442.07,297.06,567,297.06Z"/><g id="chateau_g" data-name="chateau g"><path class="cls-5" d="M404.74,702.21c0-10.15,7.59-22.78,17-22.78s17,12.77,17,22.91V739h2.67V700.78c0-9.6-8.37-24.4-19.5-24.4h0c-4.95,0-9.9,3-13.94,8.33-3.66,4.85-5.93,11-5.93,16.07l.07,38.17h2.61Z"/><path class="cls-5" d="M421.94,674.81a14.5,14.5,0,0,1,3.62.5,9.22,9.22,0,0,0,.71-2.33l.07-2.93h-9.18l.06,3a7.77,7.77,0,0,0,.64,2.36,14.57,14.57,0,0,1,4.07-.59Z"/><path class="cls-5" d="M503.19,568.76v17h-7.56v-17h-7.57v17H480.5v-17h-7.56v17h-7.56v-17h-7.57v72.29c-2.5-3.08-5.4-2.68-7.56,0V513.67H444V535h-6.3V513.67h-6.31V535H425V513.67h-6.3V535h-6.3V513.67h-6.31V535h-6.3V513.67h-6.3V641.05c-2.52-2.73-5-2.48-7.56,0V568.76H378.4v17h-7.56v-17h-7.56v17h-7.57v-17h-7.56v17h-7.56v-17H333V739h67.48l-.06-38.17c0-5.37,2.39-11.89,6.23-17a23.11,23.11,0,0,1,9.67-7.84,9.43,9.43,0,0,1-.74-2.76v-.07l-.09-4.63H428l-.12,4.66a11.61,11.61,0,0,1-.77,2.65c9.5,3.51,16,16.07,16,25V739h67.69V568.76Zm-163,97.81h-4.4v-5.84a2.23,2.23,0,1,1,4.4,0Zm46.07-21.2c2.64-3.73,5.21-3.92,7.56,0v8.27H386.3ZM343.55,608.9c0-2.89,2.47-6.34,5.54-6.33s5.42,3.56,5.42,6.46l.12,10.53H343.55Zm2.92,57.67h-4.39v-5.84a2.23,2.23,0,1,1,4.39,0Zm6.25,0h-4.4v-5.84a2.23,2.23,0,1,1,4.4,0Zm6.24,0h-4.39v-5.84a2.23,2.23,0,1,1,4.39,0Zm6.25,0h-4.4v-5.84a2.23,2.23,0,1,1,4.4,0Zm6.25,0h-4.4v-5.84a2.23,2.23,0,1,1,4.4,0Zm6.24,0h-4.39v-5.84a2.23,2.23,0,1,1,4.39,0Zm-10.1-47V608.9c0-2.89,2.48-6.34,5.54-6.33s5.43,3.56,5.43,6.46l.11,10.53Zm16.35,47h-4.4v-5.84a2.23,2.23,0,1,1,4.4,0Zm6.25,0h-4.4v-5.84a2.23,2.23,0,1,1,4.4,0Zm6.24,0h-4.39v-5.84a2.23,2.23,0,1,1,4.39,0Zm6.25,0h-4.4v-5.84a2.23,2.23,0,1,1,4.4,0Zm6.25,0h-4.4v-5.84a2.23,2.23,0,1,1,4.4,0Zm-4.2-39.45v-25.3h7.71v25.3Zm10.44,39.45h-4.4v-5.84a2.23,2.23,0,1,1,4.4,0Zm-10.6-91V564.89c0-2.89,2.47-6.34,5.54-6.33s5.42,3.55,5.42,6.45l.12,10.54Zm16.85,91H417v-5.84a2.23,2.23,0,1,1,4.4,0Zm6.24,0h-4.39v-5.84a2.23,2.23,0,1,1,4.39,0Zm22.58-21.2c2.65-3.73,5.21-3.92,7.57,0v8.27h-7.57Zm-21.54-80.48c0-2.89,2.47-6.34,5.54-6.33s5.43,3.55,5.43,6.45l.11,10.54H428.71Zm10,36.65v25.29H431V601.54Zm-4.77,65h-4.4v-5.84a2.23,2.23,0,1,1,4.4,0Zm6.25,0h-4.4v-5.84a2.23,2.23,0,1,1,4.4,0Zm6.24,0H442v-5.84a2.23,2.23,0,1,1,4.39,0Zm6.25,0h-4.4v-5.84a2.23,2.23,0,1,1,4.4,0Zm6.25,0h-4.4v-5.84a2.23,2.23,0,1,1,4.4,0Zm6.24,0h-4.39v-5.84a2.23,2.23,0,1,1,4.39,0Zm6.25,0H467v-5.84a2.23,2.23,0,1,1,4.4,0Zm6.24,0h-4.39v-5.84a2.23,2.23,0,1,1,4.39,0Zm-10.66-47V608.9c0-2.89,2.47-6.34,5.54-6.33S478,606.13,478,609l.11,10.53Zm16.91,47h-4.4v-5.84a2.23,2.23,0,1,1,4.4,0Zm6.25,0h-4.4v-5.84a2.23,2.23,0,1,1,4.4,0Zm.9-57.67c0-2.89,2.47-6.34,5.54-6.33S502,606.13,502,609l.11,10.53H491Zm5.34,57.67H492v-5.84a2.23,2.23,0,1,1,4.39,0Zm6.25,0h-4.4v-5.84a2.23,2.23,0,1,1,4.4,0Zm6.25,0h-4.4v-5.84a2.23,2.23,0,1,1,4.4,0Z"/></g><polygon class="cls-2" points="721.86 554 724.44 554 723.15 550.91 721.86 554"/><polygon class="cls-2" points="721.14 560.6 725.11 560.6 725.13 556.74 721.16 556.74 721.14 560.6"/><polygon class="cls-2" points="707.71 560.6 711.68 560.6 711.71 556.74 707.74 556.74 707.71 560.6"/><polygon class="cls-2" points="708.43 554 711.02 554 709.72 550.91 708.43 554"/><rect class="cls-2" x="694.49" y="556.74" width="3.97" height="3.86"/><polygon class="cls-2" points="695.19 554 697.77 554 696.48 550.91 695.19 554"/><polygon class="cls-2" points="656.5 643.57 621.38 643.57 621.39 645.78 656.5 645.78 656.5 643.57"/><polygon class="cls-2" points="737.28 564.68 737.28 562.47 682.16 562.47 682.17 564.68 737.28 564.68"/><path class="cls-2" d="M649.26,642.12l-10.2-44.77.1,0,13.61,44.8h3.3l-16.62-44.9c.88-.24,1.6-.79,1.6-1.58s-.62-1.24-1.39-1.52v-5.21h3.41v-1.58h-3.41v-3.18H638v3.18h-3.41v1.58H638l0,5.22c-.75.29-1.35.79-1.35,1.51s.81,1.5,1.82,1.66l-16.59,44.82Z"/><path class="cls-2" d="M682.2,625.43h55.08V596.56H682.2ZM727.65,611l3.39-8.66,3.53,8.87.07,12.21-6.92.05-.11-12.34Zm-14.56.16,4.68-9.12,4.75,9.4v12.21l-9.51,0Zm-16.14,0,4.69-9.08,4.75,9.43v12.22l-9.51,0Zm-12.07-.16,3.48-8.62,3.43,8.92-.11,12.21-6.92-.05Z"/><path class="cls-2" d="M737.28,566.18H682.2V595h55.08Zm-45.6,26.88-6.92,0,.12-12.47,3.48-8.61,3.43,8.91Zm14.71.21-9.51,0,.07-12.52,4.69-9.09,4.75,9.44Zm16.13,0-9.51,0,.08-12.53,4.68-9.12,4.75,9.4Zm5.2-.17-.11-12.35,0-.12,3.39-8.66,3.53,8.86.07,12.22Z"/><path class="cls-2" d="M737.28,627.16H682.21V656.1h55.07Zm-46,26.47-6.36,0,0-14.28c0-3.44,1.44-6.36,3.21-6.35s3.18,2.65,3.18,6.09Zm15.25,0-9.11,0,0-14.28c0-3.44,2.1-6.36,4.64-6.35s4.5,2.65,4.5,6.09Zm15.08,0-9.11,0V639.05c0-3.44,2-6.09,4.5-6.09s4.65,2.91,4.65,6.35Zm12.5,0-6.35,0V639.05c0-3.44,1.4-6.09,3.17-6.09s3.21,2.91,3.21,6.35Z"/><path class="cls-2" d="M690.56,701.15h0a15.55,15.55,0,0,0-10.83,5c-3.35,3.35-5.53,7.88-5.53,11.55l.07,23.26h3V719.16c0-6.73,5.86-15.12,13.15-15.11s13.14,8.45,13.14,15.2v21.66h3.09V717.79C706.64,711.24,699.73,701.15,690.56,701.15Z"/><path class="cls-2" d="M731.11,701.15h0a15.55,15.55,0,0,0-10.83,5c-3.36,3.35-5.53,7.88-5.53,11.55l.07,23.26h3V719.16c0-6.73,5.87-15.12,13.15-15.11s13.15,8.45,13.15,15.2v21.66h3.08V717.79C747.19,711.24,740.29,701.15,731.11,701.15Z"/><path class="cls-2" d="M763,686.42h-25.7V657.72H682.21v28.71H656.5v-39.2H621.4l.46,93.68H672.8l-.07-23.26c0-4.09,2.28-8.9,5.95-12.57a17,17,0,0,1,11.85-5.38h0c10.16,0,17.52,10.81,17.52,18.09v23.12h5.27l-.06-23.26c0-4.09,2.28-8.91,6-12.57a17,17,0,0,1,11.85-5.38h0c10.17,0,17.53,10.81,17.53,18.09v23.12h49V647.24H762.5Zm-129.9,11.06h-7.64l.09-2.72c0-1.23,1.62-4.47,3.73-4.47s3.82,3.06,3.82,4.29Zm11.47,0h-7.64l.09-2.72c0-1.23,1.61-4.47,3.73-4.47s3.82,3.06,3.82,4.29Zm11.46,0h-7.64l.09-2.72c0-1.23,1.61-4.47,3.73-4.47s3.82,3.06,3.82,4.29Zm11.47,0h-7.64l.09-2.72c0-1.23,1.61-4.47,3.73-4.47s3.82,3.06,3.82,4.29Zm11.46,0H671.3l.09-2.72c0-1.23,1.61-4.47,3.73-4.47s3.82,3.06,3.82,4.29Zm33.57-27.86c0-3.44,2-6.09,4.5-6.09s4.65,2.91,4.65,6.35l0,14.28-9.11,0Zm-22.1,27.86h-7.65l.1-2.72c0-1.23,1.61-4.47,3.73-4.47s3.82,3.06,3.82,4.29Zm.88-13.28-6.36,0,0-14.28c0-3.44,1.44-6.36,3.21-6.35s3.18,2.65,3.18,6.09Zm10.58,13.28h-7.64l.09-2.72c0-1.23,1.61-4.47,3.73-4.47s3.82,3.06,3.82,4.29Zm-4.44-13.32,0-14.28c0-3.44,2.1-6.36,4.64-6.35s4.5,2.65,4.5,6.09V684.2Zm15.91,13.32h-7.65l.09-2.72c0-1.23,1.62-4.47,3.74-4.47s3.82,3.06,3.82,4.29Zm11.46,0h-7.64l.09-2.72c0-1.23,1.61-4.47,3.73-4.47s3.82,3.06,3.82,4.29Zm3-27.86c0-3.44,1.4-6.09,3.17-6.09s3.21,2.91,3.21,6.35l0,14.28-6.35,0Zm8.49,27.86h-7.64l.09-2.72c0-1.23,1.62-4.47,3.73-4.47s3.82,3.06,3.82,4.29Zm11.47,0h-7.64l.09-2.72c0-1.23,1.61-4.47,3.73-4.47s3.82,3.06,3.82,4.29Zm11.46,0h-7.64l.09-2.72c0-1.23,1.62-4.47,3.73-4.47s3.82,3.06,3.82,4.29ZM786,694.76c0-1.23,1.61-4.47,3.73-4.47s3.82,3.06,3.82,4.29v2.9H786Zm-11.47,0c0-1.23,1.62-4.47,3.73-4.47s3.82,3.06,3.82,4.29v2.9h-7.64Zm-7.73-4.47c2.11,0,3.82,3.06,3.82,4.29v2.9H763l.09-2.72C763.11,693.53,764.72,690.29,766.84,690.29Z"/><polygon class="cls-2" points="762.5 643.57 762.52 645.78 797.63 645.78 797.63 643.57 762.5 643.57"/><path class="cls-2" d="M790.39,642.12l-10.21-44.77s.06,0,.1,0l13.62,44.8h3.29l-16.62-44.9c.89-.24,1.6-.79,1.6-1.58s-.61-1.24-1.39-1.52l0-5.21h3.41v-1.58H780.8v-3.18h-1.7v3.18h-3.41v1.58h3.41v5.22c-.76.29-1.36.79-1.36,1.51s.81,1.5,1.83,1.66L763,642.12Z"/><path class="cls-2" d="M683.81,556.74h4l0,3.86h5.37v-5.23h0l3.1-7.39a.49.49,0,0,1,.09-.87V545.5h-.83V545h.83v-1h.42v1h.83v.49h-.84v1.58a.53.53,0,0,1,.36.48.51.51,0,0,1-.32.46l3.08,7.35h0v5.23h6.52v-5.23h0l3.09-7.39a.55.55,0,0,1-.22-.42.52.52,0,0,1,.31-.45V545.5h-.83V545h.84v-1H710v1h.83v.49H710v1.58a.49.49,0,0,1,0,.94l3.08,7.35h0v5.23h6.71v-5.23h0l3.1-7.39a.49.49,0,0,1,.09-.87V545.5h-.83V545H723v-1h.42v1h.83v.49h-.83v1.58a.53.53,0,0,1,.36.48.51.51,0,0,1-.32.46l3.08,7.35h0v5.23h7.27L731.94,557v-.24h4l0,3.86h1.4v-5.23h0l-3.17-7.57c.14-.1.33-.14.33-.33s-.19-.25-.34-.34V545.5h.83V545h-.83v-1h-.42v1h-.83v.49h.83v1.64c-.14.1-.33.15-.33.33s.2.28.36.37l-2.91,6.94-19.59-38.42a2.53,2.53,0,0,0,1.29-2.12,2.5,2.5,0,0,0-1.71-2.32v-7.7h4v-2.36h-3.94v-4.73h-2v4.73h-3.94v2.36h3.94l0,7.82a2.42,2.42,0,0,0-.32,4.26l-19.61,38.45.26.62-3.14-7.5c.12-.1.31-.14.31-.31s-.2-.25-.34-.35V545.5h.83V545H686v-1h-.42v1h-.83v.49h.83v1.72c-.13.1-.33.15-.33.34s.2.24.34.34l-3.13,7.47h0v5.23h1.35Zm50.11-5.83,1.3,3.08h-2.59Zm-48.13,0,1.3,3.08H684.5Z"/><rect id="vertical" class="cls-6" x="563.12" y="554.46" width="8.19" height="333.15" transform="translate(-1.11 0.87) rotate(-0.09)"/><g id="mouton"><path class="cls-6" d="M578.77,742.13s0,.87-.08,2.48a46.69,46.69,0,0,1-.93,7,43.83,43.83,0,0,1-3.68,10.63A35.35,35.35,0,0,1,564.59,774a32.62,32.62,0,0,1-16.92,6.54,49.61,49.61,0,0,1-5,0,36.78,36.78,0,0,1-4.77-.78,35.92,35.92,0,0,1-9.64-3.58,44.92,44.92,0,0,1-15.15-14A42.57,42.57,0,0,1,506,742.11a40.49,40.49,0,0,1,.82-11.05,36.89,36.89,0,0,1,4.26-10.33,39.14,39.14,0,0,1,16.3-14.53A36.39,36.39,0,0,1,547.56,703a34.44,34.44,0,0,1,17.14,7.06,36.3,36.3,0,0,1,9.45,11.81,43.93,43.93,0,0,1,3.66,10.65,44.57,44.57,0,0,1,.9,7.05C578.75,741.24,578.77,742.13,578.77,742.13Zm-.82,0s-.06-.83-.18-2.42a24.52,24.52,0,0,0-1.45-6.7,27.25,27.25,0,0,0-5.23-9.06,34.88,34.88,0,0,0-10.23-8.09A39.58,39.58,0,0,0,547,711.55a35.59,35.59,0,0,0-16.16,2.4,31.85,31.85,0,0,0-13.71,10.79,35.5,35.5,0,0,0-6.63,17.37,36.71,36.71,0,0,0,.73,9.73,31.24,31.24,0,0,0,3.93,9A28.36,28.36,0,0,0,530,772.14a31.5,31.5,0,0,0,8.55,1.63,40.47,40.47,0,0,0,4.41,0c1.12-.07,2.65-.22,3.91-.4a43.5,43.5,0,0,0,14.1-4.81,35.63,35.63,0,0,0,10.18-8.21,27,27,0,0,0,5.22-9.08,23.79,23.79,0,0,0,1.41-6.71C577.89,743,578,742.1,578,742.1Z"/><g id="g2743"><path id="path2748" class="cls-2" d="M544.43,718.47c-.38,0-.77,0-1.16.08-3.66.8-10.69,2.32-11.36,4.81,3.1.18,9.44,7.37,3.36,3.72-1.59-2.21-11.53-4.86-5.39-.45,2,2.4,11.64,6.13,3.17,4.48-3.8-1.12-7.73-8-11.11-6.39,1.26,5.88,7.7,9.36,14,8.89.56,3.34-6,1-6.67,4.54-.39,1.13.09,4.9-3.42,3.3-1.51,1.88,5.2,3.95.2,4-1.5,2.15.52,4.89-3.34,4.21,2.23,3.66-5.93-.48-2.56,4,3.2,2.28-4.74,7.45.41,6.41,2.54-1.46,2.09-11.41,3.23-4.82,2.75,2.94-2.54,5.18,0,8.34a3.7,3.7,0,0,1-1,1.75c.57,0,.34.22.87.41l.06,1.32c0,.24-.31.29-.3.53s.92.25.95,1c0,.36-.54,1.39-.53,1.63,0,.48.81.28.84,1.12,0,.24-.56,1.41-.55,1.65s.24.57.24.81l0,.73c-.11,0-.15.13-.4.15a1,1,0,0,1-.72-.19c-.05.25-.09.5-.16.8,4.41,3.45-1.22,9.72,1.1,14.57,1.91,3.83-4.43,1-.63,5,3.48-.26,3.13-4.29,2.79-6.44,4.74,1.18,1.55,10.33,7.53,7.56,1.14,2.37-2.84,6.09-1.87,1.72-1.79,1.28-7.52-3.25-4.14.76,2.93,2.5,3.09,3.52-.93,4.09-5.23.63-6.77,3.39-11.32,5.35-4.68.8-10.52,3.48-9.65,8.69,0,6.28-1.56,12.58-3.31,18.69.07,3.68.82,9.3,3.66,7.95,3.92.6,6.17-8.11,3.7-11.66.2-6,1.85-12.91,5-17.83,6-4.15,14.65-.59,20-5.29,3.32.4,8.09,2.8,8.65-2.69,3.83,1-.86,5.79,4.72,6.38,5.46,2.88,8.07-.87,6.14-5.4-.13-4.52,3.89-3.83,1.84.78-2,3.51,5.17,8.54,3.92,6.24-3.66-3.43,2.09-3.43,3.75-3.82-3.61-3.47.2-4.24,2.26-1.43a15.29,15.29,0,0,0,4.13-3.44,1.93,1.93,0,0,1,.06.41l.49-.06a6.06,6.06,0,0,1,2.38-1.2c.24,0,.5.08.75.06-.62-.18-1.63-.69-1.87-.67a3.56,3.56,0,0,0-.57.16,6.46,6.46,0,0,1,6.68-2c3.46,1.62-6.1,4.21.69,3.17,1.77-1.74,3.55-11,3.68-5.39.33-.52,1.16-.74,1.61-1.35,0-.25,0-.61,0-.85s.46-.53.71-.55,1.35.6,1.37,1.08c0,.73-1.63,1.87-1.63,2s.52,1,.53,1.28-.1.13-.1.25-.11.13-.35.16a2.88,2.88,0,0,1-2.16-1.12c-1.52,2.92,3.2,2.91,1.81,4.64,1.66-1.69,2.25-3.38,5-2.18,4.67-1.23,1.74-6.75,5.21-9.87-2.17-.29-3.64-5.86-1.4-5.76,1.16-2.25,4.58,8.42,4.41,1.73,4.57-1.74.51,6.15,5,5.7a2.54,2.54,0,0,1,1.2.82,2.26,2.26,0,0,0,.12-.43c0-.24-.16-.23-.16-.35-.38-.33-1.1-.38-1.12-1a.9.9,0,0,1,.84-.57c.11,0,.24,0,.36,0,1.7-.16,2,.53,2,1.73a9.19,9.19,0,0,1-.82,3.48l-.49.06-.14-.15c-.05,2.11-.41,4.17,3.09,3.55a2.57,2.57,0,0,1,.19-.55c-.62-.42-1.46-.11-1.49-1,0-.6.81-.79,1.18-.83.6,0,1.13.37,1.49.34a6.83,6.83,0,0,0,1.32-.38,1.9,1.9,0,0,0,.69-.66,1.69,1.69,0,0,1,.1-.75,1,1,0,0,1,.49-.28,1.32,1.32,0,0,1,1.24,1l.07,1.81a2,2,0,0,1-.94.7c-.24,0-1-.16-1.22-.13s-.23.26-.47.41c.51.56,1.59.82,1.63,1.79,0,.24-.32.76-.31,1s.52,1,.53,1.28-.32,1.13-.42,1.75a1.74,1.74,0,0,1-.7.31c-.49.05-.67-.8-.67-.92s.13-.37.12-.61c-.37,0-1,.22-1.22-.12a3.5,3.5,0,0,1-.28-.27c-.32.51-1,.22-1.92-1.87-5.58,2.88-3.72-5.32-6.32-6.86-1.64-1.51-2.75-4-4.69-.69.73,1.68,2.83,7.48,2.63,1.95,6,.58.29,10.68,8,9.18,1.48,3.4,6.63-.82,8.55,3.14,4-1.94,3.87-.24,3.72,2.68,2.37-7.48,2.12,4.21,3.4,6.37,1,5.83-.32,12.16-1.61,18-.12,3.19-8,7.52-.93,7.75,5.82.27,8.34-5.38,8.14-9.85-.63-7.3,1.91-14.71,4.66-21.61-.56-5.1-4.4-9.31-1.9-14.6-.08-5.66,4.69-9.54,1.61-14.75,2.27-7,1.36,2.6,4.07,4.11-2.54,3.44-2.87,7.62-3.9,11.62-1.85,3.2,1.67,9.92.36,2.93-.29-3.05,2.36-5.92,3.12-9,2.6,3-3.48,11.33.79,13.64,3.28-1.92.54-4.9,3.2-8.08-.73-4.64,3-9.84-.55-14.37,2.56-4.81-3.05-8-2.67-12.62-1.8-5-7.89-8.13-10.73-12.66-5.26-2.32-10.68-4.47-16.65-2.64-5.26-2.93-10.55,3-15.44.53-5.22.15-9.34,4.24-14.7,3.21-5.7,3.46-12.31-1.89-18.33-.93-4.18.62-11.93.37-9-5.42-3.83-.22-3.1-4.06-7.82-3.34-3.73-1-2.19-6.17.05-1.66a21.94,21.94,0,0,0,11.37-1.08c2.67.92,11.61.75,4.58-.74-2.49-3.64,9.73,3.67,5.52-2.21-4.56-1.19-1.48-4.38,1-.66.44-6.24-6.35-12.06-10.05-15.22-4.15-2.32,5-.41,1.14-4.58C554.61,721.08,550.14,718.32,544.43,718.47Zm5.7,9.55c.26,0,.26,0,.38.08.32.09,1.36,1,1.37,1.34a.61.61,0,0,1-.55.67c-.53,0-.86-.66-1-1a3.92,3.92,0,0,0-1.16.12.68.68,0,0,1-.28-.47C548.84,728.27,550.07,728,550.13,728Zm-1.89,6.14c.25,0,1,.51,1.54.7s1.13.25,1.71.44c.38.2,3.09,1.88,3.12,2.73a.48.48,0,0,1-.47.53c-.24,0-.93-.39-1.37-.47-.69-.18-1.46.14-2.11-.16a2.57,2.57,0,0,1-1.45-2.16c-.3-.22-1.4-.72-1.42-1.08A.54.54,0,0,1,548.24,734.16ZM524,735.53c-1.24.12-2.41,2.16-2.59,3.15-.08.37-.6.67-.92.82a1.25,1.25,0,0,0,.84.4,2.63,2.63,0,0,0,.92-.34c.73-.67,1.64-2.21,2.48-2.42,0,0,1.52-.26,1.5-.86,0-.24,0-.24-.14-.35C525.4,735.87,524.28,735.51,524,735.53Zm14.77,6.59c.82-.08,1,1.21,1,1.45s-.17.76-.16,1,.21.46.22.7a.58.58,0,0,1-.47.53c-.8.08-1.14-1.35-1.14-1.47s.22-.76.21-1-.11-.7-.09-1A.48.48,0,0,1,538.79,742.12Zm-17.2,1.16c-.25,0-.69.44-.79.57s-.17.74-.31,1a10.42,10.42,0,0,0-.81,1.42,1.34,1.34,0,0,0,.71.15,1.93,1.93,0,0,0,.47-.15c.59-.79,1.11-1.69,1.79-2.48C522.32,743.7,521.84,743.25,521.59,743.28Zm5.86,6c.4,0,.53.44.53.44,0,.36-.19.52-.18.76,0,.49,1,.38,1,1a.64.64,0,0,1-.2.49l-2.18.71c-.61-.19-.25-.58-.41-.93s-.36-.21-.55-.31-.55-.81-.55-.81c0-.36.08-1.09.75-1.16.24,0,.62.44.86.41S527.19,749.28,527.45,749.25Zm17,4.57c.35,0,.94,1.47.94,1.47,0,.6-.13,1.35-.63,1.4a.54.54,0,0,1-.49-.2c0-.24.05-.37,0-.61a2.36,2.36,0,0,0-.43-.81s0,0-.06-.35S544.15,753.85,544.47,753.82Zm-17.67,2.67c.24,0,.2,0,.31.08.46.2.28.71.39,1.06.48.44,1.54-.51,1.58.45s-2.54,1.71-2.62,1.71a1.2,1.2,0,0,1-1.33-1.08C525.11,758.23,526,756.57,526.8,756.49Zm20,1.45a.73.73,0,0,1,.83.65c0,.49-.76,1.89-1.13,1.93a.45.45,0,0,1-.49-.31l-.06-1.56C546,758.17,546.75,758,546.81,757.94Zm-25.54,6.16c-.12,0-.24.37-.33,1.24-2.92,1.12,1.71,3.7-2.28,3.4.59,3.08,2.94,4.73-1.91,4.07-2.51,3.37,4.25-1.2,2,2.69,2.67,3.1-4.11,11,1.92,9.36.17,2.22-2.42,6.68,2.6,4.76,1.34-5.1-6.35-6-1.71-11.11-1.89-1.61-.42-4.9.78-5.92a16.38,16.38,0,0,1-.31-1.69c-.15-.11-.48-.07-.67-.18a1.2,1.2,0,0,1-.45-.8c0-1.09.89-2.15,1.32-3.52,0-.13-.07-.49.06-.75a.6.6,0,0,1,.19-.22C521.9,765.27,521.54,764,521.27,764.1Zm12.8,1.51a2.29,2.29,0,0,1-.24.87c-1.3.61-1.26,1.34-2.26,1.43-.24,0-.42-.08-.66-.06-.57.06-.73,1.17-1.68,1.26-.25,0-.68-.3-.92-.27s-.48.29-.73.31a1.24,1.24,0,0,1-1.29-1.22,1.8,1.8,0,0,1,1.76-2c.56-.06.32.09,1.22.37.29.09.6-.19.89-.22a3.39,3.39,0,0,0,.88.28c.26,0,.77-.44,1.16-.47a1.91,1.91,0,0,1,1.12-.24Zm95.86,4.58c1.09-.1,1.26,1.21,1.28,1.69,0,.24-.66,1.77-.65,2a3,3,0,0,0,.41.92c.26.34,1,.65,1.24,1a1.47,1.47,0,0,1,.67,1.39c0,.73-.34,1-.91,2.12-.35.4-.32,1-.66,1.54l-.36,0c-.12-.11-.5-.45-.51-.69l-.06-1.32c0-1.09-1.19-2.31-1.2-2.55s.47-.53.71-.67a.65.65,0,0,1-.26-.36c-.07-1.93-.79-1.62-.84-2.95C628.78,772.11,629,770.29,629.93,770.19Zm-93.83,1.89c.15,0,.26.09.39.08s.13,0,.14.23c0,.49-1.12,1-1.2,1.09s-.25.38-.47.53a10.08,10.08,0,0,0-1.89.43c-.2,0-.48.39-.67.41a4.32,4.32,0,0,1-1.1.37c-.26,0-.92,0-1.16,0-.67.06-.77,1.16-1.73,1.25a1.17,1.17,0,0,1-1.36-1.08c0-.72,1.21-2.79,1.87-2.85.86-.08.91,1.13.88,1.5a2.34,2.34,0,0,0,.87,0c.29,0,.84-1.06,1.73-1.15a12.37,12.37,0,0,0,1.36.24Zm.62,6.51c.25,0,1.73.43,2,.41a2.88,2.88,0,0,0,.85-.33.56.56,0,0,1,.25.45c0,.6-1.19.85-1.32.86s-.68,0-.94,0-1.07.59-1.32.61-1-.15-1.06-.51C535.13,779.46,536.2,778.64,536.72,778.59Zm-5.32,1.33c.62-.06.45,1.06,1,1,.24,0,.62-.41.86-.44.48,0,1,.15,1,.63a1.88,1.88,0,0,1-.59,1.14c-.27,0-.63-.06-.89.08a1.8,1.8,0,0,1-.71.32,1.51,1.51,0,0,1-1.49-1.32C530.59,780.86,530.68,780,531.4,779.92Zm63.77,1.87a.43.43,0,0,1,.26.1,7.73,7.73,0,0,1,1.28,1.45,1.24,1.24,0,0,1,.27.69c0,.24-.22.53-.22.77s.29.82.3,1.18-.44,1.5-.81,1.53c-.72.07-1.25-1.23-1.25-1.47s.28-1.82.27-2.07c0-.72-.88-.54-.92-1.63a.47.47,0,0,1,.49-.51C595,781.82,595.07,781.79,595.17,781.79Zm-66.9,1a1.21,1.21,0,0,1,.79.28c.05.36,0,.86.19,1.08s.6.8.61,1c0,.49-.34.51-.61.53s-.32-.1-.57-.08-.85.71-1.1.73c-.8.08-.85-1-1.39-1.45-.44-.2-1.11-.25-1.73-.55l0-.36a2.83,2.83,0,0,1,.88-.33c.67-.07.91.4,1.36.35.62-.06.29-1.11,1.36-1.22Zm2.3,3.9c.94-.09.65,1,1.5,1,.24,0,1-.6,1.21-.63.8-.08,1.28,1.46,1.3,2s-.27,1-.55,1a1.61,1.61,0,0,1-1.39-.83l-.26,0c-.86,1.06-.55,1.39-1.42,1.48s-1.25-1.58-1.27-2.07C529.68,788.35,529.65,786.78,530.57,786.69Zm43.39.41c.48-.05.66.78.67.9s-.27.16-.26.4.39.46.4.7c0,.49-.21,1-.69,1-.73.07-1-.76-1-1.24S573.11,787.18,574,787.1Zm29.33,2.28a1.38,1.38,0,0,1,.73.29c.25.1.26.34.51.56a.81.81,0,0,1,.47.07c.13.11.15.23.16.48s0,.6-.45.64-1.89-1-1.91-1.65c0-.24.12-.11.12-.23S603.05,789.4,603.29,789.38Zm-32.53,2.54c.24,0,.34.07.35.31s-.42,1-.41,1.26.89,1.72.9,2a3.35,3.35,0,0,1-.31,1c-.24.26-1.39,1.95-1.75,2-.61.06-.77-1.12-.77-1.12,0-.36.68-1.41.67-1.65s-.27-.58-.28-.82C569.14,794.36,569.42,792,570.76,791.92Zm15.51,1.16c.24,0,.73.55,1,.64a1,1,0,0,0,.61.06.58.58,0,0,1,.25.46c0,.24-.91,1.18-1.25,1.82-.13,0-.13.14-.38.16a.79.79,0,0,1-.61-.43c0-.61-.18-1.45-.19-1.69S585.78,793.12,586.27,793.08Zm-4.88.23a.87.87,0,0,1,1,.75c0,.6-.91,1.42-1.27,1.45s-.63-.52-.63-.65.25-1.34.78-1.53ZM537.16,796m23.73.24c.39,0,.65.15.66.51s-.2.76-.19,1,.89,1.12.9,1.36a1.52,1.52,0,0,1-.21.77,10.21,10.21,0,0,1-2,1.39c-.48.05-.49-.31-.49-.43s.46-.66.69-1c-.37-.09-.77-1-.79-1.61s.17-1.85,1-1.93A3.47,3.47,0,0,1,560.89,796.28Zm14.05.08c.61-.06.65.9.65,1,.07,1.69-1.42,1-1.59,2.83a1.1,1.1,0,0,1-.61.3c-.85.08-1-.88-1-1a2.89,2.89,0,0,1,.19-1c.35-.4.83-.68,1.18-1.08s.46-.66.69-.92C574.45,796.4,574.7,796.38,574.94,796.36Zm25.34,5.23-33.54.06c.85-.08,1.86,1.14,1.89,1.86s-.92,1.19-1,1.2-.62-.18-.87-.15-1.07.58-1.31.61c-.73.07-.61-.55-.61-.55,0-.61.19-.76,1-1.32.47-.41.09-.85.32-1.24A.72.72,0,0,1,566.74,801.65Zm-3,.29a1.08,1.08,0,0,1,1.12,1.08c0,.49-.09.64-.45.67s-.51-.2-.75-.18-1.9,1.16-2.14,1.18c-.61.06-.74-.16-.75-.53s.41-2,1.14-2c.24,0,.74.16,1,.14S563.47,802,563.72,801.94Zm52.76,1.44c.25,0,.86.65,1.24,1a1.08,1.08,0,0,1,.16.47c0,.24-.23.63-.47.65-.61.06-1.75-1.16-1.75-1.28C615.64,803.84,616.24,803.4,616.48,803.38Zm-27.13,1.92,24.66.14a1.56,1.56,0,0,1,1,.28c.13.23.26.57.39.8s.49.33.75.67a1.25,1.25,0,0,1,.29.69c0,.6-.83.94-1.08,1s-.73-.06-.86-.29a9.78,9.78,0,0,1-1.3-2.18A1,1,0,0,1,614,805.44Zm-55,.34c.74-.08,1.83,1.4,1.85,1.88a1.06,1.06,0,0,1-.85,1.18,2.16,2.16,0,0,1-2.16-2C557.77,806.13,558.77,805.79,559,805.78Zm38.24.7c-2.66,1.52-7.88,3.42-1.91,2.28C595,807.94,600,806.44,597.2,806.48Zm-23,1.14,23.73.81c-1.47,1.38,4.34,4.72-1.33,3.54-1.6,1.83.59,5.92-.59,9a24,24,0,0,1-9,20.37c-1.71,3.21,3.49-2.11,1.79,1.77,4.63,2.23,7.12-3.1,8.91-5.74-.29-7.6,4.56-14.39,9.06-20.62-2.68-1.39-1.83-6.16-7.1-4.49C602.41,809.92,601.82,809.23,598,808.43ZM567.1,811a2.21,2.21,0,0,1-2.4,1.08l-.35.15c.49.2.87.52,1.12.5s1.92-.67,1.88-1.52C567.34,810.92,567.22,811.06,567.1,811Zm42,1.14-71.23,1.41a6.48,6.48,0,0,0-1.57.22l-7.53.21c1.56,2.94-.52,4-.23,4.8a3.7,3.7,0,0,1,2.53.36,1.37,1.37,0,0,1,0-.16c0-.49.22-1,.65-1s.84.88.85,1a1.51,1.51,0,0,1-.93,1.43l-.08-.13c-.2.59-1,1.25-2.65,1.73,1.7,5.28,3.23,10.7,2.44,16.41,1.7,3.75-7,8.86-3.56,10,1.94-4,.71,3.66,5.25,1.26,5,.38,1.76-5.23,5.76-6.26.87-6.81-2.38-13.73-.3-20.26C540.76,820.08,542.29,813.51,537.86,813.5Zm-9.45.34a1.2,1.2,0,0,0-.55.11C528.94,814.15,528.86,813.85,528.41,813.84Zm-1.42,0a4,4,0,0,0-.74.13h-.16C526.66,815.2,528.29,813.78,527,813.86Z"/></g></g><g id="croix"><circle class="cls-1" cx="567.39" cy="554.47" r="76.31"/><path class="cls-6" d="M644.23,554.48s-.08,1.88-.22,5.39a43,43,0,0,1-.67,6.47c-.21,1.27-.31,2.67-.57,4.12s-.65,3-1,4.59c-1.68,6.37-3.83,14.33-8.67,22.46a77.76,77.76,0,0,1-21,23.87,73.36,73.36,0,0,1-35.55,13.46c-3.47.21-6.71.34-10.5.22a82,82,0,0,1-30.72-8.27,90.38,90.38,0,0,1-18.15-12.42,96.06,96.06,0,0,1-14.69-16.82,91.52,91.52,0,0,1-10-20.39,80.76,80.76,0,0,1-1.89-46A85.71,85.71,0,0,1,500,509.71a80.8,80.8,0,0,1,34.3-30,74.4,74.4,0,0,1,21.21-6.25,76.26,76.26,0,0,1,10.71-.91c.56,0,.6,0,1.6,0l1.23.08,2.44.16c1.67.15,3.17.12,4.94.41a75.81,75.81,0,0,1,35.84,14.13,78.93,78.93,0,0,1,21,24c4.83,8.14,7,16.11,8.65,22.49a67.79,67.79,0,0,1,1.55,8.7,43.64,43.64,0,0,1,.64,6.49Zm-.78-.52s-.12-1.85-.34-5.33a45.11,45.11,0,0,0-.82-6.35,49.72,49.72,0,0,0-2.09-8.39,66.48,66.48,0,0,0-10.71-20.41A75.73,75.73,0,0,0,607.6,494.2a82.07,82.07,0,0,0-31.66-10.56,77,77,0,0,0-37,5.57,74.31,74.31,0,0,0-17.05,10.17,80.47,80.47,0,0,0-14,15A77.4,77.4,0,0,0,498.4,533a80.12,80.12,0,0,0-4.17,21,81.37,81.37,0,0,0,2.28,21.56,73.32,73.32,0,0,0,8.92,19.75A71.46,71.46,0,0,0,519.87,611a70.18,70.18,0,0,0,18,10.12A71.61,71.61,0,0,0,557,625.55c3,.47,6.48.27,9.75.34,2.8-.08,6.1-.36,9-.71a85.86,85.86,0,0,0,32-11.23,77.08,77.08,0,0,0,21.84-19.44,66.43,66.43,0,0,0,10.69-20.45,47.9,47.9,0,0,0,2.06-8.38,42.77,42.77,0,0,0,.8-6.36Z"/><path class="cls-6" d="M616.29,548.58a5.34,5.34,0,0,0-1.44.29,8.43,8.43,0,0,1-6.14-8.11c-.1-2.57,1.14-4.27,2.69-5.89a5.19,5.19,0,0,0,1.09-.37,5.57,5.57,0,1,0-7.65-2s0,0,.07.09a57.59,57.59,0,0,1-29,13.3,58.43,58.43,0,0,1,13.28-29.5,5.59,5.59,0,1,0-2.13-7.69,4.61,4.61,0,0,0-.45,1.22,8.89,8.89,0,0,1-5.92,2.68,8.38,8.38,0,0,1-8-6.15,5.34,5.34,0,0,0,.31-1.55,5.57,5.57,0,1,0-11.14,0,5.27,5.27,0,0,0,.31,1.54,8.39,8.39,0,0,1-8,6.16c-2.64.1-4.35-1.24-6-2.87a5,5,0,0,0-.36-1,5.57,5.57,0,1,0-2,7.66l.1-.1a58.24,58.24,0,0,1,13.39,29.67,57.56,57.56,0,0,1-29.32-13.35l.07-.08a5.6,5.6,0,1,0-7.65,2,5,5,0,0,0,1.24.46,9.57,9.57,0,0,1,2.55,6,8.4,8.4,0,0,1-5.86,8,5.43,5.43,0,0,0-7.36,5.22,5.62,5.62,0,0,0,5.62,5.58,5.36,5.36,0,0,0,1.14-.23,8.44,8.44,0,0,1,6.46,8.21c.11,2.53-1.1,4.14-2.63,5.7a4.83,4.83,0,0,0-1.16.4A5.57,5.57,0,1,0,530,576a57.57,57.57,0,0,1,29.16-13.26,58.31,58.31,0,0,1-13.34,29.36l-.11-.1a5.6,5.6,0,1,0,2,7.66,5.22,5.22,0,0,0,.37-1.07,9.43,9.43,0,0,1,6.15-2.81,8.36,8.36,0,0,1,7.93,5.86,5.46,5.46,0,0,0-.36,1.82,5.57,5.57,0,1,0,11.14,0,5.07,5.07,0,0,0-.25-1.23,8.4,8.4,0,0,1,8.14-6.45c2.59-.11,4.21,1.19,5.8,2.79a4.33,4.33,0,0,0,.4,1.09,5.57,5.57,0,1,0,2.12-7.69A58.29,58.29,0,0,1,576,562.77,57.53,57.53,0,0,1,604.8,576a5.54,5.54,0,0,0,2.09,7.49,5.57,5.57,0,1,0,5.6-9.64,4.59,4.59,0,0,0-1.28-.47,8.94,8.94,0,0,1-2.5-5.79,8.43,8.43,0,0,1,6.16-8.11,5.69,5.69,0,0,0,1.42.29,5.58,5.58,0,1,0,0-11.15Z"/><path class="cls-4" d="M567.64,509.13a14.23,14.23,0,0,0,12.44,9.25,64.38,64.38,0,0,0-10.75,34.08,63.44,63.44,0,0,0,33.85-10.81,14.32,14.32,0,0,0,9.2,12.5,14.33,14.33,0,0,0-9.2,12.52,63.37,63.37,0,0,0-33.85-10.82,64.47,64.47,0,0,0,10.75,34.08,14.24,14.24,0,0,0-12.27,9.26,14.23,14.23,0,0,0-12.57-9.27A64.43,64.43,0,0,0,566,555.85a63.39,63.39,0,0,0-33.83,10.83,14.33,14.33,0,0,0-9.2-12.36,14.31,14.31,0,0,0,9.21-12.67A63.34,63.34,0,0,0,566,552.46a64.45,64.45,0,0,0-10.73-34.08A14.2,14.2,0,0,0,567.64,509.13Z"/></g><g id="lys"><path id="path3390" class="cls-6" d="M461.62,295.85c-2.86,4.65-14.5,13.17-20.68,15.6-1.6.63,7.66-.36,11.81-.89,5.45-.7,12.52-4.07,12.35-2.88,0,5.45,2.62,14.54,9.49,18.72l.65.4.67-.4c6.87-4.66,9.46-12.84,9.49-18.72-.16-1.19,6.91,2.18,12.35,2.88,4.15.53,13.42,1.52,11.82.89-6.19-2.43-17.82-10.95-20.67-15.6Z"/><path id="path3386" class="cls-6" d="M559.16,400.69a52.23,52.23,0,0,0-6.23-23.37c-10.08-21.2-40.86-20.7-34.08,5.24,2.5,9.55,11,15.17,21.09,16.13-.73-2.52-4.73-11.42-1.5-13.16,5.17.2,12.21,10.87,13.76,15.13C552.2,400.66,552.2,400.69,559.16,400.69Z"/><path id="path3386-2" data-name="path3386" class="cls-6" d="M582.71,400.66c1.55-4.26,8.59-14.93,13.76-15.13,3.23,1.74-.77,10.64-1.5,13.16,10.09-1,18.58-6.58,21.08-16.13,6.79-25.94-24-26.44-34.07-5.24a52.1,52.1,0,0,0-6.23,23.37C582.71,400.69,582.71,400.66,582.71,400.66Z"/><path id="path3388" class="cls-6" d="M566.89,326.37c-9.74,10.5-16.29,22.65-13.47,36.9,1.56,7.86,5.33,15.14,8,22.71a39.65,39.65,0,0,1,1.89,14.71h8.27A40.34,40.34,0,0,1,573.47,386c2.53-7.62,6.39-14.84,8-22.71,3-14.71-4-25.8-13.43-36.86l-.57-.73Z"/><rect class="cls-6" x="543.65" y="404.98" width="47.47" height="11.64" rx="5.82" ry="5.82"/><path id="path3390-2" data-name="path3390" class="cls-6" d="M553.75,420.92c-2.85,4.65-14.49,13.17-20.67,15.59-1.61.63,7.66-.36,11.81-.89,5.44-.69,12.52-4.06,12.35-2.87,0,5.45,2.62,14.54,9.49,18.71l.65.41.67-.41c6.87-4.65,9.46-12.84,9.49-18.71-.17-1.19,6.91,2.18,12.35,2.87,4.15.53,13.42,1.52,11.81.89-6.18-2.42-17.81-10.94-20.67-15.59Z"/><path class="cls-6" d="M475.82,439.68l-.57-.74-.56.69c-9.73,10.48-16.26,22.61-13.48,36.82h28.05C492.2,461.78,485.21,450.71,475.82,439.68Z"/><path id="path3390-3" data-name="path3390" class="cls-6" d="M650.15,295.85c-2.86,4.65-14.5,13.17-20.68,15.6-1.6.63,7.67-.36,11.82-.89,5.44-.7,12.51-4.07,12.35-2.88,0,5.45,2.62,14.54,9.48,18.72l.65.4.68-.4c6.86-4.66,9.45-12.84,9.48-18.72-.16-1.19,6.91,2.18,12.35,2.88,4.15.53,13.42,1.52,11.82.89-6.18-2.43-17.82-10.95-20.67-15.6Z"/><path class="cls-6" d="M664.36,439.68l-.58-.74-.56.69c-9.73,10.48-16.26,22.61-13.48,36.82h28C680.74,461.78,673.74,450.71,664.36,439.68Z"/><path id="path3386-3" data-name="path3386" class="cls-6" d="M371.27,400.69a52.09,52.09,0,0,0-6.22-23.37c-10.08-21.2-40.86-20.7-34.08,5.24,2.5,9.55,11,15.17,21.09,16.13-.73-2.52-4.74-11.42-1.5-13.16,5.17.2,12.21,10.87,13.75,15.13C364.31,400.66,364.31,400.69,371.27,400.69Z"/><path id="path3386-4" data-name="path3386" class="cls-6" d="M394.83,400.66c1.55-4.26,8.59-14.93,13.76-15.13,3.23,1.74-.78,10.64-1.5,13.16,10.09-1,18.58-6.58,21.08-16.13,6.79-25.94-24-26.44-34.07-5.24a52.1,52.1,0,0,0-6.23,23.37C394.83,400.69,394.83,400.66,394.83,400.66Z"/><path id="path3388-2" data-name="path3388" class="cls-6" d="M379,326.37c-9.74,10.5-16.29,22.65-13.47,36.9,1.56,7.86,5.33,15.14,8,22.71a39.45,39.45,0,0,1,1.9,14.71h8.26a40.56,40.56,0,0,1,1.9-14.71c2.53-7.62,6.39-14.84,8-22.71,3-14.71-4-25.8-13.43-36.86l-.57-.73Z"/><rect class="cls-6" x="355.77" y="404.98" width="47.47" height="11.64" rx="5.82" ry="5.82"/><path id="path3390-4" data-name="path3390" class="cls-6" d="M365.87,420.92c-2.85,4.65-14.49,13.17-20.67,15.59-1.61.63,7.66-.36,11.81-.89,5.44-.69,12.52-4.06,12.35-2.87,0,5.45,2.62,14.54,9.49,18.71l.65.41.67-.41c6.86-4.65,9.45-12.84,9.49-18.71-.17-1.19,6.91,2.18,12.35,2.87,4.15.53,13.41,1.52,11.81.89-6.18-2.42-17.81-10.94-20.67-15.59Z"/><path id="path3386-5" data-name="path3386" class="cls-6" d="M748.59,400.69a52.1,52.1,0,0,0-6.23-23.37c-10.07-21.2-40.86-20.7-34.07,5.24,2.5,9.55,11,15.17,21.08,16.13-.72-2.52-4.73-11.42-1.5-13.16,5.18.2,12.21,10.87,13.76,15.13C741.63,400.66,741.63,400.69,748.59,400.69Z"/><path id="path3386-6" data-name="path3386" class="cls-6" d="M772.15,400.66c1.54-4.26,8.58-14.93,13.75-15.13,3.24,1.74-.77,10.64-1.5,13.16,10.09-1,18.59-6.58,21.09-16.13,6.78-25.94-24-26.44-34.08-5.24a52.09,52.09,0,0,0-6.22,23.37C772.15,400.69,772.15,400.66,772.15,400.66Z"/><path id="path3388-3" data-name="path3388" class="cls-6" d="M756.33,326.37c-9.75,10.5-16.29,22.65-13.47,36.9,1.56,7.86,5.33,15.14,8,22.71a39.45,39.45,0,0,1,1.89,14.71H761A40.34,40.34,0,0,1,762.9,386c2.54-7.62,6.39-14.84,8-22.71,3-14.71-4-25.8-13.42-36.86l-.58-.73Z"/><rect class="cls-6" x="733.09" y="404.98" width="47.47" height="11.64" rx="5.82" ry="5.82"/><path id="path3390-5" data-name="path3390" class="cls-6" d="M743.19,420.92c-2.86,4.65-14.5,13.17-20.68,15.59-1.6.63,7.67-.36,11.82-.89,5.44-.69,12.51-4.06,12.35-2.87,0,5.45,2.61,14.54,9.48,18.71l.65.41.68-.41c6.86-4.65,9.45-12.84,9.48-18.71-.16-1.19,6.91,2.18,12.35,2.87,4.15.53,13.42,1.52,11.82.89-6.18-2.42-17.82-10.94-20.67-15.59Z"/></g><path id="tour_blason" data-name="tour blason" class="cls-6" d="M812.92,301S734.36,281.35,567,281.35c-163.89,0-243.51,19.75-243.51,19.75l-2,437.57C321,858.52,512.3,799.76,567.39,901.5c55.09-101.74,246-41.51,245.94-161.36ZM567,297.06c127,0,202.7,11.55,230.24,16.73l.14,154.8H338.41l.71-154.71C366.62,308.68,442.07,297.06,567,297.06Zm128.44,518c-45.55,10.31-96.32,21.81-128,58.83-31.65-37-82.38-48.82-127.88-59.41C374,799.23,337,788.2,337.16,738.74l1.17-254.44H797.38l.24,255.84C797.63,789.51,760.7,800.28,695.42,815.06Z"/><g id="text"><path class="cls-2" d="M211,786.38l-15.41,9.9,19.63,30.56-11.56,7.43L184,803.72l-24.44,15.71-8.22-12.79,63-40.48,30.21,47L233,820.59Z"/><path class="cls-2" d="M244.72,910.5a38.27,38.27,0,0,1-27.33-12.67,38.71,38.71,0,0,1-10.93-28.19,39.53,39.53,0,0,1,40.54-38,38.36,38.36,0,0,1,27.48,12.69,37.89,37.89,0,0,1,10.77,28.18,39.23,39.23,0,0,1-40.53,38Zm-16.89-22.45a22.91,22.91,0,0,0,16.82,7.67,24,24,0,0,0,17.7-6.93,24.43,24.43,0,0,0,8.16-17.28A22.61,22.61,0,0,0,264,854.15a23,23,0,0,0-17-7.68,24.81,24.81,0,0,0-17.7,7.09,24.33,24.33,0,0,0-8.15,17.12A23.34,23.34,0,0,0,227.83,888.05Z"/><path class="cls-2" d="M322.61,970.37a38.25,38.25,0,0,1-29.35-6.76,38.68,38.68,0,0,1-16.51-25.31,39.5,39.5,0,0,1,31.82-45.49,38.35,38.35,0,0,1,29.5,6.72,37.94,37.94,0,0,1,16.36,25.35,39.23,39.23,0,0,1-31.82,45.49Zm-21.15-18.48a22.89,22.89,0,0,0,18,4,24,24,0,0,0,15.88-10.43,24.43,24.43,0,0,0,4.41-18.58,22.65,22.65,0,0,0-9.91-15.66,23.07,23.07,0,0,0-18.19-4,24.88,24.88,0,0,0-15.86,10.59,24.38,24.38,0,0,0-4.44,18.43A23.34,23.34,0,0,0,301.46,951.89Z"/><path class="cls-2" d="M422.92,962.75l-22.6-10.47-25.69,55.43-13.78-6.39,25.69-55.43-22.6-10.47L369.72,923l59,27.34Z"/><path class="cls-2" d="M471.56,1000.19c6.33,2.65,10.63,10.65,8,20.24-3.32,12.17-13.23,17.92-28.74,13.69l-35.66-9.74,19.7-72.17,35.55,9.7c12.93,3.53,19.16,13.79,15.86,25.86-1.14,4.2-3.13,7.24-6.13,9.32s-5.78,2.94-8.48,2.66Zm-38.32,15.69,19.39,5.3c6.47,1.76,10.86-.74,12.35-6.24s-1.33-10-6.93-11.5L438.12,998Zm12.88-47.18-4.82,17.67,18.31,5c5.93,1.62,10.7-1,12.23-6.62A8.74,8.74,0,0,0,465.4,974Z"/><path class="cls-2" d="M567.37,1050.63,551,1049.2l-5.07-16.48L513,1029.84l-8,15.35-16.36-1.43L527.46,972l14.14,1.23Zm-25.91-32.1L533,991l-13.23,25.66Z"/><path class="cls-2" d="M636.82,1031.32l1.12,13.69-53.65,4.44-6.16-74.58,15.13-1.25,5,60.88Z"/><path class="cls-2" d="M706.88,1015.66l3.2,13.35-52.33,12.57-17.48-72.75L655,965.29l14.27,59.39Z"/><path class="cls-2" d="M793.52,958.86l14.53-4c2.64,9.18,2.17,17.67-1.54,25.43a40.27,40.27,0,0,1-47.88,20.43q-15.24-4.87-22.72-19.69c-4.93-9.77-5.73-19.76-2.32-29.87a40.13,40.13,0,0,1,44.66-26.56c8.4,1.51,15.36,5.88,21,12.9L788,947.89c-8-9.86-18.49-11.56-28.16-6.68a22.63,22.63,0,0,0-12,14.09,24.34,24.34,0,0,0,1.77,18.88,24.83,24.83,0,0,0,14.19,12.73,22.92,22.92,0,0,0,18.48-1.32C792.12,980.6,796.78,971.24,793.52,958.86Z"/><path class="cls-2" d="M873.77,924.1l8.26,11-43,32.37-45-59.79,12.14-9.13,36.74,48.81Z"/><path class="cls-2" d="M887.17,823.6l30,28.41c7.63,7.22,11.8,15.16,12.44,23.92s-2.31,16.58-9,23.64c-6.84,7.22-14.64,10.75-23.5,10.68s-17.09-3.72-24.71-10.93l-30-28.42,10.45-11,30,28.41c9.09,8.6,19.85,9.09,27.22,1.31,7-7.39,5.75-18-3.34-26.55l-30-28.41Z"/><path class="cls-2" d="M951.16,794c4.47-5.22,13.41-6.86,21.74-1.43,10.58,6.9,13,18.09,4.23,31.57l-20.2,31-62.71-40.89,20.14-30.87c7.33-11.24,19-14,29.49-7.18,3.66,2.37,5.95,5.2,7,8.69s1,6.41-.07,8.9Zm-37.78,14.58,15.35,10,10.38-15.91c3.35-5.15,2.3-10.5-2.56-13.67a8.73,8.73,0,0,0-12.24,2.82Zm41,26.73,11-16.85c3.67-5.61,2.62-10.56-2.14-13.67s-9.91-1.79-13.08,3.07l-11.29,17.32Z"/><path class="cls-2" d="M272,203.17,251.24,223l48.58,50.82-12.64,12.07L238.6,235.06l-20.71,19.8L207,243.44,261,191.75Z"/><path class="cls-2" d="M382.62,201.73c-3,11.9-9.78,21.19-20.63,27.82a44.52,44.52,0,0,1-34.28,5.75,45.44,45.44,0,0,1-33.29-54.48,44.06,44.06,0,0,1,20.67-28c10.86-6.63,22.23-8.47,34.24-5.57s21.4,9.65,28,20.39A43,43,0,0,1,382.62,201.73Zm-29.21,13.79A26.32,26.32,0,0,0,366,198.37c1.79-7.42.54-14.63-3.68-21.54a28.08,28.08,0,0,0-17.55-13.21,26,26,0,0,0-21.06,3.24,26.42,26.42,0,0,0-12.59,17.33,28.49,28.49,0,0,0,3.85,21.58,28,28,0,0,0,17.38,13.17A26.87,26.87,0,0,0,353.41,215.52Z"/><path class="cls-2" d="M454.92,95.43l14.66,45.23c3.73,11.49,3.56,21.8-.62,31s-11.46,15.47-22.09,18.92c-10.88,3.53-20.71,2.8-29.6-2.15s-15.21-13.17-18.94-24.66l-14.67-45.22,16.63-5.39L415,158.37c4.44,13.69,15,20.12,26.77,16.31,11.12-3.6,15.68-14.94,11.24-28.63L438.3,100.82Z"/><path class="cls-2" d="M557.74,152.47l1.67,15.71-61.58,6.54-9.08-85.6,17.37-1.85,7.42,69.89Z"/><path class="cls-2" d="M644.38,164.09c-9.6,7.63-20.67,10.84-33.32,9.49a44.51,44.51,0,0,1-30.69-16.33,43.44,43.44,0,0,1-9.65-33.07,43.56,43.56,0,0,1,16.43-30.42,44.1,44.1,0,0,1,33.46-9.61c12.65,1.35,22.79,6.83,30.55,16.44s11.1,20.69,9.76,33.22A43.08,43.08,0,0,1,644.38,164.09Zm-31.57-6.86a26.35,26.35,0,0,0,20.4-6c5.94-4.79,9.35-11.27,10.21-19.32a28.08,28.08,0,0,0-5.88-21.17,26,26,0,0,0-18.68-10.27,26.51,26.51,0,0,0-20.55,6.08,28.49,28.49,0,0,0-10.08,19.47,28,28,0,0,0,5.76,21A26.87,26.87,0,0,0,612.81,157.23Z"/><path class="cls-2" d="M766.42,123.89l-15.93,44.79c-4,11.37-10.46,19.45-19.37,24.19s-18.51,5.28-29,1.53C691.31,190.57,684,184,679.92,174.66s-4-19.7,0-31.08L695.86,98.8l16.46,5.86L696.4,149.44c-4.83,13.55-.34,25.1,11.28,29.23,11,3.92,21.53-2.29,26.35-15.85L750,118Z"/><path class="cls-2" d="M840.69,172a29.42,29.42,0,0,1,.36,21.55l-16.73-6.17c3.29-7.48.07-15.69-7.35-20.3-7.09-4.41-14.33-3.47-17.52,1.66-2.51,4-1.61,7.93,2.69,12l13.75,12.94c10.48,10.15,13.16,21.65,6.17,32.88-4.41,7.1-10.49,11-18.41,11.85s-16.2-1.45-24.93-6.87c-8.07-5-13.79-11.15-17.26-18.46a25.65,25.65,0,0,1,.22-22.25l17.57,6.54c-3.1,9.12-.09,16.44,9,22.07,8.29,5.15,15.42,4.14,18.75-1.2,2.71-4.37,1.84-8.08-3.56-13.26l-13.66-12.58q-16.61-16-6.18-32.89a23,23,0,0,1,17.51-11.35q11.38-1.55,24.16,6.4C832.66,159.08,837.83,164.87,840.69,172Z"/><path class="cls-2" d="M878.64,290.86l-10.89,11.45-47.37-45.07,59.33-62.36,47.19,44.9L916,251.22l-34.52-32.85-13.37,14,31.82,30.29L889.22,274l-31.83-30.29-13.46,14.15Z"/><path class="cls-2" d="M89.4,518H77.6V505.49h26.6v75.39H89.4Z"/><path class="cls-2" d="M150.86,555.56a13.66,13.66,0,0,1-4.7.85c-14.65,0-26.45-10.24-26.45-25.46,0-16.64,13.08-26.6,28.87-26.6s28.73,9.68,28.73,26.31c0,7.83-3.69,15.08-10.38,24.76l-17.64,25.46H133.08ZM162.24,531c0-7.82-5.12-13.66-13.66-13.66s-13.65,5.84-13.65,13.66,5.26,13.94,13.79,13.94C157.83,544.89,162.24,539.06,162.24,531Z"/><path class="cls-2" d="M942.38,563.58l12.49-6.39c3.27,7.24,9,12.21,17.61,12.21,8.94,0,14.62-5,14.62-14.34s-7.38-13.77-15.9-13.77A36.43,36.43,0,0,0,959.56,543l-1.14-2.13,18.46-22.72H948.34V505.66h52.82v.7L981,531.49c11.35,1.14,21.29,9.94,21.29,23.85,0,14.91-9.79,26.84-29.81,26.84C956.15,582.18,946.07,572.1,942.38,563.58Z"/><path class="cls-2" d="M1046.46,518.15H1010.4V505.66h57.07v.7l-35.21,74.54h-15.61Z"/></g><g id="path3370-4" class="cls-7"><path class="cls-2" d="M22.72,46.11l.14-24.47s5.55-1.37,17-1.37c11.65,0,17.12,1.37,17.12,1.37s-3,3.44-17.11,7.64C26.76,33.17,23.83,32.62,22.72,46.11Z"/></g></svg>