<svg xmlns="http://www.w3.org/2000/svg" width="80" height="80" viewBox="0 0 80 80"><path fill="#FFF" d="M18.162 12.217s20.975-7.034 43.511.914c0 0 4.168 29.182-.391 45.726 0 0-14.33 13.811-22.537 15.764 0 0-16.154-10.161-20.844-16.675 0-.002-2.996-24.102.261-45.729z"/><path fill="#231F20" d="M40.239 75.766l-.567-.007-.201-.097c-6.812-3.329-12.469-7.773-16.014-10.918-3.845-3.405-6.055-5.997-6.147-6.105l-.167-.2-.048-.255c-2.098-10.933-1.945-22.782-1.447-30.798.538-8.675 1.587-14.869 1.598-14.932l.095-.558.53-.2c8.735-3.293 19.75-3.459 21.87-3.459l.259.001.26-.001c2.119 0 13.135.166 21.87 3.461l.529.2.097.559c.011.063 1.06 6.257 1.597 14.932.498 8.016.65 19.866-1.445 30.798l-.049.257-.168.199c-.094.109-2.316 2.699-6.177 6.107-3.563 3.143-9.238 7.587-16.063 10.914l-.212.102zM18.985 57.548c1.26 1.425 9.487 10.428 20.978 16.149 11.51-5.72 19.783-14.722 21.054-16.149 2.003-10.647 1.85-22.183 1.366-30.013-.44-7.086-1.22-12.487-1.484-14.186-8.326-2.984-18.623-3.138-20.635-3.138h-.522c-2.016 0-12.311.154-20.637 3.138-.264 1.699-1.047 7.1-1.484 14.186-.487 7.831-.64 19.367 1.364 30.013z"/><path fill="none" d="M39.892 69.512c12.712-17.707 20.966-36.013 20.966-36.013-3.101-7.657-6.203-11.006-6.203-11.006-4.949-.614-9.845-.82-14.109-.822h-.681c-4.268.003-9.162.209-14.112.822 0 0-3.102 3.35-6.202 11.006 0 0 7.607 18.272 20.323 35.979l.018.034z"/><path fill="#231F20" d="M51.125 22.123c-2.82-.249-5.557-.371-8.137-.419v5.059h-5.741v-5.056c-2.583.052-5.322.183-8.135.437v4.619h-6.296c-.986 1.698-2.124 3.925-3.263 6.738 0 0 1.036 2.485 2.976 6.503h6.583v12.551a194.323 194.323 0 0 0 8.135 13.148v-25.7h5.741V65.06a226.232 226.232 0 0 0 8.137-13.01V40.003h6.564c2.049-4.018 3.169-6.503 3.169-6.503-1.141-2.814-2.277-5.04-3.262-6.738h-6.472v-4.639zM25.396 19.099l1.294-4.514.908-.083 2.096 4.201-.93.086-.561-1.121-1.803.165-.346 1.207-.658.059zm1.176-1.866l1.354-.125-.838-1.674-.516 1.799zm4.906 1.354l-.22-4.372.799-.041 2.176 2.885-.15-2.986.73-.036.218 4.37-.815.041-2.161-2.884.151 2.985-.728.038zm9.313-.387c-.547.148-1.019.224-1.417.229-.755.007-1.337-.184-1.747-.576-.41-.395-.618-.962-.626-1.702-.007-.736.188-1.304.588-1.705.401-.401.977-.605 1.725-.613.479-.006.955.045 1.426.153l.008.712c-.546-.181-.996-.27-1.348-.266-.461.006-.819.158-1.067.456-.249.298-.371.718-.365 1.26.006.524.146.935.419 1.23.273.296.647.441 1.122.437l.367-.049-.016-1.441.911-.009.02 1.884zm2.193.126l.104-4.375 2.736.065-.016.598-1.823-.042-.029 1.22 1.497.035-.016.585-1.494-.035-.031 1.349 1.96.047-.013.621-2.875-.068zm4.811.149l.257-4.37 1.635.097c.889.052 1.311.44 1.27 1.16a1.271 1.271 0 0 1-.269.724 1.436 1.436 0 0 1-.651.473l1.31 2.125-1.107-.066-.978-1.849-.5-.029-.106 1.787-.861-.052zm.998-2.337l.211.014c.659.038 1.007-.209 1.035-.742.024-.389-.259-.601-.849-.636l-.313-.019-.084 1.383zm4.101 2.634l.071-.747c.448.242.843.377 1.177.409.232.023.421-.012.566-.104a.51.51 0 0 0 .242-.404.527.527 0 0 0-.092-.368c-.075-.106-.225-.237-.447-.393l-.274-.19c-.368-.256-.626-.493-.767-.71a1.091 1.091 0 0 1-.174-.729c.034-.357.192-.633.479-.825.283-.192.646-.268 1.078-.226.349.032.732.121 1.16.262l-.068.698c-.431-.211-.774-.326-1.033-.353a.782.782 0 0 0-.491.088.408.408 0 0 0-.215.334.445.445 0 0 0 .096.327c.076.099.225.224.446.38l.295.203c.396.276.667.52.807.734.141.213.196.461.168.747-.039.404-.22.706-.54.907-.323.202-.749.277-1.277.227a6.013 6.013 0 0 1-1.207-.267z"/><path fill="#FFF" stroke="#FFF" stroke-width=".961" d="M25.432 30.022c.578-.334 1.413-.541 2.507-.621a15.52 15.52 0 0 1 2.094.075c.637.07 1.309.194 2.014.375a9.054 9.054 0 0 0-.184.967 8.148 8.148 0 0 0-.672-.271 7.82 7.82 0 0 0-.729-.209 10.178 10.178 0 0 0-.921-.166 35.237 35.237 0 0 0-1.261-.139 6.135 6.135 0 0 0-.825.119 2.683 2.683 0 0 0-.697.25c-.2.11-.356.241-.47.394a.76.76 0 0 0-.149.53c.002.125.063.25.181.372.115.123.267.243.452.359.186.118.402.226.652.322s.507.182.775.258l2.205.631c.358.103.664.235.919.398.256.165.465.341.628.532a1.789 1.789 0 0 1 .445 1.211c-.011.342-.11.645-.295.915a2.486 2.486 0 0 1-.752.699 3.97 3.97 0 0 1-1.112.459c-.427.11-.886.172-1.379.183-.68.017-1.35-.02-2.007-.111a28.47 28.47 0 0 1-1.983-.343l.092-.457.089-.522c.251.157.514.283.788.378.273.096.556.172.848.228.293.056.599.094.919.116.321.022.658.031 1.015.029.296-.008.572-.034.833-.081.26-.048.485-.119.675-.216.188-.098.336-.228.441-.393s.148-.374.132-.624a1.203 1.203 0 0 0-.083-.375 1.618 1.618 0 0 0-.239-.43 1.921 1.921 0 0 0-.424-.399 1.995 1.995 0 0 0-.666-.288l-2.351-.573c-.795-.193-1.387-.468-1.781-.824-.394-.354-.584-.743-.577-1.164-.011-.725.274-1.259.853-1.594zm18.793 6.862a5.855 5.855 0 0 1-.806.277 13.1 13.1 0 0 1-.916.21c-.312.059-.614.105-.915.138-.303.034-.57.051-.806.051a9.862 9.862 0 0 1-2.368-.271c-.739-.18-1.385-.446-1.936-.801a4.127 4.127 0 0 1-1.31-1.31c-.32-.52-.481-1.114-.482-1.787 0-.656.155-1.242.466-1.758.31-.517.728-.955 1.257-1.313a6.063 6.063 0 0 1 1.84-.819 8.616 8.616 0 0 1 2.232-.284c.622 0 1.276.045 1.966.138.69.092 1.374.226 2.055.403l-.096.442-.095.487a9.435 9.435 0 0 1-.668-.243 6.968 6.968 0 0 0-.745-.249 9.079 9.079 0 0 0-.998-.205c-.385-.06-.848-.099-1.39-.121a5.21 5.21 0 0 0-1.67.249c-.494.167-.91.396-1.25.688-.34.292-.601.638-.783 1.04a3.099 3.099 0 0 0-.274 1.3c0 .539.112 1.029.333 1.471.221.443.54.824.955 1.146.415.319.915.569 1.5.745a6.725 6.725 0 0 0 1.958.265c.523 0 1.037-.063 1.545-.188a7.125 7.125 0 0 0 1.471-.542l-.07.841zm10.992-2.033a2.648 2.648 0 0 1-.307 1.204 2.56 2.56 0 0 1-.851.894c-.37.242-.82.425-1.343.549a7.049 7.049 0 0 1-1.779.165c-1.409-.032-2.479-.318-3.213-.856-.729-.536-1.088-1.253-1.064-2.153l.056-2.49c.021-.899.408-1.6 1.166-2.103.756-.503 1.838-.738 3.25-.705.659.016 1.247.097 1.767.246s.959.352 1.318.611c.356.259.628.57.806.931.178.362.264.769.256 1.218l-.062 2.489zm-6.658 1.115c.147.25.342.451.586.605.242.152.517.265.82.334.304.069.61.104.914.104a4.3 4.3 0 0 0 .924-.057c.313-.052.593-.148.844-.289.251-.142.453-.337.611-.584.16-.248.243-.556.253-.924l.07-3.174c.011-.369-.06-.68-.208-.934a1.711 1.711 0 0 0-.587-.611 2.492 2.492 0 0 0-.826-.329 4.385 4.385 0 0 0-.921-.099 4.107 4.107 0 0 0-.917.062 2.697 2.697 0 0 0-.836.297 1.772 1.772 0 0 0-.611.579c-.161.243-.243.549-.253.917l-.07 3.174c-.012.368.059.677.207.929z"/><path fill="#231F20" d="M39.239 45.689v-.362h.622v-2.294l-.622.154v-.372l1.246-.311v2.823h.621v.363H39.24v-.001zm-.168 6.097v-.45c.265.111.512.162.742.162a.676.676 0 0 0 .582-.305c.142-.205.213-.48.213-.832a.918.918 0 0 1-.731.354.93.93 0 0 1-.689-.284.95.95 0 0 1-.28-.699c0-.323.105-.588.316-.797.21-.208.479-.312.807-.312.384 0 .683.136.901.41.217.27.325.648.325 1.128 0 .538-.125.963-.382 1.266-.259.307-.611.46-1.062.46-.189 0-.438-.033-.742-.101zm.459-2.151c0 .215.047.385.139.51.094.125.22.186.38.186a.496.496 0 0 0 .382-.169.597.597 0 0 0 .155-.417c0-.22-.048-.396-.15-.531s-.234-.203-.4-.203c-.154 0-.277.057-.368.168s-.138.264-.138.456zm-.291 8.294v-.363h.622v-2.295l-.622.155v-.373l1.246-.312v2.826h.621v.361h-1.867v.001zm-.168 6.095v-.449c.265.109.512.16.742.16a.677.677 0 0 0 .582-.303c.142-.206.213-.482.213-.834a.919.919 0 0 1-.731.355.933.933 0 0 1-.689-.284.95.95 0 0 1-.28-.7c0-.323.105-.588.316-.796.21-.209.479-.313.807-.313.384 0 .683.137.901.41.217.271.325.649.325 1.13 0 .54-.125.96-.382 1.265-.259.306-.611.461-1.062.461-.189 0-.438-.034-.742-.102zm.459-2.152c0 .216.047.387.139.51.094.127.22.187.38.187a.495.495 0 0 0 .382-.168.604.604 0 0 0 .155-.418c0-.221-.048-.397-.15-.532s-.234-.203-.4-.203a.459.459 0 0 0-.368.168c-.092.112-.138.265-.138.456z"/><path fill="#C1B300" d="M19.264 37.665s6.517 15.04 15.205 27.404c-.001 0-11.628-9.848-15.205-27.404zm41.397 0s-6.515 15.04-15.203 27.404c0 0 11.627-9.848 15.203-27.404z"/><path fill="none" stroke="#231F20" stroke-width=".996" d="M39.87 69.694c12.773-17.791 21.067-36.179 21.067-36.179-3.115-7.693-6.229-11.059-6.229-11.059-4.974-.619-9.893-.822-14.177-.827h-.686c-4.287.004-9.203.208-14.178.827 0 0-3.117 3.366-6.232 11.059 0 0 7.645 18.361 20.419 36.148l.016.031z"/></svg>