<svg xmlns="http://www.w3.org/2000/svg" width="80" height="80" viewBox="0 0 80 80"><path fill="#D1A32C" d="M49.198 24.625s-3.95-.398-9.175-.398c-5.231 0-9.223.398-9.223.398v-1.697s4.032-.399 9.223-.399c5.182 0 9.175.399 9.175.399v1.697zM27.11 19.627c-1.178-1.309-1.746-2.441-1.517-3.144.183-.568.576-.942 1.191-1.129a6.184 6.184 0 0 1-.543-1.289 6.387 6.387 0 0 0-1.158.021c-.6.068-1.119.234-1.531.485-.589.36-1.028.893-1.182 1.539-.686 2.809 4.35 5.181 6.494 6.227l.225.046c.087-.005.15-.046.208-.117.088-.111.067-.249-.025-.36-.039-.049-1.113-1.114-2.162-2.279zm8.86-7.725c.089-.149-.109-.354-.137-.382-1.806-1.793-3.445-2.2-4.506-2.2l-.214.006c-1.604.084-2.855.82-3.557 2.121-1.318 2.432.955 4.965 2.418 6.649 1.732 1.991 3.967 3.494 4.202 3.66.11.072.229.072.235.072l.212-.076c.127-.101.142-.26.042-.379-1.714-2.008-4.83-6.062-3.702-8.579.946-1.73 3.6-.951 4.22-.787.343.09.603.161.787-.105z"/><path fill="#D71920" d="M29.338 18.504l-.081-.091-.427-.494c-.284.497-.204 1.191.256 1.999.84 1.458 1.191 1.854 1.191 1.854s.885-.095 2.455-.202c-1.353-1.025-2.507-2.047-3.394-3.066zm21.325 0l.08-.091.427-.494c.285.497.203 1.191-.255 1.999-.841 1.458-1.192 1.854-1.192 1.854s-.885-.095-2.456-.202c1.352-1.025 2.507-2.047 3.396-3.066zm-13.138-3.695c-1.68.141-3.972.732-5.429 1.321.75 1.681 2.036 3.567 3.312 5.071l.198.217a97.822 97.822 0 0 1 3.202-.086c-.148-.409-1.183-3.348-1.283-6.523zm4.911 0c1.679.141 3.969.732 5.426 1.321-.751 1.681-2.035 3.567-3.311 5.071l-.199.217a97.58 97.58 0 0 0-3.203-.086c.149-.409 1.187-3.348 1.287-6.523z"/><path fill="#D1A32C" d="M52.89 19.627c1.178-1.309 1.749-2.441 1.519-3.144-.185-.568-.58-.942-1.191-1.129.243-.444.421-.872.543-1.289.416-.028.8-.02 1.156.021.599.068 1.118.234 1.529.485.59.36 1.027.893 1.187 1.539.682 2.809-4.355 5.181-6.496 6.227l-.226.046c-.09-.005-.151-.046-.208-.117-.089-.111-.067-.249.026-.36.039-.049 1.112-1.114 2.161-2.279zm-8.86-7.725c-.093-.149.106-.354.137-.382 1.806-1.793 3.445-2.2 4.507-2.2l.212.006c1.604.084 2.855.82 3.557 2.121 1.317 2.432-.953 4.965-2.416 6.649-1.734 1.991-3.97 3.494-4.202 3.66a.465.465 0 0 1-.233.072l-.216-.076c-.125-.101-.141-.26-.044-.379 1.716-2.008 4.831-6.062 3.707-8.579-.949-1.73-3.603-.951-4.223-.787-.342.09-.602.161-.786-.105zm-2.149-5.474v-.855h-1.45V4.179h-.899v1.394h-1.449v.855h1.449v1.363a1.585 1.585 0 0 0-1.177 1.517c0 .872.728 1.58 1.629 1.58.895 0 1.624-.708 1.624-1.58 0-.721-.498-1.327-1.177-1.517V6.428h1.45zm-.444 9.041c.037-2.711-.63-4.042-1.444-4.042h-.025c-.816 0-1.485 1.33-1.445 4.042.024 1.666.755 5.173 1.257 6.033.072.124.141.173.198.173.06 0 .126-.046.199-.165.502-.848 1.236-4.37 1.26-6.041zm17.897 12.214c-.227-.117-6.093-2.229-19.334-2.229-13.242 0-19.106 2.113-19.333 2.229-.174.176-1.233 6.32-1.233 12.489 0 6.167 1.229 14.155 5.561 20.473C29.325 66.962 38.398 74.931 40 75.821c1.602-.891 10.674-8.859 15.007-15.177 4.332-6.318 5.56-14.306 5.56-20.473-.001-6.168-1.061-12.312-1.233-12.488z"/><path fill="#FFF" d="M57.332 29.322c-.199-.093-5.597-1.604-17.332-1.607-11.737.003-17.131 1.515-17.333 1.607-.155.156-.937 6.256-.937 11.676s1.091 12.754 4.94 18.315C30.483 64.816 38.474 71.988 40 72.876c1.524-.888 9.519-8.06 13.331-13.563 3.847-5.562 4.939-12.896 4.939-18.315s-.784-11.52-.938-11.676zm-4.859 28.684C48.883 63.131 41.331 70.148 40 70.871c-1.333-.722-8.882-7.739-12.473-12.863-3.593-5.127-4.615-11.896-4.615-16.898 0-5 .717-10.638.862-10.782.194-.086 5.24-1.399 16.225-1.4 10.987.001 16.031 1.313 16.225 1.399.146.144.863 5.782.863 10.78.001 5.003-1.021 11.773-4.614 16.899zm3.462-19.098h-31.87a64.658 64.658 0 0 0-.041 2.199c0 3 .43 10.589 4.417 16.28C31.69 62.021 37.961 67.918 40 69.53c2.038-1.612 8.311-7.509 11.558-12.144 3.988-5.691 4.42-13.28 4.42-16.28 0-.728-.016-1.467-.043-2.198z"/><path fill="#D71920" d="M26.237 39.848v12.31c.617 1.72 1.438 3.432 2.535 4.996.979 1.398 2.232 2.908 3.56 4.373V39.848h-6.095zm27.529 0v12.31c-.621 1.72-1.439 3.432-2.535 4.996-.979 1.398-2.237 2.908-3.563 4.373V39.848h6.098zm1.514-8.63c-1.551-.337-6.4-1.202-15.28-1.203-8.881.001-13.73.866-15.279 1.203-.194 1.26-.537 4.396-.657 7.69h31.87c-.117-3.295-.461-6.431-.654-7.69zM40 39.848h-3.525V65.8c1.465 1.418 2.745 2.565 3.525 3.21.781-.644 2.062-1.793 3.525-3.21V39.848H40z"/><path fill="#FFF" d="M28.465 34.217c0-.229.146-.372.378-.372.137 0 .265.048.378.117l.167-.606a1.274 1.274 0 0 0-.665-.184c-.644 0-.992.518-.992 1.116 0 .554.267.837.7 1.129.211.15.443.26.443.554 0 .252-.192.411-.431.411a.836.836 0 0 1-.359-.077l-.211.593c.171.124.432.189.644.189.707 0 1.093-.508 1.093-1.181-.002-1.03-1.145-1.064-1.145-1.689zm1.53 2.811h1.081l.132-3.281h.013v.085l.648 3.195h.579l.59-3.281h.012l.219 3.281h1.037s-.124-.174-.159-.464c-.034-.274-.383-3.879-.427-4.332l-1.221.078-.353 2.853h-.014l-.431-2.795-1.203.101c-.053.642-.328 3.879-.351 4.115a1.01 1.01 0 0 1-.152.445zm7.937 0h1.015v-2.229l-.007-.199-.042-.49.013-.012 1.111 2.931h.852V32.57c0-.218.076-.402.135-.508l-1.016-.007-.021.001v2.298c0 .25.021.502.073.735l-.01.011-1.079-3.038-.912.011v4.504c.001.307-.112.451-.112.451zm6.506-2.411c0 1.243.735 2.46 2.063 2.46.33 0 .496-.052.641-.137l-.212-.829a1.186 1.186 0 0 1-.356.068c-.801 0-1.153-.864-1.153-1.567 0-.728.353-1.475 1.161-1.475l.349.05.229-.777a1.755 1.755 0 0 0-.514-.154l-.208-.012c-1.242.013-2 1.208-2 2.373zm8.143-.681l.229-.704h-1.805v3.796h.755v-1.577h.631v-.704h-.631v-.812h.821zm1.885 2.465c-.642.021-.994-.622-1.016-1.256-.021-.68.345-1.244.925-1.244l.279.02.159-.571a1.03 1.03 0 0 0-.511-.096c-.998.03-1.577.998-1.551 1.917.03.975.647 1.913 1.705 1.878.266-.008.407-.058.501-.14l-.197-.569a.692.692 0 0 1-.294.061zm-18.445-4.323c-.803 0-1.603.68-1.603 2.496 0 1.816.799 2.496 1.603 2.496.804 0 1.601-.679 1.601-2.496 0-1.816-.796-2.496-1.601-2.496zm0 4.107c-.598 0-.642-1.225-.642-1.612 0-.429.044-1.61.642-1.61s.641 1.18.641 1.61c.002.386-.043 1.612-.641 1.612zm-9.341-2.89h-.78l-.865 3.732h.732l.131-.742h.75l.139.742h.855s-.099-.108-.141-.302c-.04-.193-.821-3.43-.821-3.43zm-.66 2.407l.159-.996.079-.451h.01l.085.451.187.996h-.52zm16.219 1.326l.165-.939h.909l.171.939h1.019s-.147-.181-.213-.449c-.058-.249-.859-3.91-.98-4.474l-.965-.024-1.056 4.946h.95zm.502-2.996l.097-.614h.013l.1.614.23 1.296h-.632l.192-1.296zm6.07-1.61c-.811 0-1.616.637-1.616 2.336 0 1.705.806 2.341 1.616 2.341s1.614-.636 1.614-2.341c0-1.698-.804-2.336-1.614-2.336zm0 3.849c-.604 0-.646-1.148-.646-1.512 0-.4.042-1.507.646-1.507.603 0 .645 1.106.645 1.507-.001.363-.043 1.512-.645 1.512z"/></svg>