<svg xmlns="http://www.w3.org/2000/svg" width="80" height="80" viewBox="0 0 80 80"><path fill="#FFFDFF" d="M69.85 33.57v-4.55-.12-4.78c0-.11-.02-.14-.14-.14H13.39c-.12 0-.14.04-.14.15v32.98c0 .17 0 .17.18.17h56.33c.08.01.11-.02.11-.1V50.3v-.08-5.88-.09-5.34-.08-5.18c-.02-.03-.02-.05-.02-.08"/><path fill="#E20517" d="M69.85 38.91v5.34H13.25v-.14-19.98c0-.11.02-.15.14-.15H33.06v4.94c0 .1.04.11.12.11h2.63v4.54h-2.63c-.09 0-.12.03-.12.12v5.11c0 .09.02.12.12.12h2.63v2.57c0 .1.03.13.13.13h7.53c.07.01.09-.02.09-.09v-.47-2.14h1.63c0 .01 0 .03-.01.04-.23.85-.46 1.7-.69 2.54-.03.09-.01.11.08.11h2.6c.08 0 .11-.03.13-.1.23-.83.45-1.66.68-2.49.02-.08.06-.11.14-.11h4.81c.09 0 .13.03.15.12.23.83.46 1.65.68 2.48.02.08.06.11.14.11h2.57c.13 0 .15.03.1-.14-.01-.05-.03-.09-.04-.14-.22-.81-.43-1.61-.65-2.42h1.34c.03.4.11.79.3 1.15.55 1.02 1.41 1.54 2.56 1.56 1.32.01 2.63 0 3.95 0 .13 0 .25 0 .38-.02 1.06-.12 1.83-.66 2.31-1.62.17-.34.24-.71.27-1.08H69.85m-46.56-12.7c-.39-.01-.86.04-1.33.13-1.83.35-3.37 1.22-4.56 2.65-1.56 1.86-2.13 4.01-1.71 6.4.3 1.71 1.11 3.15 2.39 4.31 1.68 1.53 3.67 2.2 5.94 2.04 1.09-.08 2.13-.36 3.08-.9 2.5-1.41 3.89-3.54 4.12-6.41a7.34 7.34 0 0 0-.32-2.71c-1.01-3.27-4.06-5.52-7.61-5.51M69.85 50.29v6.88c0 .09-.03.12-.11.1H13.42c-.18 0-.18 0-.18-.17v-6.76-.05H69.7c.05.01.1 0 .15 0m-16.02 3.92c-.01-.23.02-.5-.02-.77-.03-.24-.16-.41-.4-.45-.44-.09-.86-.08-1.2.27-.04.04-.09.05-.12-.01-.11-.21-.31-.28-.52-.3-.32-.03-.62-.01-.89.2-.04.03-.07.09-.13.05-.06-.03-.03-.09-.03-.13 0-.06-.02-.12-.09-.11-.33.05-.67.05-1 .04-.03 0-.06-.01-.07.04 0 .04.02.05.06.05.23.04.29.11.29.34v1.45c0 .2-.06.26-.26.29-.04.01-.09-.02-.09.05s.06.04.1.04c.37-.01.73-.03 1.1 0h.17c.03 0 .05 0 .05-.04 0-.03-.01-.04-.04-.05-.2-.06-.22-.09-.22-.3v-1.24c0-.25.17-.45.41-.5.29-.06.42.04.42.33v1.44c0 .17-.05.23-.19.27-.03.01-.08-.01-.08.05 0 .07.06.04.09.04.4-.02.8-.02 1.2 0h.04c.03 0 .05-.01.05-.04s-.01-.04-.05-.05c-.25-.06-.28-.09-.28-.34v-1.17c0-.25.16-.47.4-.52.3-.06.46.02.46.26.01.52.01 1.04 0 1.55 0 .13-.06.19-.18.22-.04.01-.08 0-.07.06.01.06.05.04.08.04.42-.02.84-.02 1.26 0 .03 0 .08.02.08-.04s-.05-.05-.08-.05c-.21-.03-.27-.1-.28-.31.03-.2.03-.41.03-.66m-13.21.75v.19c0 .17 0 .18.18.16.29-.04.58-.05.88-.03.03 0 .09.04.1-.03.01-.07-.05-.05-.09-.06-.17-.03-.23-.09-.26-.26-.01-.06-.01-.12-.01-.18v-2.69-.12c0-.07-.04-.1-.1-.08-.32.05-.65.04-.98.04-.03 0-.07-.02-.08.04 0 .05.03.05.07.05.19.03.26.09.28.29.02.21.01.43.01.64 0 .15-.02.16-.16.11-.44-.14-.86-.11-1.25.15-.37.25-.46.63-.45 1.05.03.8.55 1.23 1.33 1.12.23-.05.4-.17.53-.39m-14.1-.22h-.02v-.46c0-.04.03-.09-.05-.1-.07-.01-.08.03-.09.09-.04.22-.06.45-.23.62-.48.49-1.48.55-1.82-.31a2.28 2.28 0 0 1 .01-1.74c.11-.27.3-.47.58-.57.52-.17 1.37.05 1.45.82 0 .02.01.04.01.05 0 .06.02.09.09.08.08 0 .05-.06.05-.1 0-.29 0-.58.02-.88 0-.04.03-.09-.05-.1-.07 0-.08.03-.09.09-.04.19-.1.22-.27.12-.29-.17-.59-.26-.93-.26-.49-.01-.95.09-1.36.37-.89.6-.87 1.98-.04 2.51.68.43 1.42.5 2.18.18.08-.03.15-.08.22-.11.11-.05.16-.02.2.09.01.03.02.06.02.09 0 .06.04.06.08.06.06 0 .05-.04.05-.08-.01-.15-.01-.3-.01-.46m19.31.54h.78c.03 0 .07.02.07-.03 0-.03 0-.05-.04-.06-.17-.04-.25-.17-.32-.31-.4-.83-.81-1.65-1.21-2.48-.09-.19-.18-.27-.39-.25-.09.01-.14.04-.18.12-.19.4-.39.81-.59 1.21-.21.42-.42.85-.62 1.27-.1.19-.21.38-.43.44-.04.01-.04.03-.04.06 0 .04.04.03.06.03.16 0 .32-.01.47-.01.16 0 .33.01.5.01.03 0 .08.03.09-.04 0-.06-.04-.05-.08-.05-.04-.01-.08-.01-.12-.02-.26-.05-.33-.16-.27-.41.05-.22.16-.41.25-.61.03-.06.08-.05.13-.05h1.01c.08 0 .11.03.14.1.09.21.19.41.28.61.13.29.09.36-.23.38-.03 0-.08-.02-.08.04 0 .07.06.04.09.04.24.01.49.01.73.01m9.99-2.33c-.15 0-.31.01-.46.05-.45.1-.77.34-.87.81-.03.16-.04.33-.03.49.04.52.32.86.82.99.36.09.71.09 1.07 0 .39-.1.67-.32.78-.73.04-.15.05-.31.05-.47-.02-.6-.3-.95-.87-1.09-.16-.04-.32-.06-.49-.05m-27.46 2.4c.19 0 .34-.01.48-.04.42-.09.74-.3.86-.74.05-.17.06-.35.05-.52-.03-.57-.3-.9-.85-1.04-.36-.09-.71-.08-1.07.01-.41.12-.69.37-.77.8-.03.15-.04.31-.02.46.04.55.31.87.84 1.01.17.04.34.05.48.06m5.37-1.43h.66c.06 0 .12-.01.11-.09-.02-.31-.12-.65-.51-.8-.21-.08-.43-.1-.65-.08-.73.04-1.17.42-1.23 1.1-.05.6.21 1.09.83 1.24.1.03.21.04.31.05.52.05.99-.19 1.2-.59.01-.03.06-.06.02-.09-.04-.03-.08-.02-.11.03a.79.79 0 0 1-.27.21c-.47.23-.97.03-1.1-.44-.04-.14-.04-.28-.04-.42 0-.09.04-.12.12-.12h.66m1.23.96h-.01v.36c0 .03-.02.07.04.08.04 0 .07.01.09-.04.04-.12.12-.12.22-.08.18.07.35.14.55.15.33.02.65-.02.93-.2.33-.21.37-.57.1-.85a.962.962 0 0 0-.22-.18c-.16-.12-.34-.22-.51-.32-.12-.07-.25-.14-.35-.25-.17-.18-.11-.42.12-.49.26-.08.55.03.71.25.07.11.12.22.15.35.01.06.04.07.09.07.06 0 .04-.05.04-.08 0-.2 0-.4.02-.61 0-.03.03-.08-.03-.09-.05-.01-.08 0-.1.06-.03.1-.1.12-.2.08-.15-.08-.32-.12-.48-.13-.3-.03-.6 0-.87.15-.31.18-.37.54-.13.81.07.08.14.14.23.2.2.13.39.26.59.39.09.06.17.13.23.21.14.22.04.46-.21.51a.644.644 0 0 1-.7-.31c-.08-.13-.12-.28-.15-.43-.01-.05-.03-.06-.07-.06-.06 0-.06.03-.06.07-.02.13-.02.25-.02.38m13.62-1.78c-.06.05-.12.09-.16.14-.1.13-.09.3.02.39.16.13.5.12.65-.03a.32.32 0 0 0 .09-.31c-.04-.2-.2-.33-.44-.34a.858.858 0 0 0-.68.24c-.03.03-.05.06-.1.03-.04-.02-.04-.05-.04-.09v-.06c0-.09-.04-.12-.13-.11-.14.02-.28.03-.41.04-.18.01-.37 0-.55 0-.03 0-.06-.01-.07.04 0 .03.01.04.04.05.28.08.31.12.31.41v1.34c0 .26-.04.3-.3.34-.03.01-.06 0-.06.05s.03.05.06.04h.08c.38-.01.76-.03 1.15 0 .1 0 .2.01.29 0 .04 0 .1.04.1-.04 0-.07-.06-.04-.09-.05-.07-.01-.14-.02-.21-.04-.15-.04-.21-.13-.22-.28 0-.42-.01-.83 0-1.25.04-.28.35-.54.67-.51m10.74-.01c-.05.05-.09.08-.13.12-.17.19-.1.42.14.49.07.02.15.02.22.02.22-.01.37-.14.38-.32.02-.21-.1-.38-.32-.42-.3-.07-.56.01-.79.21-.03.03-.05.07-.11.04-.04-.02-.04-.07-.04-.11 0-.15 0-.15-.16-.13h-.06c-.29.03-.58.03-.87.02-.03 0-.07-.01-.07.04 0 .04.03.04.06.05.22.03.29.11.29.35v1.45c0 .2-.07.27-.27.29-.03 0-.09-.02-.09.05s.06.04.09.04c.48-.02.97-.02 1.45 0 .04 0 .12.04.13-.03.01-.1-.08-.05-.13-.06-.29-.04-.39-.12-.39-.36 0-.39-.01-.77 0-1.16.04-.33.32-.59.67-.58m-28.09.96v-.79c0-.17 0-.17.17-.17h.41c.04 0 .08.01.08-.05 0-.06-.05-.04-.08-.04h-.46c-.09 0-.12-.04-.12-.12v-.48c0-.08-.04-.11-.12-.08-.19.06-.39.09-.58.1-.07 0-.1.03-.1.1v.37c0 .08-.03.12-.11.11h-.27c-.03 0-.08-.02-.09.04 0 .06.05.04.08.05h.23c.16 0 .16 0 .16.16v1.46c0 .35.16.54.49.6.1.02.21.03.31.02.29-.02.53-.13.67-.39.01-.02.05-.06-.01-.08-.04-.02-.06-.02-.08.02-.03.06-.07.11-.12.14-.11.08-.24.1-.36.05s-.11-.17-.11-.27c0-.24.01-.49.01-.75m11.28-1.94c-.08 0-.17.01-.26.06-.11.06-.18.16-.18.29a.3.3 0 0 0 .21.28c.14.06.28.06.43.01.04-.01.09-.08.13-.04.05.04.01.11 0 .17-.01.06-.05.11-.09.16-.07.08-.16.14-.26.19-.02.01-.07.01-.05.06.02.03.04.05.08.03.24-.1.43-.25.51-.51.1-.39-.12-.7-.52-.7m-13.15.48c.03.01.06 0 .07-.03.01-.04-.03-.04-.06-.05-.36-.19-.66-.44-.89-.77-.06-.08-.11-.08-.17.01-.23.32-.52.58-.87.76-.03.01-.08.01-.06.06.02.05.06.03.1.02.25-.07.5-.15.72-.27.07-.04.12-.04.19-.01.31.13.64.21.97.28"/><path fill="#010101" d="M69.85 50.29H13.24v-.08-5.88-.09H69.84v5.97c.01.03.01.06.01.08m-7.95-3.75h.02c.02.09.04.17.05.26l.39 2.1c.01.07.03.11.12.1.15-.01.29-.01.44 0 .08 0 .12-.02.13-.1.11-.62.23-1.24.34-1.85.03-.17.07-.34.1-.51h.02v2.35c0 .07 0 .12.1.11.22-.01.44 0 .66 0 .06 0 .08-.02.08-.08v-3.25c0-.06-.01-.09-.08-.08h-1.14c-.06 0-.08.02-.09.07-.07.39-.13.77-.2 1.16-.05.25-.09.51-.14.76-.02-.02-.02-.03-.02-.04l-.33-1.86c-.01-.06-.02-.1-.1-.1h-1.11c-.08 0-.09.03-.09.1v3.23c0 .07.02.1.09.1.21 0 .43-.01.64 0 .09 0 .11-.03.11-.11v-2.23c.01-.05.01-.09.01-.13m-41.86 1.1h-.02c0-.01-.01-.03-.01-.04-.18-.64-.36-1.28-.53-1.92-.02-.07-.05-.09-.12-.09h-.82c-.07 0-.09.01-.09.08v3.24c0 .07.02.1.09.1.21-.01.43-.01.64 0 .09 0 .11-.03.11-.11v-1.84-.11c.03.04.04.07.05.1.18.63.36 1.25.53 1.88.02.07.04.09.11.09h.81c.07 0 .09-.02.09-.09v-3.24c0-.08-.02-.09-.1-.09h-.6c-.15 0-.15 0-.15.15.01.62.01 1.25.01 1.89m33.9 0c-.01-.05-.03-.08-.04-.12l-.51-1.86c-.02-.06-.04-.09-.1-.08h-.84c-.06 0-.08.02-.08.08v3.25c0 .07.02.09.09.09.21 0 .43-.01.64 0 .09 0 .11-.02.11-.11v-1.87c0-.03-.01-.07.02-.11a133.39 133.39 0 0 1 .56 1.99c.02.05.02.09.1.09h.83c.07 0 .08-.02.08-.08v-3.25c0-.07-.02-.09-.09-.08-.22 0-.44.01-.65 0-.09 0-.1.03-.1.11v1.82c-.01.04 0 .08-.02.13m-22.09-.72h.01l.03.1c.18.63.36 1.26.54 1.9.02.06.04.09.11.09h.81c.07 0 .09-.01.09-.09v-3.25c0-.08-.03-.08-.09-.08-.21 0-.42.01-.63 0-.1 0-.13.02-.12.12V47.63c-.03-.03-.04-.07-.05-.1l-.51-1.86c-.02-.06-.04-.08-.1-.08h-.83c-.08 0-.09.03-.09.09V48.9c0 .09.02.11.11.11.22-.01.43 0 .65 0 .06 0 .08-.02.08-.08v-.45c-.01-.52-.01-1.04-.01-1.56m5.96.37v1.61c0 .05-.02.1.07.1.43 0 .86.01 1.29-.01.55-.02.85-.27.96-.81.09-.45.07-.91.05-1.37-.01-.23-.03-.46-.12-.67-.12-.28-.31-.46-.61-.53-.12-.03-.24-.03-.37-.03h-1.17c-.09 0-.11.03-.11.11.01.54.01 1.07.01 1.6m7.11-.01v1.02c0 .39.27.68.67.69.33.01.67.01 1 0 .38-.01.65-.29.66-.67v-1.11c0-.05 0-.09-.08-.09h-1.01c-.05 0-.07.02-.07.07v.33c0 .21 0 .21.2.21.06 0 .08.02.08.08 0 .1-.01.2 0 .3.01.09-.03.11-.11.1-.09-.01-.17 0-.26 0-.21 0-.21 0-.21-.22v-1.54c0-.08.02-.11.1-.1.07.01.14 0 .21 0 .08 0 .19-.04.25.02.05.05.01.15.02.23 0 .04.01.07.06.07h.75c.03 0 .05-.01.06-.05.02-.37-.08-.69-.38-.93a.463.463 0 0 0-.32-.11h-.92c-.42 0-.7.29-.7.71v.99m10.41.01v1.02c.01.39.28.68.67.69.33.01.66.01.99 0 .37-.01.65-.29.66-.65.01-.39 0-.77 0-1.16 0-.05-.01-.08-.07-.07h-1.02c-.07 0-.07.03-.07.08v.32c0 .21 0 .21.21.21.05 0 .08.01.08.07v.35c0 .06-.02.07-.07.07h-.44c-.06 0-.07-.02-.07-.07v-.38-1.3c0-.08.02-.11.1-.1.08.01.15 0 .23 0 .08 0 .18-.03.24.02.05.05.01.15.02.23v.01c-.01.04.01.06.06.06h.75c.04 0 .06 0 .07-.05.02-.36-.09-.67-.37-.91a.475.475 0 0 0-.34-.12h-.91c-.43 0-.7.28-.71.7-.01.31-.01.64-.01.98m-6.65-.39v-1.2c0-.1-.03-.12-.12-.11-.22.01-.45.01-.67 0-.09 0-.11.02-.11.11v2.11c0 .16.01.32.04.47.08.44.32.67.74.75.27.05.54.04.82-.01.32-.06.53-.25.64-.55.07-.18.09-.36.09-.55v-2.25c0-.07-.03-.08-.09-.08h-.71c-.09 0-.1.02-.1.1v2.34c0 .08 0 .16-.02.23-.03.13-.12.2-.24.2-.13 0-.22-.07-.25-.21-.02-.07-.02-.15-.02-.22V46.9M25.12 49c-.28-1.13-.55-2.24-.82-3.35-.02-.06-.05-.07-.1-.07-.3 0-.61.01-.91 0-.11 0-.14.03-.17.13-.18.77-.37 1.54-.55 2.31-.08.32-.15.64-.23.97h.88c.06 0 .07-.03.07-.07.02-.15.04-.3.07-.45.01-.06.03-.09.1-.09.18.01.37 0 .55 0 .06 0 .09.01.09.08.02.15.05.3.06.44.01.05.02.08.08.08.29.02.58.02.88.02m4.96 0h.38c.08 0 .1-.01.08-.09-.27-1.08-.53-2.16-.8-3.25-.02-.07-.04-.08-.1-.08h-.96c-.07 0-.1.02-.11.09l-.78 3.25c-.02.07 0 .08.06.08h.78c.07 0 .09-.03.1-.09.02-.14.05-.28.06-.42.01-.07.03-.1.1-.09.18.01.36.01.54 0 .08 0 .09.03.1.09.02.15.05.3.07.44 0 .06.02.07.07.07h.41m30.16 0h.39c.07 0 .09-.01.07-.09-.27-1.08-.54-2.17-.8-3.26-.02-.06-.04-.08-.1-.08h-.97c-.07 0-.09.02-.11.08l-.78 3.25c-.02.07 0 .09.07.09h.76c.07 0 .09-.02.1-.09.02-.15.05-.29.07-.44.01-.06.03-.07.08-.07h.56c.06 0 .08.02.09.08.02.15.05.3.07.46.01.06.03.07.09.07h.41m-19.36-1.71v1.61c0 .08.02.1.1.1h1.89c.08 0 .11-.02.1-.1 0-.18-.01-.35 0-.53 0-.1-.03-.11-.12-.11h-.99c-.07 0-.09-.01-.09-.09.01-.17.01-.34 0-.51 0-.08.02-.09.09-.09h.9c.06 0 .08-.02.08-.08 0-.18-.01-.35 0-.53 0-.08-.02-.09-.1-.09h-.89c-.07 0-.1-.02-.09-.09.01-.13.01-.27 0-.4 0-.08.03-.09.09-.09h.96c.08 0 .1-.02.1-.1-.01-.18-.01-.35 0-.53 0-.08-.02-.1-.1-.1h-1.84c-.08 0-.11.02-.11.1.02.56.02 1.1.02 1.63m-25.14 0v1.62c0 .06 0 .1.08.1h1.92c.06 0 .08-.02.08-.08v-.55c0-.08-.02-.1-.1-.1h-1c-.07 0-.09-.02-.09-.09.01-.17.01-.33 0-.49 0-.09.03-.1.11-.1h.88c.07 0 .09-.02.09-.09v-.53c0-.07-.02-.09-.09-.09h-.9c-.06 0-.08-.01-.08-.08 0-.14.01-.28 0-.42 0-.07.02-.09.09-.09h.94c.08 0 .11-.01.11-.1-.01-.18-.01-.35 0-.53 0-.08-.02-.1-.1-.1h-1.84c-.08 0-.1.02-.1.1v1.62m10.71.84h-.01c-.02-.11-.03-.23-.05-.34l-.3-2.13c-.01-.06-.03-.08-.09-.08h-.78c-.08 0-.08.03-.07.09l.69 3.25c.01.07.04.08.11.08h.98c.08 0 .1-.03.11-.1.1-.47.2-.93.3-1.39.14-.64.28-1.28.42-1.93h-.9c-.06 0-.06.04-.06.07l-.12.85c-.08.55-.16 1.09-.23 1.63m38.57-.85v1.62c0 .08.02.1.1.1h.68c.09 0 .12-.02.12-.11-.01-.36 0-.73 0-1.09 0-.09.02-.11.11-.1.15.01.31 0 .46-.02.46-.05.76-.31.85-.74.03-.14.04-.29.03-.44-.05-.59-.4-.92-1-.92h-1.24c-.09 0-.1.03-.1.11-.01.53-.01 1.06-.01 1.59m-29.5.39v-1.21c0-.09.01-.13.12-.13.16.01.32 0 .48 0 .06 0 .08-.01.08-.07v-.61c0-.06-.02-.07-.07-.07h-2.09c-.05 0-.07.01-.07.07v.62c0 .05.02.07.07.07h.47c.1 0 .13.02.13.12-.01.81 0 1.62-.01 2.43 0 .1.03.13.12.12.23-.01.46 0 .69 0 .08 0 .09-.02.09-.09-.01-.42-.01-.84-.01-1.25m16.15-.39v-1.61c0-.07-.01-.1-.09-.1h-.73c-.06 0-.08.02-.08.08v3.26c0 .06.02.08.08.08h.72c.08 0 .1-.02.1-.1v-1.61M35.81 29.03h-2.63c-.08 0-.12-.01-.12-.11v-4.94h36.65c.12 0 .14.03.14.14v4.9h-2.88c-.02-.18-.03-.36-.07-.53-.31-1.3-1.42-2.18-2.78-2.18-1.35-.01-2.71-.01-4.06 0-1.15.01-2 .54-2.55 1.55-.2.36-.27.76-.3 1.16h-4.03c-.01-.02-.02-.03-.02-.05l-.69-2.55c-.02-.07-.04-.1-.12-.1h-3.67c-.07 0-.1.02-.11.09l-.21.77-.51 1.85h-4.31v-2.56c0-.11-.03-.13-.13-.13h-7.47c-.11 0-.14.02-.14.14.01.84.01 1.69.01 2.55"/><path fill="#E20517" d="M66.97 29.03h2.88v4.55h-9.91v-.02-4.43c0-.08.03-.09.1-.09h4.12c.08 0 .11.02.11.11v1.4c0 .09.03.11.11.11h2.49c.1 0 .13-.03.13-.13-.03-.51-.03-1.01-.03-1.5"/><path fill="#010101" d="M66.97 33.57h2.88v5.34h-2.88v-.06-5.28M23.29 26.21c3.55 0 6.6 2.24 7.6 5.52.27.88.39 1.79.32 2.71-.23 2.87-1.62 5.01-4.12 6.41-.95.53-1.99.82-3.08.9-2.27.16-4.25-.52-5.94-2.04-1.28-1.16-2.09-2.61-2.39-4.31-.42-2.39.15-4.54 1.71-6.4 1.2-1.43 2.73-2.3 4.56-2.65.48-.11.96-.15 1.34-.14m.86 4.95c0-.23.01-.47 0-.7-.04-.93-.35-1.75-.96-2.45-.61-.68-1.37-.96-2.27-.77-.96.21-1.7.75-2.21 1.58-.37.6-.55 1.26-.4 1.97.17.82.64 1.43 1.44 1.73.65.24 1.26.08 1.83-.26 1.11-.67 1.31-2.14.37-3.12-.29-.3-.64-.41-1.05-.31-.53.13-.87.57-.82 1.06.03.34.17.65.36.93.04.06.09.1.16.1.14 0 .24-.06.32-.18.07-.1.05-.2-.01-.3-.1-.16-.17-.33-.21-.52-.03-.15-.02-.29.11-.4.22-.19.49-.19.69.01.41.41.57.9.39 1.46-.18.55-.61.83-1.14.98-.51.15-.96.03-1.34-.35-.5-.51-.67-1.12-.48-1.81.26-.94.89-1.55 1.78-1.89.82-.31 1.58-.1 2.13.6.66.85.85 1.8.59 2.84-.18.72-.57 1.33-1 1.92-.3.4-.67.73-1.09 1-.41.26-.85.46-1.27.7-.82.45-1.43 1.09-1.79 1.96-.38.91-.3 1.78.37 2.51.86.94 1.95 1.31 3.21 1.09.69-.12 1.25-.47 1.63-1.07.32-.5.47-1.04.33-1.64-.15-.65-.57-1.1-1.14-1.4-1.26-.68-2.67.1-2.93 1.38-.08.42.12.83.51 1.08.37.23.78.22 1.14-.04.25-.18.43-.42.58-.68.08-.14.05-.25-.08-.34-.18-.12-.35-.09-.46.09-.1.16-.22.32-.37.44-.09.07-.19.13-.32.1-.29-.07-.46-.31-.4-.61.11-.54.68-1.04 1.23-1.07.62-.04 1.3.36 1.57.92.11.22.15.46.11.7-.1.63-.43 1.11-1.01 1.4-.49.24-1.01.28-1.54.18-.59-.11-1.11-.37-1.53-.79-.74-.73-.66-1.68-.12-2.47.25-.37.62-.62 1.01-.83.61-.32 1.26-.5 1.94-.6 1-.16 1.96-.02 2.85.45.38.2.75.43 1.13.65.86.48 1.77.66 2.74.46.95-.19 1.59-.75 1.84-1.69.29-1.09.1-2.11-.6-3-.59-.75-1.36-1.13-2.33-1-.73.1-1.28.45-1.6 1.14-.14.31-.2.63-.2.97-.02 1.44 1.35 2.35 2.67 1.92.45-.15.71-.55.71-1.04-.01-.46-.26-.8-.71-.96-.27-.09-.56-.11-.84-.1-.05 0-.1.02-.13.06-.09.11-.09.23-.04.36.05.12.13.17.26.17.18 0 .37.02.54.07.26.08.37.26.32.53-.04.19-.17.31-.35.36-.5.14-1.13.03-1.51-.45-.29-.36-.34-.77-.29-1.21.08-.61.46-1.05 1.06-1.19.76-.18 1.4.05 1.91.63.55.64.75 1.39.65 2.22-.1.78-.51 1.33-1.28 1.58-.58.19-1.15.16-1.71-.1-.76-.35-1.35-.92-1.89-1.54-.46-.52-.76-1.13-.93-1.8-.13-.54-.14-1.08-.13-1.62"/><path fill="#FFFDFF" d="M66.97 33.57v5.34c-.03.38-.1.74-.27 1.08-.48.96-1.25 1.5-2.31 1.62-.13.01-.25.02-.38.02-1.32 0-2.63.01-3.95 0-1.15-.01-2.01-.54-2.56-1.56-.19-.36-.27-.75-.3-1.15v-.03-5.22c0-.03 0-.06-.01-.09 0-.05.01-.09.01-.13v-4.21-.2c.03-.41.11-.8.3-1.16.55-1.01 1.4-1.54 2.55-1.55 1.35-.02 2.71-.01 4.06 0 1.36.01 2.46.88 2.78 2.18.04.17.05.35.07.53v1.48c0 .1-.03.13-.13.13h-2.49c-.09 0-.11-.02-.11-.11.01-.47 0-.93 0-1.4 0-.08-.02-.11-.11-.11H60c-.07 0-.1.01-.1.09v9.7c0 .1.05.09.11.09h4.1c.09 0 .12-.02.12-.11-.01-.8 0-1.61 0-2.41 0-.09-.02-.12-.12-.12-.57.01-1.15 0-1.72 0-.08 0-.1-.02-.1-.1v-2.6h4.68M47.86 29.03c.17-.61.34-1.23.51-1.85l.21-.77c.02-.06.04-.09.11-.09h3.67c.08 0 .1.03.12.1l.69 2.55c.01.02.01.03.02.05 0 .02 0 .04.01.05.29 1.08.59 2.16.88 3.24.11.42.23.83.35 1.25 0 .03.01.05.01.08.25.93.5 1.85.76 2.78.23.83.45 1.66.68 2.49.22.81.44 1.61.65 2.42.01.05.03.09.04.14.05.17.03.14-.1.14H53.9c-.09 0-.12-.03-.14-.11-.23-.83-.46-1.65-.68-2.48-.02-.08-.05-.12-.15-.12h-4.81c-.09 0-.12.03-.14.11-.22.83-.45 1.66-.68 2.49-.02.08-.05.11-.13.1h-2.6c-.1 0-.11-.02-.08-.11.23-.85.46-1.7.69-2.54 0-.01 0-.03.01-.04.01-.02.02-.04.02-.06.28-1.02.56-2.05.83-3.07l.6-2.21c0-.01.01-.02.01-.03.28-1.02.56-2.04.83-3.06.12-.48.25-.97.38-1.45m1.59 4.54c-.01.02-.02.03-.02.05l-.48 1.75c-.07.27-.15.53-.22.8h3.57c-.12-.46-.25-.91-.37-1.36-.12-.42-.23-.83-.35-1.25 0-.02 0-.04-.01-.07l-.9-3.32c-.05-.18-.1-.35-.15-.56-.24.86-.46 1.7-.69 2.53-.13.48-.25.96-.38 1.43M35.81 29.03c0-.85.01-1.71 0-2.56 0-.12.03-.14.14-.14h7.47c.11 0 .14.02.13.13v2.56h-4.91c-.1 0-.12.03-.12.12v3.35c0 .11.03.13.14.13h4.77c.09 0 .12.02.12.12v.83c0 .54-.01 1.09 0 1.63 0 .11-.03.13-.13.13h-4.78c-.09 0-.11.02-.11.11v3.36c0 .1.03.12.12.12h4.89V41.53c0 .07-.02.1-.09.09h-7.53c-.1 0-.13-.02-.13-.13v-2.57-.1-5.14-.1-.3-4.12c.02-.05.02-.09.02-.13"/><path fill="#010101" d="M43.54 38.91h-4.89c-.09 0-.12-.02-.12-.12v-3.36c0-.09.03-.11.11-.11h4.78c.1 0 .13-.02.13-.13v-1.63h3.07l-.6 2.21c-.28 1.02-.56 2.04-.83 3.07-.01.02-.02.04-.02.06-.54.01-1.09.01-1.63.01M35.81 33.57V38.91h-2.63c-.1 0-.12-.03-.12-.12v-5.11c0-.09.02-.12.12-.12.87.01 1.75.01 2.63.01M55.87 38.91c-.23-.83-.46-1.66-.68-2.49-.25-.93-.5-1.85-.76-2.78-.01-.02-.01-.05-.01-.08h2.79c0 .03.01.06.01.09v5.25c-.46.01-.9.01-1.35.01"/><path fill="#FFFDFF" d="M53.83 54.21v.67c0 .21.07.28.28.31.03 0 .08-.01.08.05s-.05.04-.08.04c-.42-.02-.84-.02-1.26 0-.03 0-.07.02-.08-.04-.01-.06.04-.05.07-.06.13-.03.18-.08.18-.22 0-.52.01-1.03 0-1.55 0-.24-.16-.33-.46-.26-.24.05-.4.27-.4.52v1.17c0 .26.03.29.28.34.03.01.05.02.05.05 0 .04-.02.05-.05.04h-.04c-.4-.02-.8-.02-1.2 0-.03 0-.09.03-.09-.04 0-.06.05-.04.08-.05.13-.03.18-.1.19-.27v-.98-.46c0-.29-.13-.39-.42-.33-.24.05-.41.25-.41.5v1.24c0 .21.02.24.22.3.03.01.04.02.04.05 0 .04-.02.04-.05.04h-.17c-.37-.03-.74 0-1.1 0-.03 0-.09.03-.1-.04-.01-.07.05-.05.09-.05.2-.03.26-.09.26-.29v-1.45c0-.23-.07-.3-.29-.34-.04-.01-.06-.01-.06-.05 0-.05.04-.04.07-.04.33.01.67.01 1-.04.08-.01.09.04.09.11 0 .05-.02.1.03.13.06.03.09-.02.13-.05.26-.21.57-.24.89-.2.21.02.41.09.52.3.03.06.08.05.12.01.34-.36.76-.36 1.2-.27.24.05.37.21.4.45.01.26-.02.54-.01.76M40.62 54.96c-.13.22-.3.34-.52.37-.78.12-1.31-.32-1.33-1.12-.01-.42.08-.8.45-1.05.39-.26.81-.29 1.25-.15.14.04.16.04.16-.11 0-.21.01-.43-.01-.64-.02-.2-.09-.26-.28-.29-.04 0-.07 0-.07-.05 0-.06.05-.04.08-.04.33.01.65.02.98-.04.06-.01.1.02.1.08v2.81c0 .06 0 .12.01.18.03.17.09.23.26.26.03.01.09-.01.09.06-.01.07-.07.04-.1.03-.29-.02-.59-.01-.88.03-.17.02-.18.02-.18-.16-.01-.03-.01-.08-.01-.17m0-.95v-.7c0-.08-.03-.13-.1-.17-.29-.17-.64-.06-.79.26-.09.19-.12.4-.12.61-.01.3-.01.6.12.88.1.21.29.3.52.25.22-.05.37-.23.37-.46v-.67M26.52 54.74v.47c0 .04.02.08-.05.08-.04 0-.08 0-.08-.06 0-.03-.01-.06-.02-.09-.03-.11-.09-.14-.19-.09-.07.03-.15.08-.22.11-.76.32-1.49.25-2.18-.18-.83-.53-.84-1.91.04-2.51.41-.28.87-.38 1.36-.37.33 0 .64.1.93.26.17.1.23.07.27-.12.01-.05.02-.09.09-.09.08.01.05.06.05.1-.02.29-.02.58-.02.88 0 .04.03.09-.05.1-.07 0-.09-.02-.09-.08 0-.02-.01-.04-.01-.05-.08-.77-.94-1-1.45-.82-.28.1-.47.3-.58.57a2.28 2.28 0 0 0-.01 1.74c.35.86 1.35.8 1.82.31.17-.17.2-.4.23-.62.01-.06.02-.1.09-.09.08.01.05.07.05.1v.46c0-.01.01-.01.02-.01M45.83 55.28h-.74c-.03 0-.09.03-.09-.04 0-.06.05-.04.08-.04.32-.02.36-.09.23-.38-.09-.2-.19-.41-.28-.61-.03-.07-.07-.1-.14-.1h-1.01c-.05 0-.1 0-.13.05-.09.2-.21.39-.25.61-.06.25.02.36.27.41.04.01.08.01.12.02.03 0 .08-.01.08.05-.01.06-.06.04-.09.04-.17 0-.33-.01-.5-.01-.16 0-.31 0-.47.01-.02 0-.06.01-.06-.03 0-.03 0-.05.04-.06.23-.07.34-.25.43-.44.21-.42.42-.85.62-1.27.2-.4.4-.81.59-1.21.04-.08.08-.11.18-.12.21-.02.3.06.39.25.39.83.8 1.66 1.21 2.48.07.14.16.27.32.31.04.01.05.03.04.06-.01.05-.05.03-.07.03-.25-.01-.51-.01-.77-.01zm-1.45-1.26h.42c.11 0 .14-.04.09-.14-.13-.3-.27-.59-.41-.89-.02-.03-.03-.07-.07-.07-.05 0-.07.04-.09.07-.14.3-.29.59-.43.89-.04.09-.02.13.08.13.14.01.27.01.41.01M55.82 52.95c.17 0 .33.01.49.05.56.13.84.49.87 1.09.01.16-.01.32-.05.47-.1.41-.39.63-.78.73-.35.09-.71.09-1.07 0-.51-.13-.79-.47-.82-.99-.01-.17 0-.33.03-.49.1-.47.42-.71.87-.81.16-.04.31-.06.46-.05m.52 1.18c0-.09 0-.21-.02-.33-.02-.21-.06-.41-.18-.58-.17-.25-.47-.25-.65 0-.07.09-.11.2-.14.31-.08.37-.08.73-.03 1.1.03.18.07.34.19.49.16.2.44.2.6 0 .07-.08.11-.18.14-.28.08-.23.09-.46.09-.71M28.36 55.35c-.14 0-.31-.02-.48-.06-.53-.13-.81-.46-.85-1.01-.01-.15 0-.31.03-.46.08-.43.36-.69.77-.8.35-.1.71-.1 1.07-.01.55.13.82.47.85 1.04.01.18 0 .35-.05.52-.12.44-.44.65-.86.74-.14.03-.29.04-.48.04m.56-1.22c-.01-.11-.01-.23-.02-.36-.02-.18-.05-.36-.15-.52-.18-.3-.51-.3-.7-.01-.05.09-.09.18-.11.28-.08.35-.08.71-.03 1.07.02.18.07.36.19.51.17.21.44.21.61 0 .06-.08.11-.17.14-.27.06-.22.06-.45.07-.7M33.73 53.92h-.66c-.08 0-.12.03-.12.12 0 .14 0 .28.04.42.13.47.63.66 1.1.44.11-.05.2-.12.27-.21.03-.04.07-.06.11-.03.04.03 0 .07-.02.09-.21.41-.68.64-1.2.59-.1-.01-.21-.02-.31-.05-.63-.15-.89-.64-.83-1.24.06-.68.5-1.07 1.23-1.1.22-.01.44 0 .65.08.39.15.49.49.51.8.01.08-.05.09-.11.09h-.66m-.36-.08h.32c.08 0 .12-.03.12-.11-.01-.15-.03-.3-.08-.45-.05-.13-.12-.23-.27-.24-.14-.01-.25.05-.34.16-.12.16-.16.35-.17.55-.01.07.03.09.1.09h.32M34.96 54.88v-.37c0-.04 0-.07.06-.07.04 0 .07.01.07.06.03.15.07.3.15.43.15.25.42.37.7.31.26-.05.36-.29.21-.51a.659.659 0 0 0-.23-.21c-.2-.13-.39-.26-.59-.39-.08-.06-.16-.12-.23-.2-.24-.28-.18-.63.13-.81.27-.16.57-.18.87-.15.17.02.33.06.48.13.09.04.17.02.2-.08.02-.06.05-.07.1-.06.06.01.04.06.03.09-.02.2-.01.4-.02.61 0 .03.02.08-.04.08-.05 0-.08-.01-.09-.07a.779.779 0 0 0-.15-.35.673.673 0 0 0-.71-.25c-.23.07-.29.31-.12.49.1.1.22.18.35.25.18.1.35.2.52.32.08.05.15.11.22.18.26.28.23.64-.1.85-.28.18-.6.22-.93.2-.19-.01-.37-.09-.55-.15-.1-.04-.18-.04-.22.08-.02.05-.05.04-.09.04-.05 0-.04-.05-.04-.08v-.36l.02-.01M48.58 53.1c-.32-.03-.63.23-.64.53-.01.42-.01.83 0 1.25 0 .15.07.23.22.28.07.02.14.02.21.04.03.01.09-.03.09.05s-.07.04-.1.04h-.29c-.38-.02-.76-.01-1.15 0h-.08c-.03 0-.06 0-.06-.04s.03-.04.06-.05c.26-.04.3-.09.3-.34v-1.34c0-.29-.03-.33-.31-.41-.03-.01-.04-.02-.04-.05 0-.05.04-.04.07-.04.18 0 .37.01.55 0 .14 0 .28-.02.41-.04.09-.01.13.02.13.11v.06c0 .03 0 .07.04.09.04.02.07-.01.1-.03.19-.18.42-.26.68-.24.24.01.4.14.44.34.02.12-.01.22-.09.31-.15.15-.49.16-.65.03-.11-.09-.13-.26-.02-.39.01-.08.06-.11.13-.16M59.32 53.09a.608.608 0 0 0-.64.58c-.01.39 0 .77 0 1.16 0 .24.1.33.39.36.04.01.14-.04.13.06-.01.07-.09.04-.13.03-.48-.02-.97-.02-1.45 0-.03 0-.09.03-.09-.04s.05-.05.09-.05c.19-.03.27-.1.27-.29v-1.45c0-.23-.08-.31-.29-.35-.03 0-.06 0-.06-.05 0-.06.04-.04.07-.04.29.01.58.01.87-.02h.06c.16-.02.16-.02.16.13 0 .04 0 .09.04.11.05.02.08-.02.11-.04.23-.21.49-.28.79-.21.22.05.34.21.32.42-.01.18-.17.31-.38.32-.07 0-.15 0-.22-.02-.24-.07-.31-.3-.14-.49 0-.04.05-.07.1-.12M31.23 54.05v.76c0 .1-.01.22.11.27.13.05.25.03.36-.05.05-.04.09-.09.12-.14.02-.04.04-.04.08-.02.06.02.02.06.01.08-.15.27-.38.38-.67.39-.11.01-.21 0-.31-.02-.32-.06-.48-.25-.49-.6-.01-.49 0-.98 0-1.46 0-.16 0-.16-.16-.16h-.23c-.03 0-.08.02-.08-.05 0-.06.05-.04.09-.04h.27c.08 0 .12-.03.11-.11v-.37c0-.07.02-.1.1-.1.2-.01.4-.03.58-.1.08-.03.12 0 .12.08v.48c0 .08.03.12.12.12h.46c.03 0 .07-.02.08.04 0 .06-.04.05-.08.05h-.41c-.17 0-.17 0-.17.17-.01.26-.01.52-.01.78M42.51 52.11c.4 0 .62.31.51.69-.08.26-.27.42-.51.51-.04.02-.06 0-.08-.03-.02-.05.03-.05.05-.06.1-.05.19-.11.26-.19.04-.05.08-.1.09-.16.01-.06.05-.13 0-.17-.04-.03-.08.03-.13.04-.14.05-.29.04-.43-.01a.31.31 0 0 1-.21-.28c0-.13.07-.23.18-.29.1-.04.19-.06.27-.05M29.36 52.59c-.33-.07-.66-.15-.97-.28a.186.186 0 0 0-.19.01c-.23.12-.47.2-.72.27-.04.01-.08.02-.1-.02-.02-.05.04-.05.06-.06.35-.19.64-.44.87-.76.06-.09.12-.09.17-.01.23.33.53.59.89.77.02.01.07.01.06.05-.01.03-.04.03-.07.03M61.9 46.54v2.35c0 .09-.02.12-.11.11-.21-.01-.43 0-.64 0-.08 0-.09-.02-.09-.1v-3.23c0-.07.01-.1.09-.1h1.11c.08 0 .09.03.1.1l.33 1.86c0 .01 0 .03.02.04.05-.25.09-.51.14-.76.07-.39.14-.77.2-1.16.01-.05.03-.07.09-.07h1.14c.07 0 .08.03.08.08v3.25c0 .06-.02.08-.08.08-.22 0-.44-.01-.66 0-.1 0-.1-.04-.1-.11v-2.23-.12h-.02c-.03.17-.07.34-.1.51-.12.62-.23 1.24-.34 1.85-.01.08-.05.11-.13.1a3.23 3.23 0 0 0-.44 0c-.09.01-.11-.03-.12-.1l-.39-2.1c-.02-.09-.03-.17-.05-.26-.01.01-.02.01-.03.01M20.04 47.64v-1.91c0-.15 0-.15.15-.15h.6c.07 0 .1.01.1.09v3.24c0 .07-.01.09-.09.09h-.81c-.07 0-.09-.02-.11-.09-.17-.63-.35-1.25-.53-1.88-.01-.03-.02-.07-.05-.1V48.88c0 .09-.02.12-.11.11-.22.01-.43.01-.65.01-.08 0-.09-.03-.09-.1v-3.24c0-.07.02-.09.09-.08h.82c.07 0 .1.02.12.09.17.64.35 1.28.53 1.92 0 .01.01.03.01.04.01.01.01.01.02.01M53.94 47.64c.03-.05.02-.09.02-.13v-1.82c0-.08.02-.11.1-.11.22.01.43 0 .65 0 .07 0 .09.01.09.08v3.25c0 .06-.02.08-.08.08h-.83c-.07 0-.08-.04-.1-.09-.18-.63-.36-1.26-.53-1.89-.01-.03-.02-.06-.03-.1-.03.04-.02.07-.02.11v1.87c0 .09-.03.11-.11.11-.21-.01-.43 0-.64 0-.07 0-.09-.02-.09-.09v-3.25c0-.06.02-.08.08-.08h.84c.07 0 .08.03.1.09l.51 1.86c.01.03.02.07.04.11M31.85 46.92V48.93c0 .06-.02.08-.08.08-.22 0-.44-.01-.65 0-.09 0-.11-.02-.11-.11v-2.32-.9c0-.07.01-.1.09-.09h.83c.07 0 .09.02.1.08l.51 1.86c.01.03.02.07.05.1v-.11-1.81c0-.1.03-.12.12-.12.21.01.42 0 .63 0 .06 0 .09.01.09.08v3.25c0 .07-.02.09-.09.09h-.81c-.07 0-.09-.02-.11-.09l-.54-1.9c-.01-.04-.02-.07-.03-.1.01-.01.01 0 0 0M37.81 47.29v-1.6c0-.08.01-.12.11-.11.39.01.78 0 1.17 0 .12 0 .25 0 .37.03.3.07.49.25.61.53.09.21.11.44.12.67.02.46.04.92-.05 1.37-.11.55-.41.79-.96.81-.43.01-.86 0-1.29.01-.09 0-.07-.05-.07-.1-.01-.54-.01-1.07-.01-1.61m.9 0v.98c0 .03-.03.09.04.09.33 0 .45 0 .5-.38v-.04c.03-.43.03-.86 0-1.29-.02-.35-.12-.43-.46-.43-.07 0-.09.02-.09.09.01.33.01.65.01.98M44.92 47.28v-.99c0-.42.28-.71.7-.71h.92c.12 0 .23.04.32.11.29.24.4.56.38.93 0 .04-.02.05-.06.05h-.75c-.05 0-.06-.02-.06-.07 0-.08.04-.18-.02-.23-.06-.05-.17-.01-.25-.02-.07 0-.14.01-.21 0-.08-.01-.1.02-.1.1v1.54c0 .22 0 .22.21.22.09 0 .17-.01.26 0 .08.01.12-.01.11-.1-.01-.1-.01-.2 0-.3 0-.06-.02-.08-.08-.08-.21 0-.2-.01-.2-.21v-.33c0-.05.01-.07.07-.07h1.01c.08 0 .08.04.08.09v1.11c-.01.38-.27.66-.66.67-.33.01-.67.01-1 0-.39-.01-.66-.3-.67-.69v-.02-1M55.33 47.29v-1c0-.42.28-.7.71-.7h.91c.13 0 .25.04.34.12.28.24.38.55.36.91 0 .05-.03.05-.07.05h-.75c-.04 0-.06-.01-.06-.06v-.01c-.01-.08.03-.18-.02-.23-.05-.05-.16-.01-.24-.02h-.23c-.08-.01-.1.02-.1.1V48.13c0 .05.01.07.07.07h.44c.05 0 .07-.01.07-.07v-.35c0-.07-.03-.07-.08-.07-.21 0-.21 0-.21-.21v-.32c0-.05.01-.08.07-.08h1.02c.06 0 .07.03.07.07v1.16c-.01.36-.29.63-.66.65-.33.01-.66.01-.99 0-.39-.01-.66-.29-.67-.69v-.02c.02-.31.02-.65.02-.98M48.68 46.9v1.14c0 .08 0 .15.02.22.03.13.12.21.25.21s.21-.07.24-.2c.02-.08.02-.16.02-.23V45.7c0-.08.02-.11.1-.1.24.01.47 0 .71 0 .07 0 .09.01.09.08v2.25c0 .19-.03.37-.09.55-.11.3-.32.49-.64.55-.27.05-.54.05-.82.01-.42-.07-.66-.31-.74-.75-.03-.15-.04-.31-.04-.47v-2.11c0-.09.02-.11.11-.11.23.01.45.01.67 0 .09 0 .12.01.12.11v1.19M25.12 49h-.89c-.06 0-.07-.03-.08-.08-.02-.15-.05-.3-.06-.44-.01-.07-.04-.08-.09-.08-.18 0-.37.01-.55 0-.07 0-.09.02-.1.09-.02.15-.05.3-.07.45-.01.04-.01.06-.07.06h-.88c.08-.33.15-.65.23-.97.19-.77.37-1.54.55-2.31.03-.11.06-.13.17-.13.3.01.61 0 .91 0 .05 0 .09 0 .1.07.28 1.1.56 2.21.83 3.34m-1.39-2.7h-.02c-.07.44-.15.88-.23 1.32-.01.08-.01.12.09.11.1-.01.2 0 .3 0 .07 0 .1 0 .08-.09-.03-.14-.05-.28-.07-.42-.05-.3-.1-.61-.15-.92M30.08 49h-.4c-.05 0-.07-.01-.08-.07-.02-.15-.04-.3-.07-.44-.01-.06-.03-.1-.1-.09-.18.01-.36.01-.54 0-.07 0-.09.02-.1.09-.01.14-.04.28-.06.42-.01.07-.03.09-.1.09h-.78c-.07 0-.08-.02-.06-.08l.78-3.25c.02-.07.04-.09.11-.09h.96c.06 0 .09.01.1.08.26 1.08.53 2.17.8 3.25.02.08 0 .1-.08.09h-.38m-.92-2.71c-.01.02-.02.03-.02.05-.08.45-.15.89-.23 1.34-.01.06.02.05.06.05.11 0 .22-.01.34 0 .1.01.1-.03.08-.11-.08-.44-.15-.88-.23-1.33M60.24 49h-.39c-.06 0-.08-.01-.09-.07-.02-.15-.05-.3-.07-.46-.01-.06-.03-.08-.09-.08h-.56c-.06 0-.08.02-.08.07-.02.15-.05.29-.07.44-.01.06-.03.09-.1.09h-.76c-.07 0-.09-.02-.07-.09l.78-3.25c.01-.06.04-.08.11-.08h.97c.06 0 .08.01.1.08.26 1.09.53 2.17.8 3.26.02.08-.01.09-.07.09h-.41m-.91-2.7c-.01.03-.02.04-.03.06-.07.44-.15.88-.22 1.32-.01.06.01.06.06.06h.34c.08 0 .1-.02.08-.1-.08-.45-.15-.89-.23-1.34M40.88 47.29v-1.61c0-.08.02-.11.11-.1h1.84c.08 0 .1.02.1.1-.01.18-.01.35 0 .53 0 .08-.02.1-.1.1-.32-.01-.64 0-.96 0-.07 0-.1.01-.09.09.01.13.01.27 0 .4 0 .07.02.09.09.09h.89c.07 0 .1.01.1.09-.01.18 0 .35 0 .53 0 .06-.02.08-.08.08h-.9c-.07 0-.1.02-.09.09.01.17.01.34 0 .51 0 .07.02.09.09.09h.99c.08 0 .12.01.12.11-.01.18-.01.35 0 .53 0 .08-.02.1-.1.1H41c-.08 0-.1-.02-.1-.1-.02-.55-.02-1.09-.02-1.63M15.74 47.29v-1.61c0-.08.02-.1.1-.1h1.84c.08 0 .1.02.1.1-.01.18-.01.35 0 .53 0 .09-.03.1-.11.1h-.94c-.07 0-.1.02-.09.09.01.14 0 .28 0 .42 0 .07.02.08.08.08h.9c.07 0 .09.01.09.09-.01.18-.01.35 0 .53 0 .07-.01.09-.09.09h-.88c-.08 0-.11.01-.11.1.01.16.01.33 0 .49 0 .07.02.09.09.09h1c.08 0 .1.02.1.1v.55c0 .06-.02.08-.08.08h-1.92c-.08 0-.08-.04-.08-.1v-1.63M26.45 48.13c.08-.54.15-1.09.23-1.63l.12-.85c0-.04 0-.07.06-.07h.9c-.14.65-.28 1.29-.42 1.93l-.3 1.39c-.02.07-.04.1-.12.1h-.98c-.06 0-.09-.01-.11-.08l-.69-3.25c-.01-.06-.02-.09.07-.09h.78c.06 0 .08.02.09.08l.3 2.13c.02.11.03.23.05.34.01.01.01.01.02 0M65.02 47.28v-1.6c0-.08.01-.11.1-.11h1.24c.59 0 .95.33 1 .92.01.15 0 .29-.03.44-.09.43-.39.69-.85.74-.15.02-.31.02-.46.02-.08 0-.11.01-.11.1.01.36 0 .73 0 1.09 0 .1-.03.12-.12.11-.22.01-.45.01-.68.01-.08 0-.1-.02-.1-.1.01-.54.01-1.08.01-1.62m.9-.64v.35c0 .02-.01.05.03.06.12.04.35-.02.41-.12a.56.56 0 0 0 .02-.56c-.08-.16-.24-.15-.39-.16-.06 0-.07.02-.07.07v.36M35.52 47.67v1.24c0 .07-.02.1-.09.09-.23 0-.46-.01-.69 0-.1 0-.13-.02-.12-.12 0-.81 0-1.62.01-2.43 0-.1-.03-.13-.13-.12-.16.01-.31 0-.47 0-.05 0-.07-.02-.07-.07v-.62c0-.06.02-.07.07-.07h2.09c.06 0 .08.02.07.07v.61c0 .06-.02.07-.08.07-.16 0-.32.01-.48 0-.11-.01-.12.03-.12.13.01.41.01.82.01 1.22M51.67 47.28v1.62c0 .08-.02.1-.1.1h-.72c-.06 0-.08-.02-.08-.08v-3.26c0-.06.02-.08.08-.08h.73c.08 0 .09.03.09.1v1.6"/><path fill="#E20517" d="M46.62 33.57h-3.07c0-.28-.01-.55 0-.83 0-.1-.03-.12-.12-.12h-4.77c-.11 0-.14-.02-.14-.13v-3.35c0-.09.02-.12.12-.12H47.86l-.39 1.45c-.28 1.02-.56 2.04-.83 3.06-.01.02-.01.03-.02.04M57.21 33.57h-2.79c-.12-.42-.24-.83-.35-1.25-.29-1.08-.59-2.16-.88-3.24 0-.02 0-.04-.01-.05h4.03v4.54"/><path fill="#010101" d="M62.32 33.57v2.6c0 .08.02.1.1.1h1.72c.1 0 .12.03.12.12v2.41c0 .1-.03.11-.12.11h-4.1c-.06 0-.11.01-.11-.09V33.6v-.03h2.39"/><path fill="#FFFDFF" d="M24.15 31.16c-.01.54-.01 1.07.12 1.6.17.67.47 1.27.93 1.8.55.62 1.13 1.19 1.89 1.54.56.26 1.13.28 1.71.1.76-.25 1.18-.8 1.28-1.58.11-.83-.1-1.58-.65-2.22-.51-.58-1.15-.81-1.91-.63-.6.14-.98.58-1.06 1.19-.06.44 0 .85.29 1.21.38.48 1.01.59 1.51.45.18-.05.31-.16.35-.36.06-.27-.05-.46-.32-.53-.18-.05-.36-.07-.54-.07-.13 0-.22-.05-.26-.17-.05-.13-.05-.25.04-.36.03-.04.08-.06.13-.06.29-.02.57.01.84.1.46.15.71.49.71.96.01.49-.26.89-.71 1.04-1.31.43-2.68-.48-2.67-1.92 0-.34.06-.67.2-.97.32-.68.87-1.04 1.6-1.14.97-.13 1.74.24 2.33 1 .7.89.89 1.91.6 3-.25.94-.9 1.5-1.84 1.69-.97.2-1.88.02-2.74-.46-.38-.21-.75-.44-1.13-.65-.9-.48-1.85-.62-2.85-.45-.68.11-1.33.28-1.94.6-.39.21-.75.46-1.01.83-.54.79-.62 1.73.12 2.47.43.42.94.68 1.53.79.53.1 1.05.06 1.54-.18.58-.28.91-.77 1.01-1.4.04-.24 0-.48-.11-.7-.27-.56-.95-.96-1.57-.92-.56.04-1.12.53-1.23 1.07-.06.29.1.54.4.61.13.03.23-.02.32-.1.15-.12.26-.28.37-.44.11-.18.28-.21.46-.09.14.09.17.2.08.34-.15.26-.33.5-.58.68-.35.26-.76.27-1.14.04-.39-.25-.6-.66-.51-1.08.26-1.28 1.67-2.06 2.93-1.38.57.31.99.75 1.14 1.4.14.59-.02 1.14-.33 1.64-.38.6-.94.95-1.63 1.07-1.26.23-2.35-.15-3.21-1.09-.68-.74-.75-1.61-.37-2.51.36-.87.98-1.5 1.79-1.96.42-.23.86-.43 1.27-.7.42-.27.79-.6 1.09-1 .44-.58.82-1.2 1-1.92.26-1.04.07-1.99-.59-2.84-.54-.69-1.3-.91-2.13-.6-.9.34-1.52.96-1.78 1.89-.19.69-.02 1.3.48 1.81.37.38.83.5 1.34.35.53-.15.96-.43 1.14-.98.18-.56.02-1.05-.39-1.46-.2-.2-.47-.2-.69-.01-.13.11-.14.25-.11.4.04.18.12.35.21.52.06.1.07.2.01.3a.37.37 0 0 1-.32.18c-.07 0-.12-.04-.16-.1-.19-.29-.32-.59-.36-.93-.05-.49.29-.93.82-1.06.41-.1.76.02 1.05.31.94.98.74 2.45-.37 3.12-.57.34-1.18.5-1.83.26-.8-.29-1.27-.9-1.44-1.73-.15-.71.03-1.36.4-1.97.52-.83 1.25-1.37 2.21-1.58.9-.19 1.66.09 2.27.77.62.69.93 1.52.96 2.45.02.26.01.49.01.72m.27 3.54c-.55-.51-.74-1.17-.84-1.89-.13.78-.62 1.28-1.21 1.71.71-.16 1.39-.1 2.05.18m-2.08-.17c.01 0 .01 0 0 0 .01-.01 0-.01 0-.01v.01"/><path fill="#010101" d="M51.58 33.57c.12.42.23.83.35 1.25.12.45.24.9.37 1.36h-3.57c.07-.27.15-.54.22-.8l.48-1.75c0-.02.01-.03.02-.05.71-.01 1.42-.01 2.13-.01"/><path fill="#E20517" d="M51.58 33.57h-2.14c.13-.47.25-.95.38-1.42.23-.83.45-1.67.69-2.53.06.21.11.38.15.56.3 1.11.6 2.22.9 3.32.02.02.02.05.02.07M40.62 54.01v.68c0 .23-.15.41-.37.46-.23.05-.42-.04-.52-.25-.13-.28-.13-.58-.12-.88.01-.21.03-.42.12-.61.15-.32.5-.43.79-.26.07.04.1.09.1.17v.69M44.38 54.02h-.4c-.1 0-.13-.04-.08-.13.14-.3.28-.59.43-.89.02-.04.03-.08.09-.07.05 0 .06.04.07.07.14.3.27.59.41.89.05.1.02.13-.09.14-.15-.01-.29-.01-.43-.01M56.34 54.13c-.01.25-.01.48-.08.7-.03.1-.07.2-.14.28-.17.2-.44.2-.6 0a1.05 1.05 0 0 1-.19-.49c-.05-.37-.05-.74.03-1.1.03-.11.07-.21.14-.31.18-.25.47-.25.65 0 .12.17.16.38.18.58.01.13.01.25.01.34M28.92 54.13c-.01.25-.02.48-.08.7-.03.1-.07.19-.14.27-.17.21-.44.21-.61 0a.967.967 0 0 1-.19-.51c-.05-.36-.05-.72.03-1.07.02-.1.06-.19.11-.28.18-.29.51-.29.7.01.1.16.13.34.15.52.02.13.03.25.03.36M33.37 53.84h-.33c-.06 0-.1-.02-.1-.09.02-.2.05-.38.17-.55.08-.11.19-.18.34-.16.15.01.22.12.27.24.06.14.08.29.08.45 0 .08-.04.11-.12.11h-.31"/><path fill="#010101" d="M38.71 47.29v-.98c0-.07.01-.09.09-.09.34 0 .44.08.46.43.03.43.03.86 0 1.29v.04c-.05.39-.17.39-.5.38-.07 0-.04-.06-.04-.09-.01-.33-.01-.66-.01-.98M23.73 46.3c.05.31.1.61.16.92.02.14.04.28.07.42.02.09-.01.09-.08.09-.1 0-.2-.01-.3 0-.1.01-.1-.03-.09-.11.08-.44.15-.88.23-1.32h.01M29.16 46.29c.08.45.15.89.23 1.33.01.08.01.12-.08.11-.11-.01-.22 0-.34 0-.04 0-.06 0-.06-.05.08-.45.15-.89.23-1.34.01-.01.01-.02.02-.05M59.33 46.3c.08.46.15.9.23 1.33.02.08 0 .1-.08.1-.11-.01-.23 0-.34 0-.04 0-.07 0-.06-.06.08-.44.15-.88.22-1.32.01-.01.02-.02.03-.05M65.92 46.64v-.35c0-.05.01-.07.07-.07.15 0 .31-.01.39.16.09.19.09.38-.02.56-.06.1-.3.16-.41.12-.04-.01-.03-.04-.03-.06v-.36M24.42 34.7a3.35 3.35 0 0 0-2.05-.18c.59-.43 1.07-.93 1.21-1.71.1.72.29 1.38.84 1.89M22.34 34.53l.01-.01v.01h-.01"/></svg>