<svg xmlns="http://www.w3.org/2000/svg" width="80" height="80" viewBox="0 0 80 80"><path fill="#DC9D0F" d="M68.642 41.443c-.611 6.237-2.997 12.226-6.331 17.51-2.892 4.583-6.302 8.518-10.604 11.81-3.49 2.671-7.093 4.894-11.199 6.48-10.029-3.891-17.329-10.938-22.532-19.666-3.43-5.751-5.273-11.96-5.667-18.631-.207-3.488.303-8.155.941-11.586a56.848 56.848 0 0 1 4.581-14.093l.424-.293c5.772-3.982 15.451-5.286 22.408-5.286 6.98 0 16.395 1.293 22.18 5.309l.43.299c4.069 7.881 6.245 19.211 5.369 28.147z"/><path fill="#006EB2" d="M19.558 14.861c5.082-3.502 13.938-5.116 20.949-5.116 7.008 0 15.925 1.594 21.025 5.137 3.289 5.808 5.907 17.953 5.062 26.169-.601 5.838-2.739 11.494-5.909 16.52a43.831 43.831 0 0 1-10.376 11.37c-3.014 2.305-6.317 4.191-9.804 5.538-8.089-3.001-16.011-10.075-20.875-18.235-1.241-2.08-2.246-4.269-3.046-6.435-1.315-3.551-2.078-7.339-2.3-11.078-.458-7.746 2.615-19.282 5.274-23.87z"/><path fill="#FFF" d="M19.845 21.906c-2.024 5.987-3.703 13.373-2.763 20.288.315 2.329.808 4.532 1.653 6.821a40.363 40.363 0 0 0 4.599 8.853c1.2 1.732 2.571 3.363 4.037 4.896 3.725 3.891 8.405 6.949 13.12 8.936 4.248-1.569 8.073-4.115 11.393-7.141a39.956 39.956 0 0 0 6.858-8.212c1.984-3.145 3.559-6.58 4.55-10.171.723-2.608.981-5.215 1.006-7.912.055-5.523-1.112-11.184-3.025-16.313-6.325-2.929-13.414-4.257-20.717-4.205-7.296.053-14.805 1.486-20.711 4.16z"/><path fill="#006EB2" d="M21.983 22.723c-1.69 5.242-2.798 10.713-2.689 16.143.03 1.474.134 2.948.352 4.414 1.242 8.352 5.498 16.267 11.728 21.994 2.342 2.155 5.255 4.182 9.117 6.052 3.223-1.305 6.286-3.382 8.972-5.812 3.804-3.438 6.9-7.658 8.993-12.073 2.176-4.594 3.276-9.704 3.366-14.766.092-5.428-1.28-12.096-2.649-15.854-5.711-2.866-12.164-4.164-18.634-4.116-6.339.042-12.575 1.227-18.556 4.018z"/><path fill="#FFF" d="M40.744 46.284a8.663 8.663 0 0 1 8.661 8.661 8.663 8.663 0 0 1-8.661 8.661 8.661 8.661 0 0 1 0-17.322z"/><path fill="#006EB2" d="M40.744 47.202a7.744 7.744 0 0 1 0 15.487 7.746 7.746 0 0 1-7.743-7.744 7.745 7.745 0 0 1 7.743-7.743z"/><path fill="#FFF" d="M26.06 28.663c-.6.1-1.031.321-1.288.665-.256.345-.353.821-.283 1.431l4.603-.765.222 1.338-4.612.772c.116.67.341 1.128.68 1.373.338.245.844.31 1.517.198l2.731-.457.223 1.34-2.812.47c-.619.104-1.116.133-1.487.091a3.018 3.018 0 0 1-1.087-.354 2.916 2.916 0 0 1-1.118-1.075c-.287-.469-.487-1.058-.606-1.757-.226-1.361-.092-2.415.406-3.166.5-.748 1.383-1.227 2.656-1.44l2.762-.462.224 1.34-2.731.458zM36.252 27.756l-3.333.198c-.398.023-.685.124-.86.296-.179.175-.256.436-.235.787.017.285.109.392.275.525.165.131.407.188.719.168l1.732-.095c.822-.048 1.416.186 1.784.502.368.32.574.873.622 1.667.048.8-.121 1.401-.499 1.801-.378.398-.999.624-1.858.673l-3.993.236-.081-1.389 3.479-.219c.428-.027.725-.112.892-.258.166-.146.241-.434.221-.75-.018-.326-.112-.551-.281-.679-.168-.127-.446-.186-.835-.157l-1.497.104c-.905.062-1.492-.109-1.89-.432-.411-.328-.626-.833-.671-1.605-.05-.828.116-1.443.492-1.848.377-.405 1.059-.63 1.93-.682l3.807-.231.08 1.388zM39.684 27.652h-2.558v-1.359h6.845v1.359h-2.565v6.431h-1.722zM46.601 31.116l1.958.138-.79-2.718-1.168 2.58zm.403-4.641l1.7.102 2.525 7.98-1.779-.108-.513-1.815-2.891-.181-.712 1.713-1.765-.103 3.435-7.588zM55.385 28.909c-.624-.09-1.067-.081-1.405.308-.339.386-.58 1.067-.722 2.044-.123.846-.062 1.325.155 1.71.213.387.644.625 1.29.72l2.481.363-.216 1.423-2.555-.374c-.563-.082-.999-.2-1.306-.349a2.61 2.61 0 0 1-.832-.655 2.914 2.914 0 0 1-.647-1.352c-.112-.532-.116-1.093-.013-1.794.2-1.365.622-2.333 1.267-2.903.646-.568 1.546-.768 2.699-.601l2.512.367-.23 1.455-2.478-.362z"/><path fill="#EFD36A" d="M24.309 39.387h-1.447v-.658h3.877v.658h-1.453v3.121h-.977zM31.105 39.399h-1.158v.952h1.158c.312 0 .53-.036.652-.108.123-.075.184-.195.184-.371 0-.172-.059-.293-.18-.366-.119-.073-.336-.107-.656-.107zm-2.098-.674h2.32c.541 0 .937.088 1.19.273.251.183.376.472.376.865 0 .29-.077.525-.231.708-.158.185-.381.303-.673.354l1.119 1.582h-1.061l-.99-1.488h-1.109v1.488h-.941v-3.782zM35.212 40.577c0-.649.184-1.135.553-1.452.37-.318.93-.476 1.685-.476.758 0 1.322.16 1.686.481.366.322.546.816.546 1.488 0 .669-.181 1.164-.546 1.486-.364.324-.928.486-1.686.486-.769 0-1.332-.164-1.694-.488-.362-.324-.544-.834-.544-1.525zm2.237-1.28c-.405 0-.708.106-.907.32-.2.214-.299.536-.299.965 0 .468.096.811.291 1.026.194.219.499.326.915.326.411 0 .714-.107.912-.323.197-.216.297-.548.297-.996 0-.452-.099-.782-.297-.997-.198-.214-.504-.321-.912-.321zM41.496 38.725h1.062l1.107 1.442 1.121-1.442h1.095l-1.734 2.112v1.671h-.939v-1.671zM49.933 39.383c-.34 0-.599.072-.773.216-.172.146-.267.365-.287.663l2.608.002v.659h-2.612c.002.33.082.567.249.711.161.145.436.218.815.218h1.548v.656h-1.593c-.353 0-.628-.027-.83-.075a1.678 1.678 0 0 1-.565-.257 1.44 1.44 0 0 1-.516-.604 2.102 2.102 0 0 1-.174-.89c0-.67.174-1.164.516-1.484.345-.318.875-.476 1.596-.476h1.566v.658h-1.548v.003zM57.907 39.399h-2.329c-.251 0-.435.038-.551.12-.118.079-.176.204-.176.376 0 .139.051.239.15.307.099.069.249.105.443.105h1.249c.515 0 .884.082 1.101.247.219.165.328.439.328.824 0 .387-.127.675-.377.858-.253.185-.648.272-1.188.272H54.05v-.674h2.357c.268 0 .458-.034.566-.099.11-.066.165-.175.165-.33 0-.156-.05-.268-.149-.336-.103-.067-.273-.101-.517-.101h-1.115c-.516 0-.893-.085-1.133-.259-.237-.177-.357-.451-.357-.826 0-.401.124-.696.377-.881.251-.188.648-.278 1.197-.278h2.466v.675z"/><path fill="#FFF" d="M33.035 12.353l.871-.088.423 4.131-.872.091zM36.576 13.691l1.372-.002c-.009-.378-.095-.644-.263-.801-.167-.158-.446-.234-.839-.234-.269 0-.462.043-.583.128-.121.089-.181.227-.181.417 0 .164.042.286.125.369.083.082.206.123.369.123zm-.051.705c-.473 0-.821-.094-1.048-.278-.225-.188-.335-.478-.335-.87 0-.43.15-.754.448-.974.299-.22.74-.331 1.323-.331.687 0 1.191.169 1.515.509.324.338.484.866.484 1.581 0 .732-.172 1.268-.511 1.608-.342.34-.88.511-1.616.511h-1.427v-.713h1.45c.377 0 .659-.083.841-.252.184-.167.283-.43.298-.791h-1.422zM40.437 14.067a1.35 1.35 0 0 1-.4-.443 1.155 1.155 0 0 1-.132-.555c0-.367.106-.639.318-.813.214-.174.543-.26.994-.26h1.076c.443 0 .776.086.991.26.216.174.321.441.321.802 0 .208-.043.396-.133.563-.09.17-.221.317-.396.446.2.089.345.211.438.37.093.156.14.36.14.608 0 .354-.105.625-.32.817-.214.193-.518.288-.913.288H41.1c-.398 0-.704-.095-.918-.288-.216-.192-.322-.467-.322-.821 0-.242.047-.443.143-.602a.948.948 0 0 1 .434-.372zm1.012.353c-.221 0-.384.041-.488.122s-.158.21-.158.386c0 .175.052.305.156.386.102.082.266.123.49.123h.614c.225 0 .391-.041.495-.123.104-.081.157-.21.157-.386 0-.174-.054-.301-.158-.385-.106-.083-.271-.123-.494-.123h-.614zm.011-1.716c-.223 0-.389.042-.493.123-.105.083-.158.21-.158.385 0 .171.053.296.155.376.105.08.269.121.496.121h.604c.225 0 .391-.041.491-.121.104-.08.156-.205.156-.376 0-.175-.053-.305-.156-.385-.101-.082-.266-.123-.491-.123h-.604zM46.919 14.771l-1.369-.096c-.025.366.042.635.198.812s.419.276.792.303c.279.02.487-.009.614-.087.131-.078.201-.214.218-.407.011-.163-.022-.29-.096-.378-.077-.086-.195-.135-.357-.147zm.098-.706c.47.033.813.152 1.026.355.209.201.303.499.273.892-.03.426-.201.738-.518.936-.314.199-.761.278-1.341.237-.686-.046-1.179-.251-1.477-.608-.3-.355-.424-.893-.373-1.607.051-.727.262-1.253.627-1.571.366-.317.916-.452 1.646-.399l1.417.101-.049.706-1.439-.1c-.395-.029-.688.035-.877.187-.192.151-.301.409-.332.774l1.417.097zM38.269 58.473h-1.345v-5.685l-1.187.405v-1.231l1.811-.768h.721zM41.832 53.506v2.662c0 .849.325 1.287 1.232 1.287.931 0 1.241-.465 1.241-1.328v-2.723c0-.8-.358-1.097-1.232-1.097-.889 0-1.241.357-1.241 1.199zm-1.397.266c0-.443.035-.786.104-1.027a1.92 1.92 0 0 1 .338-.659c.245-.323.537-.564.877-.721.339-.156.87-.237 1.319-.237.419 0 .942.083 1.293.249.352.167.658.408.913.729.147.181.255.405.322.668.067.26.102.602.102 1.019v2.198c0 .445-.035.791-.104 1.033-.07.245-.183.463-.336.666a2.34 2.34 0 0 1-.878.712c-.341.156-.869.234-1.321.234-.419 0-.942-.083-1.296-.247a2.616 2.616 0 0 1-.913-.73 1.726 1.726 0 0 1-.319-.664 4.179 4.179 0 0 1-.102-1.014l.001-2.209z"/></svg>