<svg xmlns="http://www.w3.org/2000/svg" xmlns:xlink="http://www.w3.org/1999/xlink" width="80" height="80" viewBox="0 0 80 80"><defs><path id="a" d="M14.492 6.223h51.017v69.556H14.492z"/></defs><clipPath id="b"><use overflow="visible" xlink:href="#a"/></clipPath><path fill="#FD0" d="M42.059 6.85s5.29 16.397 18.673 6.739l2.323 2.971s-4.745 4.55-1.089 13.918c2.756 6.876 7.195 26.066-6.78 35.347-5.529 3.67-9.888 6.029-15.19 9.223l.004-.003c-5.304-3.193-9.657-5.549-15.186-9.219-13.975-9.281-9.537-28.472-6.779-35.347 3.652-9.369-1.09-13.918-1.09-13.918l2.319-2.971c13.385 9.657 18.677-6.74 18.677-6.74" clip-path="url(#b)"/><defs><path id="c" d="M14.492 6.223h51.017v69.556H14.492z"/></defs><clipPath id="d"><use overflow="visible" xlink:href="#c"/></clipPath><path fill="#006736" d="M40.318 75.589l-.334-.517-.309.51a430.375 430.375 0 0 0-4.698-2.776c-3.433-2.008-6.675-3.911-10.511-6.454-3.345-2.223-5.89-5.158-7.563-8.729-1.414-3.017-2.215-6.497-2.379-10.343-.278-6.479 1.331-13.045 2.929-17.031 1.426-3.656 1.715-7.108.834-9.973-.664-2.157-1.766-3.25-1.777-3.261l-.402-.394.344-.446 2.691-3.448.491.354c3.674 2.653 7.033 3.506 9.984 2.541 5.332-1.744 7.703-8.892 7.727-8.964l1.195.386c-.102.318-2.584 7.824-8.525 9.771-3.218 1.053-6.788.259-10.622-2.367l-1.633 2.091c.445.555 1.183 1.645 1.699 3.28.695 2.203 1.116 5.88-.839 10.891-1.552 3.87-3.113 10.235-2.843 16.516.348 8.091 3.504 14.176 9.385 18.079 3.806 2.527 7.034 4.42 10.451 6.42 1.411.826 2.864 1.677 4.388 2.592 1.52-.913 2.972-1.764 4.378-2.586 3.421-2.004 6.65-3.898 10.458-6.426 5.878-3.903 9.038-9.985 9.384-18.079.268-6.28-1.288-12.646-2.838-16.509-1.959-5.017-1.537-8.694-.844-10.896.518-1.635 1.255-2.726 1.698-3.28l-1.632-2.091c-3.83 2.625-7.402 3.42-10.618 2.367-5.94-1.947-8.424-9.451-8.525-9.77l1.191-.386h.001c.027.094 2.4 7.222 7.727 8.963 2.95.965 6.308.112 9.983-2.541l.491-.353 3.04 3.895-.411.392c-.009.009-1.11 1.101-1.773 3.26-.881 2.866-.593 6.317.837 9.979 1.596 3.981 3.204 10.547 2.926 17.026-.165 3.846-.967 7.326-2.382 10.343-1.673 3.571-4.218 6.507-7.562 8.729-3.838 2.546-7.081 4.45-10.518 6.461-1.503.877-3.06 1.788-4.694 2.774z" clip-path="url(#d)"/><defs><path id="e" d="M14.492 6.223h51.017v69.556H14.492z"/></defs><clipPath id="f"><use overflow="visible" xlink:href="#e"/></clipPath><path fill="#FD0" d="M40.613 74.677c5.03-3.008 9.259-5.323 14.572-8.851 13.976-9.281 9.536-28.472 6.78-35.347-3.654-9.369 1.089-13.918 1.089-13.918l-2.323-2.971c-13.382 9.657-18.672-6.74-18.672-6.74h-4.117s-5.291 16.397-18.677 6.739l-2.319 2.971s4.744 4.55 1.09 13.918c-2.758 6.876-7.196 26.066 6.779 35.347 5.529 3.67 9.882 6.025 15.186 9.219l.612-.367z" clip-path="url(#f)"/><defs><path id="g" d="M14.492 6.223h51.017v69.556H14.492z"/></defs><clipPath id="h"><use overflow="visible" xlink:href="#g"/></clipPath><path fill="#006736" d="M40 75.778l-.323-.196a440.245 440.245 0 0 0-4.697-2.776c-3.433-2.008-6.675-3.911-10.511-6.454-3.345-2.223-5.891-5.158-7.564-8.729-1.414-3.017-2.215-6.497-2.379-10.343-.278-6.479 1.331-13.045 2.929-17.031 1.427-3.656 1.715-7.108.834-9.973-.663-2.157-1.766-3.25-1.777-3.261l-.402-.393.344-.446 2.692-3.448.491.353c2.691 1.943 5.229 2.927 7.542 2.927h.001c7.068-.001 10.138-9.256 10.167-9.35l.14-.436h5.033l.14.434c.007.024.791 2.407 2.462 4.748 2.18 3.055 4.772 4.604 7.702 4.604 2.314 0 4.854-.986 7.546-2.927l.491-.354 3.041 3.895-.411.392c-.01.009-1.111 1.101-1.774 3.259-.881 2.867-.593 6.317.838 9.98 1.595 3.981 3.203 10.548 2.925 17.025-.165 3.848-.967 7.328-2.382 10.344-1.673 3.571-4.218 6.507-7.562 8.729-3.836 2.545-7.076 4.446-10.51 6.456-1.317.77-2.678 1.566-4.086 2.412l-.94.559zM17.76 16.536c.445.556 1.183 1.645 1.698 3.281.696 2.203 1.116 5.88-.838 10.892-1.553 3.87-3.113 10.235-2.843 16.516.348 8.09 3.504 14.175 9.385 18.079 3.806 2.527 7.033 4.419 10.451 6.42 1.41.826 2.864 1.676 4.387 2.592l.29-.174c1.417-.849 2.781-1.646 4.098-2.418 3.417-2.003 6.643-3.893 10.451-6.42 5.878-3.904 9.037-9.986 9.383-18.079.27-6.28-1.287-12.646-2.838-16.51-1.957-5.016-1.536-8.693-.843-10.896.518-1.635 1.255-2.726 1.697-3.28l-1.632-2.092c-2.728 1.869-5.345 2.817-7.782 2.817-3.324 0-6.347-1.783-8.746-5.154a21.199 21.199 0 0 1-2.462-4.63h-3.231a21.092 21.092 0 0 1-2.461 4.629c-2.399 3.373-5.424 5.155-8.746 5.155h-.001c-2.436 0-5.05-.946-7.782-2.817l-1.635 2.089z" clip-path="url(#h)"/><path fill="#006736" d="M19.029 35.277h41.794l1.539 5.691.128 8.628H17.362l.064-9.084 1.603-5.235zm21.429-25.22l.016 25.334-.924.001-.016-25.334.924-.001z"/><path fill="#FD0" d="M37.478 70.681l2.507 1.552 2.528-1.501V49.9h-5.035v20.781z"/><path fill="#006736" d="M32.449 67.706l2.506 1.529 2.527 1.496V49.9h-5.034v17.806z"/><path fill="#FD0" d="M27.419 64.911l2.508 1.529 2.526 1.494V49.9h-5.034v15.011z"/><path fill="#006736" d="M22.383 60.772l2.507 2.381 2.526 1.494V49.9h-5.034v10.872zm25.162 6.934l-2.504 1.529-2.527 1.496V49.9h5.031v17.806z"/><path fill="#FD0" d="M52.575 64.911l-2.506 1.529-2.527 1.494V49.9h5.033v15.011z"/><path fill="#006736" d="M57.611 60.772l-2.51 2.381-2.524 1.494V49.9h5.034v10.872z"/><defs><path id="i" d="M14.492 6.223h51.017v69.556H14.492z"/></defs><clipPath id="j"><use overflow="visible" xlink:href="#i"/></clipPath><path fill="#FD0" d="M17.598 49.594h45.549v.385H17.598v-.385z" clip-path="url(#j)"/><defs><path id="k" d="M14.492 6.223h51.017v69.556H14.492z"/></defs><clipPath id="l"><use overflow="visible" xlink:href="#k"/></clipPath><path fill="#006736" d="M39.984 72.793l-.227-.137c-1.531-.924-2.99-1.78-4.402-2.606-3.101-1.814-6.03-3.533-9.477-5.827-3.025-2.014-5.327-4.678-6.841-7.914-1.28-2.739-2.005-5.898-2.155-9.396-.252-5.892 1.208-11.87 2.659-15.497 1.675-4.307 1.671-7.898 1.374-10.15-.325-2.441-1.054-3.886-1.062-3.899l-.651-1.27 1.252.682c2.314 1.261 4.608 1.902 6.819 1.902 1.351 0 2.663-.24 3.9-.712 5.697-2.178 8.395-8.592 8.422-8.658l.426-1.038.408 1.092c.311.712 2.985 6.546 8.367 8.603 1.237.471 2.55.712 3.899.712 2.213 0 4.506-.641 6.819-1.902l1.26-.686-.66 1.273c-.006.015-.735 1.458-1.059 3.899-.3 2.252-.302 5.843 1.376 10.155 1.45 3.623 2.909 9.6 2.658 15.494-.151 3.497-.875 6.654-2.155 9.396-1.515 3.236-3.814 5.9-6.841 7.915-3.447 2.293-6.378 4.012-9.479 5.828a362.47 362.47 0 0 0-4.314 2.556l-.316.185zM21.088 18.082c.238.705.518 1.727.692 3.02.319 2.364.332 6.127-1.421 10.633-1.418 3.547-2.844 9.383-2.599 15.138.317 7.436 3.213 13.025 8.605 16.617 3.427 2.279 6.345 3.989 9.435 5.801 1.345.789 2.73 1.602 4.183 2.477 1.453-.875 2.839-1.688 4.184-2.477 3.088-1.81 6.011-3.521 9.435-5.801 5.394-3.592 8.287-9.182 8.607-16.617.247-5.755-1.181-11.592-2.596-15.133-1.757-4.511-1.741-8.273-1.424-10.638.174-1.293.455-2.315.693-3.02-2.091.978-4.166 1.473-6.186 1.473a11.77 11.77 0 0 1-4.213-.769c-4.754-1.816-7.503-6.366-8.48-8.28-.97 1.911-3.695 6.437-8.516 8.28-1.336.51-2.753.769-4.212.769-2.023.002-4.099-.495-6.187-1.473z" clip-path="url(#l)"/><path fill="#FD0" d="M20.572 40.593h2.379v1.042h-2.379v2.735h-1.027v-6.616h3.536v1.084h-2.508v1.755zm6.307-.626v-.361c0-.768-.242-.821-1.142-.821-1.033 0-1.211.212-1.211 1.509v1.465c.007 1.321.136 1.579 1.211 1.579.828 0 1.198-.036 1.198-.983v-.362h1.026v.432c.021 1.995-.898 1.923-2.225 1.995-1.881.088-2.215-.681-2.238-2.613V40.29c0-2.116.663-2.592 2.238-2.592 1.334 0 2.096.01 2.168 1.906v.361l-1.025.002zm8.141-2.213h1.025v6.616h-1.703l-2.274-5.532h-.036l.086 5.532h-1.026v-6.616h1.695l2.289 5.53h.028l-.084-5.53zm2.83 5.361l-.335 1.255h-1.062l1.773-6.616h1.512l1.811 6.616h-1.041l-.349-1.255H37.85zm1.16-4.391h-.014l-.913 3.43h1.847l-.92-3.43zm6.872-.97h1.026v6.616h-1.703l-2.275-5.532h-.034l.084 5.532h-1.023v-6.616h1.695l2.287 5.53h.028l-.085-5.53zm4.063 6.616h-1.027v-5.532h-1.567v-1.084h4.162v1.084h-1.569v5.532h.001zm2.958-3.882h2.5v1.04h-2.5v1.756h2.658v1.087h-3.685v-6.617h3.662v1.084h-2.636v1.65zm4.204 1.772v.31c0 .758.265.813 1.211.813.937 0 1.063-.213 1.063-.98 0-.942-.407-.82-1.205-.873-1.153-.088-2.067-.035-2.067-1.956 0-1.817.928-1.871 2.209-1.871 1.092 0 1.982.044 1.982 1.782v.213h-1.025v-.213c0-.713-.235-.742-.957-.742-1.019 0-1.182.124-1.182.831 0 .81.135.838 1.176.916 1.646.123 2.098.23 2.098 1.913 0 1.86-.713 2.02-2.092 2.02-1.182 0-2.236.043-2.236-1.852v-.312l1.025.001zm-34.971 4.667l-.8.547.308.89-.803-.551-.805.551.308-.891-.799-.546.989-.002.307-.888.306.888.989.002zm5.468 0l-.799.547.306.89-.803-.551-.803.551.307-.891-.799-.546.987-.002.306-.888.308.888.99.002zm5.467 0l-.801.547.308.89-.804-.551-.804.551.309-.891-.799-.546.989-.002.305-.888.307.888.99.002zm5.469 0l-.801.547.307.89-.801-.551-.804.551.307-.891-.799-.546.989-.002.306-.888.307.888.989.002zm5.466 0l-.799.547.306.89-.801-.551-.803.551.306-.891-.797-.546.989-.002.306-.888.307.888.986.002zm5.468 0l-.801.547.31.89-.802-.551-.807.551.309-.891-.798-.546.988-.002.306-.888.307.888.988.002zm5.468 0l-.802.547.308.89-.802-.551-.804.551.308-.891-.8-.546.99-.002.309-.888.305.888.988.002zm5.466 0l-.799.547.31.89-.805-.551-.804.551.307-.891-.799-.546.99-.002.303-.888.309.888.988.002zM36.782 68.171h-.359v-1.696l-.515.525-.217-.24.633-.61h.457v2.021z"/><path fill="#006736" d="M38.332 67.605c0 .263.096.263.409.263.313 0 .412-.005.412-.348v-.335h-.004c-.088.161-.241.196-.494.196-.423 0-.666-.065-.666-.611 0-.5.15-.635.752-.635.653 0 .771.17.771.864v.584c0 .512-.293.604-.771.604-.433 0-.768-.01-.768-.58l.359-.002zm.016-.836c0 .268.048.295.393.295.346 0 .412-.021.412-.295 0-.301-.113-.313-.412-.313-.346-.003-.393.023-.393.313M41.843 67.446h.233v.295h-.233v.43h-.36v-.43h-1.076v-.423l.877-1.169h.558l.001 1.297zm-.361-1.015h-.009l-.768 1.016h.776v-1.016z"/><path fill="#FD0" d="M43.547 67.489c0 .374.06.379.39.379.324 0 .429-.003.429-.281 0-.215-.052-.299-.265-.299h-.288v-.294h.288c.197 0 .23-.09.23-.333 0-.19-.084-.208-.396-.208-.324 0-.368.035-.368.348h-.359c0-.583.203-.665.728-.665.376 0 .756.004.756.525 0 .241-.044.448-.311.473v.012c.271.02.342.177.342.441 0 .557-.282.601-.787.601-.501 0-.75-.025-.75-.698h.361v-.001zm-10.39-9.213a6.826 6.826 0 1 1 6.826 6.826 6.825 6.825 0 0 1-6.826-6.826m.633 0a6.207 6.207 0 1 1 12.414-.004 6.207 6.207 0 0 1-12.414.004"/><path fill="#006736" d="M39.996 51.782a6.502 6.502 0 0 0-6.494 6.494c0 3.58 2.913 6.493 6.494 6.493s6.493-2.913 6.493-6.493a6.502 6.502 0 0 0-6.493-6.494zm0 12.413a5.926 5.926 0 0 1-5.919-5.919c0-3.264 2.656-5.918 5.919-5.918s5.917 2.654 5.917 5.918a5.926 5.926 0 0 1-5.917 5.919z"/><path fill="#006736" d="M38.065 64.33l.642-1.488h2.649l.621 1.508zM33.656 58.684l1.704-.084 1.114 2.403-1.194 1.24zM37.883 52.301l.398 1.571-2.098 1.614-1.412-.816z"/><path fill="#006736" d="M38.749 63.274l-.926-1.736-1.673-.418.084-.34 1.619.405.853-1.53.305.169-.872 1.564.917 1.721zM35.328 59.002l-.31-.157.821-1.606.165-2.057.348.025-.147 1.86 1.847.418-.076.342-1.83-.414zM46.31 58.706l-1.706-.106-1.113 2.403 1.196 1.263zM42.082 52.301l-.397 1.571 2.098 1.614 1.411-.816z"/><path fill="#006736" d="M41.216 63.274l-.308-.165.916-1.722-.871-1.563.304-.171.855 1.531 1.618-.404.084.338-1.672.419zM44.637 59.002l-.817-1.589-1.83.414-.077-.342 1.85-.418-.148-1.86.347-.025.166 2.057.821 1.606zM40.075 56.199h-.349v-1.765l-1.795-.491.091-.338 1.877.512 2.247-.621.093.338-2.165.6v1.765z"/><path fill="#006736" d="M38.542 60.192l-.857-2.638 2.243-1.63 2.243 1.63-.857 2.638zM43.701 29.126v-.114.048l-.002-.052v.123c-.039 1.501-.884 3.507-1.664 4.535.347-.035.7-.071 1.012-.563.143.51.238.626.654.898.417-.272.509-.392.651-.902.313.494.666.527 1.011.562-.774-1.025-1.621-3.033-1.662-4.535M44 28.063c-.196-.502-.288-.533-.299-1.042v-.126l-.002.077v-.073.126c-.012.502-.108.542-.304 1.039-.209.529.188.705.3.712h.006c.111-.007.505-.183.299-.713M45.86 29.034l-.068-.001h.064-.121c-.508-.013-.545-.107-1.046-.304-.53-.208-.704.19-.711.299v.006c.007.109.181.506.711.299.505-.197.535-.288 1.049-.299h.122zm-2.419-.003v-.003c-.007-.108-.184-.506-.714-.299-.501.196-.533.287-1.04.299h-.125.074l-.072.002h.126c.504.014.541.108 1.037.303.53.208.706-.19.713-.299l.001-.003m6.11.128v-.146.071l-.003-.074v.156c-.052 1.495-.894 3.481-1.665 4.502.347-.034.697-.071 1.013-.563.143.51.237.625.655.898.416-.273.51-.392.649-.902.315.494.668.527 1.012.562-.77-1.02-1.609-3.006-1.661-4.504m.298-1.096c-.195-.498-.286-.533-.298-1.033v-.136l-.003.091v-.087.136c-.016.492-.111.534-.303 1.029-.21.528.187.705.296.712h.01c.11-.006.504-.182.298-.712M51.708 29.034l-.068-.001h.063-.122c-.508-.013-.544-.107-1.045-.304-.53-.208-.705.19-.71.299h-.003l.003.003-.003.003h.003c.005.109.18.506.71.299.504-.197.534-.288 1.05-.299h.122zm-2.418-.003v-.003c-.008-.108-.183-.506-.714-.299-.5.196-.533.287-1.039.299h-.127.073l-.073.002h.127c.503.014.54.108 1.037.303.53.208.706-.19.713-.299l.003-.003m6.109.122l-.001-.141-.001.062-.001-.065v.149c-.05 1.498-.89 3.487-1.663 4.509.346-.034.696-.07 1.01-.563.141.51.239.625.656.898.417-.273.509-.392.651-.902.314.494.665.527 1.011.561-.769-1.019-1.612-3.009-1.662-4.508m.296-1.09c-.193-.497-.284-.533-.298-1.03v-.14l-.001.096v-.091l-.002.139c-.014.489-.108.532-.302 1.026-.21.528.188.705.298.712h.007c.112-.006.504-.183.298-.712M57.554 29.034l-.065-.001h.063-.118c-.508-.013-.546-.107-1.044-.304-.53-.208-.704.19-.711.299h-.005v.006h.003c.004.109.181.506.709.299.505-.197.536-.288 1.05-.299h.118zm-2.416-.003v-.003c-.007-.108-.184-.506-.712-.299-.502.196-.535.287-1.042.299h-.125.075l-.072.002h.125c.504.014.542.108 1.039.303.528.208.703-.19.71-.299l.002-.003m-8.563-5.862l-.001-.146-.001.069-.001-.073v.154c-.05 1.496-.888 3.484-1.664 4.505.347-.035.699-.071 1.013-.563.144.51.239.625.654.898.418-.273.509-.392.652-.901.313.493.665.527 1.013.562-.772-1.02-1.612-3.008-1.665-4.505m.299-1.094c-.197-.499-.287-.534-.301-1.039v-.13l-.001.082v-.077l-.001.13c-.013.499-.107.539-.302 1.035-.209.529.188.705.298.712h.006c.111-.008.505-.183.301-.713M48.729 23.045l-.063-.001h.06-.12c-.509-.012-.545-.107-1.043-.303-.529-.208-.704.19-.711.298h-.001v.007h.001c.007.11.182.507.711.299.505-.197.534-.287 1.048-.299h.118zm-2.417-.003v-.003c-.006-.107-.181-.505-.711-.298-.5.196-.534.286-1.038.298h-.128l.079.001-.075.001h.126c.502.014.538.109 1.039.303.53.208.704-.189.708-.299h.003l-.003-.003m6.192.13l-.002-.149-.001.072-.001-.074v.155c-.052 1.497-.892 3.484-1.663 4.503.346-.035.698-.072 1.011-.563.142.51.241.626.654.898.417-.272.509-.392.653-.901.314.493.662.527 1.012.562-.771-1.021-1.611-3.007-1.663-4.503m.296-1.097c-.195-.499-.285-.534-.299-1.036v-.134l-.001.086-.001-.082v.133c-.014.496-.109.537-.304 1.032-.208.53.189.705.299.712h.007c.11-.006.508-.181.299-.711M54.657 23.045l-.064-.001h.063-.118c-.509-.012-.547-.107-1.045-.303-.53-.208-.704.19-.711.298v.007c.007.11.181.507.711.299.505-.197.534-.287 1.049-.299h.115zm-2.418-.003l.002-.003h-.002c-.004-.107-.18-.505-.709-.298-.502.196-.536.286-1.039.298h-.128l.079.001-.077.001h.131c.498.014.539.109 1.038.303.527.208.703-.189.71-.299l-.005-.003M30.794 21.251h-1.232a.119.119 0 0 1-.119-.12.12.12 0 0 1 .119-.12h1.232a.12.12 0 0 1 .12.12c0 .068-.053.12-.12.12zm-6.651 7.627l2.114.165s3.279 3.357 6.88 1.002c.726 0 2.734-.019 2.734-.019s-.198.813-.892 1.335c0 .883.132 2.386-.298 2.68s-7.938-.116-8.555-.49c-1.672-1.01-1.983-4.673-1.983-4.673"/><path fill="#006736" d="M33.285 29.783h2.714l1.242-1.807v-1.342h-3.386l-.57 3.149z"/><path fill="#FD0" d="M34.266 27.425h.5v.666h-.5v-.666zm.832 0h.5v.666h-.5v-.666zm.866 0h.5v.666h-.5v-.666z"/><path fill="#006736" d="M36.73 26.107h.511v.612h-.511v-.612zm-.98 0h.511v.612h-.511v-.612zm-1.896 0h.512v.612h-.512v-.612zm.947 0h.511v.612h-.511v-.612zm-8.114-3.569c-3.221 2.484.101 10.345 6.062 7.306-1.206-1.111-1.866-3.205.545-4.838-1.19-.457-6.607-2.468-6.607-2.468"/><path fill="#006736" d="M26.852 29.964l-.097-.042-2.229-2.415-.012.012a.131.131 0 0 1-.186-.003.135.135 0 0 1 .005-.188l.015-.013-.39-.423a.131.131 0 0 1 .007-.186.133.133 0 0 1 .186.009l.388.418 4.25-4.053-2.432-.926a.13.13 0 0 1-.076-.169.129.129 0 0 1 .168-.076L29 22.88l1.061-1.011.013-.012.041-.022.057-.004.054.02.033.03.009.015 1.157 1.908 2.625.998a.131.131 0 0 1-.094.244l-2.31-.878 1.934 3.188a.13.13 0 0 1-.044.181.134.134 0 0 1-.181-.043l-2.108-3.478-2.186-.833-4.345 4.144 2.231 2.417a.133.133 0 0 1-.006.187l-.089.033zm2.421-6.982l1.752.667-.898-1.48-.854.813zm4.999 2.464c-.217 0-.396-.176-.396-.393s.178-.393.396-.393a.394.394 0 0 1 0 .786zm0-.523a.132.132 0 0 0-.133.13c0 .072.06.131.133.131.075 0 .134-.06.134-.131a.13.13 0 0 0-.134-.13zm-8.146-2.614a.394.394 0 0 1 0-.786c.217 0 .395.176.395.393s-.177.393-.395.393zm0-.522a.132.132 0 0 0-.134.129c0 .072.06.128.134.128.073 0 .131-.057.131-.128s-.057-.129-.131-.129zm6.96 7.692l-.123-.082-2.95-7.321-.009-.039.008-.057.032-.05.004-.002v-1.405c0-.073.059-.132.13-.132.073 0 .132.059.132.132v1.481l-.013.054 3.101 6.199a.132.132 0 0 1-.059.176.132.132 0 0 1-.176-.059l-1.689-3.378 1.733 4.301a.131.131 0 0 1-.074.171l-.047.011zm3.863-2.462a.132.132 0 0 1-.131-.131v-4.713c0-.073.06-.132.131-.132.073 0 .132.059.132.132v4.71a.132.132 0 0 1-.132.134z"/><path fill="#FD0" d="M32.843 29.869c-1.322-.108-4.316-1.154-5.462-2.461.838 1.133 2.709 2.44 5.044 2.854.196-.152.418-.393.418-.393m-5.815-6.862c-.44.523-1.166 1.874-.661 3.16-.126-1.292.188-2.021 1.179-2.958l-.518-.202m1.287.523c-.44.523-1.166 1.874-.66 3.159-.126-1.291.188-2.019 1.178-2.957l-.518-.202m1.422.555c-.44.522-1.168 1.873-.661 3.16-.126-1.291.186-2.021 1.178-2.958l-.517-.202m1.601.588c-.439.522-1.167 1.874-.66 3.16-.126-1.29.188-2.021 1.178-2.959l-.518-.201"/><path fill="#006736" d="M37.081 22.913c-.945-.201-1.571.36-2.896.391.368.182.349.263.847.344-.258.149-.368.327-.662.313.635.371 1.302.244 2.146-.042.387-.132.565-.159.565-.159v-.847z"/><path fill="#FD0" d="M25.175 32.861c1.387.373 3.14.633 5.164.046.414.259 2.171.563 3.829-.234.219.117.902.164 1.268.188-.074.4-.146 1.476-.146 1.476l-10.315-.259.2-1.217z"/><path fill="#006736" d="M22.674 33.384c.64 0 1.634-.035 2.843-.352.818.386 2.346.702 4.301.492.57.281 1.991.563 3.448-.106.711.176 1.849.247 3.449-.562l.159.087s-2.132 1.296-3.412.687c-.616.305-2.34.727-3.644.352-.569.141-3.424-.241-4.301-.755-.425.14-1.764.632-2.522.562l-.321-.405m3.177.754c.389.011.737.094 1.526-.047.653.188 3.717.398 6.285-.187l.231.071s-4.464.938-6.148.716c-1.649-.219-1.894-.553-1.894-.553"/><path fill="#FD0" d="M29.358 31.716c0-.111.091-.201.203-.201a.201.201 0 1 1 0 .402.202.202 0 0 1-.203-.201m1.081 0c0-.111.091-.201.203-.201s.203.09.203.201a.203.203 0 0 1-.406 0m1.012 0a.203.203 0 0 1 .405 0 .203.203 0 0 1-.405 0"/></svg>