<svg xmlns="http://www.w3.org/2000/svg" id="Calque_2" viewBox="0 0 80 80"><style>.st0{fill:#fff}.st1{fill:#211e5f}.st2{fill:#e41b13}</style><path d="M57.2 65.8H23.1L12.5 33.3l27.6-20.1 27.6 20.1-10.5 32.5z" class="st0"/><path d="M40.1 10L9.3 32.4l11.8 36.3h38.1L71 32.4 40.1 10zm17.1 55.8H23.1L12.5 33.3l27.6-20.1 27.6 20.1-10.5 32.5z" class="st1"/><path d="M41.3 16.1c1.9 2.3 1.1 5.9.8 7 .8.1.7.1 1.1.2.4-.7.8-2.5.6-3.4 1.8 1.3 2.1 3.1 2 4.1 2.1.7 6.9 5.1 6.9 5.1-.3.4-.6.7-1 .8 3.4 2.6 8.6 4.7 8.6 4.7-.2 1.7-1.7 2.1-1.7 2.1-.5 4.9-3.3 8.7-8.3 8.7-4 0-3.7-4.3-7.3-4.4-2.4-.1-2 2.1-2 2.1-1.7-.6-2.9-2.7-2.1-4.7l-.2-.1c-1 1.6-1.8 5 2.1 6.5.8.3 18.9 7.6 18.9 7.6l6-18.4-24.4-17.9z" class="st1"/><path d="M47.1 32s.5-.2 1.2-.3c1.1-.1 1.6-1.1 1.4-1.6-.1 0-.5.2-1.1.2-1.6-1.5-3.9-1.3-4.2-1.3 1.9 1 2.4 2.6 2.7 3z" class="st1"/><g><path d="M36.3 55.8h-1.8c-.1 0-.1 0-.1.1v4.2c0 .1 0 .1.1.1h1.8c.1 0 .1 0 .1-.1v-4.2c.1-.1 0-.1-.1-.1z" class="st2"/><path d="M40.1 46.5L21 54.1l3.2 9.9H56l3.2-9.9-19.1-7.6zM26.5 61.9v-7.7h2.2v6H31l.5 1.7h-5zm12.1-1.4v.4c-.1.7-.7 1-1.5 1h-4l-.8-2.5v-3.9c0-.9.5-1.4 1.5-1.4h3.3c1 0 1.5.5 1.5 1.4v5zm-.5-9.3l.7-.8s.8-.1 1.1.8v.1c-.2-.9-.7-1.5-.7-1.5l.9-1.2.9 1.2s-.5.7-.7 1.5v-.1c.3-.9 1.1-.8 1.1-.8l.7.8s-1.7-.2-1.9 1.1h-.3c-.1-1.3-1.8-1.1-1.8-1.1zm8.1 9.3v.3c-.1.7-.6 1.1-1.5 1.1h-4l-.7-2.4h2v.7c0 .1 0 .1.1.1h1.8c.1 0 .1 0 .1-.1v-1c0-.1 0-.1-.2-.1l-2.5-.5c-1.1-.3-1.6-.5-1.6-1.5v-1.5c0-.9.5-1.4 1.5-1.4h3.3c1 0 1.5.5 1.5 1.4v.9h-2v-.6c0-.1 0-.1-.1-.1h-1.8c-.1 0-.1 0-.1.1v1c0 .1 0 .1.2.1l2.5.5c1 .3 1.6.4 1.6 1.5v1.5zm7.6-3.6h-2.2v-1c0-.1 0-.1-.1-.1h-1.8c-.1 0-.1 0-.1.1v4.2c0 .1 0 .1.1.1h1.8c.1 0 .1 0 .1-.1v-1h2.2v1.4c0 .9-.6 1.4-1.6 1.4h-4.1l-.8-2.5v-3.8c0-.9.5-1.4 1.6-1.4h3.4c1 0 1.5.5 1.5 1.4v1.3zM39.7 15.7L14.6 33.9l3 9.4h.1C20 28 39.7 27 39.7 15.7z" class="st2"/><path d="M28.1 38l-.1-.1c-4.2 3.3-4.3 8.3-4.2 9.6h-.1c-2.2-7.4 3.8-15 5.9-16.9l-.1-.1c-9.1 5.3-11.4 13.8-9.1 21.1l.3.9 7.6-3.1c-3.4-4.6-.9-10.1-.2-11.4z" class="st2"/></g></svg>