<svg xmlns="http://www.w3.org/2000/svg" width="80" height="80" viewBox="0 0 80 80"><path fill="#999B9E" d="M40 6.235c18.647 0 33.766 15.118 33.766 33.765S58.648 73.766 40 73.766C21.353 73.766 6.235 58.647 6.235 40S21.353 6.235 40 6.235z"/><path fill="#FFF" d="M40 7.343c18.034 0 32.657 14.62 32.657 32.657 0 18.036-14.623 32.655-32.657 32.655C21.965 72.655 7.344 58.036 7.344 40 7.344 21.963 21.966 7.343 40 7.343z"/><path fill="#999B9E" d="M40 17.205c12.59 0 22.795 10.205 22.795 22.795S52.59 62.795 40 62.795 17.205 52.59 17.205 40 27.41 17.205 40 17.205z"/><path fill="#EB6A0A" d="M40 17.975c12.165 0 22.024 9.861 22.024 22.025 0 12.163-9.859 22.024-22.024 22.024-12.165 0-22.023-9.859-22.023-22.024 0-12.165 9.857-22.025 22.023-22.025z"/><path fill="#999B9E" d="M40 22.035c9.921 0 17.965 8.042 17.965 17.965S49.921 57.965 40 57.965c-9.922 0-17.965-8.044-17.965-17.965 0-9.922 8.044-17.965 17.965-17.965z"/><g fill="#00549D"><path d="M68.787 39.697l-.097.052-.033.173-.003.172-.052.11-.193.026-1.689-.068-.133-.002-.092-.001c-.411.001-.695.061-.852.184-.171.128-.258.356-.265.684-.004.285.068.567.22.847s.282.417.396.419l.106-.053.053-.109-.09-.217a.558.558 0 0 1-.092-.29c0-.094.058-.162.169-.197.079-.026.198-.042.355-.048l.223-.002.164.002 1.616.052.081.031.027.088-.012.62.029.113.177.033.164-.024.024-.116.013-.621.029-.084.082-.031.659.014.172-.026.039-.116c.002-.081-.08-.203-.247-.362l-.356-.376a3.222 3.222 0 0 1-.336-.548c-.108-.217-.192-.327-.256-.329zM68.224 36.005c-.068.006-.106.071-.115.192l-.002.015-.002.02-.016.156-.087.144-.234.057-.104.01-1.171.104-.405.035c-.15.012-.252.009-.303-.015l-.135-.143-.028-.08-.017-.089-.063-.184-.116-.032-.096.049-.033.09.02.113a10.725 10.725 0 0 1 .168 1.956l.003.103.048.078.104.023.109-.048.029-.18-.003-.109.017-.07c.026-.085.065-.144.117-.174.052-.033.147-.055.288-.066l.299-.026 1.381-.124a.783.783 0 0 1 .302.019c.065.023.102.069.107.135.004.056-.055.153-.177.288l-.071.08-.108.196-.022.23a.632.632 0 0 0 .209.436.602.602 0 0 0 .461.129.543.543 0 0 0 .412-.232.75.75 0 0 0 .118-.522.804.804 0 0 0-.116-.363 1.098 1.098 0 0 0-.27-.314l-.107-.074-.034-.041-.016-.036.016-.023.063-.015.353-.03.153-.046.027-.113c-.003-.054-.075-.159-.211-.316a2.57 2.57 0 0 1-.317-.438l-.101-.2-.102-.276-.004-.016c-.064-.184-.136-.27-.218-.263zM13.957 25.183l.155-.143.009-.005.011-.01c.085-.1.163-.152.228-.162.066-.009.147.017.246.082l1.041.675v-1.468l-.378-.242c-.097-.063-.153-.129-.167-.2-.013-.071.018-.18.09-.333l.005-.009.005-.007c.074-.154.079-.251.015-.293l-.126-.022-.112.101-.074.136c-.159.29-.316.558-.478.805-.167.259-.348.511-.542.758l-.064.083-.036.134.069.102.103.018zM18.03 53.266l.076-.127-.045-.168-.096-.127-.011-.017v.469zM12.469 29.237l1.222.571v.001l1.824.851.127.081v-1.382l-.029-.014-.981-.458-.055-.055.007-.091.029-.098.033-.086.057-.127a.925.925 0 0 1 .239-.34.665.665 0 0 1 .353-.111l.164-.005.187-.02.127-.097.008-.139-.136-.1-.033-.013-.226-.094-.43-.188a4.153 4.153 0 0 1-.445-.242l-.055-.035-.137-.017-.09.083c-.031.069-.002.158.094.267l.201.273a.37.37 0 0 1 .021.241 2.131 2.131 0 0 1-.17.45l-.164.257c-.048.038-.103.042-.164.014l-.353-.165v-.001l-.607-.283c-.139-.064-.213-.153-.228-.268-.014-.115.03-.277.128-.489.083-.179.175-.319.279-.422a.685.685 0 0 1 .33-.198l.097-.02.154-.032c.202-.035.32-.084.351-.148l.014-.123-.151-.105-.366-.171-.325-.15-.114-.014-.104.158-.296.702c-.189.452-.383.891-.582 1.318l-.181.374v.711l.119-.089c.067-.025.15-.011.257.038z"/><path d="M15.645 30.742l.062.087c.023.067.013.169-.034.31l-.017.061-.014.052v.169h.003l.052.055.124.003.099-.118.048-.126c.139-.384.299-.767.473-1.145.293-.624.602-1.227.934-1.807l.096-.179.026-.187-.133-.155-.517-.365-.107-.071-.067-.039-.163-.021-.108.092c-.029.065.006.173.103.328.101.153.172.283.217.393.058.141.08.297.07.469a1.448 1.448 0 0 1-.132.507c-.118.25-.241.398-.367.446-.124.045-.343-.001-.651-.142h.002v1.382h.001zM10.098 41.893l.03-.189-.001-.015.025-.249a.322.322 0 0 1 .191-.236c.108-.055.29-.089.544-.105l1.204-.085v-.364l-1.229.086c-.255.018-.441.011-.554-.022-.112-.028-.186-.087-.219-.18l-.033-.121-.024-.097-.046-.146-.095-.024-.113.058-.028.148.035.244.046.402.013.431.001.272.051.173.115.057.087-.038zM13.642 44.453l.049-.004c.236-.016.406-.009.51.02.109.027.181.086.212.172l.032.119.024.104.05.15.088.025.117-.064.033-.148-.039-.241-.049-.399-.011-.438.004-.275-.054-.166-.117-.051c-.073.004-.113.077-.118.221v.016l-.023.25a.328.328 0 0 1-.191.237c-.097.047-.255.079-.47.099l-.074.005-1.524.108v.369l1.551-.109zM9.919 39.341l.543.206.316.118.117-.026.05-.093c.007-.065-.065-.16-.214-.28l-.25-.222a1.156 1.156 0 0 1-.253-.362.858.858 0 0 1-.052-.396l.011-.118.033-.079.08-.024 1.79.158 1.601.14.172.016c.117.01.197.039.244.086.046.047.074.138.08.27l.002.026.002.024.003.011c.007.136.047.209.118.214l.123-.037.055-.127-.003-.112c-.003-.31.009-.62.034-.926.028-.306.07-.613.127-.918l.022-.111-.035-.137-.117-.062c-.069-.005-.117.059-.145.194l-.011.043c-.036.147-.079.242-.131.285-.053.043-.139.06-.254.049l-.287-.026-1.6-.14-1.686-.148-.073-.038-.021-.083.02-.216a.88.88 0 0 1 .112-.395.645.645 0 0 1 .276-.226l.282-.103c.189-.062.286-.129.293-.205l-.055-.135-.256-.077-.655-.129-.378-.08-.129.024-.05.094c-.007.068.026.131.099.189l.124.118c.027.049.043.173.047.373.005.201-.004.434-.028.698l-.154 1.765c-.019.212-.039.346-.066.398l-.124.113-.048.013c-.086.025-.132.07-.14.133-.008.085.095.16.308.228l.131.045zM11.96 29.468l.03-.046.101-.134v-.711a16.17 16.17 0 0 1-.377.707l-.056.099-.022.151.085.099c.069.031.148-.024.239-.165zM66.495 27.894l.052-.045.006-.093-.057-.048v.185zM10.587 34.169l.01-.02c.055-.119.112-.194.171-.22.062-.028.146-.026.258.005l1.064.305v-.001l1.601.46v.001l.568.161c.111.032.186.077.222.132.036.057.049.149.03.279l-.008.029v.034c-.02.137.005.216.075.236l.126-.015.08-.115.022-.103c.054-.31.122-.613.208-.91.086-.296.186-.59.3-.878l.042-.105-.009-.131-.109-.079c-.063-.019-.123.029-.179.145l-.001.003-.009.025-.013.017c-.057.138-.115.223-.172.254-.059.032-.145.031-.259-.001l-.915-.262v-.001l-.436-.124-.077-.036-.006-.054.009-.019.023-.046.289-.412.113-.188.083-.219.002-.004v.001a1.217 1.217 0 0 0 0-.687v-.001a1.483 1.483 0 0 0-1.041-1.014 1.349 1.349 0 0 0-.558-.05v1.215l.247.051c.292.084.5.216.629.396.13.179.163.382.098.606-.043.153-.104.247-.18.288-.078.04-.203.036-.378-.015l-.416-.118v.001l-.291-.079-.055-.016c-.337-.096-.539-.183-.603-.256-.064-.075-.074-.185-.032-.329.062-.215.208-.369.442-.461.164-.065.344-.085.539-.062v-1.215a1.098 1.098 0 0 0-.524.214c-.306.227-.537.616-.694 1.166l-.172.663-.186.715-.143.457-.081.252-.025.229.108.104c.071.016.144-.046.213-.198zM13.735 49.896l-.043.015c-.557.173-1.036.2-1.438.083l-.162-.057v.705l.235.165c.321.195.651.317.994.36l.37.02c.215-.007.43-.044.642-.114.334-.109.625-.281.875-.518a2.42 2.42 0 0 0 .438-.56l.157-.316a2.62 2.62 0 0 0 .196-.949 2.81 2.81 0 0 0-.144-.995 2.994 2.994 0 0 0-.475-.922 2.576 2.576 0 0 0-.724-.655 2.558 2.558 0 0 0-.964-.353l-.024-.006a2.285 2.285 0 0 0-1.013.1 2.237 2.237 0 0 0-.561.263v1.495c.302-.241.686-.436 1.15-.585l.448-.119c.39-.076.736-.068 1.04.022.415.121.688.379.813.767.136.418.037.828-.295 1.227-.333.395-.837.708-1.515.927zM66.806 24.327c.146-.096.234-.167.268-.215l.053-.169c0-.149-.046-.349-.135-.591a3.948 3.948 0 0 0-.379-.73l-.118-.167v2.073l.311-.201zM17.952 52.827h.002z"/><path d="M60.694 23.535a1.7 1.7 0 0 0-.335.258.355.355 0 0 0-.085.202c-.016.185.026.43.129.738.101.306.245.604.43.89.414.637.928 1.053 1.543 1.249.594.186 1.139.13 1.635-.173v-.003l.049-.029c.361-.234.596-.549.707-.948.108-.396.108-.953-.004-1.665l-.078-.406c-.131-.633-.043-1.051.257-1.244a.754.754 0 0 1 .656-.097c.231.072.428.23.586.477.145.222.212.428.202.616-.011.184-.113.422-.306.709l-.063.091c-.179.259-.237.441-.166.545l.115.079.152-.042.382-.25v-2.078c-.346-.468-.771-.784-1.268-.945-.438-.141-.843-.136-1.218.015h-.002v.001l-.3.157c-.337.218-.551.501-.65.849-.094.35-.087.865.028 1.548.107.642.133 1.088.077 1.337a.919.919 0 0 1-.416.59.869.869 0 0 1-.806.093c-.285-.101-.537-.32-.755-.658-.171-.262-.25-.525-.233-.789.019-.263.125-.526.332-.792l.209-.247c.186-.203.247-.353.184-.448l-.139-.103-.163.032-.686.441zM49.296 13.771c.179.069.352.094.518.072a.901.901 0 0 0 .31-.092v-.821c-.171.015-.33.049-.474.103a1.286 1.286 0 0 0-.352.185.534.534 0 0 0-.189.228.213.213 0 0 0 .012.191.308.308 0 0 0 .175.134zM64.334 49.145l.095.112v-2.503l-.092.308a4.512 4.512 0 0 0-.171 1.194c-.004.368.052.664.168.889zM66.689 28.566l-.194-.161v-.003l-.274-.155-.121-.05-.025-.014-.019-.024.005-.041.063-.045.3-.139.072-.039v-.188l-.226-.127a2.363 2.363 0 0 1-.471-.324 2.808 2.808 0 0 1-.316-.365l-.046-.064-.186-.206h-.125c-.065.028-.077.1-.045.211l.002.017.004.019.041.149-.041.176c-.029.042-.116.097-.262.165l-.814.378v1.346l1.21-.564c.306-.143.528-.201.664-.178.139.026.25.134.338.323.12.258.101.523-.056.793-.159.272-.425.497-.805.673-.419.197-.786.273-1.1.233l-.255-.066v.001a.74.74 0 0 1-.402-.397c-.082-.173-.103-.322-.058-.448.047-.126.161-.229.334-.311l.126-.059v-1.345L61.8 28.764c-.134.063-.229.091-.288.088-.064-.003-.123-.037-.187-.099l-.063-.077-.055-.097-.116-.146-.121.007-.07.081.003.107.066.113c.166.29.318.575.451.86.142.304.268.615.384.933l.042.116.076.063.107-.004.085-.086-.035-.183-.039-.1-.019-.093c-.012-.094.004-.166.041-.215a.755.755 0 0 1 .253-.164l.913-.425.031.018c.004.165.023.318.054.467.032.147.082.29.147.426.137.299.321.538.547.715v.001c.146.117.313.208.498.27.468.164.956.126 1.467-.112.198-.092.372-.197.521-.316v.002c.231-.185.403-.404.52-.654.191-.413.187-.83-.01-1.251a1.395 1.395 0 0 0-.314-.443z"/><path d="M66.496 22.452h-.001l.001.002zM33.798 9.115l.011.007.021.002c.171.013.288.05.349.113s.098.168.108.321l.305 4.392c.012.153-.011.263-.062.333-.052.071-.163.126-.33.161l-.039.006-.025.01-.017.005c-.176.038-.261.105-.256.199l.074.151.175.045.136-.021c.403-.072.809-.124 1.211-.151.403-.03.811-.037 1.216-.023l.148.003.165-.071.05-.167c-.007-.088-.099-.137-.277-.146l-.052-.006c-.202-.016-.335-.052-.398-.111-.065-.061-.103-.167-.114-.318l-.146-2.093.032-.104.105-.043 2.027-.142.104.028.042.1.146 2.092c.01.155-.012.264-.069.332-.056.066-.178.121-.368.165l-.051.014c-.176.033-.259.096-.255.183l.073.159.174.049.145-.024c.4-.07.804-.118 1.206-.146.403-.029.81-.037 1.214-.024l.146.004.166-.069.05-.162c-.005-.086-.094-.139-.262-.163L40.653 14l-.037.001-.034-.005c-.167-.013-.283-.051-.346-.115-.063-.061-.098-.167-.109-.319l-.306-4.393c-.01-.151.013-.261.063-.332.053-.071.165-.125.333-.162l.018-.004.012-.008.259-.085.041-.129-.07-.146-.173-.043-.141.02c-.399.066-.804.115-1.209.142-.404.029-.811.038-1.22.029h-.143l-.167.067-.049.162c.006.093.11.146.307.159l.013.004.011-.001c.193.014.322.047.389.11.063.061.104.166.113.321l.112 1.601-.027.104-.1.043-2.026.142-.11-.03-.047-.097-.114-1.592c-.011-.162.009-.274.064-.343.053-.072.18-.125.381-.165l.01-.001.014-.005c.193-.04.288-.106.281-.201l-.072-.154-.177-.043-.141.02c-.404.067-.81.114-1.211.142-.404.027-.813.037-1.222.027h-.137l-.166.07-.054.153.064.123.268.048zM66.495 31.473a2.015 2.015 0 0 0-.51.065c-.549.138-.948.433-1.197.885-.246.452-.294.979-.145 1.58.163.665.461 1.152.887 1.459.291.212.614.319.965.321.163.002.332-.02.508-.066.559-.138.959-.435 1.205-.89.245-.455.29-.992.135-1.611-.164-.65-.458-1.126-.885-1.431a1.642 1.642 0 0 0-.963-.312zm1.031 1.205c.276.083.443.249.507.501.068.275-.035.538-.313.79-.279.253-.682.446-1.213.577l-.012.004c-.407.1-.747.105-1.024.019-.28-.088-.451-.254-.513-.502-.069-.273.035-.536.313-.784.275-.25.677-.44 1.208-.573l.017-.004v-.001c.417-.101.76-.11 1.03-.027zM66.496 27.707h-.001l.001.001zM43.33 10.553l1.126-.432c.157-.059.261-.115.312-.166a.319.319 0 0 0 .096-.193.348.348 0 0 0-.064-.257.353.353 0 0 0-.24-.125.464.464 0 0 0-.247.041 1.277 1.277 0 0 0-.307.2l-.679.55-.49.396.346.043.147-.057zM43.002 14.827l.328.024v-.002l.357-.025c.209-.035.429-.104.651-.21a2.07 2.07 0 0 0 .352-.214c.084-.069.134-.129.139-.177l-.028-.101-.102-.05-.371.157c-.23.107-.461.145-.693.117l-.304-.067v.002a1.192 1.192 0 0 1-.592-.43c-.212-.285-.293-.63-.244-1.036l.024-.202.045-.104.118-.018.646.079v-.317l-.086-.011-.505-.062-.079-.027-.026-.047.002-.009.039-.129a.807.807 0 0 1 .319-.473.736.736 0 0 1 .339-.127l.195.001a.594.594 0 0 1 .391.195.48.48 0 0 1 .113.39c-.019.133-.084.224-.205.27-.104.041-.269.051-.492.03v.317l1.335.164a.539.539 0 0 0 .28-.021l.023-.016.071-.154a1.115 1.115 0 0 0-.071-.552 1.302 1.302 0 0 0-.278-.398c-.276-.277-.654-.446-1.131-.505l-.229-.02c-.537-.027-.989.086-1.367.348-.436.295-.681.723-.752 1.28-.069.554.065 1.028.399 1.428.328.393.793.63 1.389.702zM44.968 14.659l-.009.001-.07.097.016.106.063.061v.001h.002l.005.001.114.022c.321.057.638.125.95.207.321.089.637.188.946.303l.098.034.091-.018.054-.091-.008-.117-.162-.091-.101-.035-.062-.039c-.069-.052-.112-.109-.123-.168a.738.738 0 0 1 .037-.294l.437-1.628a.75.75 0 0 1 .12-.274c.045-.054.1-.072.163-.054.053.014.125.103.212.265l.052.094.149.167.208.099a.62.62 0 0 0 .481-.046l.012-.007a.603.603 0 0 0 .27-.383.55.55 0 0 0-.076-.466l-.193-.185-.261-.108a.851.851 0 0 0-.383-.015c-.13.024-.259.073-.39.15l-.106.071-.05.021-.04.001-.017-.023.008-.063.093-.341.01-.162-.098-.065c-.052-.014-.173.017-.37.091a2.575 2.575 0 0 1-.521.153l-.22.023-.294.001-.019-.001c-.19-.003-.296.035-.317.113-.018.066.028.123.14.172l.015.007.018.009.141.066.108.129-.024.24-.025.101-.413 1.528c-.039.147-.077.242-.117.283l-.182.078h-.086l-.088-.016-.185-.01v.004h-.003zM17.601 26.967c.018.063 0 .155-.055.275l-.021.044c-.062.133-.062.22-.002.262l.127.024.108-.086.039-.074.155-.285c.122-.217.258-.443.406-.673.203-.309.44-.65.709-1.024l.481-.673.07-.193-.112-.165-.473-.417-.103-.085-.083-.07-.111-.031-.086.064c-.04.062-.019.193.065.399l.127.343c.039.14.046.292.021.453a1.132 1.132 0 0 1-.167.443c-.114.173-.224.27-.336.287-.101.016-.237-.03-.408-.132v-.003l-.065-.041-2.242-1.457v1.469l1.781 1.156c.096.062.155.127.175.19zM51.881 13.454a2.46 2.46 0 0 0-.664-.364 2.534 2.534 0 0 0-.809-.165l-.284.006v.822l.164-.097.139-.108c.265-.201.47-.272.619-.213.095.036.153.098.169.185.019.089 0 .205-.055.353l-.181.468-.069.107-.1.042-.687.029v.345l.212-.037.305-.034.057-.003.045.01.027.037-.014.068-.212.557c-.076.2-.182.338-.316.412l-.106.042v-.001a.556.556 0 0 1-.352-.027.456.456 0 0 1-.27-.235.474.474 0 0 1 .011-.363.613.613 0 0 1 .281-.306 1.33 1.33 0 0 1 .329-.12v-.346l-.171.008c-.493.018-.855.077-1.078.178l-.234.154v.001a.82.82 0 0 0-.224.339.78.78 0 0 0-.003.623.7.7 0 0 0 .227.292v-.002l.229.126c.159.06.359.083.603.071a3.79 3.79 0 0 0 .652-.108v.001l.185-.05.042.017c.013.248.046.428.107.544a.555.555 0 0 0 .301.252c.228.087.479.103.749.048.269-.059.428-.14.47-.247l.002-.111-.063-.072-.131.014-.172-.002a.16.16 0 0 1-.113-.14c-.006-.068.022-.176.078-.329l.515-1.337.053-.141c.074-.2.12-.349.132-.446a.624.624 0 0 0-.038-.277 1.153 1.153 0 0 0-.357-.47zM58.912 22.601c.19.038.316.027.377-.031l.038-.112-.041-.116-.217-.087-.157-.059v.001l-.114-.08c-.066-.068-.072-.155-.018-.262l.13-.189v-.002l.243-.255.117-.115 1.179-1.105.082-.033.077.042.43.445.104.061.15-.104.099-.133-.062-.1-.435-.446-.036-.083.034-.079.474-.458.106-.142-.056-.113c-.061-.058-.203-.086-.433-.082a4.618 4.618 0 0 1-.52-.014 3.319 3.319 0 0 1-.624-.149c-.231-.075-.37-.091-.419-.044l-.03.104.099.147.119.123.041.115-.115.157-.632.578-.613.568-.09.094c-.332.318-.512.584-.541.795-.024.211.072.435.301.67.2.207.446.353.755.444l.198.049zM57.118 20.662l-.043-.065c-.041-.081-.058-.15-.044-.211.011-.061.065-.146.155-.253l1.726-2.059.884-1.052.156-.171.142-.154.073-.144-.057-.108-.347-.13a3.872 3.872 0 0 1-.59-.257l-.043-.025-.164-.097-.026-.017-.028-.015c-.218-.113-.357-.137-.413-.063-.047.054-.027.13.047.229l.092.131a.333.333 0 0 1 .029.208.571.571 0 0 1-.123.218l-2.289 2.727-.102.113v-.002l-.119.09a.296.296 0 0 1-.209-.005l-.073-.037-.071-.053-.175-.086-.104.059-.032.102.038.09.08.061c.226.158.446.323.669.5v.002l.176.148c.222.186.442.389.654.606l.081.081.118.049.096-.059.043-.11-.118-.158-.089-.083z"/><path d="M55.757 19.304c.038-.06.013-.128-.07-.203l-.013-.007-.074-.069-.045-.043-.059-.172c.006-.052.048-.14.123-.269l.534-.847.639-1.028.066-.101.077-.182-.075-.091-.069-.037a7.847 7.847 0 0 1-.636-.359l-.002-.002v-.001a8.43 8.43 0 0 1-.538-.364l-.063-.041-.114-.031-.084.069c-.048.077-.019.159.086.25l.012.006.075.06.061.069c.052.07.072.134.07.197-.004.061-.044.15-.115.269l-.776 1.244c-.183.29-.353.468-.513.534-.16.066-.338.037-.536-.085-.165-.102-.247-.237-.249-.41-.005-.17.069-.379.227-.628l1.032-1.653.042-.068.1-.21-.072-.096-.071-.04a7.33 7.33 0 0 1-.618-.348l-.359-.242-.186-.132-.117-.034-.084.068-.027.122.111.123.072.071.035.04.058.178a.825.825 0 0 1-.126.274l-.709 1.138-.158.247a2.32 2.32 0 0 0-.231.45.954.954 0 0 0-.048.338.92.92 0 0 0 .188.5c.112.164.272.309.472.433.214.133.44.219.678.261.237.041.475.034.714-.024l.036.033-.124.284-.035.164.072.09.266.058c.169.035.347.084.523.146l.045.02.156.061c.161.066.266.096.314.094l.112-.074zM37.638 65.524c-.575-.052-1.072.086-1.493.412a1.73 1.73 0 0 0-.702 1.271c-.042.476.08.882.365 1.228.288.348.663.541 1.126.581.239.022.461-.004.667-.071.205-.068.311-.144.317-.223l-.028-.107-.091-.047-.117.006-.122.005c-.315-.025-.57-.217-.771-.566-.2-.353-.277-.767-.235-1.241.023-.304.116-.534.277-.699a.685.685 0 0 1 .596-.216c.285.022.524.248.718.675.193.426.266.916.218 1.468a3.498 3.498 0 0 1-.642 1.751 3.656 3.656 0 0 1-1.472 1.211 3.915 3.915 0 0 1-.619.219c-.257.071-.391.151-.398.241l.046.11.129.056.307-.027.458-.104c.327-.098.63-.212.905-.336.273-.123.524-.261.748-.417.541-.366.964-.776 1.27-1.238a3 3 0 0 0 .527-1.438c.056-.653-.106-1.218-.491-1.7a2.036 2.036 0 0 0-1.493-.804zM48.223 69.504l-.015.003-.011-.005c-.14.007-.24-.009-.298-.042-.063-.034-.1-.093-.122-.178l-.18-.721-.002-.158.102-.076.514-.125.113-.07.004-.14-.038-.162-.063-.104-.111-.016-.52.13-.134-.004-.058-.115-.378-1.518-.021-.083-.041-.105-.052-.017-.171.054-.136.049-.294.142a2.19 2.19 0 0 0-.35.253l-.044.034c-.07.063-.097.119-.083.177l.321 1.29.002.165-.137.076-1.288.32-.062-.002-.032-.037-.002-.037.015-.057.186-.518c.081-.219.254-.616.513-1.188.258-.572.554-1.188.88-1.85l.166-.325c.123-.251.187-.395.175-.428l-.033-.041-.078.002-.216.059-.047.011-.07.028-.054.083-1.896 4.291-.061.203.013.192c.022.104.063.165.108.191.044.023.139.021.279-.017l1.629-.405h.123l.063.129.146.579c.04.156.047.266.023.337-.023.067-.09.132-.197.192l-.159.069-.021.011-.187.111-.016.128a.16.16 0 0 0 .118.124c.06.017.151.01.267-.019l.388-.112.633-.177.524-.116.445-.094c.119-.027.195-.064.228-.099l.024-.151-.077-.105-.247-.016zM43.682 65.537l-.38.042-.629.064-.994.084c-.536.05-1.057.067-1.568.062l-.149-.003-.132.045-.026.119.071.815c.011.132.032.216.061.248l.165.042.096-.013.709-.074 1.722-.149.248-.005.072.056-.016.144-.066.246-1.298 3.894-.015.056-.003.032.022.026.069.007.224-.021.117-.035.068-.123.461-1.46c.277-.874.599-1.75.962-2.622.364-.87.543-1.334.538-1.391l-.095-.074-.234-.012zM70.441 46.06a3.284 3.284 0 0 0-.826-1.101 3.008 3.008 0 0 0-1.188-.622c-.785-.212-1.504-.16-2.162.159l-.002.001h-.001l-.364.208c-.679.45-1.167 1.133-1.468 2.049v2.503l.095.063c.092.046.249.102.473.163l.122.033c.231.059.381.087.443.077.062-.009.101-.047.122-.117.021-.08-.071-.209-.279-.388l-.18-.157a1.798 1.798 0 0 1-.518-.783 1.525 1.525 0 0 1-.021-.885c.151-.573.536-.983 1.149-1.229.138-.055.278-.098.424-.13v.001c.509-.109 1.068-.082 1.683.081.803.211 1.416.586 1.836 1.116.421.523.554 1.076.399 1.654-.07.253-.182.462-.339.626a1.77 1.77 0 0 1-.652.409l-.258.085c-.231.068-.36.149-.39.245l.023.153.146.091c.235.063.46.103.675.119.213.017.342.008.379-.027.12-.093.264-.297.426-.613a5.47 5.47 0 0 0 .397-1.058c.137-.509.191-.988.168-1.44a3.53 3.53 0 0 0-.312-1.286zM64.032 49.834a.303.303 0 0 1-.052-.199l.015-.082.03-.088.034-.188-.086-.085-.106-.002-.075.061-.035.1c-.113.327-.242.658-.389.99a9.28 9.28 0 0 1-.404.794l-.057.102-.014.123.081.078.118.007.115-.153.057-.105.049-.059a.323.323 0 0 1 .195-.103c.061-.005.155.022.285.077l.635.284v-1.332h.001l-.14-.063c-.135-.056-.218-.109-.257-.157z"/><path d="M68.077 51.293l-.1.123-.191.083a.536.536 0 0 1-.247-.059l-1.278-.568-1.834-.819v1.333l1.834.816 1.243.552.207.101.189.098.161.029.084-.085.03-.368c.011-.223.036-.437.082-.636l.016-.049.048-.184.007-.029c.061-.26.045-.409-.042-.449-.064-.027-.136.009-.209.111zM64.43 58.024zM34.965 65.274l-.002-.115-.081-.053-.54.057c-.35.043-.708.066-1.072.076l-.414.002c-.375-.002-.575.051-.6.154l.023.12.117.073c.121.029.292.035.505.018.217-.021.36-.023.432-.002l.138.089c.018.044.012.122-.016.242l-.802 3.211c-.044.18-.095.296-.151.337-.059.044-.159.057-.305.035l-.138-.023-.128-.021c-.282-.053-.439-.015-.471.115l.028.149.19.094.704.156.728.162c.232.057.489.13.769.215l.494.149.205.007.09-.119c.027-.111-.077-.212-.312-.299l-.2-.074c-.123-.056-.204-.128-.239-.213-.033-.086-.031-.215.011-.385l1.037-4.157zM64.429 58.024l-.155.071-.127.083a.331.331 0 0 1-.21.031.551.551 0 0 1-.218-.123l-2.373-1.993v1.592l.27.227c.168.142.259.269.274.388.018.118-.037.251-.164.4a.765.765 0 0 1-.381.255v.002a1.009 1.009 0 0 1-.386.031c-.324-.031-.65-.187-.983-.466-.356-.3-.586-.613-.682-.946-.098-.333-.051-.612.139-.838.118-.139.254-.194.403-.166.155.028.357.151.617.366l.892.749v-1.594h.001l-.198-.165a5.451 5.451 0 0 1-.484-.458l-.244-.256-.112-.057-.092.05c-.035.045-.035.151-.001.311.037.164.032.273-.017.331a3.964 3.964 0 0 1-.44.271c-.27.155-.487.332-.656.531-.394.471-.577.987-.543 1.549.03.559.268 1.026.716 1.4.396.328.82.475 1.282.438.291-.022.55-.115.787-.275.139-.093.27-.212.391-.356.089-.104.165-.22.232-.347.066-.123.117-.255.161-.391l.036-.128.006-.022.021-.033.052-.022.064.033 1.017.852.163.145.166.15.143.074.109-.063.129-.346c.071-.212.158-.41.256-.591l.029-.047.088-.154.008-.019.018-.026v-.002l-.001.003-.003-.449z"/><path d="M64.502 58.048l-.07-.023v.445c.116-.221.141-.361.07-.422zM65.774 52.977l-.121.109-.07.077-.039.033-.18.058a.819.819 0 0 1-.273-.126l-.662-.415-.477-.3-.249-.152a1.982 1.982 0 0 0-.447-.232.893.893 0 0 0-.839.137c-.164.115-.31.275-.433.477-.134.212-.222.44-.263.678-.039.236-.033.473.024.71l-.033.04-.285-.123-.082-.025v.001l-.082-.011-.088.071-.057.266a4.255 4.255 0 0 1-.148.524l-.018.044-.063.157c-.068.16-.094.264-.092.314l.07.114c.063.04.129.016.206-.07l.005-.009.07-.078.043-.044.154-.06v-.001l.021.001c.054.006.141.048.268.125l1.878 1.174.102.063.18.08.09-.076.038-.069c.112-.218.229-.431.358-.638l.149-.229v.001l.216-.306.041-.059.03-.116-.067-.084c-.069-.044-.141-.022-.221.057v-.003l-.027.031-.007.011-.06.076-.068.063a.314.314 0 0 1-.199.065.688.688 0 0 1-.267-.116l-1.244-.777c-.29-.183-.468-.352-.534-.511-.068-.161-.036-.341.085-.537.101-.165.237-.247.405-.25.172-.004.383.071.633.228l1.283.802.368.228.067.045.209.096.1-.071.037-.071c.11-.215.224-.422.35-.62l.24-.354.134-.188.032-.117-.068-.082-.123-.036zM12.093 43.239l1.598-1.453.708-.644a1.13 1.13 0 0 0 .232-.255l.041-.182a.194.194 0 0 0-.101-.168c-.06-.037-.15-.05-.269-.042l-.611.042-1.599.11v.363l.372-.025.075.017.034.05-.015.048-.047.059-.421.391h.002l.001 1.689zM17.952 57.448l-.08.043-1.694.919-.07.026-.04-.017v-.035l.031-.051 1.853-2.509h.001v-.002l.71-.961a.91.91 0 0 0 .161-.304.305.305 0 0 0-.046-.229.272.272 0 0 0-.183-.125.958.958 0 0 0-.348.012l-.296.048v.003l-2.307.395v.503l.765-.13.131-.009.065.025-.001.068-.054.09-.906 1.195v2.862l.303-.215.214-.121.132-.072 1.66-.908v.001l-.001.001v-.503z"/><path d="M14.261 58.349l.077.213.176.258.29.438c.136.221.272.463.411.728l.073.138.137.117.159-.025.059-.073v-.107l-.037-.107-.001-.011-.051-.119-.03-.08c-.038-.129-.034-.234.01-.321l.113-.122v-2.863l-1.336 1.764-.05.172zM15.645 53.855l1.387-.883c.126-.077.233-.112.32-.105.085.006.179.063.276.164l.065.068.024.038.182.155.052.005v-.469c-.25-.325-.481-.658-.691-.993-.217-.35-.42-.712-.607-1.089l-.063-.132-.138-.113-.161.023c-.084.05-.088.156-.016.306l.018.029.015.059c.071.145.095.263.071.355-.025.093-.106.182-.243.274l-.493.328v1.979h.002zM31.906 15.684l.205-.066.075-.083v-.112c-.014-.037-.105-.056-.27-.065a.768.768 0 0 1-.429-.153l-1.16-.896a1.107 1.107 0 0 0-.407-.207 1.114 1.114 0 0 0-.464.001c.366-.246.617-.504.747-.776a.917.917 0 0 0 .021-.807c-.149-.337-.393-.536-.73-.598-.297-.055-.652 0-1.072.165h-.001l-.176.075-.697.329-.809.381-.097.042v.001l-.343.141-.248.098-.193.128-.009.148c.03.068.125.083.288.039l.021-.005c.128-.035.22-.039.282-.011.061.03.115.096.163.203l.04.091v-.001l1.327 2.979c.049.109.065.194.047.257-.021.063-.084.128-.194.198l-.023.014-.018.014-.011.008c-.117.073-.165.144-.132.211l.094.084.137-.01.099-.055.454-.245.354-.169c.279-.123.563-.233.854-.329l.107-.035.094-.091-.008-.134c-.027-.06-.107-.073-.232-.034l-.04.01c-.141.039-.242.045-.305.019-.063-.027-.117-.093-.164-.198l-.612-1.373-.005-.079.061-.056.065-.028a.388.388 0 0 1 .294.001c.108.038.234.118.376.237l1.306 1.093.193.118.192-.033.297-.148.299-.148.357-.14zm-2.816-1.819c-.104.232-.299.413-.581.538l-.093.032-.112-.007c-.044-.025-.101-.122-.175-.29l-.363-.813c-.089-.2-.118-.345-.094-.436.023-.091.11-.168.253-.232a.807.807 0 0 1 .493-.06l.173.054a.916.916 0 0 1 .494.496.836.836 0 0 1 .005.718zM12.092 44.561l-.001-.369h.001v-.002l-.931.068-.082-.009-.024-.023.008-.038.032-.035.999-.908v-.003l-.002.003V41.55l-1.972 1.835-.109.131-.016.139.008.071.05.541c.018.263.026.525.028.775l.001.079.051.116.117.039.101-.041.026-.17.005-.097.007-.067a.221.221 0 0 1 .136-.18c.075-.038.219-.067.433-.081l1.134-.079zM11.183 47.287a2.6 2.6 0 0 0-.196.94c-.008.335.041.671.149 1.004.115.347.271.658.473.92.143.188.304.353.482.493v-.707a1.101 1.101 0 0 1-.65-.708c-.135-.414-.036-.825.296-1.226a2.49 2.49 0 0 1 .354-.349V46.16a2.426 2.426 0 0 0-.908 1.127zM11.836 53.851l-.069-.101-.01-.006c-.104-.13-.196-.172-.277-.122-.063.038-.094.088-.099.148-.003.063.022.134.077.221l.198.284.275.406.158.263v-.906l-.167-.092-.086-.095z"/><path d="M13.691 53.181l-.939.623-.076.047c-.191.121-.342.186-.453.198l-.13-.008v.907l.043.07.196.333c.085.137.155.225.211.263a.235.235 0 0 0 .196.04l.953-.16h.001l1.953-.329h-.003v-.503l-1.44.247-.085.004-.03-.01.009-.05.058-.048 1.492-.95v-1.979l-1.954 1.299v.005h-.002zM23.749 20.017l-.034.021c-.13.08-.228.117-.295.109-.069-.008-.139-.056-.212-.145l-2.17-2.587c-.075-.089-.112-.167-.108-.234.004-.067.057-.158.161-.272l.005-.005.004-.009c.103-.112.13-.195.085-.25l-.114-.063-.128.052-.076.074-.161.158v2.065l1.554 1.853c.075.09.112.167.111.235 0 .066-.043.15-.131.247l-.021.023-.015.017-.006.01c-.092.103-.116.184-.07.237l.117.061.126-.052.074-.072c.218-.226.445-.439.68-.637.237-.198.485-.384.741-.56l.093-.065.071-.117-.043-.126c-.046-.052-.124-.042-.238.032zM20.703 16.864v-.002a7.792 7.792 0 0 1-.525.472c-.238.2-.484.387-.741.564l-.084.063-.073.116.035.119.094.047.184-.086.01-.002.018-.011c.111-.069.199-.097.265-.087.067.012.137.062.212.15l.604.721.001-2.064zM27.175 17.033l-.049-.117-.032-.071-.125-.106-.14.02c-.06.037-.091.148-.091.331 0 .183-.01.33-.03.447l-.069.211v.001l-.128.216c-.104.14-.234.255-.39.353-.233.146-.416.203-.549.174-.136-.029-.298-.197-.489-.503l-.575-.918-.016-.076.055-.072.079-.063.075-.054.117-.075c.154-.096.282-.147.386-.156a.664.664 0 0 1 .357.1l.139.085c.142.096.251.12.326.072l.083-.111-.079-.189-.138-.204-.258-.392a4.324 4.324 0 0 1-.241-.444l-.027-.059-.105-.089-.122.02c-.064.041-.089.132-.068.276l.022.339a.369.369 0 0 1-.116.211 2.214 2.214 0 0 1-.387.284c-.125.077-.217.12-.279.125-.063.007-.113-.021-.147-.077l-.56-.901c-.082-.129-.096-.245-.046-.348.053-.104.175-.216.376-.341.165-.104.319-.172.461-.202a.718.718 0 0 1 .385.013l.24.095c.188.082.313.102.375.066l.076-.096-.071-.171-.403-.646-.088-.072-.17.075-.633.428c-.402.276-.805.538-1.205.788-.352.221-.705.421-1.057.601l-.1.054-.101.114.019.131c.039.063.136.062.29-.007l.048-.022c.135-.061.236-.084.305-.067.07.016.133.073.197.172l1.781 2.851c.061.097.083.18.069.249-.017.07-.082.15-.199.242l-.046.042c-.118.105-.158.19-.118.255l.105.068.147-.042.11-.08c.328-.248.667-.481 1.02-.703.42-.262.843-.508 1.267-.74l.5-.265.178-.098.122-.143-.027-.203-.236-.586z"/><path d="M20.702 18.929h.001l-.001-.001zM21.631 21.04l-.087-.099-.073-.079-.105-.048-.094.052c-.048.054-.046.188.01.403l.075.358c.02.143.005.292-.044.451a1.12 1.12 0 0 1-.226.412c-.136.157-.262.237-.375.237h-.008c-.113-.003-.257-.081-.435-.234l-2.318-2.015v-.003l-.04-.034c-.086-.075-.132-.15-.136-.222-.003-.071.042-.175.135-.316l.007-.009.006-.006.027-.044v.001c.07-.118.076-.199.025-.242l-.025-.021v-.001l-.096-.021-.125.084-.094.125a10.652 10.652 0 0 1-1.226 1.406l-.075.074-.054.126.054.112.101.031.171-.12.011-.003.011-.008c.1-.086.182-.127.25-.127.068.001.144.039.231.115l.842.731v.003l1.696 1.476c.087.074.135.147.146.213.012.065-.02.154-.091.264l-.025.04c-.079.124-.09.21-.037.259l.122.042.118-.071.049-.069c.2-.283.43-.572.688-.87l.086-.098c.224-.251.475-.525.758-.817l.569-.6.099-.18c.003-.049-.024-.107-.088-.178l-.41-.48zM20.417 56.792a5.554 5.554 0 0 1-.321-.461l-.25-.445-.151-.301a.372.372 0 0 0-.161-.157.163.163 0 0 0-.168.018l-.072.118.09.24.023.049c.069.16.099.273.091.351-.013.117-.082.235-.211.36-.129.124-.381.303-.756.539l-.366.223-.211.12v.003l.001-.002v.501l1.451-.794c.224-.124.383-.188.475-.188.092.001.206.068.339.207l.051.049.022.03.166.142.132-.029.072-.135-.061-.196-.185-.242z"/></g><path fill="#00549D" d="M56.324 62.854h-3.075l-1.458 2.62 3.072-.06 1.461-2.56zm-32.646 0h3.073l1.459 2.62-3.074-.06-1.458-2.56z"/><path fill="#FFF" d="M32.497 24.526c8.546-4.143 18.833-.574 22.975 7.972 4.145 8.545.576 18.829-7.969 22.974-8.546 4.145-18.832.576-22.976-7.97-4.145-8.545-.574-18.831 7.97-22.976z"/><path fill="#00549D" d="M37.839 22.951L23.785 34.288a17.181 17.181 0 0 0-.828 7.919l22.812-18.4a17.191 17.191 0 0 0-7.93-.856zM51.512 27.236L25.1 48.542a17.094 17.094 0 0 0 3.553 4.383l26.362-21.261a17.096 17.096 0 0 0-3.503-4.428zM57.045 37.796l-22.81 18.398a17.156 17.156 0 0 0 7.931.854L56.211 45.72a17.149 17.149 0 0 0 .834-7.924z"/></svg>