<svg xmlns="http://www.w3.org/2000/svg" id="Calque_1" viewBox="0 0 80 80"><style>.st0{fill:#ec1c24}</style><path d="M36.6 62.2l-.4.1-.1-.4.7-.2h.4v2.5h-.5v-2zM39.1 63.1c-.1.1-.3.2-.5.2-.5 0-.9-.3-.9-.8s.4-.9.9-.9c.3 0 .5.1.7.3.2.2.3.4.3.9 0 .8-.4 1.3-1.1 1.3-.4 0-.6-.1-.8-.3l.3-.4c.2.1.3.2.5.2.5.1.6-.3.6-.5zm0-.6c0-.2-.2-.4-.4-.4-.3 0-.4.2-.4.4s.2.4.4.4c.3-.1.4-.2.4-.4zM40.1 63.7l.4-.4c.2.2.3.3.6.3.2 0 .3-.1.3-.3 0-.2-.2-.3-.5-.3h-.2l-.1-.3.6-.6h-1v-.5h1.7v.4l-.6.6c.3.1.7.2.7.7 0 .5-.3.8-.9.8-.5.1-.8-.1-1-.4zM43.5 62.1h-1.2v-.5h1.8v.4L43 64.1h-.6l1.1-2zM47.3 50.9c-1.5 0-2.8 1-2.8 2.1v5.8c2.4-.5 4.2-1.4 5.6-2.4V53c0-1.1-1.2-2.1-2.8-2.1zM26.2 45c0-.8.6-1.5 1.5-1.5s1.5.7 1.5 1.5-.6 1.5-1.5 1.5-1.5-.7-1.5-1.5zm2.5 0c0-.6-.4-1-1-1s-1 .5-1 1c0 .6.4 1 1 1s1-.4 1-1zM30.2 43.6h.5V46h1.5v.5h-2v-2.9zM33.4 45.3l-1.1-1.7h.6l.8 1.3.8-1.3h.5l-1.1 1.7v1.1h-.5v-1.1zM35.8 43.6h.5l.9 1.4.9-1.4h.5v2.9h-.5v-2.1l-.9 1.4-.9-1.3v2h-.5v-2.9zM39.8 43.6h1.1c.7 0 1.1.4 1.1 1s-.5 1-1.1 1h-.6v.9h-.5v-2.9zm1.1 1.4c.4 0 .6-.2.6-.5s-.2-.5-.6-.5h-.6v1h.6zM42.9 43.6h.5v2.9h-.5v-2.9zM46.8 46.2c-.2.2-.5.3-.9.3-.9 0-1.5-.7-1.5-1.5s.6-1.5 1.5-1.5 1.5.7 1.5 1.5c0 .3-.1.6-.3.9l.3.3-.3.4-.3-.4zm-.4-.3l-.5-.4.3-.4.5.5c.1-.2.1-.3.1-.5 0-.6-.4-1-1-1s-1 .5-1 1c0 .6.4 1 1 1 .3-.1.5-.1.6-.2zM48.3 45.2v-1.6h.5v1.6c0 .5.3.8.7.8.4 0 .7-.3.7-.8v-1.6h.5v1.6c0 .9-.5 1.3-1.2 1.3s-1.2-.5-1.2-1.3zM51.9 43.6H54v.4h-1.6v.7h1.4v.5h-1.4v.8H54v.5h-2.1v-2.9zM24.5 36.6v4.3h-1.8v-6.5l-.6-.8v-.1h2.1l3.7 4.7v-4.7h1.8v7.4h-1.8l-3.4-4.3zM46.6 40.8v-7.4h4.8v1.5h-3v1.4h2.8v1.5h-2.8v1.5h3v1.5h-4.8zM57.5 35.3c-.4-.3-1.2-.5-1.8-.5-.7 0-1 .3-1 .7 0 .2.2.5.6.7l1.1.6c1.1.6 1.5 1.2 1.5 2.1 0 1.2-.9 2.2-2.8 2.2-.8 0-1.6-.2-2.1-.4V39c.5.3 1.3.6 2.1.6.7 0 1-.3 1-.7 0-.3-.2-.5-.7-.7l-1.2-.6c-1.1-.6-1.5-1.2-1.5-2 0-1 .8-2.2 2.9-2.2.6 0 1.3.1 1.8.3v1.6zM42.4 33.4l-2.3 5.5-2.4-5.5H35v.1l.5.8v6.5h1.8V36.2l2 4.6h1.5l2-4.6v4.6h1.8v-7.4zM31.7 33.4h1.8v7.4h-1.8v-7.4zM32 31h1.2l1.7 1.7h-1.4l-.9-.9-.9.9h-1.4L32 31z" class="st0"/><path d="M40.1 17.9c3.6 0 15.6.5 20 1.3.6-.6 1.4-1.4 1.9-2.8.3-.7-2.8-2.4-3.3-2.4-.3 0-2.2.9-5.2.8-3.2 0-6.8-.1-8.8-.4-2.1-.3-4-1.3-5.4-2-1.4-.7-2.6-1.3-3.3-1.3-.6 0-2.1.8-2.7.8-.2 0-2.9.3-6.2 1l-3.3-.7-2 2-3.4.1-2 2.2-2.3.8s-.6 1.7-.6 3.1c0 2.5.8 5.7 12.7 7 3.5.4 8.1.6 13.9.6 11 0 21.3-1.4 25.3-3.1-.8 32-19.5 39.9-25.3 43.4C34.7 65 17.1 57.1 14 32h-.2c2 20 12.7 33.4 26.3 41.2 15-8.6 26.6-24.1 26.6-47.7v-4.3c-2.7 2.2-14 5.3-26.6 5.3-5 0-9.1-.2-12.4-.6-3-.9-5.3-2.5.7-3.6C35.5 21 48.3 21 58.6 22c-11-1.6-25.5-2.6-33.5-.5-3.7 1-4.4 2.2-3.8 3.3-9.1-2.5-2.6-6.9 18.8-6.9M34 13.5l1.2-.5c.3-.1.7-.1 1.1 0l4.5 2-4.6.3c-.4 0-.9-.1-1.2-.3l-1.1-.7c-.4-.1-.3-.6.1-.8z" class="st0"/><path d="M40.1 50.9c-1.5 0-2.8 1-2.8 2.1v6.1c.9.1 1.8.2 2.8.2 1 0 1.9-.1 2.8-.2v-6c0-1.2-1.3-2.2-2.8-2.2zM32.8 50.9c-1.5 0-2.8 1-2.8 2.1v3.5c1.4 1 3.2 1.8 5.6 2.3V53c0-1.1-1.3-2.1-2.8-2.1z" class="st0"/></svg>