<svg xmlns="http://www.w3.org/2000/svg" width="80" height="80" viewBox="0 0 80 80"><g fill="#FFF"><path d="M66.569 63.224c-.897-.046-1.773-.314-2.569-.724-.576-.295-.056-.846.128-1.37.19-.534.353-1.078.462-1.634.201-.799-.649-.78-1.082-.557-.651.667-1.504.898-2.416.797-1.693-.196-3.224-.94-4.942-.348-1.367.471-1.9 1.741-1.932 3.106-.722-.1-1.444-.413-1.897-1.006.535-.049 1.193-.352 1.5-.803.42-.617-.241-1.138-.85-1.072.021-.134-.006-.299.04-.424.026-.583-.162-1.173-.479-1.669-.406-.644.815-.781.383-1.535-1.181-.878-.784-1.916-.423-3.13.848 1.001 2.121-1.64 2.511-2.116a15.053 15.053 0 0 0-1.047 4.789c-.028.665-.263 4.128 1.083 3.643.53-.192.374-.811.452-1.251.111-.654.371-1.271.687-1.85.705-1.322 1.678-2.467 2.579-3.652 2.095-2.761 4.364-5.408 6.016-8.473 1.565-2.903 2.678-6.069 3.163-9.337.857-5.757-.267-11.897-4.54-16.091-3.005-2.945-7.323-4.624-11.479-5.093-.949-.108-2.103-.194-2.972.291-1.012.568-.887 1.592.283 1.758 2.032.29 1.31 3.117 1.142 4.503l-.217 1.811c-.081.682-.488.466-1.097.48-.912.023-1.827-.077-2.501-.76.472-.416.325-.874-.073-1.286-.744-.763-.805-1.491-.692-2.534l.194-1.426c.022-.197-.172-1.478-.168-1.483.605-.563-.208-1.521-.602-1.948.763-.186.452-1.141-.139-1.24.506-.057.953-.481.596-.981-.399-.558-1.181-.373-1.759-.504.465-.554.02-1.287-.7-1.085.157-.472.171-.889.57-1.146.438-.281.546-.815.325-1.273-.176-.365-.539-.653-.954-.655-.4-.002-.316.235-.553-.148a1.15 1.15 0 0 0-.877-.549 1.123 1.123 0 0 0-1.104.684c.154-.317.241-.713.087-1.074-.517-1.247-2.42-.405-1.973.805l.112.32a1.057 1.057 0 0 0-1.352-.556c-.295.11-.535.34-.654.633a1.057 1.057 0 0 0-.816-.045c-.481.174-.847.687-.831 1.203.02.636.64.625.817 1.07.18.627.314 1.611.942 2.002-.999-.038-1.81.508-2.201 1.418-.834.305-1.702 1.181-2.049 1.99-.29.675.066 2.209.868 2.454.579.179 1.304-.416 1.911-.423-.445.377-2.18.816-1.337 1.668.466.471 1.357.837 2.021.857-.447 1.072-3.511 1.275-2.514 2.731.271.397.47.283.063.709-.035.037-.502.55-.56.55h-3.192c-.517 0-.626-4.744-.481-5.315.218-.859.81-1.462 1.697-1.608 1.412-.234.08-1.604-.699-1.742-1.076-.19-2.329.015-3.399.147-1.8.22-3.575.667-5.255 1.355-2.663 1.089-5.013 2.81-6.732 5.127-3.618 4.87-3.951 11.371-2.496 17.084 1.619 6.35 5.597 11.174 9.513 16.251.767.989 1.528 2.027 2.021 3.188.262.617.185 2.696 1.205 2.463.997-.229.742-3.154.69-3.897a15.144 15.144 0 0 0-1.05-4.56c.356.435 1.818 3.188 2.546 2.073.278 1.137 1.018 2.461-.025 3.429-.829.77.515 1.2.228 1.587a3.037 3.037 0 0 0-.552 2.268c-.655-.086-1.27.498-.802 1.111.34.445.907.7 1.453.757-.514.691-1.41 1.026-2.252 1.026 0-1.011-.016-2.216-.81-2.962-.997-.943-2.582-.938-3.838-.703-1.447.268-2.998.775-4.328-.139-.355-.244-.687-.678-1.16-.323-.596.446.101 1.717.269 2.257.163.521.714 1.136.072 1.348-.462.155-.94.269-1.409.411-.406.123-1.968.502-1.687 1.199.963 2.4 4.899 2.349 6.967 2.344-.146 1.315-.003 2.657.996 3.614 1.245 1.199 3.157 1.787 4.784 2.214 4.375 1.146 9.079 1.465 13.585 1.52 4.496.054 9.005-.288 13.428-1.103 1.979-.363 4.023-.897 5.78-1.909.767-.44 1.604-1.056 1.924-1.916.289-.777.09-1.621.004-2.415 1.944.004 4.063.031 5.657-1.232.824-.651 2.218-1.882.379-1.99l.385.02zm-18.583-1.533c-1.485.203-2.097 2.113-1.424 3.325a74.253 74.253 0 0 1-12.775.046c.368-1.167-.316-2.743-1.626-2.894a1.34 1.34 0 0 0 .348-.43c.241.085.509.113.761.109.503-.01.951-.257.74-.823a29.774 29.774 0 0 0 3.201 2.509c.8.545 1.779 1.611 2.827 1.555.997 0 1.995-.994 2.727-1.569 1.134-.885 2.288-1.72 3.351-2.702.034.497.53.603.939.569.576-.043.553-.075.931.305zM43.668 6.056l-.005-.001.005.001z"/></g><path fill="#B99C65" d="M46.058 22.268c-.36-.4-.7-.692-1.125-1.029.426.054 1.099.092 1.371-.332a3.423 3.423 0 0 1-.936-1.454c-.358-1.1-.207-2.291-.171-3.425l.24.296c-.042-.697-.583-1.388-.459-2.093.161 0 .313.03.461.09-.276-.931-1.232-1.231-1.725-1.999.448-.08.947-.167 1.406-.101-.474-.064-1.318-.918-1.781-.718.62-.271 1.277-.446 1.932-.61-.283-.12-2.353-.545-2.506-.292.217-.371.574-.637.783-1.016-.929.284-1.753.546-2.73.563-.844.014-1.782.014-2.508.508.534-.604-.583-.056-.897.031-.435.119-1.025.178-1.405.432-.513.341-.596.951-1.175 1.275-1.513.845-1.905 1.936-.933 3.345.602-.616 1.397-.657 2.211-.649.458-.132.988.083.634.508-.659.795-1.09 1.161-2.105 1.338.656.588 1.553.851 2.405.559-.192 1.667-1.404 2.552-3.014 2.689a2.172 2.172 0 0 0 1.407 1.357 8.462 8.462 0 0 0-1.865 1.545H46.34c.161 0 .566-.188.664-.32l-.946-.498z"/><path fill="#231F20" d="M66.807 63.736c-.372-.762-3.884-.613-3.431-1.586.336-.721.674-1.475.844-2.251.297-1.351-.674-.379-1.295-.092-1.835.85-3.923-.412-5.866-.203-.742.082-1.632.276-2.131.885-.581.703-.288 2.081-.288 2.9.35-.072.61-.259.497-.64 1.281.263 2.138-1.069 3.357-1.136-1.53 1.751-4.027 2.399-6.202 2.894-3.078.7-6.21 1.019-9.36 1.113-5.942.18-12.267.195-17.917-1.888.531-.107.37-2.731-.051-3.244-.686-.835-2.059-.94-3.054-.924-1.256.019-2.429.572-3.687.53-.822-.026-1.565-.357-2.17-.908-.439-.516-.416.563-.383.712.193.882.584 1.755.992 2.556-.868.592-2.047.553-2.97 1.039-1.243.655.78 1.693 1.354 1.938 1.589.678 3.372.643 5.067.618-.099.903-.225 1.909.131 2.776.427 1.043 1.517 1.62 2.484 2.065 3.08 1.423 6.649 1.824 9.992 2.165 3.755.385 7.537.417 11.307.251 3.509-.153 7.075-.435 10.492-1.292 1.944-.489 5.807-1.559 5.479-4.252-.496.07-.443.028-.519.484a1.998 1.998 0 0 1-.291.738c-.368.572-.958.973-1.553 1.28-1.271.666-2.7 1.016-4.099 1.305-4.717.967-9.547 1.373-14.359 1.329-4.763-.044-9.658-.365-14.253-1.702-1.545-.449-3.978-1.202-4.458-2.962-.464-1.7.287-3.463.416-5.151 1.806 2.207 4.854 2.937 7.535 3.393 3.81.647 7.669.891 11.53.891 3.752 0 7.5-.234 11.211-.838 2.776-.452 5.974-1.154 7.848-3.447.122 1.586.259 3.179.494 4.754l.498-.073a41.028 41.028 0 0 1-.218-1.716c1.056.015 7.95-.409 7.027-2.311zm-11.688-2.27c.229-1.354 2.097-1.503 3.174-1.431 1.859.123 3.533 1.015 5.302-.035-.125 1.826-2.872.994-3.954.799-.872-.159-1.794-.333-2.683-.205-.391.055-.778.184-1.085.444-.367.313-.354.627-.754.428.202-1.194.122.062 0 0zm2.237-.706c-.556.26-1.015.787-1.658.83.333-.58 1.036-.775 1.658-.83-.072.056-.149.07-.219.039l.219-.039c-.544.256-.391.036 0 0zm1.078.616c-.488.015-3.704 2.012-3.299.639 1.369.458 2.392-1.16 3.742-1.043-.096.438-.416.404-.443.404zm-37.926-.075c-.071.989-.14 1.98-.224 2.97l-.118 1.274c-.469.008-.938.017-1.405.01-1.746-.021-3.601-.26-4.932-1.5a7.181 7.181 0 0 0 3.147-1.209c.594-.415-.173-1.283-.346-1.776 1.261.614 2.611.115 3.888-.149l-.01.38zm.165-.698c-1.091.453-4.243 1.382-4.38-.603 2.424 1.436 4.963-.732 7.445.307.427.179.814.479.973.932.285.803-.859-.225-1.038-.325-.727-.408-2.26-.976-3-.311-1.062.441.127-.114 0 0zm3.683 1.976c-.599-.007-1.208-.535-1.7-.819-.549-.316-1.499-.24-1.644-.79 1.352-.115 2.373 1.501 3.742 1.043.158.541-.285.566-.398.566zm.398.17v.883c-1.21-.467-2.479-1.027-3.355-2.021 1.216.07 2.24 1.366 3.355 1.138zm-2.219-1.989c.623.056 1.323.25 1.656.83-.313-.022-.597-.169-.858-.336-.091-.057-1.12-.709-.58-.455-.071.031-.144.016-.218-.039.622.055.205.097 0 0zm29.789 5.314c-6.337 1.32-13.019 1.354-19.444.785-2.672-.235-5.371-.643-7.929-1.474-1.548-.503-4.118-1.483-3.98-3.512 1.779 2.149 4.898 2.824 7.501 3.332 3.783.74 7.625.943 11.476.943 3.751 0 7.492-.206 11.188-.883 2.696-.495 5.944-1.172 7.784-3.393.058.837.018 1.048-.589 1.596-.608.553-1.329.982-2.067 1.333-1.688.808-3.502 1.163-5.317 1.557.893-.195 1.789-.371 2.681-.557l.024-.005c-.241.206-1.037.217-1.328.278-4.903 1.022 4.639-.965 0 0zm13.091-1.516c-1.358.883-3.014 1.005-4.592 1.001l-1.097-.014c-.057-.559-.112-1.116-.161-1.678a50.897 50.897 0 0 1-.195-2.947c1.278.265 2.63.766 3.889.149-.171.493-.943 1.361-.348 1.776a7.2 7.2 0 0 0 3.148 1.209c-.274.257-.585.457-.894.665l.25-.161z"/><path fill="#B99C65" d="M57.412 64.222c-.143-1.673-2.071-.981-3.139-1.091-1.418-.145-2.548-1.022-2.929-2.404.789.302 1.479.128 2.035-.465-.735-.021-1.539-.05-1.764-.904.301-.068.571.151.751.362.206-1.155-.212-1.906-1.086-2.615.486-.093.818-.466 1.139-.808-.604.123-1.237.063-1.529-.558.331.219.734.219 1.111.259-1.409-1.378.371-3.255.087-4.9l-3.203 4.283-1.766 2.362-.338.455c.054-.071.507.863.514.956.058.59-.243 1.13-.507 1.628.534-.024.952-.168 1.376-.505-.048.676.25 1.085.933 1.181-.147-.264.078-.635.19-.869.208.569.136 1.063.065 1.655.201-.363.609-.467.69-.922.193.453.493.968-.109 1.263-.658.322-1.266-.374-1.909-.244-1.574.32-1 2.16-.434 3.029-.122-.393-.554-1.46.151-1.609-.41.733 1.144.921 1.483.874 1.025-.135 1.286-.233 1.787.787.192.396.279.864.636 1.163.239.203.609.08.784.221.664.561-.787 1.448-1.102 1.578 1.031-.066 1.787-.506 2.105-1.55.167-.543.138-1.219-.309-1.626-.289-.266-1.062-.377-1.161-.796-.11-.444.808.459.813.47.388.41.922.632 1.329 1.021.679.653-.164 2.736 1.278 2.714-.017.684-.8 1.038-1.321 1.279.756.086 1.365-.163 1.813-.789.347-.489.286-1.125.629-1.56.378-.467-.555-1.356-.758-1.813-.333-.749-.725-1.072-1.398-1.506.434.137.893.439 1.367.375.457-.063.219-.711.64-.595 1.008.282-.082 1.771-.438 2.075.829-.405 1.584-.855 1.492-1.914v.051h.002zM32.629 61.098c.263.118.547.146.831.166-.423-.819-.735-1.525-.183-2.357-.009-.125-.238-.362-.305-.466l-1.705-2.62-3.005-4.617c-.646 1.765 1.48 3.783-.013 5.273.377-.036.775-.04 1.107-.255-.296.621-.917.673-1.527.555.327.361.644.715 1.14.807-.892.706-1.262 1.467-1.088 2.618.185-.211.455-.425.758-.36-.194.868-1.051.877-1.763.904.596.646 1.214.662 2.035.467-.565 1.997-2.354 2.488-4.211 2.367-.893-.062-1.775.073-1.87 1.157-.088 1.002.734 1.457 1.5 1.835-.466-.403-1.229-1.329-.614-1.971.405-.419.398.171.58.374.359.404 1.233-.141 1.6-.261-.698.435-1.079.778-1.413 1.548-.213.49-1.126 1.245-.733 1.781.303.412.253.982.545 1.442.439.688 1.081.976 1.884.892-.517-.241-1.314-.597-1.321-1.279 1.36.051.691-1.91 1.164-2.578.327-.46.934-.684 1.347-1.058.219-.201.491-.799.869-.69.381.111-.752.665-.752.665-.484.257-.771.689-.773 1.239-.01 1.333.99 2.1 2.205 2.184-.651-.265-1.332-.71-1.137-1.547.104-.155.688-.095.897-.316.262-.282.372-.654.511-.997.489-1.196.881-.915 1.981-.874.328.012 1.712-.214 1.336-.889.656.3.303 1.116.148 1.611.55-.824 1.164-2.788-.451-3.026-.615-.09-1.167.49-1.796.282-.708-.231-.411-.824-.201-1.301.071.452.485.555.687.918-.071-.588-.141-1.095.066-1.662.111.238.333.605.192.875.684-.095.973-.522.932-1.185l.546.349z"/><path fill="#231F20" d="M30.162 71.157c-.87-.139-1.069.049-.933-.824l.375-2.384c1.023.162 2.323.229 2.362 1.566.031 1.071-.75 1.811-1.804 1.642m.044-.529c.689.111 1.121-.331 1.143-1.001.026-.783-.582-.963-1.227-1.063-.248.174-.261 1.665-.314 2.002l.545.087-.147-.025zm3.614.977l-1.653-.168.292-2.877c.037-.373.652-.121.956-.091.586.061.805-.055.662.609-.879-.09-1.04-.318-1.134.591l1.061.108c.009.154-.014.38-.055.53l-1.062-.109c-.013.136-.143.754-.017.766l1.002.101c-.015.175-.008.373-.052.54zm.445-.922c.615-.14.383.215.699.459.211.164.526.035.6-.206.136-.454-.457-.545-.721-.707-1.533-.949 1.325-2.741 1.325-.721-.522.109-.398-.147-.662-.348-.21-.164-.489-.027-.521.231-.054.439.594.46.846.642 1.484 1.071-1.678 2.852-1.566.65"/><path fill="#231F20" d="M37.083 71.803c-.781-.03-.598-.139-.57-.891l.081-2.19c-.002.056 2.689-.12 1.734 1.458-.281.461-1.194.273-1.207.624l-.038.999zm.063-1.703c.847.031.873-.788.03-.838l-.03.838zm2.223-1.61c-.444-.013-.614-.421-.888-.753.62.005.578.204.888.753zm-.668 3.359l.031-1.996c.013-.807-.23-1.089.621-1.072l-.033 1.995c-.015.804.227 1.088-.619 1.073zm3.764-.005l-.577.012-.051-2.625c-.165.043-.367-.007-.536.011-.231-.711.657-.468 1.109-.48l.055 3.082zm2.148-.082l-.627.032.643-1.086c-1.472.35-1.569-2.114-.098-2.082 1.995.043.547 2.349.082 3.136zm.413-2.061c-.034-.665-1.004-.688-1.006-.002.001.7 1.046.695 1.006.002m.926-.025c-.063-.669.311-1.193 1.005-1.243.955-.072 1.112.737 1.186 1.477.076.799.045 1.693-.999 1.718-1.137.028-1.109-1.135-1.192-1.952zm.6-.064c.036.353-.037 1.075.252 1.352.46.502.812-.238.775-.616-.033-.332-.019-.718-.113-1.04-.19-.636-.968-.267-.914.304M50.627 71.102c-.159.058-.359.059-.521.086l-.074-.465-1.332.213c-.277-.835.548-1.957.869-2.701.214-.495.599-.078.647.237l.266 1.664.255-.039c.255.607-.359.425-.11 1.005zm-.674-.884l-.204-1.27-.605 1.396.809-.126zM57.843 26.652c-.362-1.263-1.082-2.494-1.614-3.696-.237-.538-.65-.419-1.163-.419h-30.58c-.75 0-.929 1.031-1.187 1.621-.561 1.287-1.078 2.241-1.112 3.636a54.006 54.006 0 0 0 .369 7.565c.797 6.869 2.802 13.751 6.65 19.553 1.748 2.636 3.874 5.017 6.343 6.996a29.58 29.58 0 0 0 3.91 2.646c.949.536 1.7-.314 2.528-.854 6.392-4.169 10.732-10.662 13.164-17.813 2.131-6.268 2.692-12.67 2.692-19.235zm-4.93 18.443c-1.696 5.428-4.49 10.667-8.901 14.365-1.1.921-2.287 1.74-3.542 2.433-.614.34-.325 1.539-.325 2.2 0 .122.056.596-.25.374-.064-.046 0-.666 0-.745v-1.24c0-.527-.173-.446-.677-.732-11.017-6.269-14.246-20.36-14.644-32.082-.022-.646-.216-6.369.213-6.369.216-.152 1.093 0 1.342 0h29.016c.395 0 .255 4.707.249 5.142-.091 5.613-.806 11.283-2.481 16.654-2.1 6.725 2.104-6.747 0 0zm2.118-21.544H25.789c-.787 0-.876-.188-.925.654-.34 5.937.177 12.039 1.573 17.818 1.396 5.778 3.842 11.515 8.072 15.795a22.684 22.684 0 0 0 3.252 2.729c.601.413 1.223.798 1.863 1.149.637.35 1.392-.389 1.952-.749 2.479-1.586 4.601-3.667 6.318-6.048 3.689-5.096 5.564-11.332 6.507-17.487.699-4.554.976-9.262.63-13.861z"/><path fill="#FFF" d="M31.379 63.631zm8.95-55.765l.003.002-.003-.002M40.332 7.868zM40.332 7.868l-.003-.002.003.002zm-.028-.013l-.003-.003.003.003-.003-.003M40.332 7.868zM40.325 7.866zm-.01-.007l-.011-.005.014.008-.005-.003h.002M40.295 7.852zM40.293 7.85zM40.325 7.866zM40.341 7.872zm-.002 0zM40.293 7.852zM40.339 7.872zm.002.002zm-.016-.008l-.01-.004.01.004M40.339 7.872l.002.002-.002-.002zm-.046-.02z"/><path fill="#B99C65" d="M43.218 6.696c-.294 0-.437.391-.188.575l-.313.352c-.683.705-1.085.354-1.072-.52.003-.292.665-1.044.048-1.044-.341 0-.423.466-.14.605-.041.209-.204.417-.344.567-.845.904-1.398-.982-1.387-1.611.017-.877.277.687.277-.318 0-.41-.638-.409-.638 0 0 .279.269.183.269.341-.02.181-.075.37-.122.547-.088.34-.222 1.121-.602 1.279-.462.194-1.067-.508-.836-.845.704-1.025-1.525.098-.27.139.075.877-.175 1.767-1.06.862l-.268-.296c.336-.276-.127-.769-.426-.469-.376.379.342.465.43.732.22.662.373 2.121 1.212 2.198-.567-.103-.25-.408.151-.482.557-.104 1.137-.113 1.701-.118.603-.003 1.208.005 1.805.087.352.049 1.057.381.333.512.747-.069.823-1.027 1.015-1.623.046-.138.21-.879.363-.845.447.102.526-.625.062-.625"/><g fill="#231F20"><path d="M43.657 6.965c-.314-.649-1.16-.145-.751.31-.604.633-1.039.861-1.124-.134-.033-.388.7-.646.279-1.135-.436-.504-1.084.335-.662.756-.21.401-.679.752-.97.241-.177-.309-.29-.648-.393-.986-.184-.611.063-.171.176-.633.096-.377-.32-.689-.65-.458-.523.366.101.619.033.896-.141.604-.486 2.223-1.304 1.155-.201-.265.492-1.196-.512-.937-.168.044-.402.157-.403.362-.001.149.125.273.232.358.264.232.23.415.103.803-.041.362-.192.425-.457.189-.426-.235-.471-.26-.406-.641.087-.505-.663-.768-.888-.305-.123.255-.035.63.274.692.398.08.375.649.489 1.055.309 1.095.739 1.255 1.775 1.455a5.377 5.377 0 0 1-.94-.451c1.395-.423 3.036-.426 4.43 0-.268.239-.701.29-1.037.394.68-.063 1.313-.259 1.622-.91.169-.344.261-.718.373-1.082l.187-.554c.296.082.54-.161.524-.44zm-2.103-.639c.13-.18.469.135.098.29-.094-.081-.141-.223-.098-.29zm.056.515l-.005.011.005-.011zm-2.019-1.554c.299-.376.469.388 0 0zm-1.866 1.175c.124-.318.539-.052.238.225-.172-.023-.185-.098-.238-.225zm-1.349.825c-.174-.029-.218-.345.008-.314.18.023.218.405-.008.314zm6.145 1.411c-.075.273-.134.571-.29.812-.736-.982-4.182-.991-4.912.001-.366-.561-.425-1.258-.645-1.878.676 1.032 1.525.385 1.348-.668.74 1.549 1.606-.055 1.752-1.01.138.942.973 2.658 1.75 1.091-.19 1.023.698 1.534 1.331.622l-.334 1.03zm.896-1.657c-.067.413-.337.038-.405.042.046-.003.223-.544.405-.042zM43.218 6.562z"/></g><path fill="#EC1C24" d="M50.643 40.231v10.023c1.433-3.195 2.622-6.571 3.241-10.023h-3.241zm-21.014 10.7v-7.993c0-.173.019-2.706-.018-2.706h-3.729c.995 3.649 2.206 7.243 3.747 10.699zm4.261 6.391a25.044 25.044 0 0 0 4.023 3.31V40.329c0-.5-2.324-.214-2.776-.214-1.16 0-1.247-.246-1.247.844v16.363zm8.287 3.289a26.948 26.948 0 0 0 3.744-3.255c.487-.512.573-.514.573-1.106V41.889c0-.4.254-1.657-.239-1.657-.358 0-4.078-.005-4.078.003v20.376z"/><path fill="#FFF" d="M30.696 38.951c-.206 0-1.104.118-1.104-.093v-6.125c0-.354.837-.162 1.119-.162.595 0 .573.13.925.621l2.396 3.348v-3.716c0-.396.202-.252.592-.252.845 0 .593.281.593 1.084v3.436c0 .265.194 1.668 0 1.86-.125.123-.941 0-1.134 0-.132 0-.28-.32-.349-.416l-3.037-4.239-.001 4.654z"/><path fill="#B99C65" d="M35.215 39.067c-.282 0-1.128.163-1.309-.09l-.942-1.317-2.151-3.004c0 .508.175 4.41-.165 4.41-.74 0-1.174.207-1.174-.589v-5.746c0-.444 1.411-.429 1.715-.278.335 0 1.106 1.461 1.279 1.702l1.446 2.021v-3.203c0-.78 1.418-.749 1.418-.242.001.618.123 6.336-.117 6.336zm-1.125-.233c.422 0 1.009.233 1.009-.264v-4.923c0-.551.223-.96-.375-.96-.786 0-.579.172-.579.931v2.657c0 .555-.25.277-.47-.029l-1.534-2.144-1.003-1.405c-.083-.115-1.432.009-1.432.034v6.093c0 .024.727.011.808.011.134 0 .066-.362.066-.471 0-.453-.276-4.064.079-4.178.294-.096 1.552 2.029 1.714 2.252l1.717 2.396z"/><path fill="#FFF" d="M36.311 32.591c.233 0 1.395-.116 1.395.093v4.811c0 .225.159 1.273 0 1.448-.107.12-1.395.038-1.395-.092v-6.26z"/><path fill="#B99C65" d="M37.706 39.062c-.226 0-1.513.152-1.513-.158v-2.022c0-.354-.128-4.405.118-4.405.134-.113 1.511-.083 1.511.157v2.021c0 .352.128 4.407-.116 4.407zm-1.28-.233c.308 0 1.166.201 1.166-.171V34.03c0-.179.135-1.194 0-1.322-.155-.146-1.166-.124-1.166.171v5.95z"/><path fill="#FFF" d="M44.662 37.24c-1.396 2.709-5.613 1.963-6.038-1.038-.485-3.432 4.275-5.063 5.987-2.04l-.883.446c-.513.26-.5-.23-.971-.505-1.211-.705-2.786.179-2.826 1.575-.04 1.381 1.427 2.348 2.681 1.765.323-.15.767-.854 1.011-.73l1.039.527z"/><path fill="#B99C65" d="M41.799 39.076c-3.615 0-4.525-5.204-1.151-6.464 1.524-.569 3.268.089 4.066 1.493.114.199-.644.461-.744.513-.763.386-.578-.011-1.265-.413-1.255-.736-2.841.354-2.637 1.789a1.778 1.778 0 0 0 1.372 1.472c.421.092.873.02 1.25-.193.147-.084.734-.791.836-.739.169-.008 1.319.57 1.239.76.038.239-.516.738-.66.874a3.421 3.421 0 0 1-2.306.908zm.002-6.439c-2.377 0-3.884 2.729-2.623 4.737 1.218 1.937 4.181 1.933 5.33-.084l-.837-.421c-.258-.131-.718.554-1.048.701-1.322.581-2.85-.446-2.807-1.893.04-1.333 1.421-2.274 2.672-1.827.354.125.875.817 1.132.687l.831-.42a3.124 3.124 0 0 0-2.65-1.48z"/><path fill="#FFF" d="M46.725 37.762c.39 0 3.58-.052 3.58.05 0 .507.264 1.122-.322 1.122h-4.559c-.124 0-.056-.956-.056-1.083v-4.937c0-.446.025-.354.483-.354h2.74c.144 0 1.411-.058 1.411.051 0 .838.257 1.125-.6 1.125h-2.395c-.561 0-.284.927-.284 1.393 0 .084 1.62.04 1.788.04 1.026 0 1.109-.208 1.109.845 0 .408.058.393-.332.393h-1.675c-.106 0-.891-.057-.891.045v1.31z"/><path fill="#B99C65" d="M50.305 39.049h-4.332c-.303 0-.718.122-.718-.277v-4.757c0-.263-.167-1.236 0-1.455 0-.241 3.872-.115 4.269-.115.711 0 .6.216.6.919 0 .758-.741.487-1.361.487-.28 0-1.722-.2-1.916 0-.108.113 0 .849 0 1.014 0 .311.239.188.521.188h2.233c.222 0 .323 1.468-.072 1.468h-2.335c-.672 0-.251 1.123-.331 1.123h2.864c.151 0 .698-.105.698.167-.004.148.108 1.238-.12 1.238zm-4.821-.232h4.244c.662 0 .457-.228.457-.889 0-.111-1.664-.052-1.845-.052-.153 0-1.736.126-1.736-.115-.211-.284-.128-1.47.323-1.47h2.366c.376 0 .376-1.005 0-1.005h-2.366c-.581 0-.323-1.088-.323-1.508 0-.554 3.279.27 3.279-.344 0-.779.104-.756-.645-.756h-2.747c-.182 0-1.01-.122-1.01.099v2.062l.003 3.978z"/><path fill="#FFF" d="M36.294 28.423c0 4.492-6.979 4.476-6.965-.033.012-4.477 6.965-4.44 6.965.033m-3.487-2.067c-2.483 0-2.741 3.823-.237 4.11 2.77.318 3.003-4.11.237-4.11"/><path fill="#B99C65" d="M32.81 32.013c-4.481 0-4.719-6.85-.292-7.183 4.824-.362 5.111 7.183.292 7.183zm-.021-6.961c-4.108 0-4.434 6.291-.33 6.709 4.557.468 4.906-6.709.33-6.709zm.005 5.542c-2.622 0-2.845-3.953-.288-4.333 2.921-.432 3.291 4.333.288 4.333zm.013-4.123c-2.474 0-2.498 3.891-.013 3.891 2.489.007 2.493-3.891.013-3.891z"/><path fill="#FFF" d="M43.509 28.448c-.148 1.808-1.24 3.306-3.164 3.467-1.677.141-3.278-1.033-3.663-2.672-.897-3.822 4.507-5.901 6.432-2.506-.247.124-1.053.715-1.302.654-.645-1.063-2.129-1.304-3.074-.495-2.338 2.002 1.52 5.23 3.116 2.564h-1.501c-.503 0-.278-.587-.278-1.018l3.434.006z"/><path fill="#B99C65" d="M40.059 32.044c-2.642 0-4.357-2.899-3.181-5.226 1.211-2.397 4.635-2.607 6.165-.415.433.621-.555.78-1.039 1.026-.369.186-.607-.419-.909-.611a1.925 1.925 0 0 0-1.753-.148c-2.962 1.205.328 5.51 2.294 2.909-.675 0-1.677.331-1.677-.517 0-.21-.128-.734.189-.733l1.311.001 1.635.003c.455 0 .56-.068.497.489-.202 1.829-1.657 3.222-3.532 3.222zm.02-6.961c-2.804 0-4.395 3.41-2.56 5.538 2.057 2.389 5.599.877 5.864-2.055l-3.193-.004c0 .116-.044.785.037.785h1.481c.738 0-.498.936-.707 1.037a2.172 2.172 0 0 1-2.396-.357c-1.293-1.206-.598-3.458 1.155-3.711a2.167 2.167 0 0 1 2.098.928c.233.043.872-.438 1.097-.552a3.422 3.422 0 0 0-2.876-1.609z"/><path fill="#FFF" d="M50.363 30.015c-1.558 2.889-6.119 2.052-6.416-1.271-.317-3.559 4.597-5.134 6.357-1.99l-.819.413c-.661.337-.491-.069-1.095-.444-1.314-.821-3.058.194-3.038 1.731.018 1.556 1.796 2.482 3.091 1.636.419-.274.455-.818.933-.576l.987.501z"/><path fill="#B99C65" d="M47.329 31.949c-3.569 0-4.796-4.967-1.643-6.639 1.566-.832 3.551-.349 4.551 1.113.439.642-1.066 1.261-1.462.783-1.106-1.338-3.32-.467-3.31 1.24.019 1.886 2.635 2.54 3.534.872.14-.257 1.416.552 1.418.837-.95.954-1.58 1.794-3.088 1.794zm.03-6.819c-2.568 0-4.198 2.958-2.763 5.107 1.341 2.007 4.388 1.911 5.606-.173l-.89-.452c-.277-.142-.729.564-1.07.724-1.232.573-2.736-.177-2.973-1.524-.259-1.465 1.091-2.797 2.559-2.449.207.048 1.357.826 1.302.854l1.012-.511a3.27 3.27 0 0 0-2.783-1.576zM22.376 30.994c.441 3.604 2.202 7.069 4.693 9.689-.391-.555-1.105-.602-1.661-.902-.629-.34-1.182-.954-1.664-1.471-.875-.937-1.61-2-2.188-3.145-.506-1.005-1.196-2.404-1.196-3.573.363 2.968 1.995 5.325 3.605 7.745 1.475 2.218 2.507 5.018 2.623 7.701-.338-1.191-1.474-2.394-2.223-3.341-1.113-1.404-2.514-2.576-3.472-4.097-1.297-2.055-2.272-4.521-2.791-6.9.803 3.869 2.536 7.391 4.822 10.595 1.004 1.405 2.128 2.75 2.928 4.286.383.735.676 1.51.863 2.316.158.677-.025 2.04.349 2.599-1.981-3.463-5.216-6.112-7.335-9.509a33.952 33.952 0 0 1-2.952-5.985c-.376-1.002-.954-2.251-.961-3.349.625 4.49 3.106 8.842 5.631 12.51 1.784 2.589 3.416 4.872 3.854 8.072.187 1.358.318 3.018-.085 4.363.236-1.977-1.931-4.455-2.982-5.919-1.527-2.126-3.263-4.103-4.739-6.266-3.218-4.708-5.187-10.338-5.026-16.08.125-4.494 1.653-8.909 5.103-11.92 2.611-2.279 5.984-3.573 9.393-4.036a19.742 19.742 0 0 1 2.224-.18c.355-.008.71-.005 1.064.006.459.019.634.478.967.511-3.724-.278-2.109 5.885-1.864 7.921-1.362.017-2.726.031-4.088.035-.658.002-.74-.043-1.069.484a19.57 19.57 0 0 0-.961 1.751c-.715 1.451-.667 2.558-.101 4.132.559 1.556 1.614 2.982 3.06 3.816-1.445.679-3.147-.64-3.821-1.859"/><path fill="#B99C65" d="M57.704 30.994c-.439 3.604-2.198 7.069-4.689 9.689.39-.555 1.103-.603 1.659-.902.629-.34 1.181-.954 1.662-1.471.878-.937 1.613-2 2.189-3.145.507-1.005 1.193-2.404 1.193-3.573-.362 2.969-1.992 5.324-3.604 7.745-1.474 2.219-2.501 5.017-2.622 7.701.343-1.191 1.476-2.392 2.224-3.341 1.11-1.405 2.514-2.576 3.472-4.097 1.299-2.063 2.252-4.517 2.792-6.9-.806 3.866-2.541 7.392-4.826 10.595-1.001 1.405-2.129 2.75-2.929 4.286a9.846 9.846 0 0 0-.861 2.316c-.156.677.027 2.037-.35 2.599 1.979-3.463 5.216-6.111 7.331-9.509a33.833 33.833 0 0 0 2.956-5.985c.377-1 .957-2.253.962-3.349-.622 4.49-3.104 8.842-5.627 12.51-1.784 2.59-3.419 4.872-3.855 8.072-.188 1.351-.327 3.026.084 4.363-.242-1.976 1.928-4.457 2.979-5.919 1.526-2.126 3.262-4.103 4.742-6.266 3.215-4.708 5.184-10.338 5.024-16.08-.126-4.493-1.653-8.909-5.103-11.92-2.61-2.279-5.981-3.573-9.392-4.036a19.7 19.7 0 0 0-2.227-.18 19.803 19.803 0 0 0-1.062.006c-.458.019-.636.478-.969.511 3.727-.278 2.111 5.884 1.865 7.921 1.361.017 2.725.031 4.085.035.655.002.739-.043 1.072.484.352.563.665 1.154.959 1.751.716 1.452.665 2.558.1 4.132-.56 1.555-1.612 2.981-3.058 3.816 1.451.678 3.151-.64 3.824-1.859"/><path fill="#231F20" d="M46.456 22.54l-.107-.039.107.039zM28.264 65.063a6.577 6.577 0 0 1-.771.607 1.05 1.05 0 0 0-.288.292c.391-.315.907-.571 1.059-.899zm4.697-5.27c-.003-.385.264-.72.222-1.104-.588.59-.571 1.406-.308 2.144-.528-.144-.793-.612-1.249-.863.082.589.097 1.137-.271 1.635a3.308 3.308 0 0 0-.376-.915c-.315.467-.601.908-.409 1.492-.387-.285-.288-.845-.367-1.256-.04.479-.362.816-.704 1.12.177-.438.034-.913-.054-1.351-.521.378-1.182.507-1.794.286.896-.217 1.676-1.796.381-1.156.056-1.018.936-1.576 1.285-2.467-.389.128-.735-.076-1.009-.336.613.085 2.156-1.379 1.276-1.671-.089.553-.325.809-.878.908 1.088-1.059.203-3.768-.515-4.82-.387 1.647 1.504 3.593.063 5.02.376-.041.779-.041 1.11-.258-.282.604-.947.674-1.531.555.316.346.655.721 1.139.809-.828.679-1.268 1.534-1.083 2.617a.88.88 0 0 1 .755-.361c-.241.813-1.041.885-1.764.904.546.6 1.282.7 2.033.468-.65 2.37-2.717 2.157-4.659 2.392-2.048.243-1.262 2.288.056 2.959-.283.364-.703.736-.674 1.168.095 1.334 1.116 2.799 2.56 2.656-.532-.253-1.3-.589-1.321-1.28 1.35.037.733-1.959 1.241-2.679.228-.323 2.212-1.374 2.189-1.578a.44.44 0 0 1-.041.232c.381-.359.626-.736-.041-.75.498.17-.388.343-.493.403-.469.265-.843.664-1.263.996-1.028.807-.749 1.474-1.111 2.606a.838.838 0 0 0-.626-.508c.368.148.144.702.043.949-.212.53.169 1.016.568 1.331-.735-.477-.938-1.184-1.138-1.988-.122-.487-.313-.439.108-.854.239-.237.508-.664.886-.682l-.5-.038c.141-.386.431-.83.89-.845-.67-.23-.253-.388.217-.593.362-.155.821-.333.71-.821-.043.232-.328.398-.668.474-.592.383-1.058.832-1.344 1.491l-.188.299c-.334-.303-.98-1.132-.824-1.665-.113.24-.123.549 0 .939-.413-.485-.511-1.416.107-1.789.66-.401 1.575-.073 2.291-.081.869-.012 1.813-.45 2.402-1.084.47-.506.453-1.54 1.048-1.887.1.519 0 .988-.159 1.483a2.19 2.19 0 0 0 .696-.493c-.252.445-.189.988.123 1.264.389.259.623.626 1.062.818-.335-.524 1.973-1.381 1.96.519-.198-.485-.723-.49-1.122-.715.718 1.014-1.296.654-1.75.631-1.398-.072-1.085 1.807-1.852 2.49l-.189-.435c.008.144-.274.588-.435.591-.134.438.032.877.235 1.26-.53-.534-1.167-1.704-.705-2.415-.235.188-.43.398-.46.66-.164 1.284 1.051 2.146 2.189 2.221-.653-.267-1.329-.744-1.136-1.547.177-.248.672-.101.898-.329.367-.376.486-.911.715-1.366.465-.932 1.121-.474 1.927-.491.404-.006 1.518-.274 1.185-.889.688.241.292 1.137.149 1.609.604-.906 1.107-2.983-.603-3.041-.989-.031-2.559.699-1.848-1.008.06.418.462.61.689.923-.069-.556-.128-1.118.066-1.658.11.232.349.604.188.866.648-.077.979-.543.934-1.18l.59.363c.252.095.513.146.784.145-.239-.448-.503-.919-.508-1.449zm-7.182 4.966l.067-.011.061-.044-.128.055zm6.929-3.647l-.058-.022.078.035-.02-.013zm-.072-.026l.015.004-.011-.004.016.004-.03-.012.01.008zm-8.957 3.506a.504.504 0 0 0-.188.279.866.866 0 0 1 .264-.322l-.076.043zm9.026-3.482l-.019-.01-.031-.01.05.02zM24.5 65.092c.431.133.878-.173 1.28-.333-.563.106-1.242-.024-1.257-.508-.322.057-.579.156-.768.301.49-.295.353.422.745.54zm.397-7.238c.1.405-.031.852.537.811.584-2.505.143-5.396-.873-7.736-1-2.306-2.667-4.221-4.011-6.322 1.965 2.784 4.631 5.044 6.369 7.99.593-.206.147-1.031.103-1.518a9.974 9.974 0 0 0-1.188-3.86c-1.256-2.329-3.124-4.247-4.474-6.515 1.869 2.497 4.493 4.522 5.463 7.596-.203-3.392-1.152-6.684-3.095-9.497.414.395.84.797 1.342 1.082.546.312 1.291.304 1.76.752.109.123.302.172.347-.056a20.54 20.54 0 0 1-1.297-1.485c-1.7-2.185-2.898-4.799-3.292-7.547.9 1.135 2.416 2.039 3.84 1.316-2.055-1.13-3.687-3.556-3.71-5.938-.012-1.329.887-2.843 1.667-3.875.41-.542 1.785-.268 2.45-.27l2.679-.013c-.184-1.628-.48-3.244-.402-4.892.037-.772.137-1.63.573-2.29.195-.297.468-.533.806-.648.323-.11.867.088.733-.404-.706-.793-2.102-.515-3.078-.458-1.366.08-2.727.298-4.048.658-2.481.673-4.875 1.843-6.796 3.571-3.667 3.3-5.062 8.292-4.97 13.097.105 5.547 2.024 11.024 5.168 15.572 1.465 2.116 3.241 3.991 4.775 6.057.792 1.066 1.524 2.185 2.079 3.395.211.457.42.935.543 1.427zm-7.893-12.745c-2.702-4.223-4.46-9.154-4.404-14.206.049-4.462 1.561-9.002 4.908-12.074 1.739-1.596 3.869-2.767 6.104-3.511a19.147 19.147 0 0 1 3.677-.837c.807-.102 3.007-.552 3.586.097-.121.015-.431-.026-.261.029-3.563.585-1.688 5.692-1.414 7.889-1.483.026-3.225-.206-4.676.073-.977.604-1.656 2.524-1.917 3.575-.583 2.353 1.473 5.49 3.362 6.685-1.805.602-3.122-1.272-3.856-2.61.517 3.51 1.832 6.882 4.069 9.657-1.682-.693-3.095-2.675-4.062-4.157-.55-.845-1.017-1.749-1.321-2.712-.106-.337-.059-1.611-.579-1.403.344 2.585 1.724 4.781 3.11 6.928 1.549 2.397 2.619 4.806 3.017 7.656-1.371-2.411-3.536-4.212-5.107-6.473a19.377 19.377 0 0 1-2.077-3.922 18.682 18.682 0 0 1-.757-2.334c-.076-.302.024-.963-.437-.734.74 3.44 2.26 6.644 4.169 9.583 1.854 2.858 4.763 5.73 4.639 9.39-2.03-3.058-4.546-5.75-6.69-8.722-1.063-1.474-2.038-3.022-2.784-4.682a17.962 17.962 0 0 1-.935-2.579c-.095-.341-.343-2.249-.684-2.056-.175.099.454 2.18.522 2.417a24.466 24.466 0 0 0 1.141 3.12c.887 2.015 1.978 3.961 3.186 5.797 1.21 1.844 2.683 3.527 3.582 5.559.913 2.063 1.266 4.355 1.091 6.596-1.623-4.651-5.599-7.971-8.202-12.039zm50.605-16.946c-.719-6.039-4.813-11.029-10.529-13.068-.788-.279-8.493-1.93-8.229-.472.068.373.996.335 1.36.683.429.412.579.99.674 1.557.274 1.963-.084 3.957-.315 5.904 1.638.001 3.274.024 4.913.008.827.997 1.79 2.5 1.876 3.827.158 2.483-1.576 5.088-3.7 6.26 1.429.729 2.924-.194 3.84-1.313-.39 2.624-1.494 5.126-3.072 7.249-.374.503-.776.988-1.207 1.446-.347.27-.257.718.034.39.393-.373.967-.436 1.459-.604.625-.295 1.148-.763 1.646-1.236-1.998 2.899-2.883 6.028-3.101 9.502.974-3.066 3.587-5.093 5.456-7.583-2.135 3.597-5.276 6.35-5.689 10.732-.018.171-.358 1.275.145 1.139.604-1.005 1.32-1.938 2.067-2.837 1.428-1.711 2.996-3.307 4.284-5.128-1.073 1.681-2.349 3.235-3.331 4.977-1.127 1.996-1.689 4.223-1.725 6.512-.009.561.013 1.123.069 1.683.044.482-.106.862.439.795.069-.012.545-1.67.628-1.857.871-1.958 2.254-3.645 3.582-5.307 2.787-3.497 5.375-7.016 6.912-11.257 1.402-3.869 1.898-7.914 1.514-12.002zm-4.805 17.366c-2.577 3.896-6.36 7.117-7.938 11.621-.168-2.111.138-4.265.935-6.229.836-2.061 2.27-3.758 3.508-5.58 2.329-3.428 4.692-7.483 5.09-11.688-.531-.163-.397.862-.473 1.198-.217.951-.546 1.873-.929 2.767a32.462 32.462 0 0 1-2.708 5.037c-2.104 3.186-4.879 5.864-6.992 9.043-.152-3.14 2.081-5.683 3.766-8.093 1.852-2.648 3.41-5.506 4.411-8.589.245-.752.458-1.517.637-2.289-.348-.342-.416.55-.459.704-.466 1.667-1.066 3.305-1.903 4.824-1.616 2.937-4.37 5.015-6.017 7.934.324-2.371 1.119-4.663 2.407-6.686 1.232-1.936 2.58-3.792 3.287-6.007.057-.171.741-2.228.171-1.922-.182 1.104-.576 2.167-1.096 3.155-.962 1.828-2.632 4.33-4.602 5.151 2.237-2.777 3.541-6.149 4.068-9.657-.719 1.339-2.05 3.213-3.845 2.609 2.061-1.306 3.768-4.1 3.391-6.595-.36-1.292-.983-2.628-1.893-3.628-.458-.235-1.43-.058-1.953-.065a514.68 514.68 0 0 1-2.778-.044c.285-2.29 2.178-7.632-1.684-7.918.584-.66 2.833-.196 3.646-.092 1.272.165 2.527.458 3.74.873 2.471.848 4.826 2.214 6.637 4.119 3.281 3.458 4.348 8.168 4.216 12.807-.242 4.74-2.038 9.307-4.64 13.24zm4.826-17.208v.004l.003.031.036.336-.018-.187-.044-.428-.012-.072v-.014l-.002-.012.002.026.014.157.02.146.001.013zm-12.833 34.81c-1.568.067-3.041-.868-3.467-2.42.744.251 1.493.122 2.034-.462-.707-.028-1.552-.08-1.763-.906a.87.87 0 0 1 .757.359c.168-1.078-.24-1.953-1.089-2.616.486-.084.819-.465 1.141-.804-.582.101-1.254.058-1.528-.561.327.222.732.221 1.106.256-1.646-1.613.988-3.927-.247-5.72-.319.883-.067 1.876-.313 2.783-.239.87-.623 1.99.108 2.737-.611-.111-.55-.764-1.037-.916-.002.882.408 1.807 1.437 1.683-.27.257-.618.469-1.006.33.364.883 1.186 1.474 1.288 2.475-.313-.16-.921-.387-.734.208.157.507.608.841 1.116.942-.606.23-1.278.082-1.797-.286-.098.435-.24.918-.055 1.353-.344-.294-.647-.671-.746-1.122-.094.387.133 1.03-.322 1.257.196-.585-.099-1.028-.41-1.493a5.814 5.814 0 0 0-.376.919c-.317-.414-.024-1.401-.425-1.677-.234.457-.593.774-1.097.903.217-.555.313-1.218-.002-1.754-.234.265-.043.629-.096.956-.071.438-.292.827-.495 1.214.507-.029.981-.171 1.374-.51-.041.64.289 1.095.934 1.181-.15-.268.08-.631.193-.867.192.543.14 1.104.067 1.66.211-.293.632-.553.691-.922.668 1.654-.716 1.021-1.716.99-1.803-.051-1.379 2.093-.737 3.053-.136-.443-.543-1.416.149-1.611-.41.709.913.844 1.323.854.838.029 1.442-.229 1.883.687.186.384.312.82.667 1.091.245.187.912.303 1.001.621a1.423 1.423 0 0 0-.036-.358c-.148.015-.44-.464-.432-.591l-.19.438c-.793-.656-.444-2.494-1.807-2.466-.44.008-2.489.339-1.796-.653-.407.229-.923.216-1.121.718-.008-1.954 2.272-1.006 1.958-.519.698-.301 1.669-1.249 1.19-2.08.183.219.421.39.69.492-.153-.505-.268-.959-.156-1.486.359.217.394.674.51 1.032.137.424.446.796.777 1.083.653.563 1.352.717 2.19.732.92.014 2.763-.087 2.702 1.179-.051.303-.143.578-.339.823.135-.41.12-.727-.011-.976.119.531-.451 1.365-.794 1.676l-.132-.17c-.432-.675-.724-1.147-1.397-1.589-.354-.074-.649-.241-.684-.48-.22.919 1.355.628 1.336 1.29-.1.123-.239.165-.412.117.459.021.743.462.889.847l-.499.039c1.898.085.764 2.932-.146 3.52.361-.284.687-.68.627-1.174.021-.321-.51-.909-.019-1.109a.864.864 0 0 0-.622.51c-.233-.46-.122-.968-.185-1.458-.074-.54-.48-.839-.864-1.171-.386-.335-.783-.672-1.229-.923-.122-.073-1.078-.284-.59-.46-1.113.036.3 1.043.61 1.256 1.01.68.424 2.126-.297 2.814.104-.2.192-.403.236-.613-.188.455-.929.941-1.253 1.076 1.245-.083 2.408-1.044 2.181-2.41-.13-.777-.702-.898-1.278-1.246-.405-.238-.293-.634.131-.269.6.514 1.86 1.205 2.035 1.968.171.749-.2 2.233.995 2.199-.026.694-.787 1.025-1.322 1.279 1.477.154 2.474-1.417 2.563-2.723.024-.364-.397-.784-.665-1.11.794-.388 1.496-.887 1.438-1.86-.125-1.366-1.608-1.101-2.593-1.059zm-.454 1.095l.074.056.091.011-.165-.067zm3.055-.037l.001.008-.002-.018-.006-.081.006.085-.001.008.002.006.001.015.001-.001v-.003l-.001-.002-.001-.017zm-1.691.357c.252-.093.402-.54.631-.569a1.967 1.967 0 0 0-.615-.203c-.021.467-.661.604-1.213.519.37.147.823.389 1.197.253zm1.69-.372v-.004l-.006-.071-.009-.115.015.19zm-1.059-.197c.185.1.315.229.402.39l-.094-.203c-.121-.155-.22-.199-.308-.187zm-3.732 3.021l-.033.291a.464.464 0 0 0 .042-.276l-.009-.015zm-7.189-45.733c.31-.008.699-.071.887-.357-1.391-1.285-1.162-3.166-1.106-4.879l.24.296c-.042-.697-.583-1.388-.459-2.093.161 0 .313.03.461.089-.277-.93-1.231-1.229-1.725-1.995.447-.083.947-.167 1.406-.103-.474-.064-1.318-.918-1.781-.718.62-.271 1.277-.449 1.933-.609-.282-.121-2.351-.546-2.507-.292.217-.371.574-.637.783-1.016-.929.284-1.754.546-2.73.565-.844.014-1.782.014-2.508.507.534-.604-.583-.056-.897.03-.435.119-1.023.178-1.404.432-.512.341-.597.951-1.176 1.275-1.513.845-1.905 1.936-.933 3.345.317-.324 2.646-1.218 2.652-.379.004.673-1.347 1.476-1.912 1.576.656.588 1.553.851 2.405.559-.192 1.667-1.405 2.552-3.015 2.689.177.502.53.932.998 1.187-1.021.488-1.457 1.711-2.54 2.116.676-.079 1.284-.442 1.825-.838.658-.482 1.024-1.015 1.835-.993-.227.314-.508.58-.755.877.717.185 1.117-.983 1.437-1.453-.785.598-1.986.057-2.441-.716 1.208-.157 2.292-.718 2.792-1.877.493-1.138.515-2.573 1.516-3.435-1.279.652-1.398 2.409-3.197 1.921a2.518 2.518 0 0 0 1.257-.82c.395-.478.933-.94.253-1.32-.918-.514-2.337-.46-3.187.183-.534-1.038.09-2.164 1.317-1.761-.011.287-.576.208-.715.109.021.225.397.276.559.286.451.027.557-.308.957-.135.883.382 1.624.994 2.611 1.105-.446-.22-1.068-.344-1.222-.895.429-.171.985-.071 1.365-.361-.461.041-1.483.284-1.762-.253.458.171 1.003.172 1.442-.055.595-.311.452-.882.767-1.371.678-1.056 2.619-1.043 3.636-1.624-.532.513-.999 1.072-1.502 1.615.664-.363 1.397-.599 2.156-.639-.558.032-.883.713-1.352.937.406-.043 1.211-.492 1.525-.028-.588-.084-.674.754-1.068.792.968-.073 1.719.552 2.343 1.215a4.671 4.671 0 0 1-.555 0c.132.452.699.727.642 1.245l-.181-.118c.008 1.04.068 2.079-.024 3.118-.085 1.028.434 1.862 1.002 2.666-.677-.01-1.878.067-1.978-.858-.03.482.141 2.752.964 2.527-.267-.473-.52-.952-.644-1.484.914.317 1.46 1.144 2.344 1.488.388.147.802.31 1.228.315-.938-.207-1.566-.994-2.262-1.59zm-8.25-8.36c.017-.217.135-.362.356-.43l.297.58c-.188.044-.553.086-.653-.15zm.909.044l-.23.098c.059-.256.028-.556-.036-.807.106.031.352-.191.542-.13.216.074-.171.76-.276.839zm.596-1.377l-.042.023c-.585.298-1.497.254-1.76.986-.064.047-.042.356-.17.332-.363-.069-.571-.378-.99-.332.391.453 1.094.791 1.369 1.328-.623-.508-1.405-.766-2.119-1.111.379-.35.711-.867 1.114-1.167.551-.41 1.346-.094 1.949-.496l-.072.195c.51-.176 1.052-.242 1.555-.442-.351.137-.515.502-.834.684zM40.999 22.536l.073-.078-.073.078z"/></svg>