<svg xmlns="http://www.w3.org/2000/svg" width="80" height="80" viewBox="0 0 80 80"><path fill="#9A8348" d="M41.827 7.438h3.438l-2.768 2.019 1.07 3.263-2.791-2.001-2.774 2.028 1.041-3.274-2.786-2.035h3.438l1.053-3.265 1.079 3.265"/><path fill="#009DDD" d="M59.867 53.261c-.145-.395-.313-.851-.498-1.347 3.035-3.438 4.844-7.739 4.844-12.411 0-8.033-5.337-14.978-13.092-18.301.348-1.579.952-3.292 1.633-4.502.264-.437.561-.859.88-1.247l.09-.093-.008-.009a9.258 9.258 0 0 1 1.344-1.305l-.32-.748c-1.56.688-4.846 2.252-6.866 4.078-.972-.904-2.787-1.827-4.13-2.251l-.255.615c.17.175.187.201.286.371l.011.015.012.015a7.82 7.82 0 0 1 1.47 3.352 26.786 26.786 0 0 0-8.913-.002 7.833 7.833 0 0 1 1.47-3.349l.01-.015.009-.015c.1-.17.117-.195.285-.371l-.253-.615c-1.345.424-3.16 1.348-4.13 2.251-2.02-1.825-5.306-3.391-6.865-4.078l-.32.748c.377.295.851.722 1.342 1.305l-.007.009.091.093c.317.388.615.81.877 1.247.679 1.208 1.283 2.917 1.633 4.494-7.765 3.319-13.111 10.269-13.111 18.309 0 4.723 1.851 9.068 4.947 12.524-.168.454-.321.867-.454 1.233-1.669 3.63-4.034 5.672-5.361 6.599l.308.641c5.672-.796 7.609-.2 8.872-.002l1.527-4.391c3.83 2.377 8.513 3.781 13.576 3.781 5.103 0 9.82-1.427 13.666-3.837l1.568 4.447c1.262-.199 3.205-.796 8.88 0l.314-.641c-1.329-.926-3.695-2.967-5.362-6.597zM58.46 39.503c0 2.367-.447 4.621-1.232 6.698-2.599-7.011-5.898-16.433-6.346-21.749 4.576 3.317 7.578 8.816 7.578 15.051zM45.369 21.8c-.084 1.209-.341 2.369-.583 3.422l-.256 1.157c-.003.007-3.196 12.848-3.721 14.854-.522-2.007-3.719-14.848-3.72-14.854l-.256-1.157c-.244-1.056-.5-2.218-.583-3.431 1.452-.4 2.97-.635 4.544-.635a17 17 0 0 1 4.575.644zM23.131 39.503c0-6.25 3.015-11.763 7.611-15.076-.437 5.357-3.733 14.916-6.316 21.957a18.927 18.927 0 0 1-1.295-6.881zm17.664 18.348c-4.81 0-9.166-2.004-12.352-5.243l5.628-16.165c.528 2.022 1.653 6.214 1.652 6.207l.244 1.092c.245 1.069.441 1.923.441 2.717 0 1.181-.433 2.229-1.781 3.646l.219.646c.694.434 1.973.813 2.89.854.292 1.397 1.926 3.526 3.072 4.512 1.146-.985 2.782-3.114 3.072-4.512.919-.042 2.198-.423 2.893-.854l.221-.646c-1.349-1.418-1.784-2.468-1.784-3.646 0-.794.196-1.647.441-2.717l.245-1.092c-.003.009 1.122-4.186 1.652-6.207l5.678 16.092c-3.192 3.284-7.582 5.316-12.431 5.316z"/><path fill="#9A8348" d="M19.058 65.799c0 1.032-.323 1.167-.728 1.167h-.485v-2.145h.445c.437-.004.768.11.768.978zm1.593.031c0-.761-.283-1.274-.921-1.569-.453-.209-.954-.231-1.343-.231h-1.988v3.731h2.045c.76 0 1.212-.164 1.569-.447.508-.403.638-.907.638-1.484m2.571-1.013c.453 0 .671.087.671.354 0 .252-.169.405-.663.405h-.413v-.76h.405zm2.522 2.944a44.582 44.582 0 0 0-.85-1.219c-.137-.194-.372-.364-.564-.4.663-.074 1.17-.402 1.17-1.044 0-.621-.533-1.065-2.189-1.065H21.37v3.732h1.447v-1.479c.315 0 .445.049.663.435l.59 1.041h1.674m2.739-.69c-.597 0-.946-.235-.946-1.189 0-.711.274-1.169.93-1.169.622 0 .897.227.897 1.157 0 .96-.266 1.201-.881 1.201zm-.023.755c2.011 0 2.521-1.001 2.521-2.072 0-.818-.557-1.788-2.474-1.788-1.486 0-2.586.696-2.586 2.021.001 1.12.907 1.839 2.539 1.839M31.7 64.031h1.48v3.731H31.7v-3.731zm6.144.793h-1.309v2.937h-1.463v-2.937h-1.309v-.793h4.252l-.171.793m4.429 1.483h-.729l.228-.61c.096-.252.137-.457.154-.596.007.139.048.36.105.524l.242.682zm2.152 1.454l-1.704-3.73h-1.505l-1.809 3.73h1.521l.307-.717h1.334l.289.717h1.567m4.461-1.151c0 .323-.017.467-.137.615-.235.312-.866.602-1.98.602-.889 0-1.504-.162-1.842-.467-.209-.201-.275-.292-.275-.791v-2.538h1.454v2.437c0 .342.162.572.671.572.517 0 .664-.193.664-.556v-2.453h1.445v2.579m4.801-1.793c.339 0 .485.103.485.295s-.12.353-.468.353h-.574v-.647h.557zm2.173 1.793c0-.447-.484-.743-1.035-.839.623-.135.832-.487.832-.823 0-.686-.661-.915-1.479-.915h-2.497v3.731h2.288c1.287-.003 1.891-.473 1.891-1.154zm-1.665-.033c0 .232-.153.389-.516.389h-.552v-.74h.535c.444 0 .533.165.533.351m6.581.033c0 .323-.018.467-.137.615-.235.312-.866.602-1.981.602-.889 0-1.502-.162-1.841-.467-.21-.201-.276-.292-.276-.791v-2.538h1.454v2.437c0 .342.162.572.672.572.518 0 .663-.193.663-.556v-2.453h1.446v2.579m4.656-1.786h-1.309v2.937h-1.464v-2.937h-1.31v-.793h4.25l-.167.793"/></svg>