<svg xmlns="http://www.w3.org/2000/svg" width="80" height="80" viewBox="0 0 80 80"><path fill="#9A8348" d="M66.64 14.1H13.36l-.005 45.43c0 2.793.75 4.952 2.229 6.42 1.468 1.457 3.618 2.146 6.388 2.224 7.983.224 13.015 1.993 16.959 6.423L40 75.9l1.068-1.304c3.945-4.43 8.977-6.199 16.96-6.422 2.769-.078 4.919-.767 6.388-2.224 1.48-1.469 2.229-3.628 2.229-6.421L66.64 14.1z"/><path fill="#00529B" d="M58.028 66.765c-8.338.267-14.05 2.159-18.028 6.732-3.977-4.573-9.69-6.465-18.028-6.732-4.789-.15-7.235-2.374-7.235-7.234l.003-24.697h50.521l.002 24.697c0 4.86-2.446 7.081-7.235 7.234z"/><path fill="#EE3524" d="M14.743 15.482h50.514l.002 17.967H14.74l.003-17.967z"/><path fill="#9A8348" d="M45.987 38.374v24.788h15.805v-7.883h-7.064V38.374h-8.741z"/><path fill="#FFF" d="M53.652 39.45v16.903h7.064v5.733H47.063V39.45h6.589z"/><path fill="#9A8348" d="M17.227 50.768c0 7.166 5.829 12.996 12.995 12.996 7.166 0 12.996-5.83 12.996-12.996s-5.83-12.994-12.996-12.994c-7.166-.001-12.995 5.828-12.995 12.994z"/><path fill="#FFF" d="M18.366 50.768c0-6.537 5.319-11.855 11.856-11.855 6.538 0 11.856 5.318 11.856 11.855 0 6.538-5.318 11.855-11.856 11.855-6.537 0-11.856-5.319-11.856-11.855z"/><path fill="#9A8348" d="M37.121 43.398c-.73.303-1.083-.235-1.183-.604a.789.789 0 0 0-.022 1.119c-.142.074-.734.412-.761 1.139.6.17 1.164-.106 1.337-.229.038.195.306.527.878.416-.295-.313-.434-.877-.013-1.11l.109-.057c.618-.266.984.197 1.083.419.204.455.027 1.002-.394 1.217l-2.764 1.429c-1.417.714-1.276 2.046-.97 2.655l1.269 2.517c.237.5-.117.846-.371.962-.406.187-.895.025-1.088-.351l-1.707-3.336c.096.075.352.17.578.067-.75-1.217.58-1.169.144-2.268.098.129.413.209.567.153-.668-1.503.843-1.487.075-2.677.082.067.403.046.538-.067-.936-.934-.093-1.565-1.234-1.947.166.007.375-.167.417-.364-.783.055-1.156-.956-2.278-.813-.458.058-.863.183-1.274.313-.236.074-.414-.012-.63.097-.083.082-.174.341-.174.341-.292.063-.771.196-.902.339a.558.558 0 0 0 .057.402l.084.106c.083.412.216.771.453.984l.693-.171s.55.304.727.762c.104.266.06.433-.265.437-.279.004-.825-.113-1.042-.148-.091.235-.134.685.07.839.111.082.695.055.874.04-.044.636-.502 1.024-1.289.769-2.253-.73-3.698-.941-4.518-2.772.03-.127.188-1.38-.716-1.699.112.352.207.762.108 1.104-.149-.582-.585-.966-1.27-.897.388.275.629.621.632.974-.288-.212-.818-.282-1.21-.114 1.865.844 1.229 2.281.407 2.413.34.281.89.204 1.223 0l1.118 1.429a.81.81 0 0 0-.492.351c.226-.015.584.023.734.169.083.228.195.631.046 1.216.438-.229.615-.544.676-.83l1.644.964c-.83.437-3.309 1.684-4.577 1.101-.193-.091-1.438-.625-2.127.074.466-.018.919.175 1 .361-.479.053-1.06.262-1.207.797.181-.115.788-.157 1.099-.105-.273.217-.491.604-.458 1.105 0 0 1.002-.926 1.824-.688.383.11.197.781.121.942.622-.09.779-.705.781-.755l1.913-.079c.129.063.183.335.065.553.328-.091.473-.283.555-.593.401.048.624.321.67.73.279-.288.241-.732.127-.962l2.083-.503.724.799s-3.729 2.331-5 2.271c.197.449 1.11.398 1.532.24-.129.234-.037.573-.037.573s.281.018.573-.353c0 0 .56 1.116.47 1.313-.262.575-2.086.698-2.086.698-.332-.264-1.244-.571-1.753-.186.391.017.705.314.754.5-.213.001-.96.09-1.128.783.418-.192.924-.192 1.079-.107-.236.169-.53.563-.453 1.051.538-.568 1.286-.825 1.782-.713.291.064.308.5.223.811.414-.107.653-.536.741-.761l1.994-.623s.065.178.061.462c.25-.028.496-.336.514-.557 0 0 .375.569.964.47-.342-.578-.813-2.063-.811-2.444.003-.481 1.456-.768 1.7-.84l.705 1.027s-.715.351-.839.81c.627-.278 1.134-.25 1.294-.211.138.146.275.403.332.71.137-.089.314-.347.332-.61 1.595.505 1.598.751 1.209 2.36-.724-.07-1.879-.106-2.129.633a2.118 2.118 0 0 1 1.213.061c-.338.117-.947.469-.801 1.168 0 0 .589-.66 1.266-.543-.364.225-.816.693-.417 1.277.359-.741 1.201-.815 1.553-.745l.499-1.08c.203-.441.763-.385.825.173.528-.647-.065-1.359-.236-1.442l.457-.98c.147.015.525.109.748-.152-.233-.07-.437-.224-.528-.384.234.017.853.11 1.146-.294-.995-.198-3.314-1.612-3.489-2.483a1.635 1.635 0 0 0 1.683.219c.367-.165.647-.451.792-.812.412-.851 1.5-.159 1.669-1.734-.436.617-1.395.206-1.584.972-.385-1.695 2.063-.587 2.081-3.151-.604 1.049-2.766.676-2.587 1.999-.925-2.736 3.222-.964 2.994-4.516-.809 1.604-4.024 1.181-3.72 3.077l-.176-.35c-.243-.499-.188-1.196.568-1.605l2.836-1.463c.773-.396 1.098-1.349.74-2.199-.222-.517-1.025-1.299-2.122-.785zm-7.491-.704s-.068-.219.208-.273c.309-.061.603.124.854.21-.158.191-.766.306-1.062.063zm.011 1.658c-1.221.548-2.239.515-3.174-.008.204.661 1.975 1.527 3.174.008z"/><path fill="#FFF" d="M32.152 30.955c-.464.45-1.03.701-1.782.701s-1.328-.251-1.791-.701c-.667-.648-.65-1.447-.65-2.554 0-1.106-.018-1.906.65-2.553.463-.451 1.039-.703 1.791-.703.751 0 1.317.252 1.782.703.667.646.659 1.446.659 2.553.001 1.107.009 1.906-.659 2.554zm-.956-4.351c-.186-.208-.473-.342-.826-.342s-.65.135-.836.342c-.25.271-.315.566-.315 1.798 0 1.231.065 1.528.315 1.797.187.206.483.342.836.342s.641-.136.826-.342c.251-.27.324-.566.324-1.797.001-1.233-.073-1.528-.324-1.798zm-9.218 3.883h-2.767v-5.216l-.068-.07H17.99l-.069.07v6.262l.069.068h3.986l.068-.068v-.979l-.066-.067zm4.966-5.286h-1.299l-1.216 2.581-1.233-2.581h-1.333l-.045.045 1.962 3.73v2.557l.069.068h1.144l.069-.068v-2.557l1.951-3.707-.069-.068zm11.573 0l-.069.07v3.85l-2.618-3.92h-1.083l-.068.07v6.262l.068.068H35.9l.069-.068v-3.859l2.617 3.927h1.083l.067-.068v-6.262l-.067-.07h-1.152zm13.008.07l-.068-.069h-.928l-.065.066-2.36 6.284.051.051h1.276l.399-1.133h2.347l.392 1.133h1.276l.051-.05-2.371-6.282zm-1.334 4.147l.836-2.329.808 2.329h-1.644zm4.954-4.217l-.068.069v6.263l.068.068h1.152l.068-.068v-6.262l-.068-.07h-1.152zm-9.48 0l-.068.07v3.85l-2.617-3.92h-1.083l-.07.07v6.262l.07.068h1.152l.069-.068v-3.859l2.617 3.927h1.082l.07-.068v-6.262l-.07-.07h-1.152zm16.522 3.156c-.279-.251-.659-.413-1.263-.494l-.78-.107a1.15 1.15 0 0 1-.612-.251.602.602 0 0 1-.194-.458c0-.44.334-.808 1.02-.808.421 0 .899.052 1.308.401l.095-.005.722-.692v-.089c-.555-.498-1.201-.706-2.086-.706-1.429 0-2.301.8-2.301 1.942 0 .539.156.953.473 1.259.298.279.716.45 1.281.53l.798.107c.307.045.455.108.584.225.14.126.205.315.205.539 0 .512-.408.792-1.171.792-.589 0-1.137-.128-1.548-.498l-.097.005-.737.713v.097c.64.6 1.387.797 2.364.797 1.382 0 2.45-.701 2.45-1.941-.001-.568-.159-1.034-.511-1.358zm-40.608-5.14c-.442.441-.98.689-1.697.689-.715 0-1.263-.248-1.705-.689-.637-.636-.619-1.422-.619-2.509s-.019-1.873.619-2.51c.442-.442.99-.689 1.705-.689.716 0 1.256.247 1.697.689.635.637.626 1.423.626 2.51s.009 1.872-.626 2.509zm-.911-4.277a1.02 1.02 0 0 0-.787-.336c-.335 0-.618.133-.794.336-.239.265-.301.557-.301 1.767s.062 1.502.301 1.766c.177.204.458.336.794.336s.61-.132.787-.336c.238-.264.31-.556.31-1.766s-.071-1.501-.31-1.767zm30.748 4.483l-.49-.49c.398-.583.388-1.281.388-2.226 0-1.087.011-1.873-.625-2.51-.442-.442-.982-.689-1.696-.689-.715 0-1.265.247-1.705.689-.637.637-.618 1.423-.618 2.51s-.02 1.873.618 2.509c.442.441.99.689 1.705.689.494 0 .92-.114 1.271-.344l.508.508h.098l.547-.548v-.098zm-1.444-1.444l-.469-.468-.652.645.547.539a.697.697 0 0 1-.407.115c-.334 0-.618-.132-.794-.336-.238-.265-.301-.556-.301-1.766s.063-1.502.301-1.768c.177-.203.46-.336.794-.336.336 0 .609.133.788.336.238.266.309.558.309 1.768-.001.635-.02.997-.116 1.271zm-22.91.777h-2.51v-5.125l-.068-.069h-1.091l-.069.069v6.152l.069.069h3.669l.07-.069v-.957l-.07-.07zm4.218-5.194h-1.23l-1.158 2.535-1.175-2.535h-1.231l-.069.069 1.857 3.642v2.51l.069.069h1.08l.07-.069v-2.51l1.856-3.642-.069-.069zm5.337 0l-1.633 3.401-1.644-3.401h-1.143l-.069.069v6.153l.07.068h1.089l.07-.068v-3.598l1.211 2.386h.829l1.202-2.386v3.597l.069.069h1.09l.07-.068v-6.153l-.069-.069h-1.142zm8.918 0h-1.091l-.067.069v6.153l.067.068h1.091l.069-.069v-6.152l-.069-.069zm10.339 0l-.068.068v4.022c0 .724-.434 1.157-1.095 1.157-.663 0-1.088-.433-1.088-1.157V17.63l-.067-.068h-1.091l-.068.068v4.066c0 1.334 1.023 2.209 2.314 2.209 1.29 0 2.314-.875 2.314-2.209V17.63l-.067-.068h-1.084zm3.503 5.194v-1.527h2.412l.07-.069v-.958l-.07-.069h-2.412v-1.475h2.846l.069-.07v-.957l-.069-.069h-4.005l-.069.069v6.152l.069.069h4.005l.069-.069v-.957l-.069-.07h-2.846zm-17.933-5.194h-2.37l-.068.068v6.153l.068.068h1.091l.068-.068v-2.08h1.211c1.299 0 2.076-1.001 2.076-2.071s-.777-2.07-2.076-2.07zm-.062 3.039h-1.146v-1.943h1.146c.558 0 .911.463.911.976 0 .511-.354.967-.911.967z"/></svg>