<svg xmlns="http://www.w3.org/2000/svg" width="1000" height="143.584"><g fill="red"><g fill="#1c1c1c"><path d="M302.882 82.043v-.222c0-3.368-.531-6.26-1.593-8.678-1.061-2.417-2.636-4.522-4.723-6.316-2.088-1.793-4.651-3.331-7.691-4.613-3.04-1.282-6.5-2.435-10.38-3.461-3.296-.879-6.025-1.647-8.185-2.307-2.16-.66-3.862-1.355-5.107-2.087-1.245-.732-2.106-1.555-2.582-2.47-.476-.916-.714-1.996-.714-3.24v-.222c0-1.904.824-3.497 2.471-4.78 1.647-1.281 4.12-1.922 7.416-1.922 3.294 0 6.59.678 9.885 2.033 2.66 1.095 5.369 2.51 8.126 4.248 1.39.809 1.903 1.45 2.82.085l7.18-10.411c.7-1.077.38-1.453-.415-2.032a44.937 44.937 0 0 0-11.833-6.336c-4.724-1.684-9.906-2.526-15.545-2.526-3.954 0-7.579.55-10.874 1.648-3.296 1.099-6.134 2.673-8.514 4.724a21.652 21.652 0 0 0-5.548 7.305c-1.319 2.82-1.978 5.987-1.978 9.503v.217c0 3.809.604 6.995 1.812 9.558 1.208 2.564 2.91 4.706 5.109 6.427 2.198 1.721 4.872 3.168 8.02 4.34 3.15 1.172 6.665 2.235 10.545 3.187 3.222.804 5.84 1.573 7.855 2.305 2.013.732 3.588 1.464 4.723 2.197 1.136.733 1.905 1.52 2.309 2.362.403.842.605 1.812.605 2.912v.221c0 2.269-.97 4.044-2.912 5.326-1.941 1.281-4.67 1.922-8.185 1.922-4.394 0-8.44-.842-12.14-2.526-3.412-1.553-6.744-3.605-9.998-6.156-.448-.373-.936-.508-1.448.097L242.89 92.54c-.602.722-.794 1.14-.042 1.77 4.397 3.804 9.248 6.655 14.552 8.55 5.64 2.015 11.389 3.022 17.25 3.022 4.174 0 7.983-.53 11.425-1.594 3.442-1.062 6.407-2.6 8.897-4.614s4.43-4.504 5.822-7.47c1.391-2.966 2.087-6.353 2.087-10.161zm68.378-6.303v-.222c0-4.91-.751-9.254-2.255-13.03-1.503-3.774-3.501-6.963-5.993-9.566-2.493-2.603-5.352-4.564-8.578-5.883a26.209 26.209 0 0 0-10.006-1.978c-4.399 0-8.046.897-10.942 2.693a26.469 26.469 0 0 0-7.421 6.87v-7.447c0-.695-.291-1.019-1.14-1.019h-14.52c-.99 0-1.055.673-1.055 1.043v74.086c0 1.185.476 1.406 1.308 1.406h14.22c.855 0 1.187-.32 1.187-1.13V97.401c1.98 2.346 4.417 4.4 7.312 6.16 2.895 1.759 6.578 2.639 11.05 2.639 3.52 0 6.892-.66 10.118-1.98 3.226-1.32 6.067-3.281 8.522-5.883s4.435-5.791 5.938-9.567c1.504-3.777 2.255-8.12 2.255-13.03zm-16.715 0c0 2.491-.385 4.728-1.154 6.707-.77 1.98-1.815 3.685-3.135 5.113a13.89 13.89 0 0 1-4.563 3.299c-1.723.77-3.574 1.156-5.554 1.156-1.978 0-3.829-.386-5.552-1.156a13.287 13.287 0 0 1-4.509-3.299c-1.282-1.428-2.308-3.151-3.079-5.168-.77-2.017-1.156-4.234-1.156-6.653v-.221c0-2.419.386-4.636 1.156-6.651.771-2.016 1.797-3.739 3.08-5.168a13.259 13.259 0 0 1 4.508-3.3c1.723-.769 3.574-1.153 5.552-1.153 1.98 0 3.831.384 5.554 1.154a13.86 13.86 0 0 1 4.563 3.299c1.32 1.43 2.365 3.152 3.135 5.168.77 2.015 1.154 4.232 1.154 6.65zm86.408-.214v-.221c0-4.245-.805-8.217-2.416-11.914-1.61-3.698-3.826-6.92-6.644-9.664-2.818-2.745-6.168-4.904-10.049-6.478-3.88-1.574-8.09-2.361-12.628-2.361-4.613 0-8.86.805-12.74 2.415-3.88 1.61-7.247 3.806-10.102 6.588a30.386 30.386 0 0 0-6.7 9.72c-1.61 3.696-2.416 7.668-2.416 11.915v.217c0 4.248.805 8.22 2.416 11.918 1.611 3.697 3.826 6.919 6.644 9.663 2.819 2.745 6.168 4.904 10.05 6.478 3.88 1.574 8.09 2.361 12.627 2.361 4.614 0 8.86-.805 12.74-2.416 3.88-1.61 7.247-3.807 10.103-6.589a30.363 30.363 0 0 0 6.7-9.718c1.61-3.698 2.415-7.67 2.415-11.914zm-16.475.218c0 2.198-.347 4.267-1.042 6.206-.695 1.94-1.701 3.641-3.02 5.106-1.318 1.465-2.91 2.618-4.777 3.46-1.867.843-4.008 1.264-6.423 1.264-2.343 0-4.449-.44-6.315-1.32a15.747 15.747 0 0 1-8.072-8.73c-.733-1.94-1.1-4.008-1.1-6.204v-.222c0-2.196.349-4.264 1.045-6.203.696-1.94 1.703-3.641 3.021-5.106 1.318-1.464 2.91-2.618 4.777-3.46 1.867-.842 4.008-1.263 6.423-1.263 2.27 0 4.357.44 6.26 1.318a15.58 15.58 0 0 1 4.942 3.57 15.64 15.64 0 0 1 3.184 5.16c.731 1.941 1.097 4.01 1.097 6.206zm57.627-14.394V46.783c0-.73-.678-.924-1.42-.919-4.323.03-8.854 1.368-11.503 3.554-2.933 2.42-4.042 4.301-5.73 8.334V47.227c.044-.545-.305-1.355-1.465-1.355h-14.123c-.724 0-1.132.663-1.132 1.163v56.559c-.053.8.376 1.238 1.175 1.238h14.539c.43 0 1.006-.432 1.006-1.068V83.053c0-7.114 1.595-12.358 4.786-15.73 3.19-3.373 7.415-5.06 12.987-5.06.36 0 .88-.39.88-.913zm43.47 41.086V90.87c0-1.043-.716-1.538-1.31-1.46-.757 0-3.195 1.52-6.756 1.52-3.596 0-5.58-1.738-5.58-5.554V60.174h12.345c1.045 0 1.522-.338 1.522-1.385V47.12c0-1.12-.545-1.484-1.522-1.484h-12.346V31.88c0-.698-.57-1.09-1.182-1.09h-14.41c-.694 0-1.137.522-1.137 1.366v13.482h-5.673c-1.024 0-1.226.622-1.226 1.206v12.13c-.044.737.357 1.2 1.082 1.2h5.817v27.955c0 3.448.422 6.291 1.266 8.53.844 2.237 2.018 4.053 3.523 5.447 1.505 1.394 3.302 2.366 5.392 2.917 2.09.55 4.42.826 6.988.826 2.788 0 5.246-.311 7.374-.935 2.128-.624 4.073-1.45 5.833-2.477z" style="line-height:125%;-inkscape-font-specification:Gotham Bold" font-family="Gotham" font-size="40" font-weight="700" letter-spacing="0" word-spacing="0"/><path d="M109.53 93.772H88.366V75.21h27.107c15.349.007 15.495 18.562-5.943 18.562zm-21.164-45.34h26.228c14.955 0 14.218 16.224-1.99 16.224H88.366V48.432zm42.683 19.63c12.552-7.627 10.144-30.12-12.425-30.12H69.83c-3.784 0-6.924 3.114-6.924 6.902v53.244c0 3.782 3.14 6.913 6.924 6.913h42.496c33.794 0 38.014-30.068 18.724-36.94"/><path d="M216.719 37.953h-70.764c-3.088 0-6.284 2.512-6.284 5.61 0 3.088 3.196 5.594 6.284 5.594h23.504v48.93c0 3.765 3.14 6.914 6.926 6.914h11c3.809 0 6.919-3.15 6.919-6.913v-48.93h22.415c3.073 0 6.258-2.507 6.258-5.596 0-3.097-3.185-5.61-6.258-5.61"/></g><path fill="none" stroke="#1c1c1c" stroke-width="8.638" d="M71.417 4.318h445.332c39.999 0 67.619 33.001 67.619 67.172 0 36.252-28.82 67.768-67.62 67.768H71.418c-37.14 0-67.098-30.408-67.098-67.768 0-35.606 29.263-67.172 67.098-67.172z"/><g fill="#d83d34" transform="translate(612.993 27.08) scale(.69942)"><title>Layer 1</title><path d="M180.501.348c-20.607-.027-34.255 10.836-36.175 27.079a1600.065 1600.065 0 0 1-1.384 11.257h268.136s.504-3.957.896-7.133C413.99 15.188 407.038.35 381.75.35v.002S191.366.36 180.502.348zM16.861.353l-4.706 38.331h121.6l4.688-38.33H16.86h.003zm408.185 0l-4.696 38.331h131.824s.16-1.386.744-5.898C556.126 7.626 539.894.353 524.222.353h-99.176zm-6.512 52.926l-10.272 83.656 45.48-.016 10.28-83.624-45.488-.018v.002zm86.4 0l-10.288 83.656 45.48-.016 10.28-83.624-45.472-.018v.002zm-494.552.012L.092 136.939h121.592l4.48-36.288-76.138-.008 1.926-15.648h76.108l3.896-31.702H10.388l-.006-.002zm130.775 0c-3.336 21.832 7.592 31.701 23.08 31.701 8.424 0 61.52-.024 61.52-.024l-1.92 15.672-88.488.008-4.456 36.288s96.336.032 100.24 0c3.224-.232 25.76-.848 33.433-19.28 2.488-5.984 4.688-27.44 5.304-31.944 3.544-26.16-14.568-32.397-28.833-32.397-7.863 0-84.352-.024-99.88-.024zm141.552 0l-10.272 83.648h45.456l6.4-51.944h57.097c16.192 0 24.896-8.706 26.512-20.397a430.97 430.97 0 0 0 1.4-11.305H282.709v-.002z"/></g></g></svg>