<svg xmlns="http://www.w3.org/2000/svg" width="1000" height="364.248" viewBox="0 0 1000 364.248"><path d="M1000 244.621h-22.497V140.098l-25.611 5.884v-18.863l31.495-7.268H1000zM182.118 0C81.535 0 0 81.535 0 182.119s81.535 182.13 182.118 182.13 182.13-81.547 182.13-182.13S282.702 0 182.118 0zm-.084 22.456c88.292 0 159.864 71.571 159.864 159.863s-71.572 159.864-159.864 159.864S22.171 270.61 22.171 182.319 93.742 22.456 182.034 22.456z"/><path d="M91.354 119.866V243.86h50.453c22.93 0 40.551-14.317 40.551-36.992 0-19.999-15.61-27.628-15.61-27.628s11.98-7.651 11.98-24.665c0-19.763-15.603-34.71-38.617-34.71H91.354zm27.902 24.235h14.906c10.595 0 15.217 5.446 15.217 12.172 0 7.301-5.233 11.909-14.512 11.909h-15.611v-24.08zm0 48.924h14.906c10.595 0 15.217 5.447 15.217 12.172 0 7.302-5.233 11.91-14.512 11.91h-15.611v-24.082zm100.52 50.447v-95.171h-27.902v-28.667h86.764v28.667h-29.049v95.171zm180.141-29.74v26.715S416.265 247 435.824 247c28.272 0 46.552-12.6 46.552-39.6 0-37.066-50.764-36.263-50.764-53.318 0-6 4.963-8.89 15.543-8.89 13.877 0 28.736 6.34 28.736 6.34V124.4s-12.19-5.459-31.03-5.459c-22.644 0-45.345 10.813-45.345 36.963 0 39.36 50.47 35.106 50.47 54.59 0 7.7-5.31 10.584-16.66 10.584-16.393 0-33.41-7.345-33.41-7.345zm96.433-93.299V244.62h30.89v-40.49h5.979c33.27 0 46.644-18.918 46.644-42.706 0-29.075-20.99-40.991-43.022-40.991h-40.492zm30.89 25.046h5.427c8.463 0 17.13 2.5 17.13 16.195 0 12.758-6.765 17.41-17.13 17.41h-5.427v-33.605zm112.568-26.508c-28.878 0-49.457 20.83-49.457 64.054 0 36.65 12.581 63.697 49.122 63.697 33.926 0 49.106-29.36 49.106-64.276 0-45.959-21.032-63.475-48.77-63.475zm-.014 26.548c14.87 0 17.289 18.262 17.289 37.476 0 20.19-3.45 37.503-17.71 37.503-15.972 0-17.421-22.34-17.421-38.004 0-17.737 2.696-36.976 17.843-36.976h-.001zm146.992 14.639c0-26.08-17.903-39.726-42.917-39.726h-40.492V244.62h30.89v-43.83h5.004l23.8 43.83h32.978l-30.093-50.734c11.477-5.092 20.83-15.54 20.83-33.728zm-52.519-14.68h5.427c8.463 0 17.13 3.286 17.13 15.19 0 10.49-6.764 15.473-17.13 15.544h-5.427v-30.734zm91.417 99.143v-99.349h-28.595v-24.838h88.081v24.838h-28.595v99.349z"/></svg>