<svg xmlns="http://www.w3.org/2000/svg" width="1000" height="355.053" viewBox="0 0 1000 355.053"><path d="M177.52 0C79.478 0 0 79.477 0 177.521s79.477 177.532 177.52 177.532c98.045 0 177.532-79.488 177.532-177.532S275.565 0 177.521 0zm-.081 21.889c86.063 0 155.828 69.765 155.828 155.827 0 86.063-69.765 155.828-155.828 155.828S21.611 263.779 21.611 177.716c0-86.062 69.765-155.827 155.828-155.827z"/><path d="M89.047 116.84v120.864h49.18c22.353 0 39.528-13.956 39.528-36.058 0-19.495-15.217-26.93-15.217-26.93s11.678-7.459 11.678-24.044c0-19.264-15.21-33.834-37.641-33.834l-47.528.002zm27.198 23.623h14.53c10.328 0 14.834 5.309 14.834 11.865 0 7.117-5.102 11.608-14.147 11.608h-15.217v-23.473zm0 47.69h14.53c10.328 0 14.834 5.309 14.834 11.865 0 7.117-5.102 11.608-14.147 11.608h-15.217v-23.473zm97.984 49.173v-92.769H187.03v-27.943h84.574v27.943h-28.316v92.769zm175.591-28.99v26.042s15.937 6.387 35.002 6.387c27.558 0 45.377-12.282 45.377-38.602 0-36.13-49.483-35.347-49.483-51.97 0-5.85 4.838-8.665 15.15-8.665 13.527 0 28.011 6.18 28.011 6.18v-26.45s-11.88-5.32-30.247-5.32c-22.072 0-44.2 10.539-44.2 36.03 0 38.367 49.197 34.22 49.197 53.21 0 7.507-5.176 10.318-16.24 10.318-15.98 0-32.567-7.16-32.567-7.16zm93.999-90.944v121.054h30.11v-39.47h5.829c32.43 0 45.467-18.44 45.467-41.627 0-28.341-20.461-39.957-41.937-39.957h-39.47zm30.11 24.415h5.29c8.25 0 16.698 2.436 16.698 15.786 0 12.436-6.594 16.969-16.697 16.969h-5.29v-32.755zm109.728-25.839c-28.151 0-48.209 20.303-48.209 62.436 0 35.725 12.263 62.09 47.882 62.09 33.07 0 47.866-28.62 47.866-62.654 0-44.798-20.502-61.872-47.54-61.872h.001zm-.014 25.877c14.495 0 16.852 17.801 16.852 36.53 0 19.68-3.362 36.557-17.264 36.557-15.568 0-16.98-21.777-16.98-37.045 0-17.29 2.628-36.042 17.392-36.042zm143.281 14.27c0-25.423-17.451-38.724-41.834-38.724h-39.47v121.053h30.111V195.72h4.877l23.2 42.724h32.145l-29.334-49.453c11.188-4.964 20.305-15.147 20.305-32.876zm-51.193-14.31h5.29c8.25 0 16.698 3.203 16.698 14.806 0 10.226-6.594 15.083-16.698 15.153h-5.29v-29.958zm89.108 96.641v-96.842h-27.872v-24.21h85.856v24.21h-27.872v96.842zm193.478-91.853c0 6.282-1.682 11.78-5.048 16.491-3.253 4.6-7.628 8.47-13.125 11.61 5.945 2.58 10.713 6.227 14.303 10.939 3.701 4.712 5.553 10.377 5.553 16.996 0 12.115-3.814 21.482-11.443 28.101-7.516 6.507-18.062 9.76-31.636 9.76-5.497 0-10.713-.505-15.65-1.513-4.823-1.01-9.03-2.188-12.62-3.535v-19.687c4.937 1.795 9.76 3.253 14.472 4.375 4.712 1.01 9.648 1.514 14.809 1.514 5.833 0 10.601-1.514 14.302-4.543 3.815-3.03 5.722-7.797 5.722-14.304 0-5.945-1.907-10.433-5.722-13.462-3.813-3.03-8.918-4.543-15.312-4.543h-16.66v-18.174h16.155c5.834 0 10.602-1.514 14.304-4.543 3.814-3.141 5.72-7.516 5.72-13.126 0-4.711-1.513-8.245-4.543-10.6s-7.347-3.535-12.957-3.535c-3.926 0-8.189.505-12.789 1.515-4.487.898-8.75 2.02-12.789 3.365v-18.846c4.263-1.459 8.863-2.637 13.8-3.534a84.49 84.49 0 0 1 15.144-1.346c12.34 0 21.426 2.804 27.26 8.414 5.833 5.61 8.75 13.013 8.75 22.212v-.001z"/></svg>