<svg xmlns="http://www.w3.org/2000/svg" width="1000" height="355.057" viewBox="0 0 1000 355.057"><path d="M177.523 0C79.478 0 0 79.478 0 177.523s79.478 177.534 177.523 177.534 177.534-79.489 177.534-177.534S275.568 0 177.523 0zm-.082 21.889c86.064 0 155.83 69.765 155.83 155.83s-69.766 155.829-155.83 155.829-155.83-69.766-155.83-155.83 69.766-155.83 155.83-155.83z"/><path d="M89.049 116.84v120.866h49.18c22.353 0 39.528-13.955 39.528-36.059 0-19.494-15.217-26.93-15.217-26.93s11.678-7.458 11.678-24.043c0-19.265-15.209-33.835-37.642-33.835l-47.527.002zm27.198 23.625h14.53c10.327 0 14.834 5.308 14.834 11.864 0 7.118-5.102 11.608-14.147 11.608h-15.217v-23.472zm0 47.69h14.53c10.327 0 14.834 5.309 14.834 11.865 0 7.117-5.102 11.608-14.147 11.608h-15.217v-23.473zm97.984 49.173v-92.769h-27.198v-27.944h84.574v27.944h-28.316v92.769zm175.595-28.99v26.042s15.936 6.388 35.001 6.388c27.559 0 45.378-12.282 45.378-38.602 0-36.13-49.483-35.348-49.483-51.972 0-5.85 4.838-8.665 15.15-8.665 13.527 0 28.01 6.18 28.01 6.18v-26.45s-11.88-5.32-30.246-5.32c-22.073 0-44.2 10.539-44.2 36.03 0 38.368 49.196 34.22 49.196 53.212 0 7.506-5.175 10.318-16.24 10.318-15.979 0-32.567-7.161-32.567-7.161zm93.999-90.944v121.054h30.112v-39.47h5.828c32.43 0 45.467-18.44 45.467-41.627 0-28.342-20.461-39.957-41.937-39.957h-39.47zm30.112 24.414h5.29c8.249 0 16.697 2.437 16.697 15.787 0 12.436-6.594 16.969-16.697 16.969h-5.29v-32.756zm109.728-25.839c-28.151 0-48.21 20.304-48.21 62.437 0 35.726 12.264 62.09 47.884 62.09 33.068 0 47.866-28.619 47.866-62.654 0-44.799-20.502-61.873-47.54-61.873zm-.015 25.878c14.496 0 16.853 17.801 16.853 36.53 0 19.682-3.361 36.558-17.263 36.558-15.57 0-16.981-21.777-16.981-37.046 0-17.29 2.628-36.043 17.392-36.043zm143.284 14.27c0-25.423-17.453-38.724-41.834-38.724h-39.471v121.054h30.111v-42.725h4.878l23.198 42.725h32.147l-29.334-49.454c11.187-4.964 20.305-15.147 20.305-32.876zm-51.194-14.31h5.29c8.25 0 16.698 3.203 16.698 14.806 0 10.226-6.593 15.083-16.698 15.153h-5.29v-29.959zm89.11 96.641v-96.843h-27.873v-24.21h85.858v24.21h-27.873v96.843zm191.313-87.423c0 8.342-1.502 16.072-4.505 23.19-2.891 7.118-6.84 13.903-11.845 20.354-3.448 4.56-7.396 9.065-11.845 13.514a457.507 457.507 0 0 1-12.847 12.68H1000v17.684h-73.741v-15.182a467.088 467.088 0 0 0 18.518-17.852c6.118-6.117 11.123-11.679 15.016-16.684 4.004-5.004 7.396-10.51 10.177-16.516 2.892-6.117 4.338-12.346 4.338-18.686 0-5.672-1.446-10.01-4.338-13.013-2.78-3.114-7.007-4.671-12.68-4.671-4.56 0-9.287.667-14.18 2.002-4.784 1.223-9.288 2.891-13.514 5.005v-19.853c4.004-1.558 8.73-2.948 14.18-4.171 5.45-1.335 11.29-2.003 17.518-2.003 5.673 0 10.678.835 15.016 2.503 4.336 1.669 7.952 4.06 10.844 7.174 3.003 3.003 5.227 6.618 6.673 10.844 1.557 4.115 2.336 8.676 2.336 13.68z"/></svg>