<svg xmlns="http://www.w3.org/2000/svg" viewBox="0 0 168.61 145.79"><defs><style>.cls-1{fill:#fff}.cls-2{fill:#5d2e8f}</style></defs><g id="Layer_2" data-name="Layer 2"><g id="Layer_1-2" data-name="Layer 1"><path d="M0 0v145.79h128.41a40.1 40.1 0 0 0 29.41-12.23 38.7 38.7 0 0 0 10.79-26.36V0z" class="cls-1"/><path d="M0 0v145.79h128.41a40.1 40.1 0 0 0 29.41-12.23 38.7 38.7 0 0 0 10.79-26.36V0zm166.69 1.92v70.25H1.91V1.92z" class="cls-2"/><path d="M33.12 24a18.23 18.23 0 0 0-14.66 7.32V13.55a1.72 1.72 0 0 0-3.44 0v29.17a17.9 17.9 0 0 0 18.1 17.62c10.84 0 18.11-9.45 18.11-18.28 0-11.13-9.4-18.06-18.11-18.06zm0 32.68a14.65 14.65 0 1 1 14.52-14.61 14.62 14.62 0 0 1-14.57 14.65zm56.53-14.49a1.68 1.68 0 0 1-1.79 1.75H69a1.79 1.79 0 0 1 0-3.58h17a14.59 14.59 0 1 0-2 9.43 1.76 1.76 0 0 1 1.1-.79 1.74 1.74 0 0 1 1.33.27 1.78 1.78 0 0 1 .51 2.45 18.15 18.15 0 1 1 2.71-9.54zM99.79 57.4a3.49 3.49 0 0 1-3.47 2.92 3.46 3.46 0 0 1-3.48-2.92V27.07a3.46 3.46 0 0 1 3.48-3A3.5 3.5 0 0 1 99.79 27zm46.11 2a12.52 12.52 0 0 1-4.74 1 11.27 11.27 0 0 1-9-4.65c-1.3-2-13.48-21.22-14-22.07 0-.06-1.36-2.8-4-2.65-4.52.41-4.3 4.18-4.28 4.34v21.8a3.35 3.35 0 0 1-3.41 3.17 3.37 3.37 0 0 1-3.47-2.79V34.71c0-.08.16-7.09 6.85-9.83a11.25 11.25 0 0 1 13.86 4.46l14 22a4.36 4.36 0 0 0 5.84 1.48 4.1 4.1 0 0 0 2.23-3.43V27a3.48 3.48 0 0 1 3.36-3 3.43 3.43 0 0 1 3.44 2.9v22.4a10.65 10.65 0 0 1-6.68 10.06z" class="cls-2"/><path d="M24.53 104.94c-2.42 0-4.17-.52-5.19-1.55a2.78 2.78 0 0 1-.87-1.86 5.3 5.3 0 0 1 1.3-3.63 6.25 6.25 0 0 1 4.78-1.69 6 6 0 0 1 4.6 1.67 6 6 0 0 1 1.37 4.12 1.73 1.73 0 0 0 3.48 0c0-9.18-9.06-9.28-9.44-9.28-9.2 0-9.47 7.81-9.47 8.7 0 2.6 2 7 9.53 7 2.54 0 4.36.55 5.41 1.64a3.29 3.29 0 0 1 .94 2.39 4.78 4.78 0 0 1-1.26 3.39 6.78 6.78 0 0 1-5 1.67 6.16 6.16 0 0 1-4.67-1.7 5.41 5.41 0 0 1-1.39-3.77 1.75 1.75 0 0 0-3.5 0 8.48 8.48 0 0 0 2.39 6.18 9.79 9.79 0 0 0 7.11 2.8c7.32 0 9.92-4.61 9.92-8.57-.13-4.54-4.02-7.51-10.04-7.51zm118.15 0c-2.42 0-4.17-.52-5.19-1.55a2.78 2.78 0 0 1-.87-1.86 5.28 5.28 0 0 1 1.3-3.63 6.25 6.25 0 0 1 4.78-1.69 5.31 5.31 0 0 1 6 5.84 1.73 1.73 0 0 0 3.45 0c0-9.18-9.05-9.28-9.44-9.28-9.2 0-9.47 7.81-9.47 8.7 0 2.6 2 7 9.54 7 2.53 0 4.36.55 5.41 1.64a3.29 3.29 0 0 1 .95 2.39 4.77 4.77 0 0 1-1.26 3.39c-1.07 1.11-2.77 1.67-5 1.67a6.16 6.16 0 0 1-4.67-1.7 5.41 5.41 0 0 1-1.38-3.77 1.75 1.75 0 0 0-3.5 0 8.48 8.48 0 0 0 2.39 6.18 9.8 9.8 0 0 0 7.11 2.8c7.32 0 9.92-4.61 9.92-8.57-.16-4.59-4.05-7.56-10.06-7.56zM47.53 92.77a9.08 9.08 0 0 0-9.47 9.51v16.48a1.77 1.77 0 1 0 3.53 0v-7h5.92a9.5 9.5 0 0 0 0-19zm0 15.52h-5.92v-6c0-3.63 2.37-6.07 5.91-6.07a6 6 0 1 1 0 12.09zM73.9 92.77A14.15 14.15 0 1 0 88 106.92a14.17 14.17 0 0 0-14.1-14.15zm0 24.86a10.71 10.71 0 1 1 10.71-10.71 10.73 10.73 0 0 1-10.71 10.71zm29.9-6.42a9.55 9.55 0 0 0-3.5-18.44 9.14 9.14 0 0 0-9.53 9.57v16.42a1.78 1.78 0 0 0 3.55 0v-6.88H100l4.71 7.68a1.79 1.79 0 1 0 3.11-1.79zm-9.47-2.82v-6.06c0-3.65 2.39-6.11 5.95-6.11a6.08 6.08 0 1 1 0 12.16zm36.87-13.3a1.77 1.77 0 0 1-1.77 1.78h-6.14v21.88a1.78 1.78 0 0 1-3.56 0V96.87h-6.14a1.78 1.78 0 0 1 0-3.55h15.84a1.77 1.77 0 0 1 1.77 1.77z" class="cls-1"/></g></g></svg>