<svg xmlns="http://www.w3.org/2000/svg" width="200" height="200" viewBox="0 0 200 200"><path fill="#D8E200" d="M34.063 11.001h130.438v180.038H34.063z"/><path fill="#0B2341" d="M61.465 58.07c1.332-4.274 3.425-7.774 6.25-8.087 5.406-.604 11.708 8.47 12.813 19.13 1.02 9.859-1.29 20.653-6.696 21.255-3.29.367-6.343-.978-8.706-6.095 3.647 1 8.273-.465 8.273-.465 1.642-5.323 1.634-15.114 1.634-15.114-3.38-8.939-7.069-13.041-7.069-13.041s-3.713.841-6.499 2.417z"/><path fill="#0B2341" d="M65.79 78.786c-2.124.262-4.255-2.909-4.755-7.071-.504-4.161.819-7.739 2.946-7.992 2.124-.259 4.256 2.905 4.759 7.069.498 4.165-.824 7.741-2.95 7.994zM114.332 58.337c.442 3.893-2.293 7.405-6.12 7.843-3.821.441-7.296-2.362-7.733-6.256-.446-3.89 2.299-7.404 6.115-7.841 3.828-.438 7.29 2.363 7.738 6.254z"/><path fill="#0B2341" d="M127.054 56.935c-1.358-11.828-11.503-20.38-22.662-19.097-11.164 1.276-19.109 11.901-17.754 23.731 1.167 10.168 8.83 17.916 18.064 19.076 0 0-.178-2.042-.423-4.068a166.74 166.74 0 0 0-.509-4.012l-2.418.256s-2.788-2.658-4.961-5.75c-2.038-2.894-3.458-6.226-3.458-6.226s1.03-3.652 2.388-7.021c1.388-3.417 3.101-6.552 3.101-6.552s3.25-.771 6.611-1.155c3.593-.411 7.307-.439 7.307-.439s2.504 2.478 4.596 5.437c2.125 3.029 3.829 6.542 3.829 6.542s-.46 3.345-1.819 6.716c-1.386 3.417-3.672 6.854-3.672 6.854l-2.179.358s.291 1.92.434 3.887c.161 2.079.256 4.126.256 4.126 8.72-3.207 14.433-12.496 13.269-22.663zM122.988 39.229c-5.137-4.621-9.385-8.245-9.325-8.467.03-.105 1.296.439 3.287 1.472 1.154.587 4.169 2.243 7.453 5.145 5.302 4.669 8.085 9.754 8.02 9.956-.09.283-4.296-3.483-9.435-8.106z"/><g fill="#0B2341"><path d="M86.14 29.971c-2.768.971-5.129 2.172-7.271 3.442 2.887-.57 8.498-1.797 13.711-5.088-1.634.207-4.276.892-6.44 1.646zM104.949 28.748c-.195-.583-3.725-1.178-8.227-.893.902.156 1.87.438 2.52.846l-10 4.489-11.948 3.134s-.726-.052-1.495-.826c-3.103 2.365-5.079 4.494-5.02 5.001.11 1.018 8.258-.87 17.696-4.113 9.44-3.244 16.814-6.667 16.474-7.638z"/></g><path fill="#0B2341" d="M131.822 70.775c1.232-8.76 3.006-15.927 3.87-15.631.534.18 2.8 7.828 1.542 16.633-1.05 7.347-4.53 15.175-6.004 15.087-.91-.057-.637-7.332.592-16.089zM92.498 103.777c-4.395-.895-6.6-2.614-7.21-5.003-1.351-5.265 7.207-10.13 17.804-11.748 9.684-1.479 18.01 1.63 18.886 5.231.681 2.797-.624 5.047-4.329 7.492.629-3.728.164-6.058.164-6.058-5.446-1.45-13.979-2.252-13.979-2.252-9.18 3.478-13.217 6.615-13.217 6.615s.311 3.114 1.881 5.723z"/><path fill="#0B2341" d="M112.59 99.169c.305 1.87-2.805 3.931-6.945 4.593-4.145.665-7.741-.317-8.036-2.195-.307-1.876 2.808-3.938 6.944-4.595 4.133-.665 7.735.321 8.037 2.197z"/><g><path fill="#0B2341" d="M125.423 167.458s-12.286.222-18.313-6.672c-.013-.013-.021-.032-.04-.045l-.02-.031c-.006-.007-.013-.011-.028-.015a10.52 10.52 0 0 0-4.922-3.013c-.047-.012-.09-.031-.138-.035a3.209 3.209 0 0 0-.22-.055c-.119-.03-.224-.062-.341-.083-.009 0-.021-.005-.041-.006a9.69 9.69 0 0 0-1.548-.192c-.18-.017-.358-.017-.544-.017-.185 0-.378 0-.564.017-.054.002-.115.009-.183.014a14.49 14.49 0 0 0-.364.026 2.766 2.766 0 0 1-.218.028c-.108.012-.216.032-.322.046-.082.01-.161.029-.233.04-.101.017-.201.038-.301.056-.081.019-.155.041-.238.052-.096.026-.188.051-.291.074-.075.023-.151.048-.236.065-.087.028-.184.055-.272.083-.079.025-.165.058-.235.079-.085.036-.175.064-.261.097-.083.029-.164.064-.237.093-.084.031-.17.071-.26.111-.077.029-.148.063-.226.1l-.254.121-.225.111c-.084.044-.153.087-.235.132a3.695 3.695 0 0 0-.223.131c-.08.042-.149.091-.229.141-.074.043-.138.088-.216.132a2.47 2.47 0 0 1-.222.152c-.065.051-.135.101-.202.15a3.275 3.275 0 0 0-.216.161c-.072.055-.134.106-.203.161-.066.05-.139.109-.203.175a1.478 1.478 0 0 0-.19.165c-.073.059-.134.119-.201.182-.055.06-.115.112-.176.168-.067.071-.137.141-.199.211l-.141.139-.005.009c-.159.173-.3.347-.442.524-1.487 1.595-6.794 6.305-17.931 6.305h-18.49v.698h18.49s12.265-.22 18.3 6.659c.017.023.04.047.058.063 0 .011.015.019.021.027.011.002.013.008.016.017a10.526 10.526 0 0 0 4.936 3.012c.044.015.089.029.134.038.065.023.149.038.222.062.107.022.222.051.334.07.008.004.027.009.037.013a9.842 9.842 0 0 0 1.553.189 7.6 7.6 0 0 0 .544.015c.188 0 .374-.002.559-.015.056-.002.122-.003.18-.013.125-.01.252-.017.367-.028.074-.01.148-.018.22-.029.11-.014.223-.023.321-.043.084-.014.159-.026.233-.045.106-.017.202-.027.302-.058.08-.01.162-.034.229-.046.106-.03.203-.049.3-.075.083-.021.159-.044.225-.066.1-.028.19-.051.295-.083.068-.027.151-.046.227-.08.094-.034.184-.062.28-.098.065-.031.141-.055.218-.087.09-.035.182-.069.271-.111.063-.03.142-.063.216-.104.082-.041.169-.083.258-.12.075-.037.139-.07.214-.11.084-.043.171-.093.256-.141.065-.04.14-.078.2-.117.085-.049.167-.103.251-.15.061-.043.132-.085.199-.13.079-.05.159-.105.232-.158.067-.042.13-.089.191-.136.079-.058.156-.118.238-.177.059-.047.121-.094.172-.148.074-.06.156-.123.239-.189a2.39 2.39 0 0 1 .165-.143c.069-.073.147-.14.226-.217.053-.05.098-.092.146-.141.081-.082.167-.167.234-.241.04-.04.077-.078.118-.116v-.009c.152-.169.307-.345.446-.522 1.484-1.6 6.792-6.308 17.926-6.308h18.485v-.696h-18.485zm-26.154 9.986c-5.295 0-9.584-4.295-9.584-9.593 0-5.299 4.289-9.591 9.584-9.591a9.584 9.584 0 0 1 9.587 9.591c0 5.298-4.286 9.593-9.587 9.593z"/><g fill="#0B2341" fill-rule="evenodd" clip-rule="evenodd"><path d="M92.985 161.82c.324-.259 2.74 1.321 5.157 3.584.024.025.61-.345 1.501-1.279 1.402-1.479 1.363-2.599 1.764-2.501.081.019.207.061.229.156.24.729-.089 1.964-.528 3.061-.51 1.232-1.156 2.297-1.156 2.297s1.635 2.12 2.06 4.524c.228 1.302-.021 2.508-.285 2.955-.071.118-.169.168-.238.168-.31 0-.124-.911-1.096-2.71-.271-.508-.573-1.071-1.07-1.694-1.083-1.366-1.072-1.258-1.072-1.258s-.985 1.258-1.974 2.305c-.331.346-.65.611-.929.858-.363.319-.663.558-.951.485-.098-.028-.177-.159-.149-.273.018-.148 1.682-2.28 1.696-4.937 0-1.713-1.6-3.786-2.456-4.835-.4-.489-.768-.693-.503-.906zM102.741 173.012c0-.802.645-1.449 1.45-1.449.803 0 1.457.647 1.457 1.449 0 .804-.654 1.45-1.457 1.45-.805 0-1.45-.647-1.45-1.45z"/><path d="M97.215 163.377c0-.743.595-1.344 1.338-1.344.739 0 1.343.601 1.343 1.344a1.341 1.341 0 0 1-2.681 0z"/></g></g><g fill="#0B2341"><path d="M54.631 131.235v-13.731h3.583v10.614h4.339v3.117h-7.922zM68.339 131.235v-13.731h3.586v13.731h-3.586zM84.974 117.003c2.76 0 4.783 1.076 6.197 3.445l-2.869 1.574s-.929-1.896-3.365-1.896c-2.354 0-3.409 1.91-3.409 4.41 0 2.328 1.075 4.19 3.73 4.19 1.524 0 2.919-1.17 3.044-2.438h-3.148v-2.868h6.875v.751c0 4.073-1.883 7.564-7.024 7.564-4.374 0-7.169-3.348-7.169-7.342 0-4.212 3.142-7.39 7.138-7.39zM101.404 117.504v8.425c0 1.832 1.118 2.474 2.471 2.474 1.307 0 2.439-.692 2.439-2.291v-8.607h3.621v8.785c0 3.139-2.139 5.34-6.133 5.34-3.028 0-5.981-1.574-5.981-4.946v-9.179h3.583zM116.582 117.504h7.955v3.12h-4.372v2.226h4.126v3.044h-4.126v2.292h4.446v3.05h-8.029v-13.732zM138.301 117.504h5.559v13.731h-3.587v-10.787h-1.972v-2.944z"/></g><g fill="#E20613"><path d="M64.957 140.833c-3.228 0-5.396 2.033-5.396 5.062 0 3.125 2.023 5.065 5.283 5.065 3.319 0 5.463-2.002 5.463-5.103s-2.051-5.024-5.35-5.024m.02 8.355c-1.592 0-2.618-1.271-2.618-3.232 0-2.066 1.011-3.351 2.641-3.351 1.549 0 2.512 1.239 2.512 3.233-.001 2.031-.996 3.35-2.535 3.35M108.141 140.922c-2.91 0-4.095 1.201-4.095 4.145v.229c0 1.778-.049 3.735-.11 4.764l-.029.63h2.922l-.059-.575a47.677 47.677 0 0 1-.069-2.605v-.501l.017-1.431v-.51c.047-1.019.399-2.237 1.811-2.237.508 0 1.197.15 1.359.245l.146.087.296-1.918-.104-.027a8.516 8.516 0 0 0-2.085-.296M90.041 142.81l.272-1.888h-3.021v-.647c.062-1.396.635-2.104 1.696-2.104.66 0 .993 0 1.883.248l.13.035.264-1.88-.095-.03c-.717-.222-2.049-.337-2.56-.337-2.48 0-3.91 1.441-4.023 4.062-.003.005-.003 1.78-.003 1.78l.024 3.423-.045 4.224-.046 2.55v.584h2.82v-.601l-.068-2.478-.02-2.726v-2.194s.024-1.582.028-2.021h2.764zM96.372 140.833c-3.227 0-5.397 2.033-5.397 5.062 0 3.125 2.026 5.065 5.284 5.065 3.319 0 5.463-2.002 5.463-5.103s-2.049-5.024-5.35-5.024m.022 8.355c-1.592 0-2.624-1.271-2.624-3.232 0-2.066 1.016-3.351 2.646-3.351 1.548 0 2.51 1.239 2.51 3.233 0 2.031-.994 3.35-2.532 3.35M81.693 148.287v-1.612l.023-1.614c0-2.587-1.468-4.133-3.927-4.133h-1.615c-2.46 0-3.927 1.546-3.927 4.13l-.008.582c0 2.535 0 3.134-.112 4.923l-.008.126h2.908l-.026-.745-.066-2.047-.046-2.002v-.233c0-1.103.071-1.424.302-1.896.276-.575.972-.945 1.77-.945.797 0 1.491.37 1.771.945.227.473.301.794.301 1.896v.233l-.046 2.002-.064 2.047-.029.745h2.85l-.032-.667c.004.022-.019-1.735-.019-1.735M139.443 148.269l.005-.524v-.68l.043-2.027c0-1.75-.421-2.743-1.454-3.426-.653-.453-1.595-.701-2.647-.701-1.462 0-2.684.451-3.481 1.259-.685-.807-1.708-1.241-2.986-1.241h-1.613c-2.459 0-3.927 1.546-3.927 4.13l-.011.582c0 2.535 0 3.134-.11 4.923l-.008.126h2.905l-.025-.745-.065-2.047-.044-2.002v-.233c0-1.103.071-1.424.299-1.896.28-.575.974-.945 1.771-.945.796 0 1.492.37 1.774.945.224.473.296.794.296 1.896v.233l-.043 2.002-.069 2.047-.026.745h2.853l-.03-.667-.021-1.734.002-1.612.02-1.783c.036-.43.114-.676.243-.976.12-.266.285-.488.502-.678.314-.292.781-.459 1.283-.459.827 0 1.549.495 1.757 1.201.107.388.129.756.129 2.071 0 1.528-.021 2.569-.133 4.022l-.042.484-.013.13h2.922l-.029-.553c-.003.001-.027-1.867-.027-1.867M150.906 144.502v-.203c0-1.557-.492-2.406-1.698-2.933-.737-.32-1.514-.456-2.61-.456-1.273 0-2.677.197-3.751.529l-.098.027.283 1.908.14-.06c1.021-.427 2.051-.653 2.984-.653 1.544 0 2.174.561 2.174 1.929 0 0-.009.132-.012.228-2.168-.11-3.795.033-4.704.424-1.271.55-1.921 1.411-1.921 2.561 0 1.188.765 2.286 1.948 2.801 1.31.568 3.21.426 3.965.339.619-.073 2.67-.432 3.124-2.004.198-.692.181-3.511.176-4.437m-2.576 1.975v.239c0 .905-.026 1.224-.219 1.595-.115.22-.308.399-.558.524-.502.252-.903.298-1.42.298-.553 0-1.085-.192-1.397-.505-.383-.389-.333-.996-.088-1.37.369-.565 1.258-.798 3.064-.798l.618.017M120.737 144.299c0-1.557-.49-2.406-1.696-2.933-.735-.32-1.514-.456-2.607-.456-1.276 0-2.681.197-3.753.529l-.1.027.284 1.908.139-.06c1.02-.427 2.054-.653 2.983-.653 1.548 0 2.176.561 2.176 1.929 0 0-.005.132-.014.228-2.163-.11-3.795.033-4.702.424-1.274.55-1.92 1.411-1.92 2.561 0 1.188.765 2.286 1.947 2.801 1.309.568 3.211.426 3.968.339.614-.073 2.665-.428 3.12-2.004.199-.691.18-3.511.175-4.437v-.203zm-2.574 2.178v.239c0 .905-.028 1.224-.219 1.595a1.236 1.236 0 0 1-.563.524c-.499.252-.896.298-1.417.298-.55 0-1.086-.192-1.397-.505-.383-.389-.33-.996-.087-1.37.37-.565 1.258-.798 3.064-.798l.619.017M55.81 138.275c1.258-.04 2.527.232 3.882.829l.127.058v-2.34l-.038-.011c-1.361-.419-2.857-.608-4.443-.56-2.522.08-4.584.894-5.96 2.36-1.267 1.348-1.901 3.205-1.835 5.373.063 2.071.767 3.799 2.039 4.991 1.428 1.341 3.548 2.006 6.135 1.928.941-.03 1.799-.132 2.697-.318l.133-.03-.751-1.882-.098.02a8.612 8.612 0 0 1-1.507.202c-3.215.1-5.043-1.67-5.146-4.979-.104-3.385 1.723-5.547 4.765-5.641"/></g></svg>