<?xml version="1.0" standalone="no"?>
<!DOCTYPE svg PUBLIC "-//W3C//DTD SVG 20010904//EN"
 "http://www.w3.org/TR/2001/REC-SVG-20010904/DTD/svg10.dtd">
<svg version="1.0" xmlns="http://www.w3.org/2000/svg"
 width="900.000000pt" height="900.000000pt" viewBox="0 0 900.000000 900.000000"
 preserveAspectRatio="xMidYMid meet">
<metadata>
Created by potrace 1.11, written by Peter Selinger 2001-2013
</metadata>
<g transform="translate(0.000000,900.000000) scale(0.100000,-0.100000)"
fill="#000000" stroke="none">
<path d="M4375 7305 c28 -6 66 -20 85 -30 l35 -18 -55 -26 c-60 -28 -91 -42
-340 -154 -360 -162 -331 -151 -545 -207 -66 -17 -163 -43 -215 -57 -52 -13
-126 -33 -165 -43 -38 -10 -123 -32 -188 -50 -126 -33 -142 -33 -195 7 -38 28
-22 36 -152 -73 -47 -39 -119 -107 -161 -151 -74 -77 -99 -117 -84 -131 12
-12 160 -4 246 13 555 110 1523 440 2034 693 176 87 254 144 242 176 -15 39
-197 67 -432 65 -148 -1 -156 -2 -110 -14z"/>
<path d="M3848 7254 c-173 -39 -350 -97 -508 -167 -99 -43 -260 -125 -314
-159 l-31 -19 35 6 c75 14 309 75 395 103 189 62 401 156 530 237 37 23 38 24
13 23 -15 -1 -69 -12 -120 -24z"/>
<path d="M5620 7047 c48 -45 110 -102 270 -243 109 -97 461 -412 621 -555 210
-189 406 -357 432 -370 25 -14 22 -3 -25 75 -103 175 -242 350 -418 527 -152
153 -278 256 -460 378 -121 80 -427 241 -459 241 -10 0 6 -21 39 -53z"/>
<path d="M4885 6579 c-554 -61 -1033 -448 -1231 -996 -72 -198 -99 -357 -98
-573 1 -541 240 -1018 668 -1334 171 -127 436 -238 622 -262 l57 -7 -7 69
c-10 100 -33 303 -47 422 l-13 102 -36 -1 c-19 0 -60 -4 -90 -8 l-55 -9 -68
72 c-224 233 -399 481 -518 735 l-40 85 41 130 c83 264 186 519 303 751 33 66
61 121 61 122 2 3 150 34 261 53 177 31 346 49 565 59 l205 10 38 -37 c56 -54
240 -275 302 -362 64 -91 140 -216 224 -369 70 -127 71 -129 34 -281 -62 -261
-147 -464 -306 -731 l-69 -116 -79 -13 c-45 -7 -79 -17 -79 -24 0 -6 7 -69 15
-141 8 -71 18 -199 22 -282 5 -132 8 -153 22 -153 9 0 66 24 126 54 175 86
327 203 457 351 349 399 479 955 347 1490 -21 87 -24 96 -64 200 -198 511
-646 889 -1162 980 -111 19 -298 26 -408 14z"/>
<path d="M2125 5671 c-42 -11 -107 -45 -144 -77 -79 -66 -173 -218 -234 -379
-58 -150 -59 -141 12 -106 78 40 234 98 338 127 l83 23 44 -57 c148 -193 356
-581 463 -867 42 -111 -11 -791 -85 -1089 -20 -83 -24 -86 -203 -117 -100 -17
-148 -20 -249 -16 -69 3 -138 9 -154 13 l-29 7 38 -69 c104 -191 219 -303 364
-357 82 -30 267 -30 331 0 102 47 174 122 242 253 193 368 242 1072 113 1625
-29 126 -105 338 -165 460 -183 377 -434 616 -663 630 -39 2 -85 1 -102 -4z"/>
<path d="M5020 5518 c-195 -28 -377 -199 -419 -396 -51 -241 57 -474 274 -593
95 -53 282 -66 390 -29 180 62 314 219 346 404 51 296 -150 574 -444 615 -43
6 -79 10 -80 10 -1 -1 -31 -6 -67 -11z"/>
<path d="M7160 5251 c-114 -225 -275 -1137 -320 -1815 -18 -283 -7 -482 28
-494 8 -2 37 20 65 49 117 122 272 519 351 899 46 221 59 375 53 637 -6 257
-25 419 -72 596 -46 177 -67 202 -105 128z"/>
<path d="M1854 4653 c-62 -12 -128 -105 -170 -238 -26 -85 -27 -347 -1 -455
40 -163 111 -300 192 -366 189 -154 367 48 366 415 -1 232 -68 444 -179 564
-68 73 -128 96 -208 80z"/>
<path d="M4945 2950 c-339 -27 -740 -138 -1022 -281 -388 -197 -543 -439 -431
-676 41 -89 112 -155 224 -209 72 -35 242 -93 276 -94 3 0 -7 24 -22 53 -35
63 -82 207 -100 301 -15 82 -29 66 162 181 156 93 462 242 657 320 l144 57 81
-6 c254 -21 939 -135 965 -162 10 -10 5 -345 -6 -396 l-10 -48 29 18 c54 31
162 127 209 186 125 154 125 357 2 481 -117 118 -326 207 -599 255 -131 22
-408 33 -559 20z"/>
<path d="M4875 2190 c-355 -65 -571 -244 -472 -391 31 -46 132 -95 227 -110
109 -17 335 -6 435 21 172 45 284 101 359 176 206 205 -116 384 -549 304z"/>
</g>
</svg>
