<svg xmlns="http://www.w3.org/2000/svg" viewBox="0 0 129.93 76.34"><defs><style>.cls-1{fill:#5d2e8f}.cls-2{fill:#fff}</style></defs><g id="Layer_2" data-name="Layer 2"><g id="Layer_1-2" data-name="Layer 1"><path d="M129.9 1.41H99.58A9.39 9.39 0 0 0 90 10.63v27.15h30.35a9.39 9.39 0 0 0 9.61-9.22V1.41z" class="cls-1"/><path d="M103.85 8.12a5 5 0 0 1 .85-1.3 4 4 0 0 1 1.3-.9 4.07 4.07 0 0 1 1.71-.33 5.94 5.94 0 0 1 1.59.2c.49.13 1 .28 1.38.44l1.22.43a3.37 3.37 0 0 0 1.12.2 1.58 1.58 0 0 0 1-.32 2.2 2.2 0 0 0 .62-1.09H117a6.09 6.09 0 0 1-.43 1.5 4.56 4.56 0 0 1-.81 1.28 3.9 3.9 0 0 1-1.2.89 3.7 3.7 0 0 1-1.63.34 5.94 5.94 0 0 1-1.59-.2c-.49-.14-1-.27-1.4-.42l-1.26-.42a3.67 3.67 0 0 0-1.18-.2 1.68 1.68 0 0 0-1.74 1.38h-2.4a5.63 5.63 0 0 1 .45-1.46m15 21.27h-5.11V19.27a5.14 5.14 0 0 0-.12-1 3.17 3.17 0 0 0-.49-1.14 2.93 2.93 0 0 0-1.1-.94 4.39 4.39 0 0 0-2-.39 4 4 0 0 0-2.81 1 3.18 3.18 0 0 0-1.07 2.45v10.14H101V12.07h4.88v1.68a7.37 7.37 0 0 1 2.25-1.55 7 7 0 0 1 2.91-.57 8.91 8.91 0 0 1 3.19.55 7 7 0 0 1 2.46 1.55 6.91 6.91 0 0 1 1.57 2.4 8.41 8.41 0 0 1 .56 3.13zM0 0v76.34h67.24a21 21 0 0 0 15.4-6.41 20.26 20.26 0 0 0 5.65-13.8V0z" class="cls-2"/><path d="M0 0v76.34h67.24a21 21 0 0 0 15.4-6.41 20.26 20.26 0 0 0 5.65-13.8V0zm87.28 1v36.79H1V1z" class="cls-1"/><path d="M17.34 12.59a9.55 9.55 0 0 0-7.68 3.83V7.09a.9.9 0 0 0-1.8 0v15.28a9.37 9.37 0 0 0 9.48 9.23 9.66 9.66 0 0 0 9.49-9.6 9.48 9.48 0 0 0-9.49-9.41zm0 17.11a7.67 7.67 0 1 1 7.6-7.7 7.66 7.66 0 0 1-7.62 7.7zm29.63-7.61A.88.88 0 0 1 46 23h-9.89a.94.94 0 0 1 0-1.87H45a7.64 7.64 0 1 0-1 4.94.92.92 0 0 1 .6-.4.91.91 0 0 1 .7.14.93.93 0 0 1 .27 1.28 9.51 9.51 0 1 1 1.42-5zm5.31 8a1.83 1.83 0 0 1-1.82 1.53 1.81 1.81 0 0 1-1.82-1.53V14.17a1.81 1.81 0 0 1 1.82-1.54 1.83 1.83 0 0 1 1.82 1.53zm24.14 1a6.56 6.56 0 0 1-2.48.51 5.9 5.9 0 0 1-4.72-2.44c-.68-1-7.06-11.11-7.33-11.56a2.41 2.41 0 0 0-2.08-1.39 2.17 2.17 0 0 0-2.24 2.27v11.45a1.75 1.75 0 0 1-1.79 1.66 1.77 1.77 0 0 1-1.83-1.46v-12a5.86 5.86 0 0 1 10.84-2.81l7.3 11.51a2.28 2.28 0 0 0 3.06.78 2.15 2.15 0 0 0 1.17-1.8V14.13a1.82 1.82 0 0 1 1.8-1.54 1.8 1.8 0 0 1 1.8 1.52v11.73a5.58 5.58 0 0 1-3.53 5.24z" class="cls-1"/><path d="M12.85 54.95a3.75 3.75 0 0 1-2.72-.81 1.45 1.45 0 0 1-.46-1 2.78 2.78 0 0 1 .68-1.9 3.27 3.27 0 0 1 2.5-.88 3.13 3.13 0 0 1 2.41.88 3.15 3.15 0 0 1 .74 2.19.9.9 0 0 0 1.81 0c0-4.8-4.74-4.86-4.94-4.86-4.82 0-5 4.09-5 4.56 0 1.36 1.05 3.66 5 3.66a3.87 3.87 0 0 1 2.84.86 1.72 1.72 0 0 1 .49 1.25 2.5 2.5 0 0 1-.66 1.77 3.55 3.55 0 0 1-2.64.88 3.22 3.22 0 0 1-2.44-.89 2.83 2.83 0 0 1-.73-2 .92.92 0 0 0-1.83 0 4.44 4.44 0 0 0 1.25 3.24 5.13 5.13 0 0 0 3.72 1.47C16.67 63.39 18 61 18 58.9c0-2.4-2-3.95-5.15-3.95zm61.87 0a3.75 3.75 0 0 1-2.72-.81 1.46 1.46 0 0 1-.45-1 2.76 2.76 0 0 1 .68-1.9 3.27 3.27 0 0 1 2.5-.88 2.78 2.78 0 0 1 3.12 3.06.9.9 0 0 0 1.81 0c0-4.8-4.74-4.86-4.94-4.86-4.82 0-5 4.09-5 4.56 0 1.36 1.05 3.66 5 3.66a3.87 3.87 0 0 1 2.83.86 1.72 1.72 0 0 1 .5 1.25 2.5 2.5 0 0 1-.66 1.77 3.54 3.54 0 0 1-2.64.88 3.23 3.23 0 0 1-2.44-.89 2.83 2.83 0 0 1-.72-2 .92.92 0 0 0-1.83 0A4.44 4.44 0 0 0 71 61.92a5.13 5.13 0 0 0 3.72 1.47c3.83 0 5.19-2.42 5.19-4.49-.01-2.4-2.05-3.95-5.2-3.95zm-49.83-6.38a4.76 4.76 0 0 0-5 5v8.63a.92.92 0 1 0 1.85 0v-3.67h3.1a5 5 0 0 0 0-10zm0 8.13h-3.1v-3.15a3 3 0 0 1 3.09-3.18 3.16 3.16 0 1 1 0 6.33zm13.81-8.13A7.41 7.41 0 1 0 46.1 56a7.42 7.42 0 0 0-7.4-7.43zm0 13A5.61 5.61 0 1 1 44.3 56a5.62 5.62 0 0 1-5.6 5.59zm15.66-3.36a5 5 0 0 0-1.83-9.65 4.78 4.78 0 0 0-5 5v8.6a.93.93 0 0 0 1.86 0v-3.6h3l2.46 4a.94.94 0 1 0 1.63-.94zm-5-1.48v-3.15a3 3 0 0 1 3.11-3.2 3.18 3.18 0 1 1 0 6.37zm19.3-7a.93.93 0 0 1-.92.93h-3.18v11.52a.93.93 0 0 1-1.86 0V50.72h-3.22a.93.93 0 0 1 0-1.86h8.3a.93.93 0 0 1 .92.93z" class="cls-2"/></g></g></svg>