<?xml version="1.0" encoding="utf-8"?>
<!-- Generator: Adobe Illustrator 16.0.0, SVG Export Plug-In . SVG Version: 6.00 Build 0)  -->
<!DOCTYPE svg PUBLIC "-//W3C//DTD SVG 1.1//EN" "http://www.w3.org/Graphics/SVG/1.1/DTD/svg11.dtd">
<svg version="1.1" id="Calque_1" xmlns="http://www.w3.org/2000/svg" xmlns:xlink="http://www.w3.org/1999/xlink" x="0px" y="0px"
	 width="200px" height="200px" viewBox="0 0 200 200" enable-background="new 0 0 200 200" xml:space="preserve">
<g>
	<g>
		<g>
			<g>
				<rect x="34.063" y="11.001" fill="#D8E200" width="130.438" height="180.038"/>
			</g>
		</g>
	</g>
	<g>
		<g>
			<path fill="#0B2341" d="M61.465,58.07c1.332-4.274,3.425-7.774,6.25-8.087c5.406-0.604,11.708,8.47,12.813,19.13
				c1.02,9.859-1.29,20.653-6.696,21.255c-3.29,0.367-6.343-0.978-8.706-6.095c3.647,1,8.273-0.465,8.273-0.465
				c1.642-5.323,1.634-15.114,1.634-15.114c-3.38-8.939-7.069-13.041-7.069-13.041S64.251,56.494,61.465,58.07z"/>
		</g>
		<path fill="#0B2341" d="M65.79,78.786c-2.124,0.262-4.255-2.909-4.755-7.071c-0.504-4.161,0.819-7.739,2.946-7.992
			c2.124-0.259,4.256,2.905,4.759,7.069C69.238,74.957,67.916,78.533,65.79,78.786z"/>
		<path fill="#0B2341" d="M114.332,58.337c0.442,3.893-2.293,7.405-6.12,7.843c-3.821,0.441-7.296-2.362-7.733-6.256
			c-0.446-3.89,2.299-7.404,6.115-7.841C110.422,51.645,113.884,54.446,114.332,58.337z"/>
		<g>
			<path fill="#0B2341" d="M127.054,56.935c-1.358-11.828-11.503-20.38-22.662-19.097c-11.164,1.276-19.109,11.901-17.754,23.731
				c1.167,10.168,8.83,17.916,18.064,19.076c0,0-0.178-2.042-0.423-4.068c-0.228-2.02-0.509-4.012-0.509-4.012l-2.418,0.256
				c0,0-2.788-2.658-4.961-5.75c-2.038-2.894-3.458-6.226-3.458-6.226s1.03-3.652,2.388-7.021c1.388-3.417,3.101-6.552,3.101-6.552
				s3.25-0.771,6.611-1.155c3.593-0.411,7.307-0.439,7.307-0.439s2.504,2.478,4.596,5.437c2.125,3.029,3.829,6.542,3.829,6.542
				s-0.46,3.345-1.819,6.716c-1.386,3.417-3.672,6.854-3.672,6.854l-2.179,0.358c0,0,0.291,1.92,0.434,3.887
				c0.161,2.079,0.256,4.126,0.256,4.126C122.505,76.391,128.218,67.102,127.054,56.935z"/>
		</g>
		<path fill="#0B2341" d="M122.988,39.229c-5.137-4.621-9.385-8.245-9.325-8.467c0.03-0.105,1.296,0.439,3.287,1.472
			c1.154,0.587,4.169,2.243,7.453,5.145c5.302,4.669,8.085,9.754,8.02,9.956C132.333,47.618,128.127,43.852,122.988,39.229z"/>
		<g>
			<path fill="#0B2341" d="M86.14,29.971c-2.768,0.971-5.129,2.172-7.271,3.442c2.887-0.57,8.498-1.797,13.711-5.088
				C90.946,28.532,88.304,29.217,86.14,29.971z"/>
			<path fill="#0B2341" d="M104.949,28.748c-0.195-0.583-3.725-1.178-8.227-0.893c0.902,0.156,1.87,0.438,2.52,0.846l-10,4.489
				l-11.948,3.134c0,0-0.726-0.052-1.495-0.826c-3.103,2.365-5.079,4.494-5.02,5.001c0.11,1.018,8.258-0.87,17.696-4.113
				C97.915,33.142,105.289,29.719,104.949,28.748z"/>
		</g>
		<path fill="#0B2341" d="M131.822,70.775c1.232-8.76,3.006-15.927,3.87-15.631c0.534,0.18,2.8,7.828,1.542,16.633
			c-1.05,7.347-4.53,15.175-6.004,15.087C130.32,86.807,130.593,79.532,131.822,70.775z"/>
		<g>
			<path fill="#0B2341" d="M92.498,103.777c-4.395-0.895-6.6-2.614-7.21-5.003c-1.351-5.265,7.207-10.13,17.804-11.748
				c9.684-1.479,18.01,1.63,18.886,5.231c0.681,2.797-0.624,5.047-4.329,7.492c0.629-3.728,0.164-6.058,0.164-6.058
				c-5.446-1.45-13.979-2.252-13.979-2.252c-9.18,3.478-13.217,6.615-13.217,6.615S90.928,101.168,92.498,103.777z"/>
		</g>
		<path fill="#0B2341" d="M112.59,99.169c0.305,1.87-2.805,3.931-6.945,4.593c-4.145,0.665-7.741-0.317-8.036-2.195
			c-0.307-1.876,2.808-3.938,6.944-4.595C108.686,96.307,112.288,97.293,112.59,99.169z"/>
	</g>
	<g>
		<g>
			<path fill="#0B2341" d="M125.423,167.458c0,0-12.286,0.222-18.313-6.672c-0.013-0.013-0.021-0.032-0.04-0.045
				c-0.006-0.009-0.013-0.021-0.02-0.031c-0.006-0.007-0.013-0.011-0.028-0.015c-1.312-1.426-3.013-2.483-4.922-3.013
				c-0.047-0.012-0.09-0.031-0.138-0.035c-0.078-0.023-0.152-0.04-0.22-0.055c-0.119-0.03-0.224-0.062-0.341-0.083
				c-0.009,0-0.021-0.005-0.041-0.006c-0.499-0.104-1.013-0.168-1.548-0.192c-0.18-0.017-0.358-0.017-0.544-0.017
				c-0.185,0-0.378,0-0.564,0.017c-0.054,0.002-0.115,0.009-0.183,0.014c-0.126,0.007-0.239,0.016-0.364,0.026
				c-0.077,0.013-0.142,0.021-0.218,0.028c-0.108,0.012-0.216,0.032-0.322,0.046c-0.082,0.01-0.161,0.029-0.233,0.04
				c-0.101,0.017-0.201,0.038-0.301,0.056c-0.081,0.019-0.155,0.041-0.238,0.052c-0.096,0.026-0.188,0.051-0.291,0.074
				c-0.075,0.023-0.151,0.048-0.236,0.065c-0.087,0.028-0.184,0.055-0.272,0.083c-0.079,0.025-0.165,0.058-0.235,0.079
				c-0.085,0.036-0.175,0.064-0.261,0.097c-0.083,0.029-0.164,0.064-0.237,0.093c-0.084,0.031-0.17,0.071-0.26,0.111
				c-0.077,0.029-0.148,0.063-0.226,0.1c-0.083,0.04-0.173,0.083-0.254,0.121c-0.068,0.034-0.146,0.071-0.225,0.111
				c-0.084,0.044-0.153,0.087-0.235,0.132c-0.077,0.042-0.146,0.082-0.223,0.131c-0.08,0.042-0.149,0.091-0.229,0.141
				c-0.074,0.043-0.138,0.088-0.216,0.132c-0.064,0.051-0.148,0.106-0.222,0.152c-0.065,0.051-0.135,0.101-0.202,0.15
				c-0.077,0.052-0.146,0.105-0.216,0.161c-0.072,0.055-0.134,0.106-0.203,0.161c-0.066,0.05-0.139,0.109-0.203,0.175
				c-0.067,0.049-0.131,0.104-0.19,0.165c-0.073,0.059-0.134,0.119-0.201,0.182c-0.055,0.06-0.115,0.112-0.176,0.168
				c-0.067,0.071-0.137,0.141-0.199,0.211c-0.048,0.048-0.097,0.095-0.141,0.139l-0.005,0.009c-0.159,0.173-0.3,0.347-0.442,0.524
				c-1.487,1.595-6.794,6.305-17.931,6.305h-18.49v0.698h18.49c0,0,12.265-0.22,18.3,6.659c0.017,0.023,0.04,0.047,0.058,0.063
				c0,0.011,0.015,0.019,0.021,0.027c0.011,0.002,0.013,0.008,0.016,0.017c1.312,1.422,3.015,2.483,4.936,3.012
				c0.044,0.015,0.089,0.029,0.134,0.038c0.065,0.023,0.149,0.038,0.222,0.062c0.107,0.022,0.222,0.051,0.334,0.07
				c0.008,0.004,0.027,0.009,0.037,0.013c0.497,0.101,1.018,0.167,1.553,0.189c0.182,0.013,0.362,0.015,0.544,0.015
				c0.188,0,0.374-0.002,0.559-0.015c0.056-0.002,0.122-0.003,0.18-0.013c0.125-0.01,0.252-0.017,0.367-0.028
				c0.074-0.01,0.148-0.018,0.22-0.029c0.11-0.014,0.223-0.023,0.321-0.043c0.084-0.014,0.159-0.026,0.233-0.045
				c0.106-0.017,0.202-0.027,0.302-0.058c0.08-0.01,0.162-0.034,0.229-0.046c0.106-0.03,0.203-0.049,0.3-0.075
				c0.083-0.021,0.159-0.044,0.225-0.066c0.1-0.028,0.19-0.051,0.295-0.083c0.068-0.027,0.151-0.046,0.227-0.08
				c0.094-0.034,0.184-0.062,0.28-0.098c0.065-0.031,0.141-0.055,0.218-0.087c0.09-0.035,0.182-0.069,0.271-0.111
				c0.063-0.03,0.142-0.063,0.216-0.104c0.082-0.041,0.169-0.083,0.258-0.12c0.075-0.037,0.139-0.07,0.214-0.11
				c0.084-0.043,0.171-0.093,0.256-0.141c0.065-0.04,0.14-0.078,0.2-0.117c0.085-0.049,0.167-0.103,0.251-0.15
				c0.061-0.043,0.132-0.085,0.199-0.13c0.079-0.05,0.159-0.105,0.232-0.158c0.067-0.042,0.13-0.089,0.191-0.136
				c0.079-0.058,0.156-0.118,0.238-0.177c0.059-0.047,0.121-0.094,0.172-0.148c0.074-0.06,0.156-0.123,0.239-0.189
				c0.053-0.05,0.103-0.094,0.165-0.143c0.069-0.073,0.147-0.14,0.226-0.217c0.053-0.05,0.098-0.092,0.146-0.141
				c0.081-0.082,0.167-0.167,0.234-0.241c0.04-0.04,0.077-0.078,0.118-0.116c0,0,0-0.005,0-0.009
				c0.152-0.169,0.307-0.345,0.446-0.522c1.484-1.6,6.792-6.308,17.926-6.308h18.485v-0.696H125.423z M99.269,177.444
				c-5.295,0-9.584-4.295-9.584-9.593c0-5.299,4.289-9.591,9.584-9.591c5.301,0,9.587,4.292,9.587,9.591
				C108.856,173.149,104.57,177.444,99.269,177.444z"/>
		</g>
		<g>
			<path fill-rule="evenodd" clip-rule="evenodd" fill="#0B2341" d="M92.985,161.82c0.324-0.259,2.74,1.321,5.157,3.584
				c0.024,0.025,0.61-0.345,1.501-1.279c1.402-1.479,1.363-2.599,1.764-2.501c0.081,0.019,0.207,0.061,0.229,0.156
				c0.24,0.729-0.089,1.964-0.528,3.061c-0.51,1.232-1.156,2.297-1.156,2.297s1.635,2.12,2.06,4.524
				c0.228,1.302-0.021,2.508-0.285,2.955c-0.071,0.118-0.169,0.168-0.238,0.168c-0.31,0-0.124-0.911-1.096-2.71
				c-0.271-0.508-0.573-1.071-1.07-1.694c-1.083-1.366-1.072-1.258-1.072-1.258s-0.985,1.258-1.974,2.305
				c-0.331,0.346-0.65,0.611-0.929,0.858c-0.363,0.319-0.663,0.558-0.951,0.485c-0.098-0.028-0.177-0.159-0.149-0.273
				c0.018-0.148,1.682-2.28,1.696-4.937c0-1.713-1.6-3.786-2.456-4.835C93.088,162.237,92.72,162.033,92.985,161.82z"/>
			<path fill-rule="evenodd" clip-rule="evenodd" fill="#0B2341" d="M102.741,173.012c0-0.802,0.645-1.449,1.45-1.449
				c0.803,0,1.457,0.647,1.457,1.449c0,0.804-0.654,1.45-1.457,1.45C103.386,174.462,102.741,173.815,102.741,173.012z"/>
			<path fill-rule="evenodd" clip-rule="evenodd" fill="#0B2341" d="M97.215,163.377c0-0.743,0.595-1.344,1.338-1.344
				c0.739,0,1.343,0.601,1.343,1.344c0,0.738-0.604,1.336-1.343,1.336C97.81,164.713,97.215,164.115,97.215,163.377z"/>
		</g>
	</g>
	<g>
		<path fill="#0B2341" d="M54.631,131.235v-13.731h3.583v10.614h4.339v3.117H54.631z"/>
		<path fill="#0B2341" d="M68.339,131.235v-13.731h3.586v13.731H68.339z"/>
		<path fill="#0B2341" d="M84.974,117.003c2.76,0,4.783,1.076,6.197,3.445l-2.869,1.574c0,0-0.929-1.896-3.365-1.896
			c-2.354,0-3.409,1.91-3.409,4.41c0,2.328,1.075,4.19,3.73,4.19c1.524,0,2.919-1.17,3.044-2.438h-3.148v-2.868h6.875
			c0,0,0,0.469,0,0.751c0,4.073-1.883,7.564-7.024,7.564c-4.374,0-7.169-3.348-7.169-7.342
			C77.836,120.181,80.978,117.003,84.974,117.003z"/>
		<path fill="#0B2341" d="M101.404,117.504c0,0,0,5.651,0,8.425c0,1.832,1.118,2.474,2.471,2.474c1.307,0,2.439-0.692,2.439-2.291
			c0-2.781,0-5.803,0-8.607h3.621c0,0,0,5.702,0,8.785c0,3.139-2.139,5.34-6.133,5.34c-3.028,0-5.981-1.574-5.981-4.946
			c0-3.175,0-9.179,0-9.179H101.404z"/>
		<path fill="#0B2341" d="M116.582,117.504h7.955v3.12h-4.372v2.226h4.126v3.044h-4.126v2.292h4.446v3.05h-8.029V117.504z"/>
		<path fill="#0B2341" d="M138.301,117.504h5.559v13.731h-3.587v-10.787h-1.972V117.504z"/>
	</g>
	<g>
		<path fill="#E20613" d="M64.957,140.833c-3.228,0-5.396,2.033-5.396,5.062c0,3.125,2.023,5.065,5.283,5.065
			c3.319,0,5.463-2.002,5.463-5.103S68.256,140.833,64.957,140.833 M64.977,149.188c-1.592,0-2.618-1.271-2.618-3.232
			c0-2.066,1.011-3.351,2.641-3.351c1.549,0,2.512,1.239,2.512,3.233C67.511,147.869,66.516,149.188,64.977,149.188"/>
		<path fill="#E20613" d="M108.141,140.922c-2.91,0-4.095,1.201-4.095,4.145v0.229c0,1.778-0.049,3.735-0.11,4.764
			c0,0.003-0.029,0.63-0.029,0.63h2.922l-0.059-0.575c-0.049-0.904-0.069-1.758-0.069-2.605v-0.501l0.017-1.431v-0.51
			c0.047-1.019,0.399-2.237,1.811-2.237c0.508,0,1.197,0.15,1.359,0.245l0.146,0.087l0.296-1.918l-0.104-0.027
			C109.437,140.999,108.608,140.922,108.141,140.922"/>
		<path fill="#E20613" d="M90.041,142.81l0.272-1.888h-3.021v-0.647c0.062-1.396,0.635-2.104,1.696-2.104
			c0.66,0,0.993,0,1.883,0.248l0.13,0.035l0.264-1.88l-0.095-0.03c-0.717-0.222-2.049-0.337-2.56-0.337
			c-2.48,0-3.91,1.441-4.023,4.062c-0.003,0.005-0.003,1.78-0.003,1.78l0.024,3.423l-0.045,4.224l-0.046,2.55v0.584h2.82v-0.601
			l-0.068-2.478c0-0.002-0.02-2.726-0.02-2.726v-2.194c0,0,0.024-1.582,0.028-2.021H90.041z"/>
		<path fill="#E20613" d="M96.372,140.833c-3.227,0-5.397,2.033-5.397,5.062c0,3.125,2.026,5.065,5.284,5.065
			c3.319,0,5.463-2.002,5.463-5.103S99.673,140.833,96.372,140.833 M96.394,149.188c-1.592,0-2.624-1.271-2.624-3.232
			c0-2.066,1.016-3.351,2.646-3.351c1.548,0,2.51,1.239,2.51,3.233C98.926,147.869,97.932,149.188,96.394,149.188"/>
		<path fill="#E20613" d="M81.693,148.287v-1.612l0.023-1.614c0-2.587-1.468-4.133-3.927-4.133h-1.615
			c-2.46,0-3.927,1.546-3.927,4.13l-0.008,0.582c0,2.535,0,3.134-0.112,4.923l-0.008,0.126h2.908l-0.026-0.745l-0.066-2.047
			l-0.046-2.002v-0.233c0-1.103,0.071-1.424,0.302-1.896c0.276-0.575,0.972-0.945,1.77-0.945c0.797,0,1.491,0.37,1.771,0.945
			c0.227,0.473,0.301,0.794,0.301,1.896v0.233l-0.046,2.002l-0.064,2.047l-0.029,0.745h2.85l-0.032-0.667
			C81.716,150.044,81.693,148.287,81.693,148.287"/>
		<path fill="#E20613" d="M139.443,148.269l0.005-0.524v-0.68l0.043-2.027c0-1.75-0.421-2.743-1.454-3.426
			c-0.653-0.453-1.595-0.701-2.647-0.701c-1.462,0-2.684,0.451-3.481,1.259c-0.685-0.807-1.708-1.241-2.986-1.241h-1.613
			c-2.459,0-3.927,1.546-3.927,4.13l-0.011,0.582c0,2.535,0,3.134-0.11,4.923l-0.008,0.126h2.905l-0.025-0.745l-0.065-2.047
			l-0.044-2.002v-0.233c0-1.103,0.071-1.424,0.299-1.896c0.28-0.575,0.974-0.945,1.771-0.945c0.796,0,1.492,0.37,1.774,0.945
			c0.224,0.473,0.296,0.794,0.296,1.896v0.233l-0.043,2.002l-0.069,2.047l-0.026,0.745h2.853l-0.03-0.667
			c0,0.022-0.021-1.734-0.021-1.734l0.002-1.612l0.02-1.783c0.036-0.43,0.114-0.676,0.243-0.976c0.12-0.266,0.285-0.488,0.502-0.678
			c0.314-0.292,0.781-0.459,1.283-0.459c0.827,0,1.549,0.495,1.757,1.201c0.107,0.388,0.129,0.756,0.129,2.071
			c0,1.528-0.021,2.569-0.133,4.022c0-0.003-0.042,0.484-0.042,0.484l-0.013,0.13h2.922l-0.029-0.553
			C139.467,150.137,139.443,148.269,139.443,148.269"/>
		<path fill="#E20613" d="M150.906,144.502v-0.203c0-1.557-0.492-2.406-1.698-2.933c-0.737-0.32-1.514-0.456-2.61-0.456
			c-1.273,0-2.677,0.197-3.751,0.529l-0.098,0.027l0.283,1.908l0.14-0.06c1.021-0.427,2.051-0.653,2.984-0.653
			c1.544,0,2.174,0.561,2.174,1.929c0,0-0.009,0.132-0.012,0.228c-2.168-0.11-3.795,0.033-4.704,0.424
			c-1.271,0.55-1.921,1.411-1.921,2.561c0,1.188,0.765,2.286,1.948,2.801c1.31,0.568,3.21,0.426,3.965,0.339
			c0.619-0.073,2.67-0.432,3.124-2.004C150.928,148.247,150.911,145.428,150.906,144.502 M148.33,146.477v0.239
			c0,0.905-0.026,1.224-0.219,1.595c-0.115,0.22-0.308,0.399-0.558,0.524c-0.502,0.252-0.903,0.298-1.42,0.298
			c-0.553,0-1.085-0.192-1.397-0.505c-0.383-0.389-0.333-0.996-0.088-1.37c0.369-0.565,1.258-0.798,3.064-0.798
			C147.713,146.46,148.172,146.473,148.33,146.477"/>
		<path fill="#E20613" d="M120.737,144.299c0-1.557-0.49-2.406-1.696-2.933c-0.735-0.32-1.514-0.456-2.607-0.456
			c-1.276,0-2.681,0.197-3.753,0.529l-0.1,0.027l0.284,1.908l0.139-0.06c1.02-0.427,2.054-0.653,2.983-0.653
			c1.548,0,2.176,0.561,2.176,1.929c0,0-0.005,0.132-0.014,0.228c-2.163-0.11-3.795,0.033-4.702,0.424
			c-1.274,0.55-1.92,1.411-1.92,2.561c0,1.188,0.765,2.286,1.947,2.801c1.309,0.568,3.211,0.426,3.968,0.339
			c0.614-0.073,2.665-0.428,3.12-2.004c0.199-0.691,0.18-3.511,0.175-4.437V144.299z M118.163,146.477v0.239
			c0,0.905-0.028,1.224-0.219,1.595c-0.112,0.216-0.309,0.399-0.563,0.524c-0.499,0.252-0.896,0.298-1.417,0.298
			c-0.55,0-1.086-0.192-1.397-0.505c-0.383-0.389-0.33-0.996-0.087-1.37c0.37-0.565,1.258-0.798,3.064-0.798
			C117.545,146.46,118.004,146.473,118.163,146.477"/>
		<path fill="#E20613" d="M55.81,138.275c1.258-0.04,2.527,0.232,3.882,0.829l0.127,0.058v-2.34l-0.038-0.011
			c-1.361-0.419-2.857-0.608-4.443-0.56c-2.522,0.08-4.584,0.894-5.96,2.36c-1.267,1.348-1.901,3.205-1.835,5.373
			c0.063,2.071,0.767,3.799,2.039,4.991c1.428,1.341,3.548,2.006,6.135,1.928c0.941-0.03,1.799-0.132,2.697-0.318l0.133-0.03
			l-0.751-1.882l-0.098,0.02c-0.546,0.119-1.072,0.188-1.507,0.202c-3.215,0.1-5.043-1.67-5.146-4.979
			C50.941,140.531,52.768,138.369,55.81,138.275"/>
	</g>
</g>
</svg>
